<?xml version="1.0" encoding="UTF-8" standalone="no"?>
<!-- Created with Inkscape (http://www.inkscape.org/) -->

<svg
   xmlns:dc="http://purl.org/dc/elements/1.1/"
   xmlns:cc="http://creativecommons.org/ns#"
   xmlns:rdf="http://www.w3.org/1999/02/22-rdf-syntax-ns#"
   xmlns:svg="http://www.w3.org/2000/svg"
   xmlns="http://www.w3.org/2000/svg"
   xmlns:sodipodi="http://sodipodi.sourceforge.net/DTD/sodipodi-0.dtd"
   xmlns:inkscape="http://www.inkscape.org/namespaces/inkscape"
   width="1536"
   height="512"
   viewBox="0 0 406.39999 135.46667"
   version="1.1"
   id="svg8"
   inkscape:version="0.92.1 r15371"
   sodipodi:docname="contact-nospam.svg">
  <defs
     id="defs2" />
  <sodipodi:namedview
     id="base"
     pagecolor="#ffffff"
     bordercolor="#666666"
     borderopacity="1.0"
     inkscape:pageopacity="0.0"
     inkscape:pageshadow="2"
     inkscape:zoom="0.54"
     inkscape:cx="-48.09455"
     inkscape:cy="318.30688"
     inkscape:document-units="mm"
     inkscape:current-layer="layer1"
     showgrid="false"
     units="px"
     inkscape:window-width="1920"
     inkscape:window-height="1016"
     inkscape:window-x="0"
     inkscape:window-y="27"
     inkscape:window-maximized="1" />
  <metadata
     id="metadata5">
    <rdf:RDF>
      <cc:Work
         rdf:about="">
        <dc:format>image/svg+xml</dc:format>
        <dc:type
           rdf:resource="http://purl.org/dc/dcmitype/StillImage" />
        <dc:title />
      </cc:Work>
    </rdf:RDF>
  </metadata>
  <g
     inkscape:label="Layer 1"
     inkscape:groupmode="layer"
     id="layer1"
     transform="translate(0,-161.53332)">
    <text
       xml:space="preserve"
       style="font-style:normal;font-variant:normal;font-weight:normal;font-stretch:normal;font-size:22.57777786px;line-height:125%;font-family:'URW Gothic L';-inkscape-font-specification:'URW Gothic L';letter-spacing:0px;word-spacing:0px;fill:#000000;fill-opacity:1;stroke:none;stroke-width:0.26458332px;stroke-linecap:butt;stroke-linejoin:miter;stroke-opacity:1"
       x="58.390808"
       y="192.53519"
       id="text4487"><tspan
         sodipodi:role="line"
         id="tspan4485"
         x="58.390808"
         y="213.50818"
         style="stroke-width:0.26458332px" /></text>
    <g
       aria-label="Toon Macharis phone: +32 478 668 298 email address: Toon@Tango.Tips"
       style="font-style:normal;font-variant:normal;font-weight:normal;font-stretch:normal;font-size:22.57777786px;line-height:125%;font-family:'URW Gothic L';-inkscape-font-specification:'URW Gothic L';letter-spacing:0px;word-spacing:0px;fill:#d80027;fill-opacity:1;stroke:none;stroke-width:0.26458332px;stroke-linecap:butt;stroke-linejoin:miter;stroke-opacity:1"
       id="text4495">
      <path
         d="m 32.252883,206.95981 h 1.670755 v -15.17227 h 3.815645 v -1.51271 h -9.302045 v 1.51271 h 3.815645 z"
         style="stroke-width:0.26458332px;fill:#d80027;fill-opacity:1"
         id="path4501" />
      <path
         d="m 45.320477,194.31625 c -3.6576,0 -6.479822,2.77707 -6.479822,6.38951 0,3.79307 2.777067,6.54756 6.615289,6.54756 3.612444,0 6.276622,-2.73191 6.276622,-6.43467 0,-3.77049 -2.709333,-6.5024 -6.412089,-6.5024 z m 0,1.53529 c 2.709334,0 4.718756,2.12231 4.718756,4.98969 0,2.82222 -1.941689,4.8768 -4.628445,4.8768 -2.8448,0 -4.8768,-2.07715 -4.8768,-4.96711 0,-2.79965 2.054578,-4.89938 4.786489,-4.89938 z"
         style="stroke-width:0.26458332px;fill:#d80027;fill-opacity:1"
         id="path4503" />
      <path
         d="m 60.093048,194.31625 c -3.6576,0 -6.479822,2.77707 -6.479822,6.38951 0,3.79307 2.777066,6.54756 6.615289,6.54756 3.612444,0 6.276622,-2.73191 6.276622,-6.43467 0,-3.77049 -2.709334,-6.5024 -6.412089,-6.5024 z m 0,1.53529 c 2.709333,0 4.718755,2.12231 4.718755,4.98969 0,2.82222 -1.941688,4.8768 -4.628444,4.8768 -2.8448,0 -4.8768,-2.07715 -4.8768,-4.96711 0,-2.79965 2.054578,-4.89938 4.786489,-4.89938 z"
         style="stroke-width:0.26458332px;fill:#d80027;fill-opacity:1"
         id="path4505" />
      <path
         d="m 68.859927,206.95981 h 1.670755 v -6.79591 c 0,-1.37725 0.180622,-2.09974 0.654756,-2.79965 0.654755,-0.94826 1.806222,-1.51271 3.115733,-1.51271 1.2192,0 2.325511,0.49671 3.002845,1.33209 0.587022,0.76764 0.8128,1.67076 0.8128,3.29636 v 6.47982 h 1.670755 v -6.47982 c 0,-2.07716 -0.293511,-3.18347 -1.083733,-4.24463 -0.970845,-1.2192 -2.460978,-1.91911 -4.199467,-1.91911 -1.6256,0 -2.935111,0.63218 -3.973689,1.89654 v -1.60303 h -1.670755 z"
         style="stroke-width:0.26458332px;fill:#d80027;fill-opacity:1"
         id="path4507" />
      <path
         d="m 89.173579,206.95981 h 1.670756 v -14.85618 l 6.254044,14.85618 h 1.444978 l 6.276623,-14.85618 v 14.85618 h 1.67076 v -16.68498 h -2.59645 l -6.050844,14.20142 -6.073422,-14.20142 h -2.596445 z"
         style="stroke-width:0.26458332px;fill:#d80027;fill-opacity:1"
         id="path4509" />
      <path
         d="m 122.22568,194.60976 h -1.67075 v 2.19005 c -1.2192,-1.71591 -2.73192,-2.48356 -4.8768,-2.48356 -3.70276,0 -6.5024,2.79965 -6.5024,6.5024 0,3.68018 2.82222,6.43467 6.61528,6.43467 2.09974,0 3.4544,-0.69991 4.76392,-2.46098 v 2.16747 h 1.67075 z m -6.5024,1.24178 c 2.70933,0 4.83165,2.12231 4.83165,4.8768 0,2.79965 -2.07716,4.98969 -4.74134,4.98969 -2.79964,0 -4.94453,-2.19004 -4.94453,-5.01227 0,-2.68675 2.16747,-4.85422 4.85422,-4.85422 z"
         style="stroke-width:0.26458332px;fill:#d80027;fill-opacity:1"
         id="path4511" />
      <path
         d="m 135.49224,203.32479 c -1.28693,1.71591 -2.48355,2.39324 -4.22204,2.39324 -2.77707,0 -4.96711,-2.19004 -4.96711,-4.92196 0,-2.77706 2.14489,-4.94453 4.89938,-4.94453 1.8288,0 3.34151,0.88053 4.28977,2.50613 h 1.87396 c -0.99342,-2.48355 -3.36409,-4.04142 -6.14116,-4.04142 -3.70275,0 -6.61529,2.8448 -6.61529,6.43467 0,3.68018 2.93512,6.5024 6.72818,6.5024 1.53529,0 2.95769,-0.49671 4.10916,-1.39982 0.79022,-0.63218 1.26435,-1.24178 1.94169,-2.52871 z"
         style="stroke-width:0.26458332px;fill:#d80027;fill-opacity:1"
         id="path4513" />
      <path
         d="m 139.68006,206.95981 h 1.67076 v -6.77334 c 0,-1.33208 0.18062,-2.12231 0.67733,-2.79964 0.67734,-0.97084 1.8288,-1.53529 3.09316,-1.53529 1.19662,0 2.32551,0.51929 2.98026,1.35467 0.58703,0.72249 0.83538,1.67075 0.83538,3.11573 v 6.63787 h 1.67076 v -6.63787 c 0,-1.85138 -0.33867,-3.11573 -1.06116,-4.08658 -0.92569,-1.2192 -2.48355,-1.91911 -4.2672,-1.91911 -1.69333,0 -3.09315,0.67734 -3.92853,1.89654 v -5.93796 h -1.67076 z"
         style="stroke-width:0.26458332px;fill:#d80027;fill-opacity:1"
         id="path4515" />
      <path
         d="m 166.01422,194.60976 h -1.67075 v 2.19005 c -1.2192,-1.71591 -2.73191,-2.48356 -4.8768,-2.48356 -3.70276,0 -6.5024,2.79965 -6.5024,6.5024 0,3.68018 2.82222,6.43467 6.61529,6.43467 2.09973,0 3.4544,-0.69991 4.76391,-2.46098 v 2.16747 h 1.67075 z m -6.5024,1.24178 c 2.70934,0 4.83165,2.12231 4.83165,4.8768 0,2.79965 -2.07716,4.98969 -4.74133,4.98969 -2.79965,0 -4.94454,-2.19004 -4.94454,-5.01227 0,-2.68675 2.16747,-4.85422 4.85422,-4.85422 z"
         style="stroke-width:0.26458332px;fill:#d80027;fill-opacity:1"
         id="path4517" />
      <path
         d="m 168.87243,206.95981 h 1.67076 v -7.20231 c 0,-2.30294 1.17404,-3.56729 3.49955,-3.79307 v -1.64818 c -1.78364,0.0903 -2.8448,0.69991 -3.49955,2.05458 v -1.76107 h -1.67076 z"
         style="stroke-width:0.26458332px;fill:#d80027;fill-opacity:1"
         id="path4519" />
      <path
         d="m 175.6634,206.95981 h 1.67076 v -12.35005 h -1.67076 z m 0,-13.84018 h 1.67076 v -2.8448 h -1.67076 z"
         style="stroke-width:0.26458332px;fill:#d80027;fill-opacity:1"
         id="path4521" />
      <path
         d="m 179.14531,203.32479 c 0.0226,2.39324 1.60302,3.92853 3.97369,3.92853 2.21262,0 3.77049,-1.58044 3.77049,-3.83822 0,-1.51271 -0.69991,-2.55129 -2.14489,-3.16089 -1.87396,-0.76765 -1.96427,-0.8128 -2.32551,-0.99342 -0.76765,-0.38383 -1.12889,-0.90312 -1.12889,-1.6256 0,-0.99343 0.79022,-1.78365 1.78364,-1.78365 1.08374,0 1.71592,0.63218 1.80623,1.80622 h 1.69333 c -0.0677,-1.98684 -1.49013,-3.34151 -3.47698,-3.34151 -2.00942,0 -3.49955,1.46756 -3.49955,3.47698 0,0.88053 0.31609,1.64818 0.92569,2.21262 0.51928,0.47414 0.54186,0.47414 2.28035,1.19662 0.74507,0.29352 1.28693,0.56445 1.60302,0.76765 0.49671,0.33867 0.79023,0.92569 0.79023,1.60302 0,1.24178 -0.88054,2.14489 -2.07716,2.14489 -1.37724,0 -2.2352,-0.88053 -2.32551,-2.39324 z"
         style="stroke-width:0.26458332px;fill:#d80027;fill-opacity:1"
         id="path4523" />
      <path
         d="m 29.701594,222.83199 v 16.68497 h 1.670755 v -6.45724 c 1.083734,1.58044 2.754489,2.41582 4.809067,2.41582 3.680178,0 6.547556,-2.82222 6.547556,-6.43466 0,-3.68018 -2.822223,-6.5024 -6.5024,-6.5024 -2.099734,0 -3.815645,0.85795 -4.854223,2.41582 v -2.12231 z m 6.457244,1.24177 c 2.777067,0 4.8768,2.12232 4.8768,4.96712 0,2.77706 -2.099733,4.89937 -4.854222,4.89937 -2.822222,0 -4.921955,-2.14489 -4.921955,-4.98969 0,-2.73191 2.167466,-4.8768 4.899377,-4.8768 z"
         style="stroke-width:0.26458332px;fill:#d80027;fill-opacity:1"
         id="path4525" />
      <path
         d="m 45.091525,235.18203 h 1.670755 v -6.77333 c 0,-1.33209 0.180622,-2.12231 0.677334,-2.79965 0.677333,-0.97084 1.8288,-1.53529 3.093155,-1.53529 1.196622,0 2.325511,0.51929 2.980267,1.35467 0.587022,0.72249 0.835378,1.67076 0.835378,3.11573 v 6.63787 h 1.670755 v -6.63787 c 0,-1.85137 -0.338667,-3.11573 -1.061155,-4.08657 -0.925689,-1.2192 -2.483556,-1.91911 -4.2672,-1.91911 -1.693334,0 -3.093156,0.67733 -3.928534,1.89653 v -5.93796 h -1.670755 z"
         style="stroke-width:0.26458332px;fill:#d80027;fill-opacity:1"
         id="path4527" />
      <path
         d="m 64.855547,222.53848 c -3.6576,0 -6.479823,2.77706 -6.479823,6.38951 0,3.79306 2.777067,6.54755 6.615289,6.54755 3.612445,0 6.276623,-2.73191 6.276623,-6.43466 0,-3.77049 -2.709334,-6.5024 -6.412089,-6.5024 z m 0,1.53528 c 2.709333,0 4.718755,2.12232 4.718755,4.98969 0,2.82223 -1.941689,4.8768 -4.628444,4.8768 -2.8448,0 -4.8768,-2.07715 -4.8768,-4.96711 0,-2.79964 2.054578,-4.89938 4.786489,-4.89938 z"
         style="stroke-width:0.26458332px;fill:#d80027;fill-opacity:1"
         id="path4529" />
      <path
         d="m 73.622427,235.18203 h 1.670756 v -6.79591 c 0,-1.37724 0.180622,-2.09973 0.654756,-2.79964 0.654755,-0.94827 1.806222,-1.51272 3.115733,-1.51272 1.2192,0 2.325511,0.49672 3.002844,1.33209 0.587023,0.76765 0.8128,1.67076 0.8128,3.29636 v 6.47982 h 1.670756 v -6.47982 c 0,-2.07716 -0.293511,-3.18347 -1.083733,-4.24462 -0.970845,-1.2192 -2.460978,-1.91911 -4.199467,-1.91911 -1.6256,0 -2.935111,0.63217 -3.973689,1.89653 v -1.60302 h -1.670756 z"
         style="stroke-width:0.26458332px;fill:#d80027;fill-opacity:1"
         id="path4531" />
      <path
         d="m 99.753385,229.56016 c 0,-1.69333 -0.225778,-2.73191 -0.835378,-3.81564 -1.106311,-1.96427 -3.2512,-3.20604 -5.599289,-3.20604 -3.589867,0 -6.412089,2.82222 -6.412089,6.41208 0,3.6576 2.867378,6.52498 6.524978,6.52498 1.580445,0 3.070578,-0.58702 4.199467,-1.64818 0.880533,-0.83537 1.467555,-1.69333 1.806222,-2.70933 h -1.738489 c -0.699911,1.69333 -2.4384,2.82222 -4.312356,2.82222 -2.528711,0 -4.6736,-1.94169 -4.809066,-4.38009 z M 88.62254,228.04745 c 0.451556,-2.37066 2.325511,-3.97369 4.6736,-3.97369 2.393245,0 4.222045,1.51272 4.786489,3.97369 z"
         style="stroke-width:0.26458332px;fill:#d80027;fill-opacity:1"
         id="path4533" />
      <path
         d="m 102.92309,235.18203 h 1.67076 v -2.8448 h -1.67076 z m 0,-8.60213 h 1.67076 v -2.8448 h -1.67076 z"
         style="stroke-width:0.26458332px;fill:#d80027;fill-opacity:1"
         id="path4535" />
      <path
         d="m 119.14946,227.48301 h -4.83165 v 1.67075 h 4.83165 v 4.92196 h 1.73849 v -4.92196 h 4.80906 v -1.67075 h -4.80906 v -4.8768 h -1.73849 z"
         style="stroke-width:0.26458332px;fill:#d80027;fill-opacity:1"
         id="path4537" />
      <path
         d="m 130.33604,222.65136 c 0.0226,-1.85137 0.94827,-2.93511 2.57387,-2.93511 1.49013,0 2.52871,1.08374 2.52871,2.6416 0,1.58045 -1.10631,2.61903 -2.8448,2.61903 -0.0677,0 -0.22578,0 -0.42898,-0.0226 l -0.38382,-0.0226 v 1.49013 c 1.10631,0.0226 1.49013,0.0452 1.94169,0.13547 1.67075,0.4064 2.82222,1.89653 2.82222,3.6576 0,2.12231 -1.58045,3.74791 -3.61245,3.74791 -1.26435,0 -2.34809,-0.58702 -3.048,-1.6256 -0.4064,-0.6096 -0.56444,-1.17404 -0.65475,-2.37067 h -1.64818 c 0.0452,1.2192 0.24836,2.05458 0.72249,2.88996 0.92569,1.6256 2.68675,2.61902 4.6736,2.61902 2.93511,0 5.23804,-2.34809 5.23804,-5.35093 0,-2.00942 -0.94826,-3.54471 -2.82222,-4.49298 1.17405,-0.8128 1.71591,-1.8288 1.71591,-3.20604 0,-2.48356 -1.73849,-4.22205 -4.19946,-4.22205 -2.50614,0 -4.13174,1.71591 -4.22205,4.44782 z"
         style="stroke-width:0.26458332px;fill:#d80027;fill-opacity:1"
         id="path4539" />
      <path
         d="m 140.10516,235.18203 h 10.58898 v -1.51271 h -8.3312 l 5.35093,-5.12516 c 2.34809,-2.2352 3.07058,-3.47697 3.07058,-5.26062 0,-2.93511 -2.21262,-5.08 -5.26062,-5.08 -2.32551,0 -4.17689,1.2192 -4.92196,3.2512 -0.29351,0.79022 -0.36124,1.26436 -0.36124,2.4384 h 1.64818 c 0,-1.03858 0.13546,-1.69333 0.42897,-2.30293 0.58703,-1.17405 1.76107,-1.87396 3.18347,-1.87396 2.09973,0 3.61245,1.46756 3.61245,3.47698 0,0.99342 -0.36125,1.85138 -1.17405,2.79965 -0.49671,0.6096 -0.49671,0.6096 -1.98684,2.032 l -5.84765,5.64444 z"
         style="stroke-width:0.26458332px;fill:#d80027;fill-opacity:1"
         id="path4541" />
      <path
         d="m 166.86053,235.18203 h 1.64818 v -3.048 h 1.53529 v -1.51271 h -1.53529 v -12.12427 h -1.96427 l -8.128,12.12427 v 1.51271 h 8.44409 z m 0,-4.56071 h -6.52497 l 6.52497,-9.82133 z"
         style="stroke-width:0.26458332px;fill:#d80027;fill-opacity:1"
         id="path4543" />
      <path
         d="m 173.15267,235.18203 h 1.76107 l 6.81849,-15.17227 v -1.51271 h -9.61814 v 1.51271 h 7.90223 z"
         style="stroke-width:0.26458332px;fill:#d80027;fill-opacity:1"
         id="path4545" />
      <path
         d="m 186.96323,225.85741 c -1.8288,0.88053 -2.82223,2.46098 -2.82223,4.4704 0,2.93511 2.30294,5.14773 5.37352,5.14773 3.048,0 5.23804,-2.19004 5.23804,-5.21546 0,-2.05458 -1.016,-3.58987 -2.86738,-4.40267 1.35467,-0.63218 1.98685,-1.69333 1.98685,-3.34151 0,-2.50614 -1.85138,-4.31236 -4.40267,-4.31236 -2.52871,0 -4.44782,1.85138 -4.44782,4.31236 0,0.94826 0.31609,1.85138 0.85795,2.48355 0.27094,0.33867 0.51929,0.51929 1.08374,0.85796 z m 2.50613,0.85795 c 2.09973,0 3.61244,1.49014 3.61244,3.58987 0,2.12231 -1.49013,3.6576 -3.58986,3.6576 -2.16747,0 -3.68018,-1.51271 -3.68018,-3.6576 0,-2.09973 1.51271,-3.58987 3.6576,-3.58987 z m -0.0226,-6.99911 c 1.60302,0 2.75449,1.12889 2.75449,2.70934 0,1.55786 -1.15147,2.73191 -2.66418,2.73191 -1.64817,0 -2.8448,-1.17405 -2.8448,-2.77707 0,-1.55787 1.15147,-2.66418 2.75449,-2.66418 z"
         style="stroke-width:0.26458332px;fill:#d80027;fill-opacity:1"
         id="path4547" />
      <path
         d="m 208.66118,218.49705 -4.13174,6.14116 c -1.58044,2.37067 -1.98684,3.38667 -1.98684,5.03484 0,3.31894 2.46098,5.80249 5.75733,5.80249 3.2512,0 5.62187,-2.50613 5.62187,-5.91538 0,-3.20604 -2.34809,-5.73475 -5.30578,-5.73475 -0.69991,0 -1.2192,0.13547 -1.96427,0.47413 l 3.92854,-5.80249 z m -0.4064,6.84107 c 2.32551,0 3.99626,1.80622 3.99626,4.28978 0,2.50613 -1.67075,4.33493 -3.95111,4.33493 -2.34809,0 -4.08658,-1.85138 -4.08658,-4.38009 0,-2.39324 1.76107,-4.24462 4.04143,-4.24462 z"
         style="stroke-width:0.26458332px;fill:#d80027;fill-opacity:1"
         id="path4549" />
      <path
         d="m 221.18478,218.49705 -4.13173,6.14116 c -1.58045,2.37067 -1.98685,3.38667 -1.98685,5.03484 0,3.31894 2.46098,5.80249 5.75734,5.80249 3.2512,0 5.62186,-2.50613 5.62186,-5.91538 0,-3.20604 -2.34809,-5.73475 -5.30577,-5.73475 -0.69992,0 -1.2192,0.13547 -1.96427,0.47413 l 3.92853,-5.80249 z m -0.4064,6.84107 c 2.32551,0 3.99627,1.80622 3.99627,4.28978 0,2.50613 -1.67076,4.33493 -3.95111,4.33493 -2.34809,0 -4.08658,-1.85138 -4.08658,-4.38009 0,-2.39324 1.76107,-4.24462 4.04142,-4.24462 z"
         style="stroke-width:0.26458332px;fill:#d80027;fill-opacity:1"
         id="path4551" />
      <path
         d="m 230.79587,225.85741 c -1.8288,0.88053 -2.82222,2.46098 -2.82222,4.4704 0,2.93511 2.30293,5.14773 5.37351,5.14773 3.048,0 5.23804,-2.19004 5.23804,-5.21546 0,-2.05458 -1.016,-3.58987 -2.86738,-4.40267 1.35467,-0.63218 1.98685,-1.69333 1.98685,-3.34151 0,-2.50614 -1.85138,-4.31236 -4.40267,-4.31236 -2.52871,0 -4.44782,1.85138 -4.44782,4.31236 0,0.94826 0.31609,1.85138 0.85795,2.48355 0.27094,0.33867 0.51929,0.51929 1.08374,0.85796 z m 2.50613,0.85795 c 2.09973,0 3.61245,1.49014 3.61245,3.58987 0,2.12231 -1.49014,3.6576 -3.58987,3.6576 -2.16747,0 -3.68018,-1.51271 -3.68018,-3.6576 0,-2.09973 1.51271,-3.58987 3.6576,-3.58987 z m -0.0226,-6.99911 c 1.60303,0 2.75449,1.12889 2.75449,2.70934 0,1.55786 -1.15146,2.73191 -2.66418,2.73191 -1.64817,0 -2.8448,-1.17405 -2.8448,-2.77707 0,-1.55787 1.15147,-2.66418 2.75449,-2.66418 z"
         style="stroke-width:0.26458332px;fill:#d80027;fill-opacity:1"
         id="path4553" />
      <path
         d="m 246.55586,235.18203 h 10.58898 v -1.51271 h -8.3312 l 5.35093,-5.12516 c 2.34809,-2.2352 3.07058,-3.47697 3.07058,-5.26062 0,-2.93511 -2.21262,-5.08 -5.26062,-5.08 -2.32551,0 -4.17689,1.2192 -4.92196,3.2512 -0.29351,0.79022 -0.36124,1.26436 -0.36124,2.4384 h 1.64818 c 0,-1.03858 0.13546,-1.69333 0.42897,-2.30293 0.58703,-1.17405 1.76107,-1.87396 3.18347,-1.87396 2.09973,0 3.61244,1.46756 3.61244,3.47698 0,0.99342 -0.36124,1.85138 -1.17404,2.79965 -0.49671,0.6096 -0.49671,0.6096 -1.98684,2.032 l -5.84765,5.64444 z"
         style="stroke-width:0.26458332px;fill:#d80027;fill-opacity:1"
         id="path4555" />
      <path
         d="m 264.15947,235.18203 4.13173,-6.14115 c 1.58044,-2.37067 1.98684,-3.38667 1.98684,-5.03485 0,-3.31893 -2.46097,-5.80249 -5.75733,-5.80249 -3.2512,0 -5.62187,2.50614 -5.62187,5.91538 0,3.20604 2.34809,5.73476 5.30578,5.73476 0.69991,0 1.2192,-0.13547 1.96427,-0.47414 l -3.92853,5.80249 z m 0.36124,-15.46578 c 2.34809,0 4.08658,1.85138 4.08658,4.38009 0,2.39325 -1.76107,4.24462 -4.04142,4.24462 -2.32551,0 -3.99627,-1.80622 -3.99627,-4.28977 0,-2.52871 1.67076,-4.33494 3.95111,-4.33494 z"
         style="stroke-width:0.26458332px;fill:#d80027;fill-opacity:1"
         id="path4557" />
      <path
         d="m 274.62851,225.85741 c -1.8288,0.88053 -2.82222,2.46098 -2.82222,4.4704 0,2.93511 2.30293,5.14773 5.37351,5.14773 3.048,0 5.23804,-2.19004 5.23804,-5.21546 0,-2.05458 -1.016,-3.58987 -2.86737,-4.40267 1.35466,-0.63218 1.98684,-1.69333 1.98684,-3.34151 0,-2.50614 -1.85138,-4.31236 -4.40267,-4.31236 -2.52871,0 -4.44782,1.85138 -4.44782,4.31236 0,0.94826 0.31609,1.85138 0.85796,2.48355 0.27093,0.33867 0.51929,0.51929 1.08373,0.85796 z m 2.50613,0.85795 c 2.09974,0 3.61245,1.49014 3.61245,3.58987 0,2.12231 -1.49014,3.6576 -3.58987,3.6576 -2.16747,0 -3.68018,-1.51271 -3.68018,-3.6576 0,-2.09973 1.51271,-3.58987 3.6576,-3.58987 z m -0.0226,-6.99911 c 1.60302,0 2.75448,1.12889 2.75448,2.70934 0,1.55786 -1.15146,2.73191 -2.66417,2.73191 -1.64818,0 -2.8448,-1.17405 -2.8448,-2.77707 0,-1.55787 1.15146,-2.66418 2.75449,-2.66418 z"
         style="stroke-width:0.26458332px;fill:#d80027;fill-opacity:1"
         id="path4559" />
      <path
         d="m 42.074216,257.78239 c 0,-1.69334 -0.225778,-2.73191 -0.835378,-3.81565 -1.106311,-1.96426 -3.2512,-3.20604 -5.599289,-3.20604 -3.589866,0 -6.412088,2.82222 -6.412088,6.41209 0,3.6576 2.867377,6.52497 6.524977,6.52497 1.580445,0 3.070578,-0.58702 4.199467,-1.64817 0.880533,-0.83538 1.467556,-1.69334 1.806222,-2.70934 h -1.738489 c -0.699911,1.69334 -2.4384,2.82223 -4.312355,2.82223 -2.528711,0 -4.6736,-1.94169 -4.809067,-4.38009 z m -11.130844,-1.51271 c 0.451555,-2.37067 2.325511,-3.97369 4.6736,-3.97369 2.393244,0 4.222044,1.51271 4.786489,3.97369 z"
         style="stroke-width:0.26458332px;fill:#d80027;fill-opacity:1"
         id="path4561" />
      <path
         d="m 44.385969,263.40425 h 1.670755 v -7.20231 c 0,-2.46098 1.241778,-3.90595 3.318934,-3.90595 1.016,0 1.964266,0.4064 2.573866,1.12889 0.541867,0.63217 0.767645,1.49013 0.767645,2.77706 v 7.20231 h 1.670755 v -7.15715 c 0,-1.19662 0.180623,-1.96427 0.587023,-2.55129 0.587022,-0.90311 1.6256,-1.4224 2.799644,-1.4224 1.083733,0 2.032,0.42898 2.596444,1.17404 0.451556,0.63218 0.677334,1.55787 0.677334,2.79965 v 7.15715 h 1.670755 v -7.33777 c 0,-1.6256 -0.293511,-2.68676 -0.993422,-3.56729 -0.857955,-1.12889 -2.257778,-1.76107 -3.8608,-1.76107 -1.919111,0 -3.2512,0.74507 -4.289778,2.39324 -0.970844,-1.64817 -2.190044,-2.37066 -4.041422,-2.37066 -1.557867,0 -2.528711,0.47413 -3.476978,1.71591 v -1.4224 h -1.670755 z"
         style="stroke-width:0.26458332px;fill:#d80027;fill-opacity:1"
         id="path4563" />
      <path
         d="M 78.128456,251.05421 H 76.4577 v 2.19004 c -1.2192,-1.71591 -2.731911,-2.48355 -4.8768,-2.48355 -3.702755,0 -6.5024,2.79964 -6.5024,6.5024 0,3.68018 2.822223,6.43466 6.615289,6.43466 2.099734,0 3.4544,-0.69991 4.763911,-2.46097 v 2.16746 h 1.670756 z m -6.5024,1.24178 c 2.709333,0 4.831644,2.12231 4.831644,4.8768 0,2.79964 -2.077155,4.98969 -4.741333,4.98969 -2.799644,0 -4.944533,-2.19005 -4.944533,-5.01227 0,-2.68676 2.167466,-4.85422 4.854222,-4.85422 z"
         style="stroke-width:0.26458332px;fill:#d80027;fill-opacity:1"
         id="path4565" />
      <path
         d="m 80.986662,263.40425 h 1.670756 v -12.35004 h -1.670756 z m 0,-13.84017 h 1.670756 v -2.8448 h -1.670756 z"
         style="stroke-width:0.26458332px;fill:#d80027;fill-opacity:1"
         id="path4567" />
      <path
         d="m 85.48458,263.40425 h 1.670755 V 246.71928 H 85.48458 Z"
         style="stroke-width:0.26458332px;fill:#d80027;fill-opacity:1"
         id="path4569" />
      <path
         d="m 108.82013,251.05421 h -1.67076 v 2.19004 c -1.2192,-1.71591 -2.73191,-2.48355 -4.8768,-2.48355 -3.702756,0 -6.5024,2.79964 -6.5024,6.5024 0,3.68018 2.822222,6.43466 6.61529,6.43466 2.09973,0 3.4544,-0.69991 4.76391,-2.46097 v 2.16746 h 1.67076 z m -6.5024,1.24178 c 2.70933,0 4.83164,2.12231 4.83164,4.8768 0,2.79964 -2.07716,4.98969 -4.74133,4.98969 -2.799648,0 -4.944537,-2.19005 -4.944537,-5.01227 0,-2.68676 2.167467,-4.85422 4.854227,-4.85422 z"
         style="stroke-width:0.26458332px;fill:#d80027;fill-opacity:1"
         id="path4571" />
      <path
         d="m 124.29931,246.71928 h -1.67076 v 6.2992 c -1.2192,-1.46756 -2.91253,-2.25778 -4.85422,-2.25778 -3.72533,0 -6.57013,2.79964 -6.57013,6.47982 0,3.6576 2.91253,6.45724 6.72818,6.45724 2.05457,0 3.4544,-0.74506 4.69617,-2.52871 v 2.2352 h 1.67076 z m -6.57013,5.57671 c 2.73191,0 4.96711,2.19004 4.96711,4.89937 0,2.70934 -2.16747,4.96712 -4.80907,4.96712 -2.82222,0 -4.98969,-2.16747 -4.98969,-4.98969 0,-2.70934 2.14489,-4.8768 4.83165,-4.8768 z"
         style="stroke-width:0.26458332px;fill:#d80027;fill-opacity:1"
         id="path4573" />
      <path
         d="m 139.77743,246.71928 h -1.67076 v 6.2992 c -1.2192,-1.46756 -2.91253,-2.25778 -4.85422,-2.25778 -3.72533,0 -6.57013,2.79964 -6.57013,6.47982 0,3.6576 2.91253,6.45724 6.72818,6.45724 2.05457,0 3.4544,-0.74506 4.69617,-2.52871 v 2.2352 h 1.67076 z m -6.57013,5.57671 c 2.73191,0 4.96711,2.19004 4.96711,4.89937 0,2.70934 -2.16747,4.96712 -4.80907,4.96712 -2.82222,0 -4.98969,-2.16747 -4.98969,-4.98969 0,-2.70934 2.14489,-4.8768 4.83165,-4.8768 z"
         style="stroke-width:0.26458332px;fill:#d80027;fill-opacity:1"
         id="path4575" />
      <path
         d="m 142.63458,263.40425 h 1.67075 v -7.20231 c 0,-2.30293 1.17405,-3.56729 3.49956,-3.79306 v -1.64818 c -1.78365,0.0903 -2.8448,0.69991 -3.49956,2.05458 v -1.76107 h -1.67075 z"
         style="stroke-width:0.26458332px;fill:#d80027;fill-opacity:1"
         id="path4577" />
      <path
         d="m 161.79817,257.78239 c 0,-1.69334 -0.22578,-2.73191 -0.83538,-3.81565 -1.10631,-1.96426 -3.2512,-3.20604 -5.59929,-3.20604 -3.58986,0 -6.41209,2.82222 -6.41209,6.41209 0,3.6576 2.86738,6.52497 6.52498,6.52497 1.58045,0 3.07058,-0.58702 4.19947,-1.64817 0.88053,-0.83538 1.46755,-1.69334 1.80622,-2.70934 h -1.73849 c -0.69991,1.69334 -2.4384,2.82223 -4.31235,2.82223 -2.52872,0 -4.6736,-1.94169 -4.80907,-4.38009 z m -11.13085,-1.51271 c 0.45156,-2.37067 2.32552,-3.97369 4.6736,-3.97369 2.39325,0 4.22205,1.51271 4.78649,3.97369 z"
         style="stroke-width:0.26458332px;fill:#d80027;fill-opacity:1"
         id="path4579" />
      <path
         d="m 163.09392,259.76923 c 0.0226,2.39325 1.60302,3.92853 3.97369,3.92853 2.21262,0 3.77049,-1.58044 3.77049,-3.83822 0,-1.51271 -0.69991,-2.55129 -2.14489,-3.16089 -1.87396,-0.76764 -1.96427,-0.8128 -2.32551,-0.99342 -0.76765,-0.38382 -1.12889,-0.90311 -1.12889,-1.6256 0,-0.99342 0.79022,-1.78364 1.78364,-1.78364 1.08374,0 1.71591,0.63217 1.80622,1.80622 h 1.69334 c -0.0677,-1.98685 -1.49014,-3.34151 -3.47698,-3.34151 -2.00942,0 -3.49956,1.46755 -3.49956,3.47698 0,0.88053 0.31609,1.64817 0.92569,2.21262 0.51929,0.47413 0.54187,0.47413 2.28036,1.19662 0.74507,0.29351 1.28693,0.56444 1.60302,0.76764 0.49671,0.33867 0.79022,0.92569 0.79022,1.60303 0,1.24177 -0.88053,2.14489 -2.07715,2.14489 -1.37725,0 -2.2352,-0.88054 -2.32551,-2.39325 z"
         style="stroke-width:0.26458332px;fill:#d80027;fill-opacity:1"
         id="path4581" />
      <path
         d="m 171.86928,259.76923 c 0.0226,2.39325 1.60302,3.92853 3.97369,3.92853 2.21262,0 3.77049,-1.58044 3.77049,-3.83822 0,-1.51271 -0.69991,-2.55129 -2.14489,-3.16089 -1.87396,-0.76764 -1.96427,-0.8128 -2.32551,-0.99342 -0.76765,-0.38382 -1.12889,-0.90311 -1.12889,-1.6256 0,-0.99342 0.79022,-1.78364 1.78364,-1.78364 1.08374,0 1.71591,0.63217 1.80622,1.80622 h 1.69334 c -0.0677,-1.98685 -1.49014,-3.34151 -3.47698,-3.34151 -2.00942,0 -3.49956,1.46755 -3.49956,3.47698 0,0.88053 0.31609,1.64817 0.92569,2.21262 0.51929,0.47413 0.54187,0.47413 2.28036,1.19662 0.74507,0.29351 1.28693,0.56444 1.60302,0.76764 0.49671,0.33867 0.79022,0.92569 0.79022,1.60303 0,1.24177 -0.88053,2.14489 -2.07715,2.14489 -1.37725,0 -2.2352,-0.88054 -2.32551,-2.39325 z"
         style="stroke-width:0.26458332px;fill:#d80027;fill-opacity:1"
         id="path4583" />
      <path
         d="m 182.51858,263.40425 h 1.67076 v -2.8448 h -1.67076 z m 0,-8.60213 h 1.67076 v -2.8448 h -1.67076 z"
         style="stroke-width:0.26458332px;fill:#d80027;fill-opacity:1"
         id="path4585" />
      <path
         d="m 196.73552,263.40425 h 1.67075 v -15.17226 h 3.81565 v -1.51271 h -9.30205 v 1.51271 h 3.81565 z"
         style="stroke-width:0.26458332px;fill:#d80027;fill-opacity:1"
         id="path4587" />
      <path
         d="m 209.80311,250.7607 c -3.6576,0 -6.47982,2.77706 -6.47982,6.38951 0,3.79307 2.77706,6.54755 6.61528,6.54755 3.61245,0 6.27663,-2.73191 6.27663,-6.43466 0,-3.77049 -2.70934,-6.5024 -6.41209,-6.5024 z m 0,1.53529 c 2.70933,0 4.71875,2.12231 4.71875,4.98969 0,2.82222 -1.94169,4.8768 -4.62844,4.8768 -2.8448,0 -4.8768,-2.07716 -4.8768,-4.96712 0,-2.79964 2.05458,-4.89937 4.78649,-4.89937 z"
         style="stroke-width:0.26458332px;fill:#d80027;fill-opacity:1"
         id="path4589" />
      <path
         d="m 224.57569,250.7607 c -3.6576,0 -6.47982,2.77706 -6.47982,6.38951 0,3.79307 2.77707,6.54755 6.61529,6.54755 3.61244,0 6.27662,-2.73191 6.27662,-6.43466 0,-3.77049 -2.70933,-6.5024 -6.41209,-6.5024 z m 0,1.53529 c 2.70933,0 4.71876,2.12231 4.71876,4.98969 0,2.82222 -1.94169,4.8768 -4.62845,4.8768 -2.8448,0 -4.8768,-2.07716 -4.8768,-4.96712 0,-2.79964 2.05458,-4.89937 4.78649,-4.89937 z"
         style="stroke-width:0.26458332px;fill:#d80027;fill-opacity:1"
         id="path4591" />
      <path
         d="m 233.34257,263.40425 h 1.67076 v -6.79591 c 0,-1.37724 0.18062,-2.09973 0.65475,-2.79964 0.65476,-0.94827 1.80622,-1.51271 3.11573,-1.51271 1.2192,0 2.32552,0.49671 3.00285,1.33209 0.58702,0.76764 0.8128,1.67075 0.8128,3.29635 v 6.47982 h 1.67075 v -6.47982 c 0,-2.07715 -0.29351,-3.18347 -1.08373,-4.24462 -0.97084,-1.2192 -2.46098,-1.91911 -4.19947,-1.91911 -1.6256,0 -2.93511,0.63218 -3.97368,1.89653 v -1.60302 h -1.67076 z"
         style="stroke-width:0.26458332px;fill:#d80027;fill-opacity:1"
         id="path4593" />
      <path
         d="m 260.48952,250.44461 h -1.37724 l -0.38382,1.12889 c -0.24836,-0.56445 -0.42898,-0.83538 -0.79023,-1.06116 -0.47413,-0.31609 -1.12888,-0.49671 -1.80622,-0.49671 -2.79964,0 -5.50898,3.34151 -5.50898,6.79591 0,1.96427 1.28694,3.34151 3.11574,3.34151 1.06115,0 1.85138,-0.33866 2.68675,-1.17404 0.36125,0.92569 0.92569,1.28693 1.98685,1.28693 1.03858,0 1.98684,-0.42898 2.95769,-1.33209 1.49013,-1.37724 2.30293,-3.2512 2.30293,-5.30577 0,-2.12232 -0.83538,-3.92854 -2.4384,-5.2832 -1.4224,-1.2192 -3.38667,-1.91912 -5.32836,-1.91912 -4.78648,0 -8.62471,3.88338 -8.62471,8.69245 0,4.78649 3.79307,8.57955 8.57956,8.57955 2.4384,0 4.83164,-1.016 6.23147,-2.66417 l -0.90312,-0.74507 c -1.4224,1.49013 -3.22862,2.28036 -5.2832,2.28036 -4.15431,0 -7.45066,-3.31894 -7.45066,-7.47325 0,-4.13173 3.34151,-7.5184 7.42809,-7.5184 3.79306,0 6.66044,2.61902 6.66044,6.02827 0,1.6256 -0.65475,3.22862 -1.8288,4.38009 -0.65475,0.67733 -1.44498,1.10631 -2.00942,1.10631 -0.45156,0 -0.76765,-0.27094 -0.76765,-0.63218 0,-0.33867 0,-0.36124 0.45156,-1.73849 z m -4.28977,0.79022 c 1.016,0 1.67075,0.69991 1.67075,1.80622 0,0.85796 -0.56444,2.59645 -1.2192,3.79307 -0.79022,1.39982 -1.58044,2.00942 -2.59644,2.00942 -1.08374,0 -1.80623,-0.83538 -1.80623,-2.07715 0,-2.77707 1.96427,-5.53156 3.95112,-5.53156 z"
         style="stroke-width:0.26458332px;fill:#d80027;fill-opacity:1"
         id="path4595" />
      <path
         d="m 269.23135,263.40425 h 1.67076 v -15.17226 h 3.81564 v -1.51271 h -9.30204 v 1.51271 h 3.81564 z"
         style="stroke-width:0.26458332px;fill:#d80027;fill-opacity:1"
         id="path4597" />
      <path
         d="m 288.86908,251.05421 h -1.67076 v 2.19004 c -1.2192,-1.71591 -2.73191,-2.48355 -4.8768,-2.48355 -3.70276,0 -6.5024,2.79964 -6.5024,6.5024 0,3.68018 2.82222,6.43466 6.61529,6.43466 2.09973,0 3.4544,-0.69991 4.76391,-2.46097 v 2.16746 h 1.67076 z m -6.5024,1.24178 c 2.70933,0 4.83164,2.12231 4.83164,4.8768 0,2.79964 -2.07716,4.98969 -4.74133,4.98969 -2.79965,0 -4.94454,-2.19005 -4.94454,-5.01227 0,-2.68676 2.16747,-4.85422 4.85423,-4.85422 z"
         style="stroke-width:0.26458332px;fill:#d80027;fill-opacity:1"
         id="path4599" />
      <path
         d="m 291.72729,263.40425 h 1.67076 v -6.79591 c 0,-1.37724 0.18062,-2.09973 0.65475,-2.79964 0.65476,-0.94827 1.80622,-1.51271 3.11573,-1.51271 1.2192,0 2.32552,0.49671 3.00285,1.33209 0.58702,0.76764 0.8128,1.67075 0.8128,3.29635 v 6.47982 h 1.67075 v -6.47982 c 0,-2.07715 -0.29351,-3.18347 -1.08373,-4.24462 -0.97084,-1.2192 -2.46098,-1.91911 -4.19947,-1.91911 -1.6256,0 -2.93511,0.63218 -3.97368,1.89653 v -1.60302 h -1.67076 z"
         style="stroke-width:0.26458332px;fill:#d80027;fill-opacity:1"
         id="path4601" />
      <path
         d="m 317.83567,251.05421 h -1.67076 v 2.19004 c -1.24178,-1.69333 -2.75449,-2.48355 -4.83164,-2.48355 -3.61245,0 -6.32178,2.79964 -6.32178,6.52498 0,3.61244 2.82222,6.41208 6.43466,6.41208 2.21263,0 3.74792,-0.90311 4.71876,-2.79964 v 0.83538 c 0,1.2192 -0.13547,1.98684 -0.49671,2.75449 -0.65476,1.4224 -2.14489,2.2352 -4.04142,2.2352 -1.37725,0 -2.4384,-0.4064 -3.31894,-1.24178 -0.42897,-0.38382 -0.67733,-0.74507 -1.2192,-1.69333 h -1.6256 c 0.90311,2.88995 3.09316,4.4704 6.20889,4.4704 2.14489,0 3.95111,-0.8128 5.01227,-2.21263 0.83538,-1.12889 1.15147,-2.4384 1.15147,-4.85422 z m -6.41209,1.24178 c 2.66417,0 4.74133,2.09973 4.74133,4.78649 0,2.88995 -2.032,5.08 -4.71876,5.08 -2.70933,0 -4.74133,-2.14489 -4.74133,-5.01227 0,-2.82222 1.98685,-4.85422 4.71876,-4.85422 z"
         style="stroke-width:0.26458332px;fill:#d80027;fill-opacity:1"
         id="path4603" />
      <path
         d="m 326.70484,250.7607 c -3.6576,0 -6.47982,2.77706 -6.47982,6.38951 0,3.79307 2.77707,6.54755 6.61529,6.54755 3.61244,0 6.27662,-2.73191 6.27662,-6.43466 0,-3.77049 -2.70933,-6.5024 -6.41209,-6.5024 z m 0,1.53529 c 2.70933,0 4.71876,2.12231 4.71876,4.98969 0,2.82222 -1.94169,4.8768 -4.62845,4.8768 -2.8448,0 -4.8768,-2.07716 -4.8768,-4.96712 0,-2.79964 2.05458,-4.89937 4.78649,-4.89937 z"
         style="stroke-width:0.26458332px;fill:#d80027;fill-opacity:1"
         id="path4605" />
      <path
         d="m 336.32969,263.40425 h 1.67076 v -2.8448 h -1.67076 z"
         style="stroke-width:0.26458332px;fill:#d80027;fill-opacity:1"
         id="path4607" />
      <path
         d="m 344.28483,263.40425 h 1.67076 v -15.17226 h 3.81564 v -1.51271 h -9.30204 v 1.51271 h 3.81564 z"
         style="stroke-width:0.26458332px;fill:#d80027;fill-opacity:1"
         id="path4609" />
      <path
         d="m 351.34674,263.40425 h 1.67075 v -12.35004 h -1.67075 z m 0,-13.84017 h 1.67075 v -2.8448 h -1.67075 z"
         style="stroke-width:0.26458332px;fill:#d80027;fill-opacity:1"
         id="path4611" />
      <path
         d="m 355.84466,251.05421 v 16.68498 h 1.67076 v -6.45725 c 1.08373,1.58045 2.75448,2.41582 4.80906,2.41582 3.68018,0 6.54756,-2.82222 6.54756,-6.43466 0,-3.68018 -2.82222,-6.5024 -6.5024,-6.5024 -2.09974,0 -3.81565,0.85795 -4.85422,2.41582 v -2.12231 z m 6.45724,1.24178 c 2.77707,0 4.8768,2.12231 4.8768,4.96711 0,2.77706 -2.09973,4.89938 -4.85422,4.89938 -2.82222,0 -4.92195,-2.14489 -4.92195,-4.98969 0,-2.73191 2.16746,-4.8768 4.89937,-4.8768 z"
         style="stroke-width:0.26458332px;fill:#d80027;fill-opacity:1"
         id="path4613" />
      <path
         d="m 370.21858,259.76923 c 0.0226,2.39325 1.60303,3.92853 3.97369,3.92853 2.21262,0 3.77049,-1.58044 3.77049,-3.83822 0,-1.51271 -0.69991,-2.55129 -2.14489,-3.16089 -1.87395,-0.76764 -1.96426,-0.8128 -2.32551,-0.99342 -0.76764,-0.38382 -1.12889,-0.90311 -1.12889,-1.6256 0,-0.99342 0.79022,-1.78364 1.78365,-1.78364 1.08373,0 1.71591,0.63217 1.80622,1.80622 h 1.69333 c -0.0677,-1.98685 -1.49013,-3.34151 -3.47698,-3.34151 -2.00942,0 -3.49955,1.46755 -3.49955,3.47698 0,0.88053 0.31609,1.64817 0.92569,2.21262 0.51929,0.47413 0.54186,0.47413 2.28035,1.19662 0.74507,0.29351 1.28694,0.56444 1.60303,0.76764 0.49671,0.33867 0.79022,0.92569 0.79022,1.60303 0,1.24177 -0.88054,2.14489 -2.07716,2.14489 -1.37724,0 -2.2352,-0.88054 -2.32551,-2.39325 z"
         style="stroke-width:0.26458332px;fill:#d80027;fill-opacity:1"
         id="path4615" />
    </g>
  </g>
</svg>
