<?xml version="1.0" encoding="UTF-8" standalone="no"?>
<!-- Generator: Adobe Illustrator 16.0.0, SVG Export Plug-In . SVG Version: 6.00 Build 0)  -->

<svg
   xmlns:dc="http://purl.org/dc/elements/1.1/"
   xmlns:cc="http://creativecommons.org/ns#"
   xmlns:rdf="http://www.w3.org/1999/02/22-rdf-syntax-ns#"
   xmlns:svg="http://www.w3.org/2000/svg"
   xmlns="http://www.w3.org/2000/svg"
   xmlns:sodipodi="http://sodipodi.sourceforge.net/DTD/sodipodi-0.dtd"
   xmlns:inkscape="http://www.inkscape.org/namespaces/inkscape"
   version="1.1"
   id="Capa_1"
   x="0px"
   y="0px"
   width="512px"
   height="512px"
   viewBox="0 0 34.81 34.81"
   style="enable-background:new 0 0 34.81 34.81;"
   xml:space="preserve"
   sodipodi:docname="la-yumba.svg"
   inkscape:version="0.92.1 r15371"
   inkscape:export-filename="/home/toon/Documents/tango.tips/flyer/la-yumba.png"
   inkscape:export-xdpi="600"
   inkscape:export-ydpi="600"><metadata
     id="metadata3798"><rdf:RDF><cc:Work
         rdf:about=""><dc:format>image/svg+xml</dc:format><dc:type
           rdf:resource="http://purl.org/dc/dcmitype/StillImage" /><dc:title></dc:title></cc:Work></rdf:RDF></metadata><defs
     id="defs3796"><inkscape:perspective
       sodipodi:type="inkscape:persp3d"
       inkscape:vp_x="0 : 17.405 : 1"
       inkscape:vp_y="0 : 1000 : 0"
       inkscape:vp_z="34.81 : 17.405 : 1"
       inkscape:persp3d-origin="17.405 : 11.603333 : 1"
       id="perspective4623" /></defs><sodipodi:namedview
     pagecolor="#ffffff"
     bordercolor="#666666"
     borderopacity="1"
     objecttolerance="10"
     gridtolerance="10"
     guidetolerance="10"
     inkscape:pageopacity="0"
     inkscape:pageshadow="2"
     inkscape:window-width="1920"
     inkscape:window-height="1016"
     id="namedview3794"
     showgrid="false"
     inkscape:zoom="1.5253906"
     inkscape:cx="93.913542"
     inkscape:cy="250.13509"
     inkscape:window-x="0"
     inkscape:window-y="27"
     inkscape:window-maximized="1"
     inkscape:current-layer="Capa_1"
     showguides="false" /><g
     id="g3761"><path
       d="M30.899,30.824c-0.021-0.067-0.835-0.428-1.694-0.985c-0.071-0.046,0.254-0.233,0.178-0.278   c-0.937-0.557-1.287-0.416-2.023-0.859c-2.207-1.334-4.628-3.11-4.628-3.11s1.021-2.487,0.904-3.106   c-0.115-0.618-2.334-2.901-2.59-3.237c-0.255-0.332,0.181-1.205,0.066-2.229c-0.092-0.831-0.477-1.469-0.515-1.814   c-0.085-0.771,0.11-1.65,0.44-2.082c0.331-0.432,1.824-1.352,1.824-1.352s0.817,0.595,1.284,0.693   c0.467,0.1,1.051-0.023,1.321-0.291c0.271-0.267,0.286-0.935,0.152-1.281c-0.133-0.346-1.358-2.738-1.358-2.738   s0.393-1.303,0.292-1.375c-0.102-0.074-0.12-0.31-0.12-0.31s0.082-0.705,0.005-0.845c-0.075-0.14-0.361-0.068-0.361-0.068   s-0.043-0.234-0.208-0.234s-0.291,0.189-0.291,0.189s-0.148,0.173-0.239,0.277c-0.092,0.104-0.229-0.051-0.431,0.089   c-0.203,0.14-0.403,0.783-0.403,0.783s-1.619-0.518-2.19-0.837c-0.571-0.318-1.174-1.502-1.174-1.502L19.128,3.65   c0,0,0.354-0.366,0.403-0.847c0.051-0.481-0.188-0.581-0.188-0.581s0.356-1.22-0.177-1.656c-0.407-0.334-0.91-0.596-1.585-0.563   c-0.674,0.029-0.743,0.19-1.227,0.315c-0.485,0.125-0.413,0.968-0.413,0.968L15.838,2.26c0,0-0.251-1.062-0.719-1.288   c-0.468-0.229-0.67-0.709-1.855-0.51c-1.185,0.198-1.716,1.837-1.716,1.837s-0.753,0.418-0.477,1.336s1.368,0.839,1.507,1.092   c0.139,0.254,0.038,1.1,0.038,1.1s-1.852,4.139-2.168,4.845s-0.232,1.694-0.007,1.745c0.569,0.127,1.651-0.607,1.651-0.607   c0.018,0.696,0.954,0.986,1.036,1.423c0.083,0.438-2.76,9.546-3.421,10.514c-0.661,0.971-0.945,0.842-1.72,2.276   c-0.663,1.229-1.34,4.072-1.846,4.932c-0.505,0.86-2.023,1.721-2.182,2.276c-0.159,0.556,0.032,1.543,0.476,1.577   c0.444,0.033,0.958-0.199,1.099-0.338c0.136-0.133,0.459-0.668,0.885-1.214c0.383-0.489,0.879-0.987,0.919-1.215   c0.033-0.188,0.37-1.369,1.129-2.555c1.186-1.85,2.977-3.925,2.977-3.925s0.139,3.518,0.177,4.492   c0.038,0.975,0.893,1.985,0.931,2.594c0.038,0.606-0.285,0.814-0.493,1.037s-0.379,0.506,0.126,0.531   c0.506,0.025,2.403,0.004,2.748,0.001c0.345-0.004-0.042-2.81,0.186-3.449c0.228-0.642,1.535-7.638,1.535-7.638   s1.619,2.831,2.045,3.574c0.425,0.743,1.292,1.428,1.292,1.428s0.133,1.363-0.016,1.81c-0.147,0.446-0.578,1.095-0.828,1.492   c-0.249,0.396-0.287,2.308-0.287,2.308l0.254,0.096l0.38-0.759c0,0,0.202,1.44,0.51,1.521c0.307,0.079,1.037,0.063,1.546,0.116   s0.752-0.348,0.55-0.474c-0.203-0.127-0.222-0.138-0.532-0.329c-0.31-0.191-0.277-0.506-0.277-0.506l0.223-3.745l5.521,3.593   l0.498-0.206c0,0,0.183,0.384-0.02,0.562c-0.203,0.177-0.301,0.058-0.708,0.253c-0.247,0.119-0.146,0.361,0.354,0.479   c0.325,0.078,1.01,0.021,1.392,0s0.847-1.039,0.847-1.039l0.271-1.033c0,0,0.501,0.05,0.627-0.229   C30.418,31.759,30.974,31.076,30.899,30.824z M16.333,6.176c-0.102,0.079-1.214,0.079-1.214,0.079s-0.114-0.821,0-0.91   c0.114-0.09,0.266-0.177,0.405-0.24c0.139-0.062,0.43-1.441,0.43-1.441l0.725,1.54C16.676,5.203,16.434,6.097,16.333,6.176z"
       fill="#D80027"
       id="path3759" /></g><g
     id="g3763" /><g
     id="g3765" /><g
     id="g3767" /><g
     id="g3769" /><g
     id="g3771" /><g
     id="g3773" /><g
     id="g3775" /><g
     id="g3777" /><g
     id="g3779" /><g
     id="g3781" /><g
     id="g3783" /><g
     id="g3785" /><g
     id="g3787" /><g
     id="g3789" /><g
     id="g3791" /><g
     aria-label="Milonga La Yumba "
     style="font-style:normal;font-weight:normal;font-size:1.2237891px;line-height:125%;font-family:Sans;letter-spacing:0px;word-spacing:0px;fill:#424242;fill-opacity:1;stroke:none;stroke-width:0.06798828px;stroke-linecap:butt;stroke-linejoin:miter;stroke-opacity:1"
     id="text3827"><path
       d="m 14.058801,14.651378 0.126815,0.323789 1.309336,-0.512813 -1.130685,0.968954 0.103673,0.264703 1.487988,-0.05667 -1.309336,0.512813 0.126815,0.323789 1.746569,-0.684059 -0.174023,-0.444324 -1.505871,0.05277 1.139312,-0.988688 -0.174023,-0.444324 z"
       style="font-style:normal;font-variant:normal;font-weight:bold;font-stretch:normal;font-size:2.53822923px;font-family:'URW Gothic L';-inkscape-font-specification:'URW Gothic L';fill:#424242;fill-opacity:1;stroke-width:0.06798828px"
       id="path5975" /><path
       d="m 14.882398,16.73952 0.126602,0.312946 1.30355,-0.52735 -0.126602,-0.312946 z m 1.444728,-0.584463 0.126602,0.312946 0.294122,-0.118987 -0.126602,-0.312946 z"
       style="font-style:normal;font-variant:normal;font-weight:bold;font-stretch:normal;font-size:2.53822923px;font-family:'URW Gothic L';-inkscape-font-specification:'URW Gothic L';fill:#424242;fill-opacity:1;stroke-width:0.06798828px"
       id="path5977" /><path
       d="m 15.111488,17.303741 0.128531,0.312159 1.734476,-0.714169 -0.128532,-0.312159 z"
       style="font-style:normal;font-variant:normal;font-weight:bold;font-stretch:normal;font-size:2.53822923px;font-family:'URW Gothic L';-inkscape-font-specification:'URW Gothic L';fill:#424242;fill-opacity:1;stroke-width:0.06798828px"
       id="path5979" /><path
       d="m 16.933974,17.93099 c -0.160808,-0.375685 -0.598333,-0.552857 -0.969351,-0.394046 -0.373352,0.159809 -0.544858,0.59767 -0.383051,0.975689 0.160808,0.375685 0.597997,0.558522 0.962015,0.402708 0.385019,-0.164803 0.557188,-0.594664 0.390387,-0.984351 z m -0.283682,0.124188 c 0.08889,0.207678 -0.01653,0.451595 -0.231211,0.543486 -0.217011,0.09289 -0.463934,-2.09e-4 -0.551829,-0.205552 -0.08989,-0.210011 0.0142,-0.450597 0.235878,-0.545483 0.212344,-0.09089 0.460266,0.0045 0.547162,0.207549 z"
       style="font-style:normal;font-variant:normal;font-weight:bold;font-stretch:normal;font-size:2.53822923px;font-family:'URW Gothic L';-inkscape-font-specification:'URW Gothic L';fill:#424242;fill-opacity:1;stroke-width:0.06798828px"
       id="path5981" /><path
       d="m 15.984524,19.363386 0.140485,0.306965 0.602389,-0.275689 c 0.170792,-0.07817 0.24993,-0.100426 0.330202,-0.08971 0.09835,0.01361 0.17686,0.07538 0.221224,0.172314 0.03591,0.07847 0.03779,0.155771 0.0037,0.22161 -0.03638,0.06689 -0.122557,0.128666 -0.293349,0.206831 l -0.625469,0.286252 0.140485,0.306964 0.685477,-0.313715 c 0.228493,-0.104572 0.328714,-0.178353 0.39627,-0.293013 0.08199,-0.138015 0.08324,-0.306071 0.0019,-0.483787 -0.06655,-0.145404 -0.156874,-0.226887 -0.317108,-0.290334 l 0.122324,-0.05598 -0.129922,-0.283884 z"
       style="font-style:normal;font-variant:normal;font-weight:bold;font-stretch:normal;font-size:2.53822923px;font-family:'URW Gothic L';-inkscape-font-specification:'URW Gothic L';fill:#424242;fill-opacity:1;stroke-width:0.06798828px"
       id="path5983" /><path
       d="m 18.364498,21.096391 -0.159041,0.07921 c 0.08084,-0.156523 0.07428,-0.323398 -0.01625,-0.505159 -0.177665,-0.356706 -0.586118,-0.482201 -0.958728,-0.296615 -0.388514,0.193508 -0.538967,0.591707 -0.36017,0.950685 0.08827,0.177217 0.203911,0.267071 0.401348,0.316186 -0.276027,0.123303 -0.465516,0.07306 -0.577547,-0.151864 -0.07016,-0.140865 -0.07681,-0.245307 -0.02325,-0.382576 l -0.170875,-0.343073 c -0.201271,0.22785 -0.231262,0.537695 -0.07736,0.846689 0.113163,0.227201 0.282081,0.367083 0.490879,0.41054 0.160005,0.0309 0.33374,-0.0074 0.574573,-0.127382 l 1.020133,-0.508099 z m -0.435499,-0.253807 c 0.107504,0.215841 0.02429,0.441604 -0.205182,0.555898 -0.227201,0.113163 -0.448446,0.04471 -0.55595,-0.171128 -0.107505,-0.215841 -0.02885,-0.427989 0.20062,-0.542283 0.231745,-0.115426 0.455271,-0.05378 0.560512,0.157513 z"
       style="font-style:normal;font-variant:normal;font-weight:bold;font-stretch:normal;font-size:2.53822923px;font-family:'URW Gothic L';-inkscape-font-specification:'URW Gothic L';fill:#424242;fill-opacity:1;stroke-width:0.06798828px"
       id="path5985" /><path
       d="m 19.289622,22.808495 -0.150039,-0.270888 -0.164309,0.09101 c 0.07887,-0.177157 0.06896,-0.331254 -0.02942,-0.508886 -0.201691,-0.364144 -0.619919,-0.474882 -0.995165,-0.267041 -0.370805,0.205381 -0.495583,0.613975 -0.296351,0.973679 0.09593,0.17319 0.216616,0.260125 0.415021,0.304017 l -0.159869,0.08855 0.150039,0.270888 z M 18.69218,22.300852 c 0.116833,0.210938 0.04281,0.449242 -0.181446,0.573454 -0.08882,0.04919 -0.210631,0.07024 -0.302318,0.05138 -0.104257,-0.0206 -0.197107,-0.09394 -0.259828,-0.207176 -0.119293,-0.215378 -0.05515,-0.445313 0.160232,-0.564606 0.22426,-0.124213 0.466526,-0.06399 0.58336,0.146943 z"
       style="font-style:normal;font-variant:normal;font-weight:bold;font-stretch:normal;font-size:2.53822923px;font-family:'URW Gothic L';-inkscape-font-specification:'URW Gothic L';fill:#424242;fill-opacity:1;stroke-width:0.06798828px"
       id="path5987" /><path
       d="m 18.579156,24.340079 0.501027,0.773245 0.27905,-0.180811 -0.311934,-0.481414 1.295133,-0.839185 -0.189093,-0.291831 z"
       style="font-style:normal;font-variant:normal;font-weight:bold;font-stretch:normal;font-size:2.53822923px;font-family:'URW Gothic L';-inkscape-font-specification:'URW Gothic L';fill:#424242;fill-opacity:1;stroke-width:0.06798828px"
       id="path5989" /><path
       d="m 21.140555,25.569727 -0.182405,-0.25024 -0.151785,0.110639 c 0.05634,-0.185556 0.02744,-0.337242 -0.09217,-0.501334 -0.245201,-0.336388 -0.673917,-0.394523 -1.020561,-0.141847 -0.342541,0.249686 -0.415801,0.67058 -0.17359,1.002866 0.116619,0.15999 0.24714,0.231323 0.44945,0.250326 l -0.147682,0.107649 0.182405,0.25024 z m -0.655667,-0.429814 c 0.142037,0.19486 0.09807,0.440491 -0.109092,0.591499 -0.08205,0.05981 -0.20032,0.09576 -0.293635,0.0884 -0.106006,-0.0075 -0.207217,-0.06882 -0.283468,-0.173432 -0.145027,-0.198962 -0.109825,-0.435067 0.08914,-0.580094 0.207166,-0.151007 0.455022,-0.12123 0.597058,0.07363 z"
       style="font-style:normal;font-variant:normal;font-weight:bold;font-stretch:normal;font-size:2.53822923px;font-family:'URW Gothic L';-inkscape-font-specification:'URW Gothic L';fill:#424242;fill-opacity:1;stroke-width:0.06798828px"
       id="path5991" /><path
       d="m 20.936974,27.505595 0.232953,0.258175 0.514465,-0.464206 1.291365,-0.33445 -0.251657,-0.278904 -0.917889,0.27096 0.361862,-0.887187 -0.251657,-0.278904 -0.464977,1.25031 z"
       style="font-style:normal;font-variant:normal;font-weight:bold;font-stretch:normal;font-size:2.53822923px;font-family:'URW Gothic L';-inkscape-font-specification:'URW Gothic L';fill:#424242;fill-opacity:1;stroke-width:0.06798828px"
       id="path5993" /><path
       d="m 23.547446,28.150213 -0.244216,-0.233069 -0.457378,0.479252 c -0.127925,0.134044 -0.200193,0.191385 -0.27163,0.207416 -0.09097,0.02546 -0.192201,-0.0045 -0.27483,-0.08335 -0.06243,-0.05958 -0.0909,-0.125342 -0.08189,-0.200955 0.0072,-0.07736 0.06433,-0.166669 0.194006,-0.302549 l 0.474902,-0.497614 -0.244217,-0.23307 -0.520464,0.545356 c -0.164726,0.172605 -0.228643,0.280019 -0.252331,0.41881 -0.02494,0.162158 0.03442,0.320553 0.166623,0.446726 0.123027,0.117411 0.229939,0.159796 0.407617,0.157442 l -0.09288,0.09732 0.225855,0.215546 z"
       style="font-style:normal;font-variant:normal;font-weight:bold;font-stretch:normal;font-size:2.53822923px;font-family:'URW Gothic L';-inkscape-font-specification:'URW Gothic L';fill:#424242;fill-opacity:1;stroke-width:0.06798828px"
       id="path5995" /><path
       d="m 22.768873,29.360455 0.265229,0.208847 0.428686,-0.544417 c 0.08637,-0.109681 0.154436,-0.175615 0.2085,-0.207349 0.08844,-0.04667 0.189216,-0.03516 0.276961,0.03394 0.07179,0.05653 0.113198,0.131134 0.114547,0.203271 -0.0011,0.067 -0.03893,0.143803 -0.120583,0.247502 l -0.477364,0.606236 0.265229,0.208847 0.428685,-0.544416 c 0.09736,-0.123641 0.156007,-0.17761 0.224753,-0.207475 0.08729,-0.04111 0.184929,-0.02561 0.268686,0.04034 0.06581,0.05182 0.102803,0.119718 0.104152,0.191855 0.0029,0.07014 -0.0318,0.142955 -0.118165,0.252636 l -0.477364,0.606237 0.265229,0.208847 0.502488,-0.638144 c 0.105209,-0.133611 0.166074,-0.260141 0.177883,-0.373608 0.01814,-0.166635 -0.07121,-0.340368 -0.236725,-0.470701 -0.155547,-0.122482 -0.306056,-0.156998 -0.490011,-0.108009 0.01844,-0.179322 -0.03845,-0.308115 -0.190011,-0.427456 -0.129623,-0.102068 -0.237656,-0.128984 -0.389233,-0.0965 l 0.08165,-0.103699 -0.243292,-0.191573 z"
       style="font-style:normal;font-variant:normal;font-weight:bold;font-stretch:normal;font-size:2.53822923px;font-family:'URW Gothic L';-inkscape-font-specification:'URW Gothic L';fill:#424242;fill-opacity:1;stroke-width:0.06798828px"
       id="path5997" /><path
       d="m 24.661878,30.810926 0.260249,0.167817 0.09766,-0.151456 c 0.03768,0.20853 0.119104,0.330497 0.294025,0.443292 0.183454,0.118297 0.372528,0.143572 0.570731,0.07507 0.163874,-0.05742 0.30785,-0.172971 0.40964,-0.330827 0.229716,-0.356242 0.147053,-0.790089 -0.192124,-1.008801 -0.153589,-0.09904 -0.285626,-0.123777 -0.464571,-0.08514 l 0.324629,-0.503432 -0.283714,-0.182948 z m 1.231838,-0.570793 c 0.202653,0.130677 0.249428,0.381312 0.113249,0.592497 -0.138931,0.215452 -0.376009,0.273989 -0.578662,0.143312 -0.204785,-0.132053 -0.252178,-0.377046 -0.113248,-0.592498 0.137555,-0.213318 0.380275,-0.271237 0.578661,-0.143311 z"
       style="font-style:normal;font-variant:normal;font-weight:bold;font-stretch:normal;font-size:2.53822923px;font-family:'URW Gothic L';-inkscape-font-specification:'URW Gothic L';fill:#424242;fill-opacity:1;stroke-width:0.06798828px"
       id="path5999" /><path
       d="m 28.000904,31.161597 -0.271515,-0.148901 -0.09032,0.164689 c -0.02792,-0.1919 -0.118595,-0.316892 -0.296637,-0.414532 -0.364987,-0.200162 -0.777721,-0.07044 -0.983986,0.305674 -0.203824,0.371663 -0.09112,0.783751 0.269418,0.981472 0.173592,0.0952 0.322057,0.104248 0.513241,0.0354 l -0.08788,0.160239 0.271515,0.148901 z m -0.776213,-0.110142 c 0.211425,0.115948 0.276106,0.356954 0.152835,0.581733 -0.04882,0.08902 -0.140571,0.171867 -0.228158,0.20489 -0.09915,0.03826 -0.216812,0.02584 -0.330314,-0.0364 -0.215877,-0.118389 -0.284434,-0.347047 -0.166046,-0.562924 0.123271,-0.224778 0.360258,-0.303243 0.571683,-0.187295 z"
       style="font-style:normal;font-variant:normal;font-weight:bold;font-stretch:normal;font-size:2.53822923px;font-family:'URW Gothic L';-inkscape-font-specification:'URW Gothic L';fill:#424242;fill-opacity:1;stroke-width:0.06798828px"
       id="path6001" /></g><path
     style="fill:none;fill-rule:evenodd;stroke:none;stroke-width:0.06798828px;stroke-linecap:butt;stroke-linejoin:miter;stroke-opacity:1"
     d="m 13.997577,14.483331 c 3.196416,8.324989 5.970237,14.040451 13.103893,17.783854"
     id="path4687"
     inkscape:connector-curvature="0" /><g
     aria-label="http://tango.tips"
     style="font-style:normal;font-weight:normal;font-size:1.2237891px;line-height:125%;font-family:Sans;letter-spacing:0px;word-spacing:0px;fill:#d80027;fill-opacity:1;stroke:none;stroke-width:0.06798828;stroke-linecap:butt;stroke-linejoin:miter;stroke-miterlimit:4;stroke-dasharray:none;stroke-opacity:1"
     id="text4694"><path
       d="m 22.263793,13.108958 0.05932,0.332331 0.702143,-0.12534 c 0.13743,-0.02453 0.217121,-0.02587 0.285834,-0.002 0.09343,0.03231 0.156519,0.111291 0.176146,0.221235 0.03479,0.194901 -0.06677,0.290381 -0.356621,0.342123 l -0.70714,0.126232 0.05932,0.332331 0.782102,-0.139614 c 0.202397,-0.03613 0.31038,-0.08119 0.400784,-0.166943 0.125924,-0.117878 0.174837,-0.291624 0.1396,-0.489024 -0.02542,-0.142427 -0.08503,-0.245234 -0.192827,-0.329126 l 0.557216,-0.09947 -0.05932,-0.332331 z"
       style="font-style:normal;font-variant:normal;font-weight:bold;font-stretch:normal;font-size:2.53822923px;font-family:'URW Gothic L';-inkscape-font-specification:'URW Gothic L';fill:#d80027;fill-opacity:1;stroke-width:0.06798828;stroke-miterlimit:4;stroke-dasharray:none"
       id="path6004" /><path
       d="m 22.542547,14.653888 0.06241,0.331765 1.080106,-0.203197 0.03754,0.199557 0.301831,-0.05678 -0.03754,-0.199558 0.461477,-0.08682 -0.06241,-0.331765 -0.461477,0.08682 -0.0305,-0.16214 -0.301831,0.05678 0.0305,0.162141 z"
       style="font-style:normal;font-variant:normal;font-weight:bold;font-stretch:normal;font-size:2.53822923px;font-family:'URW Gothic L';-inkscape-font-specification:'URW Gothic L';fill:#d80027;fill-opacity:1;stroke-width:0.06798828;stroke-miterlimit:4;stroke-dasharray:none"
       id="path6006" /><path
       d="m 22.685074,15.403682 0.0653,0.331208 1.078295,-0.212599 0.03928,0.199223 0.301325,-0.05941 -0.03928,-0.199223 0.460703,-0.09083 -0.0653,-0.331209 -0.460703,0.09083 -0.03191,-0.161869 -0.301325,0.05941 0.03192,0.161869 z"
       style="font-style:normal;font-variant:normal;font-weight:bold;font-stretch:normal;font-size:2.53822923px;font-family:'URW Gothic L';-inkscape-font-specification:'URW Gothic L';fill:#d80027;fill-opacity:1;stroke-width:0.06798828;stroke-miterlimit:4;stroke-dasharray:none"
       id="path6008" /><path
       d="m 22.361543,16.203219 0.07145,0.329936 0.587931,-0.127326 c -0.08477,0.148212 -0.106448,0.287954 -0.06992,0.456643 0.08596,0.396916 0.456426,0.620542 0.873187,0.530286 0.41428,-0.08972 0.652128,-0.442489 0.566169,-0.839405 -0.04029,-0.186054 -0.144137,-0.329777 -0.291274,-0.409586 l 0.161247,-0.03492 -0.06554,-0.302648 z m 1.717043,0.373505 c 0.04835,0.223265 -0.09567,0.433654 -0.333821,0.485229 -0.233187,0.0505 -0.45135,-0.08145 -0.498627,-0.299754 -0.0505,-0.233188 0.09051,-0.44552 0.331135,-0.497632 0.235668,-0.05104 0.451887,0.08393 0.501313,0.312157 z"
       style="font-style:normal;font-variant:normal;font-weight:bold;font-stretch:normal;font-size:2.53822923px;font-family:'URW Gothic L';-inkscape-font-specification:'URW Gothic L';fill:#d80027;fill-opacity:1;stroke-width:0.06798828;stroke-miterlimit:4;stroke-dasharray:none"
       id="path6010" /><path
       d="m 23.193531,17.784298 0.07908,0.328192 0.315854,-0.07611 -0.07908,-0.328192 z m 0.910548,-0.219396 0.07908,0.328192 0.328192,-0.07908 -0.07908,-0.328192 z"
       style="font-style:normal;font-variant:normal;font-weight:bold;font-stretch:normal;font-size:2.53822923px;font-family:'URW Gothic L';-inkscape-font-specification:'URW Gothic L';fill:#d80027;fill-opacity:1;stroke-width:0.06798828;stroke-miterlimit:4;stroke-dasharray:none"
       id="path6012" /><path
       d="m 23.01651,18.443234 0.06126,0.230595 2.337371,0.227348 -0.06126,-0.230595 z"
       style="font-style:normal;font-variant:normal;font-weight:bold;font-stretch:normal;font-size:2.53822923px;font-family:'URW Gothic L';-inkscape-font-specification:'URW Gothic L';fill:#d80027;fill-opacity:1;stroke-width:0.06798828;stroke-miterlimit:4;stroke-dasharray:none"
       id="path6014" /><path
       d="m 23.321341,19.585013 0.06926,0.228319 2.343876,0.145721 -0.06926,-0.228319 z"
       style="font-style:normal;font-variant:normal;font-weight:bold;font-stretch:normal;font-size:2.53822923px;font-family:'URW Gothic L';-inkscape-font-specification:'URW Gothic L';fill:#d80027;fill-opacity:1;stroke-width:0.06798828;stroke-miterlimit:4;stroke-dasharray:none"
       id="path6016" /><path
       d="m 24.016108,20.724179 0.109008,0.319501 1.040179,-0.354889 0.06557,0.192181 0.290673,-0.09917 -0.06557,-0.192181 0.444418,-0.151626 -0.109007,-0.319501 -0.444418,0.151627 -0.05327,-0.156147 -0.290674,0.09917 0.05327,0.156147 z"
       style="font-style:normal;font-variant:normal;font-weight:bold;font-stretch:normal;font-size:2.53822923px;font-family:'URW Gothic L';-inkscape-font-specification:'URW Gothic L';fill:#d80027;fill-opacity:1;stroke-width:0.06798828;stroke-miterlimit:4;stroke-dasharray:none"
       id="path6018" /><path
       d="m 26.075207,22.20029 -0.115104,-0.287477 -0.174371,0.06982 c 0.100339,-0.165945 0.109714,-0.320075 0.03424,-0.508585 -0.154729,-0.386444 -0.555892,-0.548449 -0.954118,-0.389003 -0.393513,0.15756 -0.568248,0.547415 -0.415406,0.929147 0.07359,0.183796 0.182504,0.285097 0.37389,0.353376 l -0.169659,0.06793 0.115104,0.287477 z M 25.5457,21.622138 c 0.08963,0.223855 -0.01352,0.451074 -0.25151,0.546364 -0.09426,0.03774 -0.217743,0.04344 -0.306365,0.0133 -0.100877,-0.03343 -0.183861,-0.117772 -0.231978,-0.237947 -0.09152,-0.228567 7.91e-4,-0.448713 0.229359,-0.54023 0.237993,-0.09529 0.470864,-0.0053 0.560494,0.218512 z"
       style="font-style:normal;font-variant:normal;font-weight:bold;font-stretch:normal;font-size:2.53822923px;font-family:'URW Gothic L';-inkscape-font-specification:'URW Gothic L';fill:#d80027;fill-opacity:1;stroke-width:0.06798828;stroke-miterlimit:4;stroke-dasharray:none"
       id="path6020" /><path
       d="m 24.873538,22.952458 0.150658,0.302101 0.592846,-0.295652 c 0.168087,-0.08382 0.246437,-0.108716 0.327023,-0.100686 0.09875,0.01032 0.179278,0.06943 0.226854,0.16483 0.03851,0.07723 0.04297,0.154423 0.01112,0.221363 -0.03412,0.06807 -0.118192,0.132687 -0.286278,0.216512 l -0.615561,0.306979 0.150658,0.302102 0.674618,-0.336432 c 0.224873,-0.112143 0.322574,-0.189231 0.386263,-0.306083 0.07734,-0.140676 0.07297,-0.30868 -0.01425,-0.483581 -0.07136,-0.1431 -0.164363,-0.221521 -0.326627,-0.279582 l 0.120387,-0.06004 -0.13933,-0.279387 z"
       style="font-style:normal;font-variant:normal;font-weight:bold;font-stretch:normal;font-size:2.53822923px;font-family:'URW Gothic L';-inkscape-font-specification:'URW Gothic L';fill:#d80027;fill-opacity:1;stroke-width:0.06798828;stroke-miterlimit:4;stroke-dasharray:none"
       id="path6022" /><path
       d="m 27.330426,24.488539 -0.150451,0.09452 c 0.065,-0.163734 0.04202,-0.329148 -0.066,-0.501093 -0.211985,-0.337441 -0.630826,-0.422033 -0.983312,-0.200596 -0.367531,0.230887 -0.47797,0.641985 -0.264635,0.981575 0.105317,0.167646 0.229261,0.245654 0.430581,0.275055 -0.262519,0.14993 -0.45604,0.118628 -0.589712,-0.09415 -0.08371,-0.133257 -0.100633,-0.236534 -0.06087,-0.378417 l -0.203884,-0.324545 c -0.177813,0.246594 -0.177095,0.557886 0.0065,0.850191 0.135022,0.214931 0.316915,0.337468 0.528981,0.360117 0.162273,0.01496 0.331379,-0.04031 0.559205,-0.183439 l 0.965038,-0.606249 z m -0.458411,-0.20961 c 0.128271,0.204184 0.06773,0.437054 -0.149346,0.573426 -0.214931,0.135022 -0.441849,0.08873 -0.57012,-0.115453 -0.128271,-0.204184 -0.07093,-0.423056 0.14615,-0.559428 0.219229,-0.137723 0.447745,-0.09843 0.573316,0.101455 z"
       style="font-style:normal;font-variant:normal;font-weight:bold;font-stretch:normal;font-size:2.53822923px;font-family:'URW Gothic L';-inkscape-font-specification:'URW Gothic L';fill:#d80027;fill-opacity:1;stroke-width:0.06798828;stroke-miterlimit:4;stroke-dasharray:none"
       id="path6024" /><path
       d="m 28.013143,25.355182 c -0.255918,-0.318599 -0.724971,-0.371579 -1.039612,-0.11884 -0.316619,0.254328 -0.364052,0.72218 -0.106545,1.042758 0.255918,0.318598 0.726171,0.377126 1.034875,0.129156 0.326514,-0.262276 0.376737,-0.722603 0.111282,-1.053074 z m -0.239833,0.195904 c 0.14147,0.176119 0.105523,0.439404 -0.07653,0.585643 -0.184035,0.147828 -0.446899,0.124565 -0.586779,-0.04957 -0.14306,-0.178099 -0.107502,-0.437815 0.08049,-0.588822 0.180077,-0.14465 0.44453,-0.119408 0.582821,0.05275 z"
       style="font-style:normal;font-variant:normal;font-weight:bold;font-stretch:normal;font-size:2.53822923px;font-family:'URW Gothic L';-inkscape-font-specification:'URW Gothic L';fill:#d80027;fill-opacity:1;stroke-width:0.06798828;stroke-miterlimit:4;stroke-dasharray:none"
       id="path6026" /><path
       d="m 27.537649,27.004583 0.233609,0.243701 0.234539,-0.224826 -0.233608,-0.243702 z"
       style="font-style:normal;font-variant:normal;font-weight:bold;font-stretch:normal;font-size:2.53822923px;font-family:'URW Gothic L';-inkscape-font-specification:'URW Gothic L';fill:#d80027;fill-opacity:1;stroke-width:0.06798828;stroke-miterlimit:4;stroke-dasharray:none"
       id="path6028" /><path
       d="m 28.038645,27.513076 0.246952,0.23017 0.749349,-0.803987 0.148543,0.138448 0.209402,-0.224671 -0.148543,-0.138447 0.320161,-0.343505 -0.246952,-0.23017 -0.320161,0.343505 -0.12069,-0.112489 -0.209403,0.224671 0.120691,0.112489 z"
       style="font-style:normal;font-variant:normal;font-weight:bold;font-stretch:normal;font-size:2.53822923px;font-family:'URW Gothic L';-inkscape-font-specification:'URW Gothic L';fill:#d80027;fill-opacity:1;stroke-width:0.06798828;stroke-miterlimit:4;stroke-dasharray:none"
       id="path6030" /><path
       d="m 28.566288,27.992249 0.258653,0.216938 0.903637,-1.077394 -0.258653,-0.216938 z m 1.001504,-1.19408 0.258653,0.216939 0.203889,-0.243095 -0.258652,-0.216938 z"
       style="font-style:normal;font-variant:normal;font-weight:bold;font-stretch:normal;font-size:2.53822923px;font-family:'URW Gothic L';-inkscape-font-specification:'URW Gothic L';fill:#d80027;fill-opacity:1;stroke-width:0.06798828;stroke-miterlimit:4;stroke-dasharray:none"
       id="path6032" /><path
       d="m 28.757272,28.776592 0.27606,0.194303 0.34624,-0.491928 c 0.03804,0.166451 0.116756,0.283932 0.2579,0.383275 0.332103,0.233748 0.756108,0.147297 1.001544,-0.201411 0.243975,-0.346633 0.179972,-0.767253 -0.152131,-1.001002 -0.155673,-0.109569 -0.32942,-0.144951 -0.491719,-0.103988 l 0.09496,-0.134917 -0.253229,-0.178233 z m 1.516094,-0.88837 c 0.186808,0.131484 0.22338,0.38381 0.08313,0.583071 -0.137327,0.195111 -0.387195,0.245829 -0.569851,0.117267 -0.195111,-0.137327 -0.235219,-0.389038 -0.09351,-0.590376 0.138788,-0.197186 0.38927,-0.244367 0.580229,-0.109962 z"
       style="font-style:normal;font-variant:normal;font-weight:bold;font-stretch:normal;font-size:2.53822923px;font-family:'URW Gothic L';-inkscape-font-specification:'URW Gothic L';fill:#d80027;fill-opacity:1;stroke-width:0.06798828;stroke-miterlimit:4;stroke-dasharray:none"
       id="path6034" /><path
       d="m 30.557267,28.901293 c -0.05435,0.126745 -0.06953,0.199837 -0.05851,0.293619 0.0194,0.151053 0.122203,0.293954 0.270142,0.377829 0.245093,0.138956 0.541097,0.0646 0.673794,-0.169452 0.06009,-0.105986 0.07042,-0.216841 0.02915,-0.319022 -0.02384,-0.06603 -0.07918,-0.138257 -0.166383,-0.231467 -0.09795,-0.105138 -0.09795,-0.105138 -0.119146,-0.13466 -0.02973,-0.0402 -0.03333,-0.08017 -0.0133,-0.115498 0.0338,-0.05962 0.107414,-0.07624 0.171447,-0.03993 0.06183,0.03505 0.08279,0.09071 0.05974,0.162251 l 0.287045,0.162742 c 0.05442,-0.106282 0.06518,-0.181878 0.04312,-0.281919 -0.02846,-0.129929 -0.115736,-0.243603 -0.237178,-0.312455 -0.227429,-0.128942 -0.498918,-0.06695 -0.617845,0.142817 -0.101401,0.178851 -0.06183,0.335503 0.134733,0.554905 0.09133,0.101382 0.09766,0.110805 0.117303,0.148204 0.02281,0.04211 0.0239,0.0865 0.0014,0.126242 -0.03881,0.06845 -0.125009,0.08669 -0.200083,0.04412 -0.08611,-0.04882 -0.109653,-0.120525 -0.07952,-0.240577 z"
       style="font-style:normal;font-variant:normal;font-weight:bold;font-stretch:normal;font-size:2.53822923px;font-family:'URW Gothic L';-inkscape-font-specification:'URW Gothic L';fill:#d80027;fill-opacity:1;stroke-width:0.06798828;stroke-miterlimit:4;stroke-dasharray:none"
       id="path6036" /></g><path
     style="fill:none;fill-rule:evenodd;stroke:none;stroke-width:0.06798828;stroke-linecap:butt;stroke-linejoin:miter;stroke-opacity:1;stroke-miterlimit:4;stroke-dasharray:none"
     d="m 22.24096,12.970179 c 1.294582,7.443838 2.75577,13.639222 9.137068,16.892432"
     id="path4703"
     inkscape:connector-curvature="0" /><path
     style="fill:none;fill-rule:evenodd;stroke:none;stroke-width:0.06798828;stroke-linecap:butt;stroke-linejoin:miter;stroke-opacity:1;stroke-miterlimit:4;stroke-dasharray:none"
     d="M 1.5154161,34.324245 C 11.055168,27.80982 5.8703641,14.129195 11.588476,5.1301989"
     id="path4801"
     inkscape:connector-curvature="0" /><g
     aria-label="In Ghent"
     style="font-style:normal;font-weight:normal;font-size:1.2237891px;line-height:125%;font-family:Sans;letter-spacing:0px;word-spacing:0px;fill:#d80027;fill-opacity:1;stroke:none;stroke-width:0.06798828px;stroke-linecap:butt;stroke-linejoin:miter;stroke-opacity:1"
     id="text4818"><path
       d="M 21.116192,2.4978237 21.448721,2.5995382 21.997386,0.80582408 21.664857,0.70410953 Z"
       style="font-style:normal;font-variant:normal;font-weight:bold;font-stretch:normal;font-size:2.53822923px;font-family:'URW Gothic L';-inkscape-font-specification:'URW Gothic L';fill:#d80027;fill-opacity:1;stroke-width:0.06798828px"
       id="path5917" /><path
       d="m 21.765706,2.6835868 0.310931,0.1314728 0.258003,-0.6101732 c 0.07315,-0.1729993 0.116472,-0.2428673 0.182905,-0.2891838 0.08172,-0.056389 0.181333,-0.063872 0.279522,-0.022355 0.07949,0.03361 0.133083,0.089342 0.152428,0.1609054 0.01836,0.073901 -0.0035,0.1776603 -0.07662,0.3506596 l -0.267888,0.6335515 0.310931,0.1314728 0.293589,-0.6943351 c 0.09786,-0.231445 0.121934,-0.3535459 0.09431,-0.483728 -0.03276,-0.1571537 -0.14535,-0.281924 -0.325362,-0.3580398 -0.147284,-0.062277 -0.26893,-0.061353 -0.429944,8.8e-5 l 0.05239,-0.1239049 -0.287553,-0.1215876 z"
       style="font-style:normal;font-variant:normal;font-weight:bold;font-stretch:normal;font-size:2.53822923px;font-family:'URW Gothic L';-inkscape-font-specification:'URW Gothic L';fill:#d80027;fill-opacity:1;stroke-width:0.06798828px"
       id="path5919" /><path
       d="m 24.750654,3.6929132 0.549219,0.5491976 c -0.218964,0.075386 -0.448699,0.017957 -0.622798,-0.1561351 -0.260251,-0.2602407 -0.263849,-0.6550965 -0.01079,-0.9081682 0.114865,-0.1148694 0.288959,-0.1920492 0.443311,-0.1956419 0.161532,-0.00718 0.32486,0.062812 0.452294,0.1902397 0.154355,0.1543496 0.220767,0.3428022 0.188464,0.5402307 l 0.288969,0.2889569 C 26.191877,3.6767312 26.093154,3.2298282 25.804186,2.9408714 25.416501,2.5532025 24.80268,2.5460355 24.42219,2.9265405 c -0.387669,0.3876844 -0.375093,1.0033002 0.03233,1.4107115 0.199226,0.1992187 0.441526,0.3015174 0.707156,0.2979225 0.249477,-0.00539 0.482799,-0.1023132 0.653302,-0.2728225 l 0.03231,-0.032307 -0.866906,-0.8668707 z"
       style="font-style:normal;font-variant:normal;font-weight:bold;font-stretch:normal;font-size:2.53822923px;font-family:'URW Gothic L';-inkscape-font-specification:'URW Gothic L';fill:#d80027;fill-opacity:1;stroke-width:0.06798828px"
       id="path5921" /><path
       d="m 25.228352,5.216356 0.159532,0.2975111 0.628576,-0.337056 c 0.123031,-0.065972 0.198373,-0.091971 0.271089,-0.090642 0.09885,0.00172 0.18333,0.057221 0.236107,0.1556459 0.09356,0.1744802 0.02665,0.2967644 -0.232837,0.435905 l -0.63305,0.339455 0.159532,0.2975111 0.700157,-0.3754396 c 0.181191,-0.097158 0.269858,-0.1735047 0.329186,-0.2830807 0.08312,-0.1511371 0.0757,-0.3314844 -0.01906,-0.5082016 C 26.759215,5.0204599 26.670647,4.9412269 26.542138,4.8949315 L 27.040972,4.6274457 26.88144,4.3299346 Z"
       style="font-style:normal;font-variant:normal;font-weight:bold;font-stretch:normal;font-size:2.53822923px;font-family:'URW Gothic L';-inkscape-font-specification:'URW Gothic L';fill:#d80027;fill-opacity:1;stroke-width:0.06798828px"
       id="path5923" /><path
       d="m 26.916748,7.6904354 c 0.04876,-0.00719 0.07821,-0.015366 0.125825,-0.03296 C 27.45209,7.506166 27.64564,7.1072333 27.500489,6.7143832 27.357097,6.3262951 26.936478,6.1326396 26.54839,6.2760314 c -0.385708,0.142512 -0.570461,0.5652538 -0.421791,0.9676275 0.08005,0.2166627 0.221082,0.356677 0.431626,0.4358296 0.08038,0.027127 0.147454,0.040226 0.222037,0.037023 L 26.652705,7.3712794 C 26.527558,7.3255167 26.462815,7.2601423 26.414431,7.1291923 26.344934,6.9411004 26.39391,6.7660601 26.539355,6.6690254 Z m -0.102345,-1.133859 c 0.187518,-0.01246 0.327878,0.081801 0.397374,0.2698926 0.07214,0.1952345 0.02679,0.3581121 -0.127305,0.4610465 z"
       style="font-style:normal;font-variant:normal;font-weight:bold;font-stretch:normal;font-size:2.53822923px;font-family:'URW Gothic L';-inkscape-font-specification:'URW Gothic L';fill:#d80027;fill-opacity:1;stroke-width:0.06798828px"
       id="path5925" /><path
       d="m 26.456641,8.1032583 0.100708,0.3222131 0.632313,-0.1976294 c 0.179276,-0.056033 0.260587,-0.06815 0.338871,-0.047409 0.09585,0.025888 0.165959,0.097051 0.197761,0.1988029 0.02575,0.08237 0.01788,0.159291 -0.02422,0.2203144 -0.04451,0.061781 -0.137785,0.1122071 -0.317061,0.1682399 l -0.65654,0.2052014 0.100708,0.322213 0.719528,-0.2248886 c 0.239843,-0.074963 0.348559,-0.135535 0.430017,-0.2407743 0.09872,-0.12659 0.121121,-0.2931509 0.06282,-0.4796953 -0.0477,-0.1526272 -0.127051,-0.2448372 -0.278018,-0.3279588 l 0.128401,-0.040132 -0.09314,-0.2979865 z"
       style="font-style:normal;font-variant:normal;font-weight:bold;font-stretch:normal;font-size:2.53822923px;font-family:'URW Gothic L';-inkscape-font-specification:'URW Gothic L';fill:#d80027;fill-opacity:1;stroke-width:0.06798828px"
       id="path5927" /><path
       d="m 26.914951,9.5865296 0.09885,0.3227871 1.050878,-0.3218271 0.05946,0.1941577 0.293664,-0.089933 -0.05946,-0.1941577 0.448989,-0.1375012 -0.09885,-0.3227871 -0.44899,0.1375012 -0.04831,-0.1577531 -0.293663,0.089933 0.04831,0.1577531 z"
       style="font-style:normal;font-variant:normal;font-weight:bold;font-stretch:normal;font-size:2.53822923px;font-family:'URW Gothic L';-inkscape-font-specification:'URW Gothic L';fill:#d80027;fill-opacity:1;stroke-width:0.06798828px"
       id="path5929" /></g><path
     style="fill:none;fill-rule:evenodd;stroke:none;stroke-width:0.06798828px;stroke-linecap:butt;stroke-linejoin:miter;stroke-opacity:1"
     d="M 20.948399,2.4514084 C 25.440121,3.701464 25.804414,6.0374709 27.188348,10.4742"
     id="path4827"
     inkscape:connector-curvature="0" /><g
     aria-label="2nd Saturday of the Month"
     style="font-style:normal;font-variant:normal;font-weight:normal;font-stretch:normal;font-size:1.2237891px;line-height:125%;font-family:'URW Gothic L';-inkscape-font-specification:'URW Gothic L';letter-spacing:0px;word-spacing:0px;fill:#d8002f;fill-opacity:0.94117647;stroke:none;stroke-width:0.06798828px;stroke-linecap:butt;stroke-linejoin:miter;stroke-opacity:1"
     id="text4580"><path
       d="m 3.5630479,32.484259 0.8644528,-0.851325 -0.2226269,-0.22606 -0.5262672,0.518275 0.029081,-0.516694 c 0.010388,-0.184791 0.00746,-0.270966 -0.01331,-0.371636 -0.022357,-0.127606 -0.08428,-0.244745 -0.173331,-0.335169 -0.242218,-0.245953 -0.6155252,-0.248809 -0.8632868,-0.0048 -0.1555292,0.153167 -0.2235689,0.366234 -0.178416,0.564013 0.027727,0.129441 0.086199,0.228605 0.2126507,0.357007 L 2.9289051,31.384548 C 2.7721759,31.225401 2.752067,31.038583 2.8768521,30.915693 c 0.1103171,-0.108642 0.2825579,-0.100145 0.4001048,0.01921 0.085489,0.08681 0.1168604,0.209097 0.1098695,0.419041 l -0.032157,0.918718 z"
       style="font-style:normal;font-variant:normal;font-weight:bold;font-stretch:normal;font-size:2.53822923px;font-family:'URW Gothic L';-inkscape-font-specification:'URW Gothic L';fill:#d8002f;fill-opacity:0.94117647;stroke-width:0.06798828px"
       id="path5932" /><path
       d="M 4.5934305,31.44703 4.8004606,31.180381 4.2771864,30.774104 c -0.1483612,-0.11519 -0.2047343,-0.175026 -0.2324036,-0.251137 -0.033472,-0.09347 -0.015079,-0.191661 0.050299,-0.275866 0.052925,-0.06817 0.1205688,-0.105624 0.1947002,-0.105909 0.076136,0.0013 0.1707893,0.04905 0.3191506,0.164243 L 5.152256,30.727278 5.3592861,30.460629 4.7638362,29.998313 C 4.5653529,29.844208 4.4535525,29.789539 4.320644,29.782751 c -0.160292,-0.0088 -0.3098258,0.06794 -0.4296853,0.222316 -0.098067,0.126307 -0.1284652,0.244098 -0.11051,0.415498 l -0.1062588,-0.0825 -0.1914639,0.246601 z"
       style="font-style:normal;font-variant:normal;font-weight:bold;font-stretch:normal;font-size:2.53822923px;font-family:'URW Gothic L';-inkscape-font-specification:'URW Gothic L';fill:#d8002f;fill-opacity:0.94117647;stroke-width:0.06798828px"
       id="path5934" /><path
       d="m 4.6062561,28.06445 -0.1696763,0.291844 0.5134707,0.298529 c -0.1441104,0.03072 -0.2828115,0.137987 -0.3721149,0.291589 -0.1977431,0.34012 -0.068125,0.773676 0.2961325,0.985452 0.3598684,0.209225 0.7929142,0.105735 0.9932089,-0.238774 0.095682,-0.164574 0.1109911,-0.317155 0.046947,-0.51 l 0.157991,0.09185 0.155643,-0.267707 z m 0.263626,0.995913 c 0.1186459,-0.204071 0.373799,-0.264186 0.586648,-0.140437 0.2106546,0.122473 0.2846495,0.373952 0.1698309,0.571441 -0.1186459,0.204071 -0.3794634,0.263829 -0.5945067,0.138804 -0.206266,-0.119922 -0.2780666,-0.370125 -0.1619722,-0.569808 z"
       style="font-style:normal;font-variant:normal;font-weight:bold;font-stretch:normal;font-size:2.53822923px;font-family:'URW Gothic L';-inkscape-font-specification:'URW Gothic L';fill:#d8002f;fill-opacity:0.94117647;stroke-width:0.06798828px"
       id="path5936" /><path
       d="m 6.0902435,28.026174 c 0.1417978,0.04156 0.2412854,0.04487 0.3611524,0.0098 0.1753318,-0.05161 0.3205875,-0.193912 0.3923863,-0.378416 0.1224261,-0.314603 -0.026403,-0.653054 -0.3433712,-0.776401 -0.1442917,-0.05615 -0.2908313,-0.05053 -0.4250301,0.01436 -0.090561,0.04374 -0.1434039,0.08855 -0.2735465,0.234006 -0.1259362,0.141648 -0.1301426,0.145458 -0.1535402,0.163589 -0.065066,0.04822 -0.1323579,0.06016 -0.1962247,0.03531 -0.1040792,-0.0405 -0.1488723,-0.142366 -0.1074499,-0.248811 0.042343,-0.10881 0.134349,-0.149268 0.2563028,-0.112705 l 0.1307107,-0.335892 c -0.135226,-0.04445 -0.2370791,-0.04868 -0.3522152,-0.01178 -0.1550917,0.04859 -0.2826012,0.173286 -0.3461155,0.336501 -0.1095392,0.281487 0.022079,0.594176 0.2988348,0.701874 0.2199857,0.08561 0.4385591,0.02086 0.6172095,-0.179258 0.1786504,-0.200119 0.1912697,-0.211551 0.2526535,-0.250307 0.062829,-0.03547 0.1353762,-0.03992 0.2087047,-0.01139 0.1253682,0.04879 0.175149,0.179828 0.1208396,0.319389 -0.05615,0.144291 -0.1574899,0.194736 -0.3096699,0.151858 z"
       style="font-style:normal;font-variant:normal;font-weight:bold;font-stretch:normal;font-size:2.53822923px;font-family:'URW Gothic L';-inkscape-font-specification:'URW Gothic L';fill:#d8002f;fill-opacity:0.94117647;stroke-width:0.06798828px"
       id="path5938" /><path
       d="m 6.1531625,25.129559 -0.087797,0.296957 0.1801214,0.05325 c -0.1815824,0.06807 -0.2844491,0.183232 -0.3420211,0.377957 -0.1180227,0.399188 0.096449,0.774926 0.5078079,0.896547 0.4064901,0.120181 0.7852121,-0.07753 0.9017954,-0.471847 0.056133,-0.189858 0.033422,-0.336855 -0.07448,-0.50904 l 0.1752533,0.05182 0.087797,-0.296957 z m 0.057335,0.781889 c 0.068367,-0.231237 0.2901222,-0.345659 0.5359636,-0.272974 0.097363,0.02879 0.1978158,0.100835 0.2486983,0.179403 0.05846,0.08875 0.071328,0.206367 0.034626,0.330505 -0.069806,0.236105 -0.2786715,0.351691 -0.5147766,0.281885 -0.2458413,-0.07268 -0.372878,-0.287582 -0.3045112,-0.518819 z"
       style="font-style:normal;font-variant:normal;font-weight:bold;font-stretch:normal;font-size:2.53822923px;font-family:'URW Gothic L';-inkscape-font-specification:'URW Gothic L';fill:#d8002f;fill-opacity:0.94117647;stroke-width:0.06798828px"
       id="path5940" /><path
       d="m 7.5629893,25.231211 0.077072,-0.328669 -1.0700273,-0.250917 0.046359,-0.197696 -0.2990146,-0.07012 -0.046359,0.197696 -0.457171,-0.107205 -0.077072,0.328669 0.457171,0.107205 -0.037667,0.160627 0.2990146,0.07012 0.037667,-0.160627 z"
       style="font-style:normal;font-variant:normal;font-weight:bold;font-stretch:normal;font-size:2.53822923px;font-family:'URW Gothic L';-inkscape-font-specification:'URW Gothic L';fill:#d8002f;fill-opacity:0.94117647;stroke-width:0.06798828px"
       id="path5942" /><path
       d="m 6.5771223,23.046764 -0.06259,0.331731 0.6509919,0.122827 c 0.1820782,0.03435 0.2695172,0.06377 0.3218489,0.114969 0.070874,0.06245 0.1008516,0.163677 0.079675,0.275917 -0.016,0.0848 -0.055673,0.144476 -0.1240047,0.178078 -0.068803,0.0361 -0.1748306,0.03675 -0.359403,0.0019 l -0.6759341,-0.127533 -0.06259,0.331732 0.7407839,0.139768 c 0.2344568,0.04424 0.3593561,0.03939 0.4886789,-0.01628 0.149606,-0.06734 0.2501745,-0.20335 0.2840578,-0.382934 0.03153,-0.167113 0.00889,-0.27987 -0.089793,-0.427641 l 0.1321937,0.02494 0.057884,-0.306789 z"
       style="font-style:normal;font-variant:normal;font-weight:bold;font-stretch:normal;font-size:2.53822923px;font-family:'URW Gothic L';-inkscape-font-specification:'URW Gothic L';fill:#d8002f;fill-opacity:0.94117647;stroke-width:0.06798828px"
       id="path5944" /><path
       d="M 7.9962033,23.039524 8.0461526,22.705655 7.2729829,22.589983 C 7.0570978,22.557685 6.9638021,22.443634 6.9888262,22.24206 l -0.3213173,-0.04807 -0.00376,0.0251 c -0.021407,0.143087 0.00824,0.219384 0.1231224,0.326397 L 6.65132,22.525208 6.6055018,22.831464 Z"
       style="font-style:normal;font-variant:normal;font-weight:bold;font-stretch:normal;font-size:2.53822923px;font-family:'URW Gothic L';-inkscape-font-specification:'URW Gothic L';fill:#d8002f;fill-opacity:0.94117647;stroke-width:0.06798828px"
       id="path5946" /><path
       d="m 6.4195144,20.608527 -0.03919,0.335302 0.5899299,0.06895 c -0.1198976,0.08565 -0.2043036,0.239338 -0.2249298,0.415813 -0.045672,0.390766 0.2461182,0.736642 0.6646154,0.785555 0.4134552,0.04832 0.7692846,-0.219303 0.8155461,-0.615111 0.022099,-0.18908 -0.024721,-0.335105 -0.160368,-0.486401 l 0.1815169,0.02121 0.035948,-0.30757 z m 0.6389792,0.808113 c 0.027403,-0.234459 0.2374043,-0.391355 0.4819479,-0.362773 0.2420225,0.02829 0.4101818,0.229382 0.3836624,0.456278 -0.027403,0.23446 -0.242741,0.393288 -0.4898057,0.364411 -0.2369804,-0.0277 -0.4026186,-0.228499 -0.3758046,-0.457916 z"
       style="font-style:normal;font-variant:normal;font-weight:bold;font-stretch:normal;font-size:2.53822923px;font-family:'URW Gothic L';-inkscape-font-specification:'URW Gothic L';fill:#d8002f;fill-opacity:0.94117647;stroke-width:0.06798828px"
       id="path5948" /><path
       d="m 7.0224493,19.034457 -0.02572,0.308594 0.18718,0.0156 c -0.1639948,0.103495 -0.2413558,0.237134 -0.2582214,0.439491 -0.034575,0.414831 0.2516721,0.739238 0.6791507,0.774867 0.4224196,0.03521 0.7531501,-0.235231 0.787303,-0.645003 0.016444,-0.197298 -0.035619,-0.33663 -0.1762131,-0.48334 l 0.1821211,0.01518 0.02572,-0.308594 z m 0.214784,0.753994 c 0.020028,-0.240299 0.2139552,-0.397334 0.4694306,-0.376041 0.1011783,0.0084 0.2141603,0.0586 0.2799255,0.125212 0.075251,0.07504 0.1117155,0.187603 0.1009637,0.316605 -0.02045,0.245358 -0.2015188,0.400917 -0.4468763,0.380468 -0.2554754,-0.02129 -0.4234715,-0.205946 -0.4034435,-0.446244 z"
       style="font-style:normal;font-variant:normal;font-weight:bold;font-stretch:normal;font-size:2.53822923px;font-family:'URW Gothic L';-inkscape-font-specification:'URW Gothic L';fill:#d8002f;fill-opacity:0.94117647;stroke-width:0.06798828px"
       id="path5950" /><path
       d="m 8.9155346,18.799966 0.022377,-0.362277 -1.8221088,-0.926329 -0.023942,0.387611 0.8885222,0.395653 -0.9287384,0.255431 -0.023785,0.385077 1.3035334,-0.435726 z"
       style="font-style:normal;font-variant:normal;font-weight:bold;font-stretch:normal;font-size:2.53822923px;font-family:'URW Gothic L';-inkscape-font-specification:'URW Gothic L';fill:#d8002f;fill-opacity:0.94117647;stroke-width:0.06798828px"
       id="path5952" /><path
       d="m 7.1560199,15.973767 c -0.018753,0.408224 0.2980302,0.758176 0.7011835,0.776696 0.4056888,0.01864 0.7506859,-0.300916 0.7695551,-0.711675 0.018753,-0.408225 -0.2952617,-0.763131 -0.6908083,-0.781302 -0.4183666,-0.01922 -0.7604787,0.292843 -0.7799303,0.716281 z m 0.3094542,0.01167 c 0.010366,-0.225664 0.2114549,-0.399372 0.444726,-0.388656 0.2358067,0.01083 0.417587,0.202128 0.4073371,0.425257 -0.010483,0.2282 -0.2089193,0.399489 -0.4497971,0.388423 -0.2307355,-0.0106 -0.4123994,-0.20443 -0.402266,-0.425024 z"
       style="font-style:normal;font-variant:normal;font-weight:bold;font-stretch:normal;font-size:2.53822923px;font-family:'URW Gothic L';-inkscape-font-specification:'URW Gothic L';fill:#d8002f;fill-opacity:0.94117647;stroke-width:0.06798828px"
       id="path5954" /><path
       d="m 8.6360646,15.086057 0.014816,-0.337259 -1.0979942,-0.04824 0.00836,-0.190184 -0.281472,-0.01236 -0.00835,0.190183 C 7.1447367,14.680091 7.1035222,14.635088 7.109315,14.503228 l 0.00145,-0.03297 -0.3195087,-0.01404 c -0.00685,0.04035 -0.00775,0.06064 -0.00875,0.08346 -0.00635,0.14454 0.041555,0.268597 0.1417341,0.359381 0.078137,0.07203 0.1581683,0.100953 0.3323576,0.126391 l -0.00535,0.121717 0.2814719,0.01236 0.00535,-0.121717 z"
       style="font-style:normal;font-variant:normal;font-weight:bold;font-stretch:normal;font-size:2.53822923px;font-family:'URW Gothic L';-inkscape-font-specification:'URW Gothic L';fill:#d8002f;fill-opacity:0.94117647;stroke-width:0.06798828px"
       id="path5956" /><path
       d="m 8.7012561,13.628982 0.016162,-0.337197 -1.0977929,-0.05262 0.00972,-0.202826 -0.3067736,-0.0147 -0.00972,0.202826 -0.4690339,-0.02248 -0.016162,0.337198 0.469034,0.02248 -0.0079,0.164796 0.3067735,0.0147 0.0079,-0.164796 z"
       style="font-style:normal;font-variant:normal;font-weight:bold;font-stretch:normal;font-size:2.53822923px;font-family:'URW Gothic L';-inkscape-font-specification:'URW Gothic L';fill:#d8002f;fill-opacity:0.94117647;stroke-width:0.06798828px"
       id="path5958" /><path
       d="m 8.7342368,12.917562 0.018986,-0.337051 -0.7121135,-0.04011 c -0.1393817,-0.0079 -0.2172285,-0.02495 -0.2785852,-0.064 -0.083451,-0.053 -0.1266047,-0.144414 -0.1203236,-0.255919 0.011135,-0.197668 0.1319909,-0.267128 0.4259595,-0.250569 l 0.7171819,0.0404 0.018986,-0.33705 -0.7932083,-0.04468 c -0.2052712,-0.01156 -0.3207382,0.0074 -0.4284952,0.06993 -0.1497319,0.08563 -0.2374285,0.243393 -0.2487059,0.443596 -0.00814,0.14445 0.026129,0.258239 0.111651,0.364747 l -0.5651292,-0.03183 -0.018986,0.33705 z"
       style="font-style:normal;font-variant:normal;font-weight:bold;font-stretch:normal;font-size:2.53822923px;font-family:'URW Gothic L';-inkscape-font-specification:'URW Gothic L';fill:#d8002f;fill-opacity:0.94117647;stroke-width:0.06798828px"
       id="path5960" /><path
       d="M 8.3732249,9.9665633 C 8.3258996,9.9528092 8.2957183,9.9479855 8.2450978,9.9441643 7.8097609,9.9113026 7.4677334,10.193484 7.4362091,10.611104 c -0.031142,0.412557 0.2707142,0.763706 0.6832718,0.794848 0.4100266,0.03095 0.7539646,-0.27654 0.7862532,-0.704284 0.017386,-0.230323 -0.052573,-0.416331 -0.2110704,-0.575932 -0.061795,-0.05812 -0.1173335,-0.09795 -0.1864827,-0.1260763 l -0.027703,0.3669993 c 0.094745,0.0937 0.1264057,0.180087 0.1158976,0.319293 -0.015093,0.199952 -0.1324779,0.338727 -0.3051137,0.366423 z M 7.9943671,11.040145 C 7.8186763,10.973428 7.7302832,10.829302 7.7453767,10.62935 7.7610433,10.421806 7.8700705,10.292582 8.0530215,10.263119 Z"
       style="font-style:normal;font-variant:normal;font-weight:bold;font-stretch:normal;font-size:2.53822923px;font-family:'URW Gothic L';-inkscape-font-specification:'URW Gothic L';fill:#d8002f;fill-opacity:0.94117647;stroke-width:0.06798828px"
       id="path5962" /><path
       d="M 9.0094668,9.0348966 9.0554101,8.6902076 7.6615581,8.5044225 9.1201331,8.2046238 9.1576925,7.9228343 7.8285636,7.2514653 9.2224155,7.4372505 9.2683588,7.0925614 7.4090509,6.8447361 7.3460046,7.31774 8.688888,8.001185 7.2132051,8.3140674 7.1501589,8.7870713 Z"
       style="font-style:normal;font-variant:normal;font-weight:bold;font-stretch:normal;font-size:2.53822923px;font-family:'URW Gothic L';-inkscape-font-specification:'URW Gothic L';fill:#d8002f;fill-opacity:0.94117647;stroke-width:0.06798828px"
       id="path5964" /><path
       d="M 8.04412,5.8533658 C 7.9635966,6.2540088 8.2235665,6.6480053 8.6192326,6.7275283 9.0173872,6.8075515 9.4069069,6.5440929 9.4879304,6.1409614 9.5684537,5.7403184 9.3119726,5.3418451 8.9237719,5.2638225 8.513175,5.1812986 8.1276442,5.437792 8.04412,5.8533658 Z M 8.348213,5.911895 C 8.3927259,5.6904215 8.6178597,5.549263 8.8467986,5.5952763 9.0782259,5.6417898 9.2288504,5.8584702 9.1848377,6.0774552 9.1398246,6.3014172 8.9176794,6.4405874 8.6812751,6.3930736 8.4548247,6.3475604 8.3047004,6.1283915 8.348213,5.911895 Z"
       style="font-style:normal;font-variant:normal;font-weight:bold;font-stretch:normal;font-size:2.53822923px;font-family:'URW Gothic L';-inkscape-font-specification:'URW Gothic L';fill:#d8002f;fill-opacity:0.94117647;stroke-width:0.06798828px"
       id="path5966" /><path
       d="M 9.6489399,5.2132591 9.7395962,4.888075 9.1014529,4.7101705 C 8.9205233,4.6597302 8.8456917,4.6256932 8.7912645,4.5657244 8.7248939,4.4918859 8.7047409,4.3940418 8.7333692,4.2913521 8.7565445,4.2082223 8.8049699,4.147942 8.8734741,4.1196095 8.9444232,4.0919587 9.0501209,4.1003454 9.2310504,4.1507857 L 9.8936437,4.3355064 9.9843,4.0103223 9.2581369,3.8078793 C 9.0160825,3.7403983 8.8919066,3.7321302 8.7663231,3.7761701 8.6146449,3.8287453 8.5052875,3.9563594 8.4528023,4.1446239 8.4098598,4.2986584 8.4263231,4.4191891 8.5078382,4.5710302 L 8.3782535,4.534904 8.2944135,4.8356382 Z"
       style="font-style:normal;font-variant:normal;font-weight:bold;font-stretch:normal;font-size:2.53822923px;font-family:'URW Gothic L';-inkscape-font-specification:'URW Gothic L';fill:#d8002f;fill-opacity:0.94117647;stroke-width:0.06798828px"
       id="path5968" /><path
       d="M 10.093452,3.7054094 10.205536,3.386975 9.1688289,3.0220698 9.2362479,2.8305304 8.9465444,2.7285592 8.8791254,2.9200987 8.4361904,2.7641923 8.3241064,3.0826267 8.7670414,3.2385331 8.7122635,3.3941589 9.001967,3.4961301 9.0567449,3.3405042 Z"
       style="font-style:normal;font-variant:normal;font-weight:bold;font-stretch:normal;font-size:2.53822923px;font-family:'URW Gothic L';-inkscape-font-specification:'URW Gothic L';fill:#d8002f;fill-opacity:0.94117647;stroke-width:0.06798828px"
       id="path5970" /><path
       d="M 10.324578,3.0297898 10.462163,2.7215144 9.8108447,2.4308276 C 9.6833624,2.3739315 9.6166811,2.3302736 9.5732172,2.2719617 9.514065,2.1927503 9.5062322,2.0919702 9.551749,1.9899844 9.6324379,1.8091914 9.7700936,1.7872413 10.038965,1.9072402 L 10.69492,2.199996 10.832505,1.8917207 10.107014,1.5679307 C 9.9192678,1.4841384 9.8046194,1.4607657 9.6816564,1.4809345 9.5112629,1.5077303 9.373203,1.6240047 9.2914796,1.8071156 9.2325147,1.9392336 9.2240836,2.057771 9.2661477,2.1877264 L 8.749265,1.957039 8.6116801,2.2653143 Z"
       style="font-style:normal;font-variant:normal;font-weight:bold;font-stretch:normal;font-size:2.53822923px;font-family:'URW Gothic L';-inkscape-font-specification:'URW Gothic L';fill:#d8002f;fill-opacity:0.94117647;stroke-width:0.06798828px"
       id="path5972" /></g><path
     style="fill:none;fill-rule:evenodd;stroke:none;stroke-width:0.06798828px;stroke-linecap:butt;stroke-linejoin:miter;stroke-opacity:1"
     d="M 3.4765429,32.536875 C 11.475413,25.627191 6.3897701,9.7500952 11.098195,1.4262734"
     id="path4635"
     inkscape:connector-curvature="0" /></svg>