<?xml version="1.0" encoding="UTF-8" standalone="no"?>
<!-- Created with Inkscape (http://www.inkscape.org/) -->

<svg
   xmlns:dc="http://purl.org/dc/elements/1.1/"
   xmlns:cc="http://creativecommons.org/ns#"
   xmlns:rdf="http://www.w3.org/1999/02/22-rdf-syntax-ns#"
   xmlns:svg="http://www.w3.org/2000/svg"
   xmlns="http://www.w3.org/2000/svg"
   xmlns:sodipodi="http://sodipodi.sourceforge.net/DTD/sodipodi-0.dtd"
   xmlns:inkscape="http://www.inkscape.org/namespaces/inkscape"
   width="1024"
   height="512"
   viewBox="0 0 270.93333 135.46666"
   version="1.1"
   id="svg4604"
   inkscape:version="0.92.1 r15371"
   sodipodi:docname="dec2017-back-hover.svg">
  <defs
     id="defs4598" />
  <sodipodi:namedview
     id="base"
     pagecolor="#ffffff"
     bordercolor="#666666"
     borderopacity="1.0"
     inkscape:pageopacity="0.0"
     inkscape:pageshadow="2"
     inkscape:zoom="0.5"
     inkscape:cx="198.8333"
     inkscape:cy="241.14286"
     inkscape:document-units="mm"
     inkscape:current-layer="layer1"
     showgrid="false"
     inkscape:window-width="1920"
     inkscape:window-height="1016"
     inkscape:window-x="0"
     inkscape:window-y="27"
     inkscape:window-maximized="1"
     showguides="true"
     units="px" />
  <metadata
     id="metadata4601">
    <rdf:RDF>
      <cc:Work
         rdf:about="">
        <dc:format>image/svg+xml</dc:format>
        <dc:type
           rdf:resource="http://purl.org/dc/dcmitype/StillImage" />
        <dc:title></dc:title>
      </cc:Work>
    </rdf:RDF>
  </metadata>
  <g
     inkscape:label="Layer 1"
     inkscape:groupmode="layer"
     id="layer1"
     transform="translate(0,-161.53335)">
    <flowRoot
       xml:space="preserve"
       id="flowRoot5168"
       style="font-style:normal;font-variant:normal;font-weight:normal;font-stretch:normal;font-size:18px;line-height:125%;font-family:'URW Gothic L';-inkscape-font-specification:'URW Gothic L';letter-spacing:0px;word-spacing:0px;fill:#000000;fill-opacity:1;stroke:none;stroke-width:1px;stroke-linecap:butt;stroke-linejoin:miter;stroke-opacity:1"
       transform="matrix(0.26458333,0,0,0.26458333,0,-215)"><flowRegion
         id="flowRegion5170"><rect
           id="rect5172"
           width="865"
           height="205"
           x="350"
           y="-24.881836" /></flowRegion><flowPara
         id="flowPara5174" /></flowRoot>    <text
       xml:space="preserve"
       style="font-style:normal;font-variant:normal;font-weight:normal;font-stretch:normal;font-size:22.57777786px;line-height:125%;font-family:'URW Gothic L';-inkscape-font-specification:'URW Gothic L';letter-spacing:0px;word-spacing:0px;fill:#000000;fill-opacity:1;stroke:none;stroke-width:0.26458332px;stroke-linecap:butt;stroke-linejoin:miter;stroke-opacity:1"
       x="182.5625"
       y="-159.40623"
       id="text5178"><tspan
         sodipodi:role="line"
         id="tspan5176"
         x="182.5625"
         y="-138.43324"
         style="stroke-width:0.26458332px" /></text>
    <g
       aria-label="9 December 2017
Port Arthurlaan 33, 9000 Ghent
Practica: 18:00 - 20:00 - € 0
Milonga: 20:00 - 2:00 - € 7
José Santos Torres"
       style="font-style:normal;font-variant:normal;font-weight:normal;font-stretch:normal;font-size:22.57777786px;line-height:100%;font-family:'URW Gothic L';-inkscape-font-specification:'URW Gothic L';letter-spacing:0px;word-spacing:0px;fill:#000000;fill-opacity:1;stroke:none;stroke-width:0.26458332px;stroke-linecap:butt;stroke-linejoin:miter;stroke-opacity:1"
       id="text5841">
      <path
         d="m 46.409595,200.77249 2.451101,-3.683 c 0.6731,-1.0033 0.9271,-1.7272 0.9271,-2.6162 0,-1.8669 -1.397,-3.2512 -3.289301,-3.2512 -1.8542,0 -3.1877,1.4097 -3.1877,3.3655 0,1.7018 1.1176,2.9972 2.5781,2.9972 0.2794,0 0.4572,-0.0381 0.762,-0.1524 l -2.2606,3.3401 z m 0.0889,-8.001 c 0.927101,0 1.600201,0.6858 1.600201,1.651 0,0.9779 -0.635,1.6637 -1.562101,1.6637 -0.889,0 -1.5367,-0.6985 -1.5367,-1.6637 0,-0.9652 0.6096,-1.651 1.4986,-1.651 z"
         style="font-weight:bold;font-size:12.70000172px;line-height:100%;fill:#d8d8d8;fill-opacity:0.94117647;stroke-width:0.26458332px"
         id="path4544" />
      <path
         d="m 54.561012,200.77249 h 2.1844 c 1.4224,0 2.2733,-0.1397 3.0353,-0.5207 1.447801,-0.7112 2.298701,-2.2606 2.298701,-4.1529 0,-1.778 -0.7366,-3.2512 -2.044701,-4.0386 -0.7366,-0.4445 -1.8542,-0.6731 -3.3274,-0.6731 h -2.1463 z m 1.7399,-1.6637 v -6.0579 h 0.3429 c 1.1049,0 1.7018,0.1016 2.2479,0.381 0.889,0.4572 1.4351,1.4605 1.4351,2.667 0,1.1303 -0.5207,2.1336 -1.3589,2.5908 -0.5207,0.2921 -1.2446,0.4191 -2.286,0.4191 z"
         style="font-weight:bold;font-size:12.70000172px;line-height:100%;fill:#d8d8d8;fill-opacity:0.94117647;stroke-width:0.26458332px"
         id="path4546" />
      <path
         d="m 70.235593,198.00389 c 0.0508,-0.2413 0.0635,-0.3937 0.0635,-0.6477 0,-2.1844 -1.5367,-3.7846 -3.632201,-3.7846 -2.0701,0 -3.7084,1.6383 -3.7084,3.7084 0,2.0574 1.6637,3.6576 3.81,3.6576 1.1557,0 2.057401,-0.4191 2.794001,-1.27 0.2667,-0.3302 0.4445,-0.6223 0.5588,-0.9779 h -1.8415 c -0.431801,0.508 -0.850901,0.6985 -1.549401,0.6985 -1.0033,0 -1.7399,-0.5334 -1.9431,-1.3843 z m -5.499101,-1.4859 c 0.2667,-0.9017 0.9525,-1.397 1.9558,-1.397 1.0414,0 1.727201,0.4953 1.943101,1.397 z"
         style="font-weight:bold;font-size:12.70000172px;line-height:100%;fill:#d8d8d8;fill-opacity:0.94117647;stroke-width:0.26458332px"
         id="path4548" />
      <path
         d="m 76.441131,198.46109 c -0.4191,0.6477 -0.9017,0.9271 -1.6002,0.9271 -1.1684,0 -2.0447,-0.9144 -2.0447,-2.1463 0,-1.2319 0.8382,-2.1209 2.0066,-2.1209 0.762,0 1.2954,0.3175 1.6383,0.9652 h 1.905 c -0.2413,-0.7112 -0.4699,-1.0795 -0.9525,-1.524 -0.6858,-0.635 -1.6129,-0.9906 -2.5908,-0.9906 -2.0828,0 -3.708401,1.6129 -3.708401,3.683 0,2.0447 1.676401,3.683 3.759201,3.683 1.6383,0 2.9083,-0.9017 3.4925,-2.4765 z"
         style="font-weight:bold;font-size:12.70000172px;line-height:100%;fill:#d8d8d8;fill-opacity:0.94117647;stroke-width:0.26458332px"
         id="path4550" />
      <path
         d="m 86.50747,198.00389 c 0.0508,-0.2413 0.0635,-0.3937 0.0635,-0.6477 0,-2.1844 -1.5367,-3.7846 -3.6322,-3.7846 -2.070101,0 -3.708401,1.6383 -3.708401,3.7084 0,2.0574 1.6637,3.6576 3.810001,3.6576 1.1557,0 2.0574,-0.4191 2.794,-1.27 0.2667,-0.3302 0.4445,-0.6223 0.5588,-0.9779 h -1.8415 c -0.4318,0.508 -0.8509,0.6985 -1.5494,0.6985 -1.003301,0 -1.739901,-0.5334 -1.943101,-1.3843 z m -5.499101,-1.4859 c 0.2667,-0.9017 0.9525,-1.397 1.955801,-1.397 1.0414,0 1.7272,0.4953 1.9431,1.397 z"
         style="font-weight:bold;font-size:12.70000172px;line-height:100%;fill:#d8d8d8;fill-opacity:0.94117647;stroke-width:0.26458332px"
         id="path4552" />
      <path
         d="m 87.671106,200.77249 h 1.6891 v -3.4671 c 0,-0.6985 0.0635,-1.1684 0.1778,-1.4605 0.2032,-0.4572 0.635,-0.7239 1.1938,-0.7239 0.4572,0 0.8509,0.1651 1.0795,0.4445 0.2032,0.2667 0.2921,0.6858 0.2921,1.3462 v 3.8608 h 1.689101 v -3.4671 c 0,-0.7874 0.0635,-1.1811 0.2413,-1.5113 0.2159,-0.4318 0.6477,-0.6731 1.1811,-0.6731 0.4191,0 0.7747,0.1524 1.0033,0.4318 0.2286,0.2667 0.3175,0.6604 0.3175,1.3589 v 3.8608 h 1.6891 v -4.064 c 0,-0.8509 -0.1524,-1.5367 -0.4572,-2.0193 -0.4445,-0.7112 -1.3335,-1.1176 -2.3876,-1.1176 -0.9906,0 -1.6891,0.3302 -2.2606,1.0922 -0.4826,-0.762 -1.104901,-1.0922 -2.070101,-1.0922 -0.8255,0 -1.3335,0.2286 -1.8288,0.8255 v -0.6604 h -1.5494 z"
         style="font-weight:bold;font-size:12.70000172px;line-height:100%;fill:#d8d8d8;fill-opacity:0.94117647;stroke-width:0.26458332px"
         id="path4554" />
      <path
         d="m 99.602163,200.77249 h 1.549397 v -0.9017 c 0.7239,0.7747 1.397,1.0668 2.4384,1.0668 1.0922,0 1.9558,-0.4064 2.6035,-1.2319 0.5334,-0.6858 0.8255,-1.5621 0.8255,-2.5019 0,-2.1209 -1.524,-3.7211 -3.5433,-3.7211 -0.9144,0 -1.5367,0.254 -2.1844,0.9017 v -2.9972 h -1.689097 z m 3.632197,-5.7404 c 1.2065,0 2.0828,0.9271 2.0828,2.1844 0,1.2827 -0.8382,2.1717 -2.0447,2.1717 -1.2192,0 -2.0828,-0.9017 -2.0828,-2.1844 0,-1.27 0.8636,-2.1717 2.0447,-2.1717 z"
         style="font-weight:bold;font-size:12.70000172px;line-height:100%;fill:#d8d8d8;fill-opacity:0.94117647;stroke-width:0.26458332px"
         id="path4556" />
      <path
         d="m 114.95845,198.00389 c 0.0508,-0.2413 0.0635,-0.3937 0.0635,-0.6477 0,-2.1844 -1.5367,-3.7846 -3.6322,-3.7846 -2.0701,0 -3.7084,1.6383 -3.7084,3.7084 0,2.0574 1.6637,3.6576 3.81,3.6576 1.1557,0 2.0574,-0.4191 2.794,-1.27 0.2667,-0.3302 0.4445,-0.6223 0.5588,-0.9779 h -1.8415 c -0.4318,0.508 -0.8509,0.6985 -1.5494,0.6985 -1.0033,0 -1.7399,-0.5334 -1.9431,-1.3843 z m -5.4991,-1.4859 c 0.2667,-0.9017 0.9525,-1.397 1.9558,-1.397 1.0414,0 1.7272,0.4953 1.9431,1.397 z"
         style="font-weight:bold;font-size:12.70000172px;line-height:100%;fill:#d8d8d8;fill-opacity:0.94117647;stroke-width:0.26458332px"
         id="path4558" />
      <path
         d="m 116.12209,200.77249 h 1.6891 v -3.9116 c 0,-1.0922 0.4953,-1.6383 1.5113,-1.6637 v -1.6256 h -0.127 c -0.7239,0 -1.0795,0.2032 -1.524,0.8509 v -0.6858 h -1.5494 z"
         style="font-weight:bold;font-size:12.70000172px;line-height:100%;fill:#d8d8d8;fill-opacity:0.94117647;stroke-width:0.26458332px"
         id="path4560" />
      <path
         d="m 123.54663,200.77249 h 6.0706 v -1.5875 h -3.6957 l 1.9177,-1.7399 c 0.6858,-0.6223 0.9779,-0.9398 1.2573,-1.3716 0.3683,-0.5334 0.5588,-1.1684 0.5588,-1.8034 0,-1.7272 -1.3208,-3.048 -3.0607,-3.048 -1.0922,0 -2.0828,0.5207 -2.6162,1.3843 -0.3556,0.5588 -0.4953,1.1176 -0.4953,2.0193 h 1.6637 c 0,-1.1176 0.5842,-1.8542 1.4605,-1.8542 0.7747,0 1.3589,0.635 1.3589,1.4732 0,0.6096 -0.3175,1.1557 -1.0795,1.8796 l -3.3401,3.1623 z"
         style="font-weight:bold;font-size:12.70000172px;line-height:100%;fill:#d8d8d8;fill-opacity:0.94117647;stroke-width:0.26458332px"
         id="path4562" />
      <path
         d="m 136.83777,194.35899 c 0,-1.905 -1.2319,-3.1369 -3.1369,-3.1369 -1.9304,0 -3.1496,1.2446 -3.1496,3.2258 v 3.1877 c 0,0.9017 0.1778,1.5367 0.5969,2.1082 0.5842,0.7747 1.4859,1.1938 2.6289,1.1938 1.0795,0 1.9177,-0.3937 2.4638,-1.1557 0.4191,-0.5842 0.5969,-1.2065 0.5969,-2.1463 z m -4.5974,0.0889 c 0,-1.0414 0.5588,-1.6764 1.4732,-1.6764 0.9144,0 1.4351,0.5969 1.4351,1.6764 v 3.175 c 0,0.5842 -0.0889,0.9525 -0.3048,1.2446 -0.2286,0.3302 -0.6477,0.5207 -1.1176,0.5207 -0.9652,0 -1.4859,-0.635 -1.4859,-1.8034 z"
         style="font-weight:bold;font-size:12.70000172px;line-height:100%;fill:#d8d8d8;fill-opacity:0.94117647;stroke-width:0.26458332px"
         id="path4564" />
      <path
         d="m 140.41342,200.77249 h 1.6891 v -9.3853 h -2.8702 v 1.5875 h 1.1811 z"
         style="font-weight:bold;font-size:12.70000172px;line-height:100%;fill:#d8d8d8;fill-opacity:0.94117647;stroke-width:0.26458332px"
         id="path4566" />
      <path
         d="m 145.42417,200.77249 h 1.905 l 3.429,-7.7978 v -1.5875 h -5.5245 v 1.5875 h 3.7465 z"
         style="font-weight:bold;font-size:12.70000172px;line-height:100%;fill:#d8d8d8;fill-opacity:0.94117647;stroke-width:0.26458332px"
         id="path4568" />
      <path
         d="m 43.894995,223.35027 h 1.7399 v -3.5687 h 0.5588 c 1.333501,0 1.943101,-0.1016 2.463801,-0.4191 0.762,-0.4699 1.2319,-1.4224 1.2319,-2.5019 0,-1.0795 -0.4572,-1.9685 -1.27,-2.4638 -0.5334,-0.3175 -1.1557,-0.4318 -2.400301,-0.4318 h -2.3241 z m 1.7399,-5.2324 v -2.4892 h 0.5842 c 0.5715,0 0.825501,0.0254 1.104901,0.0889 0.508,0.1397 0.8128,0.5842 0.8128,1.1684 0,0.4572 -0.2032,0.8128 -0.5715,1.016 -0.2667,0.1397 -0.749301,0.2159 -1.422401,0.2159 z"
         style="font-weight:bold;font-size:12.70000172px;line-height:100%;fill:#d8d8d8;fill-opacity:0.94117647;stroke-width:0.26458332px"
         id="path4570" />
      <path
         d="m 54.252442,216.14937 c -2.044701,0 -3.721101,1.6637 -3.721101,3.683 0,2.032 1.6764,3.683 3.733801,3.683 2.0447,0 3.7465,-1.651 3.7465,-3.6322 0,-2.0955 -1.6383,-3.7338 -3.7592,-3.7338 z m 0.0127,1.5494 c 1.1303,0 2.0447,0.9652 2.0447,2.1336 0,1.1811 -0.9144,2.1336 -2.032,2.1336 -1.143001,0 -2.044701,-0.9525 -2.044701,-2.159 0,-1.1557 0.9271,-2.1082 2.032001,-2.1082 z"
         style="font-weight:bold;font-size:12.70000172px;line-height:100%;fill:#d8d8d8;fill-opacity:0.94117647;stroke-width:0.26458332px"
         id="path4572" />
      <path
         d="m 58.97208,223.35027 h 1.6891 v -3.9116 c 0,-1.0922 0.4953,-1.6383 1.5113,-1.6637 v -1.6256 h -0.127 c -0.7239,0 -1.0795,0.2032 -1.524,0.8509 v -0.6858 h -1.5494 z"
         style="font-weight:bold;font-size:12.70000172px;line-height:100%;fill:#d8d8d8;fill-opacity:0.94117647;stroke-width:0.26458332px"
         id="path4574" />
      <path
         d="m 63.294048,223.35027 h 1.6891 v -5.4991 h 1.016001 v -1.5367 h -1.016001 v -2.3495 h -1.6891 v 2.3495 h -0.8255 v 1.5367 h 0.8255 z"
         style="font-weight:bold;font-size:12.70000172px;line-height:100%;fill:#d8d8d8;fill-opacity:0.94117647;stroke-width:0.26458332px"
         id="path4576" />
      <path
         d="m 69.810143,223.35027 h 1.9177 l 1.0414,-2.4257 h 3.340101 l 1.0033,2.4257 h 1.9177 l -3.937,-9.3853 h -1.371601 z m 3.5941,-4.0894 1.003301,-2.8448 1.0033,2.8448 z"
         style="font-weight:bold;font-size:12.70000172px;line-height:100%;fill:#d8d8d8;fill-opacity:0.94117647;stroke-width:0.26458332px"
         id="path4578" />
      <path
         d="m 79.808019,223.35027 h 1.6891 v -3.9116 c 0,-1.0922 0.4953,-1.6383 1.511301,-1.6637 v -1.6256 h -0.127 c -0.723901,0 -1.079501,0.2032 -1.524001,0.8509 v -0.6858 h -1.5494 z"
         style="font-weight:bold;font-size:12.70000172px;line-height:100%;fill:#d8d8d8;fill-opacity:0.94117647;stroke-width:0.26458332px"
         id="path4580" />
      <path
         d="m 84.129989,223.35027 h 1.689101 v -5.4991 h 1.016 v -1.5367 h -1.016 v -2.3495 h -1.689101 v 2.3495 h -0.8255 v 1.5367 h 0.8255 z"
         style="font-weight:bold;font-size:12.70000172px;line-height:100%;fill:#d8d8d8;fill-opacity:0.94117647;stroke-width:0.26458332px"
         id="path4582" />
      <path
         d="m 87.695913,223.35027 h 1.6891 v -3.5687 c 0,-0.6985 0.0635,-1.0922 0.2413,-1.4097 0.2413,-0.4318 0.6858,-0.6731 1.2446,-0.6731 0.9906,0 1.3716,0.5842 1.3716,2.0574 v 3.5941 h 1.689101 v -3.9751 c 0,-1.0287 -0.127,-1.6002 -0.4699,-2.1209 -0.4699,-0.7239 -1.282701,-1.1176 -2.286001,-1.1176 -0.7239,0 -1.2827,0.2032 -1.7907,0.6604 v -2.8321 h -1.6891 z"
         style="font-weight:bold;font-size:12.70000172px;line-height:100%;fill:#d8d8d8;fill-opacity:0.94117647;stroke-width:0.26458332px"
         id="path4584" />
      <path
         d="m 101.57205,216.31447 h -1.689097 v 3.3147 c 0,0.9271 -0.0635,1.3843 -0.2667,1.6891 -0.2413,0.4064 -0.7112,0.6477 -1.2827,0.6477 -0.4318,0 -0.762,-0.1397 -0.9906,-0.4445 -0.2413,-0.3048 -0.3429,-0.8255 -0.3429,-1.7653 v -3.4417 h -1.6891 v 3.7719 c 0,1.1938 0.1397,1.8034 0.5334,2.3876 0.4699,0.6731 1.2319,1.0414 2.1463,1.0414 0.8509,0 1.3843,-0.2159 2.019297,-0.8382 v 0.6731 h 1.5621 z"
         style="font-weight:bold;font-size:12.70000172px;line-height:100%;fill:#d8d8d8;fill-opacity:0.94117647;stroke-width:0.26458332px"
         id="path4586" />
      <path
         d="m 102.92599,223.35027 h 1.6891 v -3.9116 c 0,-1.0922 0.4953,-1.6383 1.5113,-1.6637 v -1.6256 h -0.127 c -0.7239,0 -1.0795,0.2032 -1.524,0.8509 v -0.6858 h -1.5494 z"
         style="font-weight:bold;font-size:12.70000172px;line-height:100%;fill:#d8d8d8;fill-opacity:0.94117647;stroke-width:0.26458332px"
         id="path4588" />
      <path
         d="m 106.99396,223.35027 h 1.6891 v -9.3853 h -1.6891 z"
         style="font-weight:bold;font-size:12.70000172px;line-height:100%;fill:#d8d8d8;fill-opacity:0.94117647;stroke-width:0.26458332px"
         id="path4590" />
      <path
         d="m 117.16964,216.31447 h -1.5494 v 0.9398 c -0.5842,-0.7747 -1.2827,-1.1049 -2.2987,-1.1049 -2.0828,0 -3.5814,1.5621 -3.5814,3.7084 0,2.1209 1.4859,3.6576 3.5433,3.6576 0.9906,0 1.6637,-0.3175 2.3368,-1.0795 v 0.9144 h 1.5494 z m -3.6703,1.3843 c 1.2065,0 2.0701,0.9017 2.0701,2.1844 0,0.508 -0.2032,1.0922 -0.508,1.4478 -0.3429,0.4064 -0.889,0.635 -1.5367,0.635 -1.2319,0 -2.0828,-0.8382 -2.0828,-2.0701 0,-1.2827 0.8509,-2.1971 2.0574,-2.1971 z"
         style="font-weight:bold;font-size:12.70000172px;line-height:100%;fill:#d8d8d8;fill-opacity:0.94117647;stroke-width:0.26458332px"
         id="path4592" />
      <path
         d="m 125.55363,216.31447 h -1.5494 v 0.9398 c -0.5842,-0.7747 -1.2827,-1.1049 -2.2987,-1.1049 -2.0828,0 -3.5814,1.5621 -3.5814,3.7084 0,2.1209 1.4859,3.6576 3.5433,3.6576 0.9906,0 1.6637,-0.3175 2.3368,-1.0795 v 0.9144 h 1.5494 z m -3.6703,1.3843 c 1.2065,0 2.0701,0.9017 2.0701,2.1844 0,0.508 -0.2032,1.0922 -0.508,1.4478 -0.3429,0.4064 -0.889,0.635 -1.5367,0.635 -1.2319,0 -2.0828,-0.8382 -2.0828,-2.0701 0,-1.2827 0.8509,-2.1971 2.0574,-2.1971 z"
         style="font-weight:bold;font-size:12.70000172px;line-height:100%;fill:#d8d8d8;fill-opacity:0.94117647;stroke-width:0.26458332px"
         id="path4594" />
      <path
         d="m 126.81291,223.35027 h 1.6891 v -3.3147 c 0,-0.9398 0.0635,-1.3462 0.2794,-1.6891 0.2667,-0.4191 0.7112,-0.6477 1.2446,-0.6477 0.4318,0 0.7874,0.1524 1.016,0.4445 0.2286,0.3048 0.3302,0.8255 0.3302,1.7653 v 3.4417 h 1.6891 v -3.7719 c 0,-1.2573 -0.127,-1.8669 -0.508,-2.413 -0.4572,-0.6604 -1.2192,-1.016 -2.1971,-1.016 -0.8001,0 -1.3589,0.2413 -1.9812,0.8382 v -0.6731 h -1.5621 z"
         style="font-weight:bold;font-size:12.70000172px;line-height:100%;fill:#d8d8d8;fill-opacity:0.94117647;stroke-width:0.26458332px"
         id="path4596" />
      <path
         d="m 140.05782,218.82907 h 0.2794 c 1.1176,0 1.8415,0.6223 1.8415,1.5748 0,0.9017 -0.6223,1.5621 -1.4732,1.5621 -0.8128,0 -1.4097,-0.5715 -1.524,-1.4605 h -1.7018 c 0.1016,1.7653 1.4351,3.0099 3.2385,3.0099 1.8161,0 3.1496,-1.3335 3.1496,-3.1496 0,-1.1811 -0.4953,-1.9939 -1.4605,-2.4257 0.5461,-0.3937 0.7874,-0.889 0.7874,-1.6129 0,-1.4478 -1.0795,-2.5273 -2.5273,-2.5273 -0.7366,0 -1.4097,0.2921 -1.8796,0.8001 -0.3937,0.4318 -0.5461,0.8382 -0.6096,1.6002 h 1.7145 c 0.0762,-0.5842 0.3302,-0.8509 0.7874,-0.8509 0.4826,0 0.8255,0.3683 0.8255,0.889 0,0.3937 -0.1905,0.6858 -0.5461,0.8382 -0.2159,0.0889 -0.4445,0.1143 -0.9017,0.127 z"
         style="font-weight:bold;font-size:12.70000172px;line-height:100%;fill:#d8d8d8;fill-opacity:0.94117647;stroke-width:0.26458332px"
         id="path4598" />
      <path
         d="m 147.17677,218.82907 h 0.2794 c 1.1176,0 1.8415,0.6223 1.8415,1.5748 0,0.9017 -0.6223,1.5621 -1.4732,1.5621 -0.8128,0 -1.4097,-0.5715 -1.524,-1.4605 h -1.7018 c 0.1016,1.7653 1.4351,3.0099 3.2385,3.0099 1.8161,0 3.1496,-1.3335 3.1496,-3.1496 0,-1.1811 -0.4953,-1.9939 -1.4605,-2.4257 0.5461,-0.3937 0.7874,-0.889 0.7874,-1.6129 0,-1.4478 -1.0795,-2.5273 -2.5273,-2.5273 -0.7366,0 -1.4097,0.2921 -1.8796,0.8001 -0.3937,0.4318 -0.5461,0.8382 -0.6096,1.6002 h 1.7145 c 0.0762,-0.5842 0.3302,-0.8509 0.7874,-0.8509 0.4826,0 0.8255,0.3683 0.8255,0.889 0,0.3937 -0.1905,0.6858 -0.5461,0.8382 -0.2159,0.0889 -0.4445,0.1143 -0.9017,0.127 z"
         style="font-weight:bold;font-size:12.70000172px;line-height:100%;fill:#d8d8d8;fill-opacity:0.94117647;stroke-width:0.26458332px"
         id="path4600" />
      <path
         d="m 152.44151,223.35027 h 0.73661 c 0.0127,0.0762 0.0127,0.1651 0.0127,0.2159 0,0.4064 -0.2159,0.6096 -0.74931,0.7112 v 0.8509 c 0.38101,0 0.59691,-0.0381 0.87631,-0.2032 0.5588,-0.3048 0.8128,-0.762 0.8128,-1.4859 v -1.7145 h -1.68911 z"
         style="font-weight:bold;font-size:12.70000172px;line-height:100%;fill:#d8d8d8;fill-opacity:0.94117647;stroke-width:0.26458332px"
         id="path4602" />
      <path
         d="m 161.99945,223.35027 2.4511,-3.683 c 0.6731,-1.0033 0.9271,-1.7272 0.9271,-2.6162 0,-1.8669 -1.397,-3.2512 -3.2893,-3.2512 -1.8542,0 -3.1877,1.4097 -3.1877,3.3655 0,1.7018 1.1176,2.9972 2.5781,2.9972 0.2794,0 0.4572,-0.0381 0.762,-0.1524 l -2.2606,3.3401 z m 0.0889,-8.001 c 0.9271,0 1.6002,0.6858 1.6002,1.651 0,0.9779 -0.635,1.6637 -1.5621,1.6637 -0.889,0 -1.5367,-0.6985 -1.5367,-1.6637 0,-0.9652 0.6096,-1.651 1.4986,-1.651 z"
         style="font-weight:bold;font-size:12.70000172px;line-height:100%;fill:#d8d8d8;fill-opacity:0.94117647;stroke-width:0.26458332px"
         id="path4604" />
      <path
         d="m 172.4077,216.93677 c 0,-1.905 -1.2319,-3.1369 -3.1369,-3.1369 -1.9304,0 -3.1496,1.2446 -3.1496,3.2258 v 3.1877 c 0,0.9017 0.1778,1.5367 0.5969,2.1082 0.5842,0.7747 1.4859,1.1938 2.6289,1.1938 1.0795,0 1.9177,-0.3937 2.4638,-1.1557 0.4191,-0.5842 0.5969,-1.2065 0.5969,-2.1463 z m -4.5974,0.0889 c 0,-1.0414 0.5588,-1.6764 1.4732,-1.6764 0.9144,0 1.4351,0.5969 1.4351,1.6764 v 3.175 c 0,0.5842 -0.0889,0.9525 -0.3048,1.2446 -0.2286,0.3302 -0.6477,0.5207 -1.1176,0.5207 -0.9652,0 -1.4859,-0.635 -1.4859,-1.8034 z"
         style="font-weight:bold;font-size:12.70000172px;line-height:100%;fill:#d8d8d8;fill-opacity:0.94117647;stroke-width:0.26458332px"
         id="path4606" />
      <path
         d="m 179.52665,216.93677 c 0,-1.905 -1.2319,-3.1369 -3.1369,-3.1369 -1.9304,0 -3.1496,1.2446 -3.1496,3.2258 v 3.1877 c 0,0.9017 0.1778,1.5367 0.5969,2.1082 0.5842,0.7747 1.4859,1.1938 2.6289,1.1938 1.0795,0 1.9177,-0.3937 2.4638,-1.1557 0.4191,-0.5842 0.5969,-1.2065 0.5969,-2.1463 z m -4.5974,0.0889 c 0,-1.0414 0.5588,-1.6764 1.4732,-1.6764 0.9144,0 1.4351,0.5969 1.4351,1.6764 v 3.175 c 0,0.5842 -0.0889,0.9525 -0.3048,1.2446 -0.2286,0.3302 -0.6477,0.5207 -1.1176,0.5207 -0.9652,0 -1.4859,-0.635 -1.4859,-1.8034 z"
         style="font-weight:bold;font-size:12.70000172px;line-height:100%;fill:#d8d8d8;fill-opacity:0.94117647;stroke-width:0.26458332px"
         id="path4608" />
      <path
         d="m 186.6456,216.93677 c 0,-1.905 -1.2319,-3.1369 -3.1369,-3.1369 -1.9304,0 -3.1496,1.2446 -3.1496,3.2258 v 3.1877 c 0,0.9017 0.1778,1.5367 0.5969,2.1082 0.5842,0.7747 1.4859,1.1938 2.6289,1.1938 1.0795,0 1.9177,-0.3937 2.4638,-1.1557 0.4191,-0.5842 0.5969,-1.2065 0.5969,-2.1463 z m -4.5974,0.0889 c 0,-1.0414 0.5588,-1.6764 1.4732,-1.6764 0.9144,0 1.4351,0.5969 1.4351,1.6764 v 3.175 c 0,0.5842 -0.0889,0.9525 -0.3048,1.2446 -0.2286,0.3302 -0.6477,0.5207 -1.1176,0.5207 -0.9652,0 -1.4859,-0.635 -1.4859,-1.8034 z"
         style="font-weight:bold;font-size:12.70000172px;line-height:100%;fill:#d8d8d8;fill-opacity:0.94117647;stroke-width:0.26458332px"
         id="path4610" />
      <path
         d="m 194.89861,220.18797 h 3.8862 c -0.508,1.0414 -1.524,1.651 -2.7559,1.651 -1.8415,0 -3.2512,-1.3843 -3.2512,-3.175 0,-0.8128 0.3429,-1.7018 0.8763,-2.2606 0.5461,-0.5969 1.3716,-0.9271 2.2733,-0.9271 1.0922,0 1.9939,0.4318 2.5781,1.2446 h 2.0447 c -0.6096,-1.6891 -2.54,-2.921 -4.5847,-2.921 -2.7432,0 -4.9403,2.1463 -4.9403,4.8387 0,2.7432 2.2225,4.8768 5.1054,4.8768 1.4097,0 2.6289,-0.4953 3.556,-1.4478 0.8636,-0.9017 1.3462,-2.0701 1.3462,-3.2766 v -0.2286 h -6.1341 z"
         style="font-weight:bold;font-size:12.70000172px;line-height:100%;fill:#d8d8d8;fill-opacity:0.94117647;stroke-width:0.26458332px"
         id="path4612" />
      <path
         d="m 201.99593,223.35027 h 1.6891 v -3.5687 c 0,-0.6985 0.0635,-1.0922 0.2413,-1.4097 0.2413,-0.4318 0.6858,-0.6731 1.2446,-0.6731 0.9906,0 1.3716,0.5842 1.3716,2.0574 v 3.5941 h 1.6891 v -3.9751 c 0,-1.0287 -0.127,-1.6002 -0.4699,-2.1209 -0.4699,-0.7239 -1.2827,-1.1176 -2.286,-1.1176 -0.7239,0 -1.2827,0.2032 -1.7907,0.6604 v -2.8321 h -1.6891 z"
         style="font-weight:bold;font-size:12.70000172px;line-height:100%;fill:#d8d8d8;fill-opacity:0.94117647;stroke-width:0.26458332px"
         id="path4614" />
      <path
         d="m 216.58326,220.58167 c 0.0508,-0.2413 0.0635,-0.3937 0.0635,-0.6477 0,-2.1844 -1.5367,-3.7846 -3.6322,-3.7846 -2.0701,0 -3.7084,1.6383 -3.7084,3.7084 0,2.0574 1.6637,3.6576 3.81,3.6576 1.1557,0 2.0574,-0.4191 2.794,-1.27 0.2667,-0.3302 0.4445,-0.6223 0.5588,-0.9779 h -1.8415 c -0.4318,0.508 -0.8509,0.6985 -1.5494,0.6985 -1.0033,0 -1.7399,-0.5334 -1.9431,-1.3843 z m -5.4991,-1.4859 c 0.2667,-0.9017 0.9525,-1.397 1.9558,-1.397 1.0414,0 1.7272,0.4953 1.9431,1.397 z"
         style="font-weight:bold;font-size:12.70000172px;line-height:100%;fill:#d8d8d8;fill-opacity:0.94117647;stroke-width:0.26458332px"
         id="path4616" />
      <path
         d="m 217.7469,223.35027 h 1.6891 v -3.3147 c 0,-0.9398 0.0635,-1.3462 0.2794,-1.6891 0.2667,-0.4191 0.7112,-0.6477 1.2446,-0.6477 0.4318,0 0.7874,0.1524 1.016,0.4445 0.2286,0.3048 0.3302,0.8255 0.3302,1.7653 v 3.4417 h 1.6891 v -3.7719 c 0,-1.2573 -0.127,-1.8669 -0.508,-2.413 -0.4572,-0.6604 -1.2192,-1.016 -2.1971,-1.016 -0.8001,0 -1.3589,0.2413 -1.9812,0.8382 v -0.6731 h -1.5621 z"
         style="font-weight:bold;font-size:12.70000172px;line-height:100%;fill:#d8d8d8;fill-opacity:0.94117647;stroke-width:0.26458332px"
         id="path4618" />
      <path
         d="m 225.61594,223.35027 h 1.6891 v -5.4991 h 1.016 v -1.5367 h -1.016 v -2.3495 h -1.6891 v 2.3495 h -0.8255 v 1.5367 h 0.8255 z"
         style="font-weight:bold;font-size:12.70000172px;line-height:100%;fill:#d8d8d8;fill-opacity:0.94117647;stroke-width:0.26458332px"
         id="path4620" />
      <path
         d="m 43.894995,245.92805 h 1.7399 v -3.5687 h 0.5588 c 1.333501,0 1.943101,-0.1016 2.463801,-0.4191 0.762,-0.4699 1.2319,-1.4224 1.2319,-2.5019 0,-1.0795 -0.4572,-1.9685 -1.27,-2.4638 -0.5334,-0.3175 -1.1557,-0.4318 -2.400301,-0.4318 h -2.3241 z m 1.7399,-5.2324 v -2.4892 h 0.5842 c 0.5715,0 0.825501,0.0254 1.104901,0.0889 0.508,0.1397 0.8128,0.5842 0.8128,1.1684 0,0.4572 -0.2032,0.8128 -0.5715,1.016 -0.2667,0.1397 -0.749301,0.2159 -1.422401,0.2159 z"
         style="font-weight:bold;font-size:12.70000172px;line-height:100%;fill:#d8d8d8;fill-opacity:0.94117647;stroke-width:0.26458332px"
         id="path4622" />
      <path
         d="m 50.836141,245.92805 h 1.6891 v -3.9116 c 0,-1.0922 0.4953,-1.6383 1.511301,-1.6637 v -1.6256 h -0.127 c -0.723901,0 -1.079501,0.2032 -1.524001,0.8509 v -0.6858 h -1.5494 z"
         style="font-weight:bold;font-size:12.70000172px;line-height:100%;fill:#d8d8d8;fill-opacity:0.94117647;stroke-width:0.26458332px"
         id="path4624" />
      <path
         d="m 62.028811,238.89225 h -1.5494 v 0.9398 c -0.5842,-0.7747 -1.2827,-1.1049 -2.2987,-1.1049 -2.0828,0 -3.581401,1.5621 -3.581401,3.7084 0,2.1209 1.485901,3.6576 3.543301,3.6576 0.9906,0 1.6637,-0.3175 2.3368,-1.0795 v 0.9144 h 1.5494 z m -3.6703,1.3843 c 1.2065,0 2.0701,0.9017 2.0701,2.1844 0,0.508 -0.2032,1.0922 -0.508,1.4478 -0.3429,0.4064 -0.889,0.635 -1.5367,0.635 -1.2319,0 -2.0828,-0.8382 -2.0828,-2.0701 0,-1.2827 0.8509,-2.1971 2.0574,-2.1971 z"
         style="font-weight:bold;font-size:12.70000172px;line-height:100%;fill:#d8d8d8;fill-opacity:0.94117647;stroke-width:0.26458332px"
         id="path4626" />
      <path
         d="m 68.329996,243.61665 c -0.4191,0.6477 -0.9017,0.9271 -1.600201,0.9271 -1.1684,0 -2.0447,-0.9144 -2.0447,-2.1463 0,-1.2319 0.8382,-2.1209 2.0066,-2.1209 0.762001,0 1.295401,0.3175 1.638301,0.9652 h 1.905 c -0.2413,-0.7112 -0.4699,-1.0795 -0.9525,-1.524 -0.6858,-0.635 -1.6129,-0.9906 -2.590801,-0.9906 -2.0828,0 -3.7084,1.6129 -3.7084,3.683 0,2.0447 1.6764,3.683 3.7592,3.683 1.638301,0 2.908301,-0.9017 3.492501,-2.4765 z"
         style="font-weight:bold;font-size:12.70000172px;line-height:100%;fill:#d8d8d8;fill-opacity:0.94117647;stroke-width:0.26458332px"
         id="path4628" />
      <path
         d="m 71.678036,245.92805 h 1.6891 v -5.4991 h 1.016 v -1.5367 h -1.016 v -2.3495 h -1.6891 v 2.3495 h -0.825501 v 1.5367 h 0.825501 z"
         style="font-weight:bold;font-size:12.70000172px;line-height:100%;fill:#d8d8d8;fill-opacity:0.94117647;stroke-width:0.26458332px"
         id="path4630" />
      <path
         d="m 75.243957,245.92805 h 1.6891 v -7.0358 h -1.6891 z m 0,-7.7978 h 1.6891 v -1.5875 h -1.6891 z"
         style="font-weight:bold;font-size:12.70000172px;line-height:100%;fill:#d8d8d8;fill-opacity:0.94117647;stroke-width:0.26458332px"
         id="path4632" />
      <path
         d="m 83.336835,243.61665 c -0.4191,0.6477 -0.9017,0.9271 -1.6002,0.9271 -1.1684,0 -2.0447,-0.9144 -2.0447,-2.1463 0,-1.2319 0.8382,-2.1209 2.0066,-2.1209 0.762,0 1.2954,0.3175 1.6383,0.9652 h 1.905001 c -0.2413,-0.7112 -0.4699,-1.0795 -0.9525,-1.524 -0.685801,-0.635 -1.612901,-0.9906 -2.590801,-0.9906 -2.0828,0 -3.7084,1.6129 -3.7084,3.683 0,2.0447 1.6764,3.683 3.7592,3.683 1.6383,0 2.908301,-0.9017 3.492501,-2.4765 z"
         style="font-weight:bold;font-size:12.70000172px;line-height:100%;fill:#d8d8d8;fill-opacity:0.94117647;stroke-width:0.26458332px"
         id="path4634" />
      <path
         d="m 93.555572,238.89225 h -1.5494 v 0.9398 c -0.5842,-0.7747 -1.2827,-1.1049 -2.2987,-1.1049 -2.0828,0 -3.581401,1.5621 -3.581401,3.7084 0,2.1209 1.485901,3.6576 3.543301,3.6576 0.9906,0 1.6637,-0.3175 2.3368,-1.0795 v 0.9144 h 1.5494 z m -3.6703,1.3843 c 1.2065,0 2.0701,0.9017 2.0701,2.1844 0,0.508 -0.2032,1.0922 -0.508,1.4478 -0.3429,0.4064 -0.889,0.635 -1.5367,0.635 -1.2319,0 -2.0828,-0.8382 -2.0828,-2.0701 0,-1.2827 0.8509,-2.1971 2.0574,-2.1971 z"
         style="font-weight:bold;font-size:12.70000172px;line-height:100%;fill:#d8d8d8;fill-opacity:0.94117647;stroke-width:0.26458332px"
         id="path4636" />
      <path
         d="m 95.043459,245.92805 h 1.6891 v -1.6256 h -1.6891 z m 0,-4.6863 h 1.6891 v -1.6891 h -1.6891 z"
         style="font-weight:bold;font-size:12.70000172px;line-height:100%;fill:#d8d8d8;fill-opacity:0.94117647;stroke-width:0.26458332px"
         id="path4638" />
      <path
         d="m 104.3474,245.92805 h 1.6891 v -9.3853 h -2.8702 v 1.5875 h 1.1811 z"
         style="font-weight:bold;font-size:12.70000172px;line-height:100%;fill:#d8d8d8;fill-opacity:0.94117647;stroke-width:0.26458332px"
         id="path4640" />
      <path
         d="m 110.08205,240.70835 c -0.4318,0.2413 -0.6223,0.3937 -0.8128,0.6477 -0.3429,0.4191 -0.5334,1.0287 -0.5334,1.6383 0,1.7526 1.3716,3.0988 3.1369,3.0988 1.778,0 3.1115,-1.3335 3.1115,-3.1115 0,-0.6604 -0.2159,-1.2827 -0.5715,-1.7018 -0.1905,-0.2159 -0.3683,-0.3429 -0.7493,-0.5715 0.5334,-0.4318 0.7874,-0.9906 0.7874,-1.778 0,-1.4605 -1.0922,-2.5527 -2.5654,-2.5527 -1.4351,0 -2.5781,1.143 -2.5781,2.5781 0,0.6858 0.1905,1.1303 0.7747,1.7526 z m 1.8161,-2.7813 c 0.5207,0 0.9398,0.4445 0.9398,1.016 0,0.5715 -0.4318,1.0287 -0.9525,1.0287 -0.5334,0 -0.9652,-0.4572 -0.9652,-1.016 0,-0.5842 0.4191,-1.0287 0.9779,-1.0287 z m -0.0127,3.6703 c 0.7747,0 1.4097,0.6604 1.4097,1.4732 0,0.8382 -0.6096,1.4732 -1.4097,1.4732 -0.8255,0 -1.4605,-0.6477 -1.4605,-1.4859 0,-0.8255 0.6477,-1.4605 1.4605,-1.4605 z"
         style="font-weight:bold;font-size:12.70000172px;line-height:100%;fill:#d8d8d8;fill-opacity:0.94117647;stroke-width:0.26458332px"
         id="path4642" />
      <path
         d="m 116.37549,245.92805 h 1.6891 v -1.6256 h -1.6891 z m 0,-4.6863 h 1.6891 v -1.6891 h -1.6891 z"
         style="font-weight:bold;font-size:12.70000172px;line-height:100%;fill:#d8d8d8;fill-opacity:0.94117647;stroke-width:0.26458332px"
         id="path4644" />
      <path
         d="m 125.67566,239.51455 c 0,-1.905 -1.2319,-3.1369 -3.1369,-3.1369 -1.9304,0 -3.1496,1.2446 -3.1496,3.2258 v 3.1877 c 0,0.9017 0.1778,1.5367 0.5969,2.1082 0.5842,0.7747 1.4859,1.1938 2.6289,1.1938 1.0795,0 1.9177,-0.3937 2.4638,-1.1557 0.4191,-0.5842 0.5969,-1.2065 0.5969,-2.1463 z m -4.5974,0.0889 c 0,-1.0414 0.5588,-1.6764 1.4732,-1.6764 0.9144,0 1.4351,0.5969 1.4351,1.6764 v 3.175 c 0,0.5842 -0.0889,0.9525 -0.3048,1.2446 -0.2286,0.3302 -0.6477,0.5207 -1.1176,0.5207 -0.9652,0 -1.4859,-0.635 -1.4859,-1.8034 z"
         style="font-weight:bold;font-size:12.70000172px;line-height:100%;fill:#d8d8d8;fill-opacity:0.94117647;stroke-width:0.26458332px"
         id="path4646" />
      <path
         d="m 132.79461,239.51455 c 0,-1.905 -1.2319,-3.1369 -3.1369,-3.1369 -1.9304,0 -3.1496,1.2446 -3.1496,3.2258 v 3.1877 c 0,0.9017 0.1778,1.5367 0.5969,2.1082 0.5842,0.7747 1.4859,1.1938 2.6289,1.1938 1.0795,0 1.9177,-0.3937 2.4638,-1.1557 0.4191,-0.5842 0.5969,-1.2065 0.5969,-2.1463 z m -4.5974,0.0889 c 0,-1.0414 0.5588,-1.6764 1.4732,-1.6764 0.9144,0 1.4351,0.5969 1.4351,1.6764 v 3.175 c 0,0.5842 -0.0889,0.9525 -0.3048,1.2446 -0.2286,0.3302 -0.6477,0.5207 -1.1176,0.5207 -0.9652,0 -1.4859,-0.635 -1.4859,-1.8034 z"
         style="font-weight:bold;font-size:12.70000172px;line-height:100%;fill:#d8d8d8;fill-opacity:0.94117647;stroke-width:0.26458332px"
         id="path4648" />
      <path
         d="m 137.73293,243.01975 h 3.5179 v -1.4986 h -3.5179 z"
         style="font-weight:bold;font-size:12.70000172px;line-height:100%;fill:#d8d8d8;fill-opacity:0.94117647;stroke-width:0.26458332px"
         id="path4650" />
      <path
         d="m 146.1685,245.92805 h 6.0706 v -1.5875 h -3.6957 l 1.9177,-1.7399 c 0.6858,-0.6223 0.9779,-0.9398 1.2573,-1.3716 0.3683,-0.5334 0.5588,-1.1684 0.5588,-1.8034 0,-1.7272 -1.3208,-3.048 -3.0607,-3.048 -1.0922,0 -2.0828,0.5207 -2.6162,1.3843 -0.3556,0.5588 -0.4953,1.1176 -0.4953,2.0193 h 1.6637 c 0,-1.1176 0.5842,-1.8542 1.4605,-1.8542 0.7747,0 1.3589,0.635 1.3589,1.4732 0,0.6096 -0.3175,1.1557 -1.0795,1.8796 l -3.3401,3.1623 z"
         style="font-weight:bold;font-size:12.70000172px;line-height:100%;fill:#d8d8d8;fill-opacity:0.94117647;stroke-width:0.26458332px"
         id="path4652" />
      <path
         d="m 159.45965,239.51455 c 0,-1.905 -1.2319,-3.1369 -3.1369,-3.1369 -1.9304,0 -3.1496,1.2446 -3.1496,3.2258 v 3.1877 c 0,0.9017 0.1778,1.5367 0.5969,2.1082 0.5842,0.7747 1.4859,1.1938 2.6289,1.1938 1.0795,0 1.9177,-0.3937 2.4638,-1.1557 0.4191,-0.5842 0.5969,-1.2065 0.5969,-2.1463 z m -4.5974,0.0889 c 0,-1.0414 0.5588,-1.6764 1.4732,-1.6764 0.9144,0 1.4351,0.5969 1.4351,1.6764 v 3.175 c 0,0.5842 -0.0889,0.9525 -0.3048,1.2446 -0.2286,0.3302 -0.6477,0.5207 -1.1176,0.5207 -0.9652,0 -1.4859,-0.635 -1.4859,-1.8034 z"
         style="font-weight:bold;font-size:12.70000172px;line-height:100%;fill:#d8d8d8;fill-opacity:0.94117647;stroke-width:0.26458332px"
         id="path4654" />
      <path
         d="m 160.82549,245.92805 h 1.68911 v -1.6256 h -1.68911 z m 0,-4.6863 h 1.68911 v -1.6891 h -1.68911 z"
         style="font-weight:bold;font-size:12.70000172px;line-height:100%;fill:#d8d8d8;fill-opacity:0.94117647;stroke-width:0.26458332px"
         id="path4656" />
      <path
         d="m 170.12567,239.51455 c 0,-1.905 -1.2319,-3.1369 -3.1369,-3.1369 -1.9304,0 -3.1496,1.2446 -3.1496,3.2258 v 3.1877 c 0,0.9017 0.1778,1.5367 0.5969,2.1082 0.5842,0.7747 1.4859,1.1938 2.6289,1.1938 1.0795,0 1.9177,-0.3937 2.4638,-1.1557 0.4191,-0.5842 0.5969,-1.2065 0.5969,-2.1463 z m -4.5974,0.0889 c 0,-1.0414 0.5588,-1.6764 1.4732,-1.6764 0.9144,0 1.4351,0.5969 1.4351,1.6764 v 3.175 c 0,0.5842 -0.0889,0.9525 -0.3048,1.2446 -0.2286,0.3302 -0.6477,0.5207 -1.1176,0.5207 -0.9652,0 -1.4859,-0.635 -1.4859,-1.8034 z"
         style="font-weight:bold;font-size:12.70000172px;line-height:100%;fill:#d8d8d8;fill-opacity:0.94117647;stroke-width:0.26458332px"
         id="path4658" />
      <path
         d="m 177.24461,239.51455 c 0,-1.905 -1.2319,-3.1369 -3.1369,-3.1369 -1.9304,0 -3.1496,1.2446 -3.1496,3.2258 v 3.1877 c 0,0.9017 0.1778,1.5367 0.5969,2.1082 0.5842,0.7747 1.4859,1.1938 2.6289,1.1938 1.0795,0 1.9177,-0.3937 2.4638,-1.1557 0.4191,-0.5842 0.5969,-1.2065 0.5969,-2.1463 z m -4.5974,0.0889 c 0,-1.0414 0.5588,-1.6764 1.4732,-1.6764 0.9144,0 1.4351,0.5969 1.4351,1.6764 v 3.175 c 0,0.5842 -0.0889,0.9525 -0.3048,1.2446 -0.2286,0.3302 -0.6477,0.5207 -1.1176,0.5207 -0.9652,0 -1.4859,-0.635 -1.4859,-1.8034 z"
         style="font-weight:bold;font-size:12.70000172px;line-height:100%;fill:#d8d8d8;fill-opacity:0.94117647;stroke-width:0.26458332px"
         id="path4660" />
      <path
         d="m 182.18293,243.01975 h 3.5179 v -1.4986 h -3.5179 z"
         style="font-weight:bold;font-size:12.70000172px;line-height:100%;fill:#d8d8d8;fill-opacity:0.94117647;stroke-width:0.26458332px"
         id="path4662" />
      <path
         d="m 189.70411,240.93695 h 1.2065 c -0.0127,0.1397 -0.0127,0.2794 -0.0127,0.3302 v 0.2413 h -0.8763 l -0.3048,1.1176 h 1.2827 c 0.3429,1.5494 0.7874,2.3114 1.6637,2.8575 0.6096,0.3683 1.3716,0.5842 2.0955,0.5842 0.7493,0 1.2827,-0.1143 2.032,-0.4191 v -1.5621 c -0.9271,0.381 -1.397,0.508 -1.8542,0.508 -0.7366,0 -1.4478,-0.3556 -1.8288,-0.9271 -0.2159,-0.3048 -0.3302,-0.5842 -0.4445,-1.0414 h 2.9591 l 0.4318,-1.1176 h -3.4544 v -0.5715 h 3.6703 l 0.4191,-1.1176 h -4.0005 c 0.1905,-0.6858 0.3048,-0.9652 0.5588,-1.2827 0.3302,-0.4318 0.9906,-0.7239 1.6129,-0.7239 0.7366,0 1.4478,0.2159 2.3241,0.7366 l 0.4953,-1.3081 c -1.0541,-0.635 -1.7399,-0.8382 -2.7813,-0.8382 -1.4097,0 -2.4892,0.5334 -3.2004,1.5748 -0.3048,0.4572 -0.4699,0.9144 -0.6858,1.8415 h -1.0033 z"
         style="font-weight:bold;font-size:12.70000172px;line-height:100%;fill:#d8d8d8;fill-opacity:0.94117647;stroke-width:0.26458332px"
         id="path4664" />
      <path
         d="m 207.45672,239.51455 c 0,-1.905 -1.2319,-3.1369 -3.1369,-3.1369 -1.9304,0 -3.1496,1.2446 -3.1496,3.2258 v 3.1877 c 0,0.9017 0.1778,1.5367 0.5969,2.1082 0.5842,0.7747 1.4859,1.1938 2.6289,1.1938 1.0795,0 1.9177,-0.3937 2.4638,-1.1557 0.4191,-0.5842 0.5969,-1.2065 0.5969,-2.1463 z m -4.5974,0.0889 c 0,-1.0414 0.5588,-1.6764 1.4732,-1.6764 0.9144,0 1.4351,0.5969 1.4351,1.6764 v 3.175 c 0,0.5842 -0.0889,0.9525 -0.3048,1.2446 -0.2286,0.3302 -0.6477,0.5207 -1.1176,0.5207 -0.9652,0 -1.4859,-0.635 -1.4859,-1.8034 z"
         style="font-weight:bold;font-size:12.70000172px;line-height:100%;fill:#d8d8d8;fill-opacity:0.94117647;stroke-width:0.26458332px"
         id="path4666" />
      <path
         d="m 43.894995,268.50583 h 1.7399 v -7.03581 l 2.451101,7.03581 h 1.4224 l 2.4511,-7.03581 v 7.03581 h 1.7399 v -9.38531 h -2.3876 l -2.5019,7.112 -2.527301,-7.112 h -2.3876 z"
         style="font-weight:bold;font-size:12.70000172px;line-height:100%;fill:#d8d8d8;fill-opacity:0.94117647;stroke-width:0.26458332px"
         id="path4668" />
      <path
         d="m 55.152157,268.50583 h 1.689101 v -7.03581 h -1.689101 z m 0,-7.79781 h 1.689101 v -1.5875 h -1.689101 z"
         style="font-weight:bold;font-size:12.70000172px;line-height:100%;fill:#d8d8d8;fill-opacity:0.94117647;stroke-width:0.26458332px"
         id="path4670" />
      <path
         d="m 58.203134,268.50583 h 1.6891 v -9.38531 h -1.6891 z"
         style="font-weight:bold;font-size:12.70000172px;line-height:100%;fill:#d8d8d8;fill-opacity:0.94117647;stroke-width:0.26458332px"
         id="path4672" />
      <path
         d="m 64.670412,261.30492 c -2.0447,0 -3.7211,1.6637 -3.7211,3.683 0,2.032 1.6764,3.68301 3.7338,3.68301 2.044701,0 3.746501,-1.65101 3.746501,-3.63221 0,-2.0955 -1.6383,-3.7338 -3.759201,-3.7338 z m 0.0127,1.5494 c 1.1303,0 2.044701,0.9652 2.044701,2.1336 0,1.1811 -0.914401,2.1336 -2.032001,2.1336 -1.143,0 -2.0447,-0.9525 -2.0447,-2.159 0,-1.1557 0.9271,-2.1082 2.032,-2.1082 z"
         style="font-weight:bold;font-size:12.70000172px;line-height:100%;fill:#d8d8d8;fill-opacity:0.94117647;stroke-width:0.26458332px"
         id="path4674" />
      <path
         d="m 69.39005,268.50583 h 1.689101 v -3.31471 c 0,-0.9398 0.0635,-1.3462 0.2794,-1.6891 0.2667,-0.4191 0.7112,-0.6477 1.2446,-0.6477 0.4318,0 0.7874,0.1524 1.016,0.4445 0.2286,0.3048 0.3302,0.8255 0.3302,1.7653 v 3.44171 h 1.6891 v -3.77191 c 0,-1.2573 -0.127,-1.8669 -0.508,-2.413 -0.4572,-0.6604 -1.2192,-1.016 -2.1971,-1.016 -0.8001,0 -1.3589,0.2413 -1.9812,0.8382 v -0.6731 H 69.39005 Z"
         style="font-weight:bold;font-size:12.70000172px;line-height:100%;fill:#d8d8d8;fill-opacity:0.94117647;stroke-width:0.26458332px"
         id="path4676" />
      <path
         d="m 82.466091,261.47002 v 0.889 c -0.5207,-0.7112 -1.2827,-1.0541 -2.2987,-1.0541 -1.993901,0 -3.467101,1.5494 -3.467101,3.6322 0,2.1717 1.4478,3.73381 3.454401,3.73381 0.9906,0 1.651,-0.3175 2.3114,-1.09221 -0.0635,1.51131 -0.7112,2.24791 -1.9685,2.24791 -0.7874,0 -1.27,-0.2032 -1.765301,-0.7493 h -1.9177 c 0.5715,1.4097 1.8923,2.2352 3.619501,2.2352 1.27,0 2.2733,-0.4445 2.9337,-1.2827 0.4953,-0.6477 0.7112,-1.5113 0.7112,-2.85751 v -5.7023 z m -2.1082,1.3843 c 1.2065,0 2.032,0.8763 2.032,2.159 0,1.27 -0.8001,2.1082 -2.0066,2.1082 -1.2065,0 -1.981201,-0.8255 -1.981201,-2.1082 0,-1.2954 0.774701,-2.159 1.955801,-2.159 z"
         style="font-weight:bold;font-size:12.70000172px;line-height:100%;fill:#d8d8d8;fill-opacity:0.94117647;stroke-width:0.26458332px"
         id="path4678" />
      <path
         d="m 92.513779,261.47002 h -1.549401 v 0.9398 c -0.5842,-0.7747 -1.2827,-1.1049 -2.2987,-1.1049 -2.0828,0 -3.5814,1.5621 -3.5814,3.7084 0,2.1209 1.4859,3.65761 3.5433,3.65761 0.9906,0 1.6637,-0.3175 2.3368,-1.07951 v 0.91441 h 1.549401 z m -3.670301,1.3843 c 1.2065,0 2.0701,0.9017 2.0701,2.1844 0,0.508 -0.2032,1.0922 -0.508,1.4478 -0.3429,0.4064 -0.889,0.635 -1.5367,0.635 -1.2319,0 -2.0828,-0.8382 -2.0828,-2.0701 0,-1.2827 0.8509,-2.1971 2.0574,-2.1971 z"
         style="font-weight:bold;font-size:12.70000172px;line-height:100%;fill:#d8d8d8;fill-opacity:0.94117647;stroke-width:0.26458332px"
         id="path4680" />
      <path
         d="m 94.001661,268.50583 h 1.689101 v -1.62561 h -1.689101 z m 0,-4.68631 h 1.689101 v -1.6891 h -1.689101 z"
         style="font-weight:bold;font-size:12.70000172px;line-height:100%;fill:#d8d8d8;fill-opacity:0.94117647;stroke-width:0.26458332px"
         id="path4682" />
      <path
         d="m 100.6767,268.50583 h 6.07061 v -1.58751 h -3.69571 l 1.9177,-1.7399 c 0.6858,-0.6223 0.9779,-0.9398 1.2573,-1.3716 0.3683,-0.5334 0.55881,-1.1684 0.55881,-1.8034 0,-1.7272 -1.32081,-3.048 -3.06071,-3.048 -1.0922,0 -2.0828,0.5207 -2.6162,1.3843 -0.3556,0.5588 -0.4953,1.1176 -0.4953,2.0193 h 1.6637 c 0,-1.1176 0.5842,-1.8542 1.4605,-1.8542 0.7747,0 1.3589,0.635 1.3589,1.4732 0,0.6096 -0.3175,1.1557 -1.0795,1.8796 l -3.3401,3.1623 z"
         style="font-weight:bold;font-size:12.70000172px;line-height:100%;fill:#d8d8d8;fill-opacity:0.94117647;stroke-width:0.26458332px"
         id="path4684" />
      <path
         d="m 113.96785,262.09232 c 0,-1.905 -1.2319,-3.1369 -3.1369,-3.1369 -1.9304,0 -3.1496,1.2446 -3.1496,3.2258 v 3.1877 c 0,0.9017 0.1778,1.5367 0.5969,2.1082 0.5842,0.77471 1.4859,1.19381 2.6289,1.19381 1.0795,0 1.9177,-0.3937 2.4638,-1.15571 0.4191,-0.5842 0.5969,-1.2065 0.5969,-2.1463 z m -4.5974,0.0889 c 0,-1.0414 0.5588,-1.6764 1.4732,-1.6764 0.9144,0 1.4351,0.5969 1.4351,1.6764 v 3.175 c 0,0.5842 -0.0889,0.9525 -0.3048,1.2446 -0.2286,0.3302 -0.6477,0.5207 -1.1176,0.5207 -0.9652,0 -1.4859,-0.635 -1.4859,-1.8034 z"
         style="font-weight:bold;font-size:12.70000172px;line-height:100%;fill:#d8d8d8;fill-opacity:0.94117647;stroke-width:0.26458332px"
         id="path4686" />
      <path
         d="m 115.3337,268.50583 h 1.6891 v -1.62561 h -1.6891 z m 0,-4.68631 h 1.6891 v -1.6891 h -1.6891 z"
         style="font-weight:bold;font-size:12.70000172px;line-height:100%;fill:#d8d8d8;fill-opacity:0.94117647;stroke-width:0.26458332px"
         id="path4688" />
      <path
         d="m 124.63386,262.09232 c 0,-1.905 -1.2319,-3.1369 -3.1369,-3.1369 -1.9304,0 -3.1496,1.2446 -3.1496,3.2258 v 3.1877 c 0,0.9017 0.1778,1.5367 0.5969,2.1082 0.5842,0.77471 1.4859,1.19381 2.6289,1.19381 1.0795,0 1.9177,-0.3937 2.4638,-1.15571 0.4191,-0.5842 0.5969,-1.2065 0.5969,-2.1463 z m -4.5974,0.0889 c 0,-1.0414 0.5588,-1.6764 1.4732,-1.6764 0.9144,0 1.4351,0.5969 1.4351,1.6764 v 3.175 c 0,0.5842 -0.0889,0.9525 -0.3048,1.2446 -0.2286,0.3302 -0.6477,0.5207 -1.1176,0.5207 -0.9652,0 -1.4859,-0.635 -1.4859,-1.8034 z"
         style="font-weight:bold;font-size:12.70000172px;line-height:100%;fill:#d8d8d8;fill-opacity:0.94117647;stroke-width:0.26458332px"
         id="path4690" />
      <path
         d="m 131.75281,262.09232 c 0,-1.905 -1.2319,-3.1369 -3.1369,-3.1369 -1.9304,0 -3.1496,1.2446 -3.1496,3.2258 v 3.1877 c 0,0.9017 0.1778,1.5367 0.5969,2.1082 0.5842,0.77471 1.4859,1.19381 2.6289,1.19381 1.0795,0 1.9177,-0.3937 2.4638,-1.15571 0.4191,-0.5842 0.5969,-1.2065 0.5969,-2.1463 z m -4.5974,0.0889 c 0,-1.0414 0.5588,-1.6764 1.4732,-1.6764 0.9144,0 1.4351,0.5969 1.4351,1.6764 v 3.175 c 0,0.5842 -0.0889,0.9525 -0.3048,1.2446 -0.2286,0.3302 -0.6477,0.5207 -1.1176,0.5207 -0.9652,0 -1.4859,-0.635 -1.4859,-1.8034 z"
         style="font-weight:bold;font-size:12.70000172px;line-height:100%;fill:#d8d8d8;fill-opacity:0.94117647;stroke-width:0.26458332px"
         id="path4692" />
      <path
         d="m 136.69113,265.59752 h 3.5179 v -1.4986 h -3.5179 z"
         style="font-weight:bold;font-size:12.70000172px;line-height:100%;fill:#d8d8d8;fill-opacity:0.94117647;stroke-width:0.26458332px"
         id="path4694" />
      <path
         d="m 145.12671,268.50583 h 6.0706 v -1.58751 h -3.6957 l 1.9177,-1.7399 c 0.6858,-0.6223 0.9779,-0.9398 1.2573,-1.3716 0.3683,-0.5334 0.5588,-1.1684 0.5588,-1.8034 0,-1.7272 -1.3208,-3.048 -3.0607,-3.048 -1.0922,0 -2.0828,0.5207 -2.6162,1.3843 -0.3556,0.5588 -0.4953,1.1176 -0.4953,2.0193 h 1.6637 c 0,-1.1176 0.5842,-1.8542 1.4605,-1.8542 0.7747,0 1.3589,0.635 1.3589,1.4732 0,0.6096 -0.3175,1.1557 -1.0795,1.8796 l -3.3401,3.1623 z"
         style="font-weight:bold;font-size:12.70000172px;line-height:100%;fill:#d8d8d8;fill-opacity:0.94117647;stroke-width:0.26458332px"
         id="path4696" />
      <path
         d="m 152.66475,268.50583 h 1.6891 v -1.62561 h -1.6891 z m 0,-4.68631 h 1.6891 v -1.6891 h -1.6891 z"
         style="font-weight:bold;font-size:12.70000172px;line-height:100%;fill:#d8d8d8;fill-opacity:0.94117647;stroke-width:0.26458332px"
         id="path4698" />
      <path
         d="m 161.96493,262.09232 c 0,-1.905 -1.2319,-3.1369 -3.13691,-3.1369 -1.9304,0 -3.1496,1.2446 -3.1496,3.2258 v 3.1877 c 0,0.9017 0.1778,1.5367 0.5969,2.1082 0.5842,0.77471 1.4859,1.19381 2.6289,1.19381 1.0795,0 1.91771,-0.3937 2.46381,-1.15571 0.4191,-0.5842 0.5969,-1.2065 0.5969,-2.1463 z m -4.59741,0.0889 c 0,-1.0414 0.5588,-1.6764 1.4732,-1.6764 0.9144,0 1.4351,0.5969 1.4351,1.6764 v 3.175 c 0,0.5842 -0.0889,0.9525 -0.3048,1.2446 -0.2286,0.3302 -0.6477,0.5207 -1.1176,0.5207 -0.9652,0 -1.4859,-0.635 -1.4859,-1.8034 z"
         style="font-weight:bold;font-size:12.70000172px;line-height:100%;fill:#d8d8d8;fill-opacity:0.94117647;stroke-width:0.26458332px"
         id="path4700" />
      <path
         d="m 169.08388,262.09232 c 0,-1.905 -1.23191,-3.1369 -3.13691,-3.1369 -1.9304,0 -3.1496,1.2446 -3.1496,3.2258 v 3.1877 c 0,0.9017 0.1778,1.5367 0.5969,2.1082 0.5842,0.77471 1.4859,1.19381 2.6289,1.19381 1.0795,0 1.9177,-0.3937 2.46381,-1.15571 0.4191,-0.5842 0.5969,-1.2065 0.5969,-2.1463 z m -4.59741,0.0889 c 0,-1.0414 0.5588,-1.6764 1.4732,-1.6764 0.9144,0 1.4351,0.5969 1.4351,1.6764 v 3.175 c 0,0.5842 -0.0889,0.9525 -0.3048,1.2446 -0.2286,0.3302 -0.6477,0.5207 -1.1176,0.5207 -0.9652,0 -1.4859,-0.635 -1.4859,-1.8034 z"
         style="font-weight:bold;font-size:12.70000172px;line-height:100%;fill:#d8d8d8;fill-opacity:0.94117647;stroke-width:0.26458332px"
         id="path4702" />
      <path
         d="m 174.02219,265.59752 h 3.5179 v -1.4986 h -3.5179 z"
         style="font-weight:bold;font-size:12.70000172px;line-height:100%;fill:#d8d8d8;fill-opacity:0.94117647;stroke-width:0.26458332px"
         id="path4704" />
      <path
         d="m 181.54337,263.51472 h 1.2065 c -0.0127,0.1397 -0.0127,0.2794 -0.0127,0.3302 v 0.2413 h -0.8763 l -0.3048,1.1176 h 1.2827 c 0.3429,1.5494 0.7874,2.3114 1.6637,2.8575 0.6096,0.36831 1.3716,0.58421 2.0955,0.58421 0.7493,0 1.2827,-0.1143 2.032,-0.4191 v -1.56211 c -0.9271,0.381 -1.397,0.508 -1.8542,0.508 -0.7366,0 -1.4478,-0.3556 -1.8288,-0.9271 -0.2159,-0.3048 -0.3302,-0.5842 -0.4445,-1.0414 h 2.9591 l 0.4318,-1.1176 h -3.4544 v -0.5715 h 3.6703 l 0.4191,-1.1176 h -4.0005 c 0.1905,-0.6858 0.3048,-0.9652 0.5588,-1.2827 0.3302,-0.4318 0.9906,-0.7239 1.6129,-0.7239 0.7366,0 1.4478,0.2159 2.3241,0.7366 l 0.4953,-1.3081 c -1.0541,-0.635 -1.7399,-0.8382 -2.7813,-0.8382 -1.4097,0 -2.4892,0.5334 -3.2004,1.5748 -0.3048,0.4572 -0.4699,0.9144 -0.6858,1.8415 h -1.0033 z"
         style="font-weight:bold;font-size:12.70000172px;line-height:100%;fill:#d8d8d8;fill-opacity:0.94117647;stroke-width:0.26458332px"
         id="path4706" />
      <path
         d="m 193.64449,268.50583 h 1.905 l 3.429,-7.79781 v -1.5875 h -5.5245 v 1.5875 h 3.7465 z"
         style="font-weight:bold;font-size:12.70000172px;line-height:100%;fill:#d8d8d8;fill-opacity:0.94117647;stroke-width:0.26458332px"
         id="path4708" />
      <path
         d="m 46.549295,281.6983 v 6.6421 c 0,0.8255 -0.2794,1.2319 -0.8382,1.2319 -0.4318,0 -0.7112,-0.2413 -0.8255,-0.7112 h -1.7399 c 0.0762,0.7366 0.2159,1.1176 0.5969,1.5367 0.4826,0.5334 1.2192,0.8509 2.0066,0.8509 1.574801,0 2.540001,-1.0922 2.540001,-2.8575 v -6.6929 z"
         style="font-weight:bold;font-size:12.70000172px;line-height:100%;fill:#d8d8d8;fill-opacity:0.94117647;stroke-width:0.26458332px"
         id="path4710" />
      <path
         d="m 53.235449,283.8827 c -2.0447,0 -3.7211,1.6637 -3.7211,3.683 0,2.032 1.6764,3.683 3.7338,3.683 2.044701,0 3.746501,-1.651 3.746501,-3.6322 0,-2.0955 -1.6383,-3.7338 -3.759201,-3.7338 z m 0.0127,1.5494 c 1.130301,0 2.044701,0.9652 2.044701,2.1336 0,1.1811 -0.9144,2.1336 -2.032001,2.1336 -1.143,0 -2.0447,-0.9525 -2.0447,-2.159 0,-1.1557 0.9271,-2.1082 2.032,-2.1082 z"
         style="font-weight:bold;font-size:12.70000172px;line-height:100%;fill:#d8d8d8;fill-opacity:0.94117647;stroke-width:0.26458332px"
         id="path4712" />
      <path
         d="m 57.510587,288.8484 c 0.0762,0.6858 0.1905,1.0414 0.4699,1.4224 0.4572,0.6096 1.2573,0.9779 2.1082,0.9779 1.409701,0 2.514601,-1.0541 2.514601,-2.4003 0,-0.6096 -0.2286,-1.1176 -0.6604,-1.4605 -0.2667,-0.2286 -0.6858,-0.4064 -1.2954,-0.5969 -0.685801,-0.2159 -0.685801,-0.2159 -0.850901,-0.2921 -0.2286,-0.1016 -0.3429,-0.2667 -0.3429,-0.4699 0,-0.3429 0.2794,-0.5969 0.6477,-0.5969 0.355601,0 0.584201,0.1905 0.660401,0.5588 h 1.651 c -0.0254,-0.5969 -0.1651,-0.9525 -0.508,-1.3335 -0.4445,-0.4953 -1.1049,-0.7747 -1.803401,-0.7747 -1.3081,0 -2.3368,0.9398 -2.3368,2.1463 0,1.0287 0.5588,1.6129 1.9558,2.0828 0.647701,0.2159 0.698501,0.2413 0.876301,0.3556 0.2032,0.127 0.3175,0.3175 0.3175,0.5461 0,0.3937 -0.3302,0.6858 -0.762001,0.6858 -0.4953,0 -0.7747,-0.254 -0.9398,-0.8509 z"
         style="font-weight:bold;font-size:12.70000172px;line-height:100%;fill:#d8d8d8;fill-opacity:0.94117647;stroke-width:0.26458332px"
         id="path4714" />
      <path
         d="m 70.508445,288.315 c 0.0508,-0.2413 0.0635,-0.3937 0.0635,-0.6477 0,-2.1844 -1.5367,-3.7846 -3.632201,-3.7846 -2.0701,0 -3.7084,1.6383 -3.7084,3.7084 0,2.0574 1.6637,3.6576 3.81,3.6576 1.1557,0 2.057401,-0.4191 2.794001,-1.27 0.2667,-0.3302 0.4445,-0.6223 0.5588,-0.9779 h -1.841501 c -0.4318,0.508 -0.8509,0.6985 -1.5494,0.6985 -1.0033,0 -1.7399,-0.5334 -1.9431,-1.3843 z m -5.499101,-1.4859 c 0.2667,-0.9017 0.9525,-1.397 1.9558,-1.397 1.0414,0 1.7272,0.4953 1.943101,1.397 z m 1.3716,-3.5306 2.882901,-1.524 -0.685801,-1.1684 -2.8448,1.7018 z"
         style="font-weight:bold;font-size:12.70000172px;line-height:100%;fill:#d8d8d8;fill-opacity:0.94117647;stroke-width:0.26458332px"
         id="path4716" />
      <path
         d="m 74.711152,288.4039 c 0.0635,0.7366 0.2286,1.2065 0.6096,1.7018 0.5588,0.7239 1.4859,1.143 2.4765,1.143 1.689101,0 2.997201,-1.3081 2.997201,-3.0099 0,-0.7747 -0.2921,-1.4478 -0.8382,-1.9558 -0.3683,-0.3429 -0.6731,-0.508 -1.587501,-0.8509 -0.889,-0.3302 -0.9144,-0.3429 -1.0414,-0.4191 -0.3429,-0.2159 -0.5207,-0.508 -0.5207,-0.8509 0,-0.5588 0.3937,-0.9525 0.9652,-0.9525 0.5842,0 0.9398,0.3556 0.9906,0.9906 h 1.803401 c -0.0381,-0.7112 -0.2032,-1.1938 -0.5842,-1.6637 -0.508,-0.635 -1.320801,-1.0033 -2.197101,-1.0033 -1.5113,0 -2.7305,1.1811 -2.7305,2.667 0,1.1811 0.6985,2.0828 1.9558,2.5527 1.2573,0.4699 1.3335,0.508 1.6256,0.7239 0.2794,0.2286 0.431801,0.5588 0.431801,0.9525 0,0.6731 -0.520701,1.143 -1.270001,1.143 -0.7747,0 -1.1938,-0.381 -1.27,-1.1684 z"
         style="font-weight:bold;font-size:12.70000172px;line-height:100%;fill:#d8d8d8;fill-opacity:0.94117647;stroke-width:0.26458332px"
         id="path4718" />
      <path
         d="m 88.941902,284.0478 h -1.5494 v 0.9398 c -0.5842,-0.7747 -1.2827,-1.1049 -2.2987,-1.1049 -2.082801,0 -3.581401,1.5621 -3.581401,3.7084 0,2.1209 1.4859,3.6576 3.543301,3.6576 0.9906,0 1.6637,-0.3175 2.3368,-1.0795 v 0.9144 h 1.5494 z m -3.6703,1.3843 c 1.2065,0 2.0701,0.9017 2.0701,2.1844 0,0.508 -0.2032,1.0922 -0.508,1.4478 -0.3429,0.4064 -0.889,0.635 -1.5367,0.635 -1.231901,0 -2.082801,-0.8382 -2.082801,-2.0701 0,-1.2827 0.8509,-2.1971 2.057401,-2.1971 z"
         style="font-weight:bold;font-size:12.70000172px;line-height:100%;fill:#d8d8d8;fill-opacity:0.94117647;stroke-width:0.26458332px"
         id="path4720" />
      <path
         d="m 90.201185,291.0836 h 1.6891 v -3.3147 c 0,-0.9398 0.0635,-1.3462 0.2794,-1.6891 0.2667,-0.4191 0.7112,-0.6477 1.2446,-0.6477 0.4318,0 0.7874,0.1524 1.016,0.4445 0.2286,0.3048 0.3302,0.8255 0.3302,1.7653 v 3.4417 h 1.689101 v -3.7719 c 0,-1.2573 -0.127,-1.8669 -0.508,-2.413 -0.457201,-0.6604 -1.219201,-1.016 -2.197101,-1.016 -0.8001,0 -1.3589,0.2413 -1.9812,0.8382 v -0.6731 h -1.5621 z"
         style="font-weight:bold;font-size:12.70000172px;line-height:100%;fill:#d8d8d8;fill-opacity:0.94117647;stroke-width:0.26458332px"
         id="path4722" />
      <path
         d="m 98.070225,291.0836 h 1.6891 v -5.4991 h 1.015995 v -1.5367 h -1.015995 v -2.3495 h -1.6891 v 2.3495 h -0.8255 v 1.5367 h 0.8255 z"
         style="font-weight:bold;font-size:12.70000172px;line-height:100%;fill:#d8d8d8;fill-opacity:0.94117647;stroke-width:0.26458332px"
         id="path4724" />
      <path
         d="m 105.05245,283.8827 c -2.0447,0 -3.7211,1.6637 -3.7211,3.683 0,2.032 1.6764,3.683 3.7338,3.683 2.0447,0 3.7465,-1.651 3.7465,-3.6322 0,-2.0955 -1.6383,-3.7338 -3.7592,-3.7338 z m 0.0127,1.5494 c 1.1303,0 2.0447,0.9652 2.0447,2.1336 0,1.1811 -0.9144,2.1336 -2.032,2.1336 -1.143,0 -2.0447,-0.9525 -2.0447,-2.159 0,-1.1557 0.9271,-2.1082 2.032,-2.1082 z"
         style="font-weight:bold;font-size:12.70000172px;line-height:100%;fill:#d8d8d8;fill-opacity:0.94117647;stroke-width:0.26458332px"
         id="path4726" />
      <path
         d="m 109.32759,288.8484 c 0.0762,0.6858 0.1905,1.0414 0.4699,1.4224 0.4572,0.6096 1.2573,0.9779 2.1082,0.9779 1.4097,0 2.5146,-1.0541 2.5146,-2.4003 0,-0.6096 -0.2286,-1.1176 -0.6604,-1.4605 -0.2667,-0.2286 -0.6858,-0.4064 -1.2954,-0.5969 -0.6858,-0.2159 -0.6858,-0.2159 -0.8509,-0.2921 -0.2286,-0.1016 -0.3429,-0.2667 -0.3429,-0.4699 0,-0.3429 0.2794,-0.5969 0.6477,-0.5969 0.3556,0 0.5842,0.1905 0.6604,0.5588 h 1.651 c -0.0254,-0.5969 -0.1651,-0.9525 -0.508,-1.3335 -0.4445,-0.4953 -1.1049,-0.7747 -1.8034,-0.7747 -1.3081,0 -2.3368,0.9398 -2.3368,2.1463 0,1.0287 0.5588,1.6129 1.9558,2.0828 0.6477,0.2159 0.6985,0.2413 0.8763,0.3556 0.2032,0.127 0.3175,0.3175 0.3175,0.5461 0,0.3937 -0.3302,0.6858 -0.762,0.6858 -0.4953,0 -0.7747,-0.254 -0.9398,-0.8509 z"
         style="font-weight:bold;font-size:12.70000172px;line-height:100%;fill:#d8d8d8;fill-opacity:0.94117647;stroke-width:0.26458332px"
         id="path4728" />
      <path
         d="m 120.04322,291.0836 h 1.7399 v -7.7216 h 1.7399 v -1.6637 h -5.2197 v 1.6637 h 1.7399 z"
         style="font-weight:bold;font-size:12.70000172px;line-height:100%;fill:#d8d8d8;fill-opacity:0.94117647;stroke-width:0.26458332px"
         id="path4730" />
      <path
         d="m 127.64952,283.8827 c -2.0447,0 -3.7211,1.6637 -3.7211,3.683 0,2.032 1.6764,3.683 3.7338,3.683 2.04471,0 3.74651,-1.651 3.74651,-3.6322 0,-2.0955 -1.6383,-3.7338 -3.75921,-3.7338 z m 0.0127,1.5494 c 1.13031,0 2.04471,0.9652 2.04471,2.1336 0,1.1811 -0.9144,2.1336 -2.03201,2.1336 -1.143,0 -2.0447,-0.9525 -2.0447,-2.159 0,-1.1557 0.9271,-2.1082 2.032,-2.1082 z"
         style="font-weight:bold;font-size:12.70000172px;line-height:100%;fill:#d8d8d8;fill-opacity:0.94117647;stroke-width:0.26458332px"
         id="path4732" />
      <path
         d="m 132.36916,291.0836 h 1.6891 v -3.9116 c 0,-1.0922 0.4953,-1.6383 1.5113,-1.6637 v -1.6256 h -0.127 c -0.7239,0 -1.0795,0.2032 -1.524,0.8509 v -0.6858 h -1.5494 z"
         style="font-weight:bold;font-size:12.70000172px;line-height:100%;fill:#d8d8d8;fill-opacity:0.94117647;stroke-width:0.26458332px"
         id="path4734" />
      <path
         d="m 136.43713,291.0836 h 1.6891 v -3.9116 c 0,-1.0922 0.4953,-1.6383 1.5113,-1.6637 v -1.6256 h -0.127 c -0.7239,0 -1.0795,0.2032 -1.524,0.8509 v -0.6858 h -1.5494 z"
         style="font-weight:bold;font-size:12.70000172px;line-height:100%;fill:#d8d8d8;fill-opacity:0.94117647;stroke-width:0.26458332px"
         id="path4736" />
      <path
         d="m 147.4774,288.315 c 0.0508,-0.2413 0.0635,-0.3937 0.0635,-0.6477 0,-2.1844 -1.5367,-3.7846 -3.6322,-3.7846 -2.0701,0 -3.7084,1.6383 -3.7084,3.7084 0,2.0574 1.6637,3.6576 3.81,3.6576 1.1557,0 2.0574,-0.4191 2.794,-1.27 0.2667,-0.3302 0.4445,-0.6223 0.5588,-0.9779 h -1.8415 c -0.4318,0.508 -0.8509,0.6985 -1.5494,0.6985 -1.0033,0 -1.7399,-0.5334 -1.9431,-1.3843 z m -5.4991,-1.4859 c 0.2667,-0.9017 0.9525,-1.397 1.9558,-1.397 1.0414,0 1.7272,0.4953 1.9431,1.397 z"
         style="font-weight:bold;font-size:12.70000172px;line-height:100%;fill:#d8d8d8;fill-opacity:0.94117647;stroke-width:0.26458332px"
         id="path4738" />
      <path
         d="m 148.19654,288.8484 c 0.0762,0.6858 0.1905,1.0414 0.4699,1.4224 0.4572,0.6096 1.2573,0.9779 2.1082,0.9779 1.4097,0 2.5146,-1.0541 2.5146,-2.4003 0,-0.6096 -0.2286,-1.1176 -0.6604,-1.4605 -0.2667,-0.2286 -0.6858,-0.4064 -1.2954,-0.5969 -0.6858,-0.2159 -0.6858,-0.2159 -0.8509,-0.2921 -0.2286,-0.1016 -0.3429,-0.2667 -0.3429,-0.4699 0,-0.3429 0.2794,-0.5969 0.6477,-0.5969 0.3556,0 0.5842,0.1905 0.6604,0.5588 h 1.651 c -0.0254,-0.5969 -0.1651,-0.9525 -0.508,-1.3335 -0.4445,-0.4953 -1.1049,-0.7747 -1.8034,-0.7747 -1.3081,0 -2.3368,0.9398 -2.3368,2.1463 0,1.0287 0.5588,1.6129 1.9558,2.0828 0.6477,0.2159 0.6985,0.2413 0.8763,0.3556 0.2032,0.127 0.3175,0.3175 0.3175,0.5461 0,0.3937 -0.3302,0.6858 -0.762,0.6858 -0.4953,0 -0.7747,-0.254 -0.9398,-0.8509 z"
         style="font-weight:bold;font-size:12.70000172px;line-height:100%;fill:#d8d8d8;fill-opacity:0.94117647;stroke-width:0.26458332px"
         id="path4740" />
    </g>
    <path
       inkscape:connector-curvature="0"
       d="m 48.962295,167.28466 1.12182,1.12184 -4.43442,4.4344 h 9.6626 v 1.5875 h -9.6626 l 4.43442,4.43442 -1.12182,1.12184 -6.35,-6.35 z"
       id="path4"
       style="fill:#d8d8d8;fill-opacity:0.94117647;stroke-width:0.52916664" />
  </g>
</svg>
