<?xml version="1.0" encoding="UTF-8" standalone="no"?>
<!-- Created with Inkscape (http://www.inkscape.org/) -->

<svg
   xmlns:dc="http://purl.org/dc/elements/1.1/"
   xmlns:cc="http://creativecommons.org/ns#"
   xmlns:rdf="http://www.w3.org/1999/02/22-rdf-syntax-ns#"
   xmlns:svg="http://www.w3.org/2000/svg"
   xmlns="http://www.w3.org/2000/svg"
   xmlns:sodipodi="http://sodipodi.sourceforge.net/DTD/sodipodi-0.dtd"
   xmlns:inkscape="http://www.inkscape.org/namespaces/inkscape"
   width="1024"
   height="512"
   viewBox="0 0 270.93333 135.46666"
   version="1.1"
   id="svg4604"
   inkscape:version="0.92.1 r15371"
   sodipodi:docname="feb2018-back-hover.svg">
  <defs
     id="defs4598" />
  <sodipodi:namedview
     id="base"
     pagecolor="#ffffff"
     bordercolor="#666666"
     borderopacity="1.0"
     inkscape:pageopacity="0.0"
     inkscape:pageshadow="2"
     inkscape:zoom="0.5"
     inkscape:cx="-209.1667"
     inkscape:cy="233.14286"
     inkscape:document-units="mm"
     inkscape:current-layer="layer1"
     showgrid="false"
     inkscape:window-width="1920"
     inkscape:window-height="1016"
     inkscape:window-x="0"
     inkscape:window-y="27"
     inkscape:window-maximized="1"
     showguides="true"
     units="px" />
  <metadata
     id="metadata4601">
    <rdf:RDF>
      <cc:Work
         rdf:about="">
        <dc:format>image/svg+xml</dc:format>
        <dc:type
           rdf:resource="http://purl.org/dc/dcmitype/StillImage" />
        <dc:title></dc:title>
      </cc:Work>
    </rdf:RDF>
  </metadata>
  <g
     inkscape:label="Layer 1"
     inkscape:groupmode="layer"
     id="layer1"
     transform="translate(0,-161.53335)">
    <flowRoot
       xml:space="preserve"
       id="flowRoot5168"
       style="font-style:normal;font-variant:normal;font-weight:normal;font-stretch:normal;font-size:18px;line-height:125%;font-family:'URW Gothic L';-inkscape-font-specification:'URW Gothic L';letter-spacing:0px;word-spacing:0px;fill:#000000;fill-opacity:1;stroke:none;stroke-width:1px;stroke-linecap:butt;stroke-linejoin:miter;stroke-opacity:1"
       transform="matrix(0.26458333,0,0,0.26458333,0,-215)"><flowRegion
         id="flowRegion5170"><rect
           id="rect5172"
           width="865"
           height="205"
           x="350"
           y="-24.881836" /></flowRegion><flowPara
         id="flowPara5174" /></flowRoot>    <text
       xml:space="preserve"
       style="font-style:normal;font-variant:normal;font-weight:normal;font-stretch:normal;font-size:22.57777786px;line-height:125%;font-family:'URW Gothic L';-inkscape-font-specification:'URW Gothic L';letter-spacing:0px;word-spacing:0px;fill:#000000;fill-opacity:1;stroke:none;stroke-width:0.26458332px;stroke-linecap:butt;stroke-linejoin:miter;stroke-opacity:1"
       x="182.5625"
       y="-159.40623"
       id="text5178"><tspan
         sodipodi:role="line"
         id="tspan5176"
         x="182.5625"
         y="-138.43324"
         style="stroke-width:0.26458332px" /></text>
    <g
       aria-label="10 February 2018
Etage Tropical, Port Arthurlaan, 9000 Ghent
Practica: 18:00 - 20:00 - € 0
Milonga: 20:00 - 2:00 - € 8
Jacques Rombauts"
       style="font-style:normal;font-variant:normal;font-weight:normal;font-stretch:normal;font-size:22.57777786px;line-height:100%;font-family:'URW Gothic L';-inkscape-font-specification:'URW Gothic L';letter-spacing:0px;word-spacing:0px;fill:#000000;fill-opacity:1;stroke:none;stroke-width:0.26458332px;stroke-linecap:butt;stroke-linejoin:miter;stroke-opacity:1"
       id="text5841">
      <path
         d="m 7.5284363,200.77249 h 1.6891002 v -9.3853 H 6.3473361 v 1.5875 h 1.1811002 z"
         style="font-weight:bold;font-size:12.70000172px;line-height:100%;fill:#d8d8d8;fill-opacity:0.94117647;stroke-width:0.26458332px"
         id="path4517" />
      <path
         d="m 18.190683,194.35899 c 0,-1.905 -1.2319,-3.1369 -3.136901,-3.1369 -1.9304,0 -3.1496,1.2446 -3.1496,3.2258 v 3.1877 c 0,0.9017 0.1778,1.5367 0.5969,2.1082 0.5842,0.7747 1.4859,1.1938 2.6289,1.1938 1.079501,0 1.917701,-0.3937 2.463801,-1.1557 0.4191,-0.5842 0.5969,-1.2065 0.5969,-2.1463 z m -4.597401,0.0889 c 0,-1.0414 0.5588,-1.6764 1.4732,-1.6764 0.914401,0 1.435101,0.5969 1.435101,1.6764 v 3.175 c 0,0.5842 -0.0889,0.9525 -0.3048,1.2446 -0.2286,0.3302 -0.647701,0.5207 -1.117601,0.5207 -0.9652,0 -1.4859,-0.635 -1.4859,-1.8034 z"
         style="font-weight:bold;font-size:12.70000172px;line-height:100%;fill:#d8d8d8;fill-opacity:0.94117647;stroke-width:0.26458332px"
         id="path4519" />
      <path
         d="m 23.0528,200.77249 h 1.7399 v -3.8481 h 2.8956 v -1.6637 h -2.8956 v -2.2098 h 3.0353 v -1.6637 h -4.7752 z"
         style="font-weight:bold;font-size:12.70000172px;line-height:100%;fill:#d8d8d8;fill-opacity:0.94117647;stroke-width:0.26458332px"
         id="path4521" />
      <path
         d="m 35.949254,198.00389 c 0.0508,-0.2413 0.0635,-0.3937 0.0635,-0.6477 0,-2.1844 -1.5367,-3.7846 -3.6322,-3.7846 -2.070101,0 -3.708401,1.6383 -3.708401,3.7084 0,2.0574 1.6637,3.6576 3.810001,3.6576 1.1557,0 2.0574,-0.4191 2.794,-1.27 0.2667,-0.3302 0.4445,-0.6223 0.5588,-0.9779 h -1.8415 c -0.4318,0.508 -0.8509,0.6985 -1.5494,0.6985 -1.003301,0 -1.739901,-0.5334 -1.943101,-1.3843 z m -5.499101,-1.4859 c 0.2667,-0.9017 0.9525,-1.397 1.955801,-1.397 1.0414,0 1.7272,0.4953 1.9431,1.397 z"
         style="font-weight:bold;font-size:12.70000172px;line-height:100%;fill:#d8d8d8;fill-opacity:0.94117647;stroke-width:0.26458332px"
         id="path4523" />
      <path
         d="m 37.11289,200.77249 h 1.5494 v -0.9017 c 0.7239,0.7747 1.397,1.0668 2.4384,1.0668 1.0922,0 1.955801,-0.4064 2.603501,-1.2319 0.5334,-0.6858 0.8255,-1.5621 0.8255,-2.5019 0,-2.1209 -1.524,-3.7211 -3.543301,-3.7211 -0.9144,0 -1.5367,0.254 -2.1844,0.9017 v -2.9972 h -1.6891 z m 3.6322,-5.7404 c 1.2065,0 2.082801,0.9271 2.082801,2.1844 0,1.2827 -0.838201,2.1717 -2.044701,2.1717 -1.2192,0 -2.0828,-0.9017 -2.0828,-2.1844 0,-1.27 0.8636,-2.1717 2.0447,-2.1717 z"
         style="font-weight:bold;font-size:12.70000172px;line-height:100%;fill:#d8d8d8;fill-opacity:0.94117647;stroke-width:0.26458332px"
         id="path4525" />
      <path
         d="m 45.496877,200.77249 h 1.6891 v -3.9116 c 0,-1.0922 0.495301,-1.6383 1.511301,-1.6637 v -1.6256 h -0.127 c -0.7239,0 -1.079501,0.2032 -1.524001,0.8509 v -0.6858 h -1.5494 z"
         style="font-weight:bold;font-size:12.70000172px;line-height:100%;fill:#d8d8d8;fill-opacity:0.94117647;stroke-width:0.26458332px"
         id="path4527" />
      <path
         d="m 55.825948,193.73669 h -1.6891 v 3.3147 c 0,0.9271 -0.0635,1.3843 -0.2667,1.6891 -0.2413,0.4064 -0.7112,0.6477 -1.2827,0.6477 -0.4318,0 -0.762,-0.1397 -0.9906,-0.4445 -0.2413,-0.3048 -0.3429,-0.8255 -0.3429,-1.7653 v -3.4417 h -1.689101 v 3.7719 c 0,1.1938 0.139701,1.8034 0.533401,2.3876 0.4699,0.6731 1.2319,1.0414 2.1463,1.0414 0.8509,0 1.3843,-0.2159 2.0193,-0.8382 v 0.6731 h 1.5621 z"
         style="font-weight:bold;font-size:12.70000172px;line-height:100%;fill:#d8d8d8;fill-opacity:0.94117647;stroke-width:0.26458332px"
         id="path4529" />
      <path
         d="m 64.304588,193.73669 h -1.5494 v 0.9398 c -0.5842,-0.7747 -1.2827,-1.1049 -2.2987,-1.1049 -2.082801,0 -3.581401,1.5621 -3.581401,3.7084 0,2.1209 1.4859,3.6576 3.543301,3.6576 0.9906,0 1.6637,-0.3175 2.3368,-1.0795 v 0.9144 h 1.5494 z m -3.6703,1.3843 c 1.2065,0 2.0701,0.9017 2.0701,2.1844 0,0.508 -0.2032,1.0922 -0.508,1.4478 -0.3429,0.4064 -0.889,0.635 -1.5367,0.635 -1.2319,0 -2.0828,-0.8382 -2.0828,-2.0701 0,-1.2827 0.8509,-2.1971 2.0574,-2.1971 z"
         style="font-weight:bold;font-size:12.70000172px;line-height:100%;fill:#d8d8d8;fill-opacity:0.94117647;stroke-width:0.26458332px"
         id="path4531" />
      <path
         d="m 65.563871,200.77249 h 1.6891 v -3.9116 c 0,-1.0922 0.4953,-1.6383 1.5113,-1.6637 v -1.6256 h -0.127 c -0.7239,0 -1.0795,0.2032 -1.524,0.8509 v -0.6858 h -1.5494 z"
         style="font-weight:bold;font-size:12.70000172px;line-height:100%;fill:#d8d8d8;fill-opacity:0.94117647;stroke-width:0.26458332px"
         id="path4533" />
      <path
         d="m 70.279545,203.12199 h 1.8161 l 4.064001,-9.3853 h -1.9431 l -1.701801,4.5593 -1.5621,-4.5593 h -1.9304 l 2.5781,6.3754 z"
         style="font-weight:bold;font-size:12.70000172px;line-height:100%;fill:#d8d8d8;fill-opacity:0.94117647;stroke-width:0.26458332px"
         id="path4535" />
      <path
         d="m 80.355407,200.77249 h 6.070601 v -1.5875 h -3.6957 l 1.9177,-1.7399 c 0.6858,-0.6223 0.9779,-0.9398 1.2573,-1.3716 0.3683,-0.5334 0.5588,-1.1684 0.5588,-1.8034 0,-1.7272 -1.3208,-3.048 -3.0607,-3.048 -1.0922,0 -2.0828,0.5207 -2.6162,1.3843 -0.355601,0.5588 -0.495301,1.1176 -0.495301,2.0193 h 1.663701 c 0,-1.1176 0.5842,-1.8542 1.4605,-1.8542 0.7747,0 1.3589,0.635 1.3589,1.4732 0,0.6096 -0.3175,1.1557 -1.0795,1.8796 l -3.340101,3.1623 z"
         style="font-weight:bold;font-size:12.70000172px;line-height:100%;fill:#d8d8d8;fill-opacity:0.94117647;stroke-width:0.26458332px"
         id="path4537" />
      <path
         d="m 93.646551,194.35899 c 0,-1.905 -1.231901,-3.1369 -3.136901,-3.1369 -1.9304,0 -3.1496,1.2446 -3.1496,3.2258 v 3.1877 c 0,0.9017 0.1778,1.5367 0.5969,2.1082 0.5842,0.7747 1.4859,1.1938 2.6289,1.1938 1.0795,0 1.9177,-0.3937 2.463801,-1.1557 0.4191,-0.5842 0.5969,-1.2065 0.5969,-2.1463 z m -4.597401,0.0889 c 0,-1.0414 0.5588,-1.6764 1.4732,-1.6764 0.9144,0 1.4351,0.5969 1.4351,1.6764 v 3.175 c 0,0.5842 -0.0889,0.9525 -0.3048,1.2446 -0.2286,0.3302 -0.6477,0.5207 -1.1176,0.5207 -0.9652,0 -1.4859,-0.635 -1.4859,-1.8034 z"
         style="font-weight:bold;font-size:12.70000172px;line-height:100%;fill:#d8d8d8;fill-opacity:0.94117647;stroke-width:0.26458332px"
         id="path4539" />
      <path
         d="m 97.2222,200.77249 h 1.6891 v -9.3853 h -2.8702 v 1.5875 h 1.1811 z"
         style="font-weight:bold;font-size:12.70000172px;line-height:100%;fill:#d8d8d8;fill-opacity:0.94117647;stroke-width:0.26458332px"
         id="path4541" />
      <path
         d="m 102.95684,195.55279 c -0.4318,0.2413 -0.6223,0.3937 -0.8128,0.6477 -0.3429,0.4191 -0.5334,1.0287 -0.5334,1.6383 0,1.7526 1.3716,3.0988 3.1369,3.0988 1.778,0 3.1115,-1.3335 3.1115,-3.1115 0,-0.6604 -0.2159,-1.2827 -0.5715,-1.7018 -0.1905,-0.2159 -0.3683,-0.3429 -0.7493,-0.5715 0.5334,-0.4318 0.7874,-0.9906 0.7874,-1.778 0,-1.4605 -1.0922,-2.5527 -2.5654,-2.5527 -1.4351,0 -2.5781,1.143 -2.5781,2.5781 0,0.6858 0.1905,1.1303 0.7747,1.7526 z m 1.8161,-2.7813 c 0.5207,0 0.9398,0.4445 0.9398,1.016 0,0.5715 -0.4318,1.0287 -0.9525,1.0287 -0.5334,0 -0.9652,-0.4572 -0.9652,-1.016 0,-0.5842 0.4191,-1.0287 0.9779,-1.0287 z m -0.0127,3.6703 c 0.7747,0 1.4097,0.6604 1.4097,1.4732 0,0.8382 -0.6096,1.4732 -1.4097,1.4732 -0.8255,0 -1.4605,-0.6477 -1.4605,-1.4859 0,-0.8255 0.6477,-1.4605 1.4605,-1.4605 z"
         style="font-weight:bold;font-size:12.70000172px;line-height:100%;fill:#d8d8d8;fill-opacity:0.94117647;stroke-width:0.26458332px"
         id="path4543" />
      <path
         d="m 5.267836,223.35027 h 5.041901 v -1.6637 H 7.0077362 v -2.1844 h 3.1623008 v -1.6637 H 7.0077362 v -2.2098 h 3.3020008 v -1.6637 H 5.267836 Z"
         style="font-weight:bold;font-size:12.70000172px;line-height:100%;fill:#d8d8d8;fill-opacity:0.94117647;stroke-width:0.26458332px"
         id="path4545" />
      <path
         d="m 11.942084,223.35027 h 1.6891 v -5.4991 h 1.016 v -1.5367 h -1.016 v -2.3495 h -1.6891 v 2.3495 h -0.8255 v 1.5367 h 0.8255 z"
         style="font-weight:bold;font-size:12.70000172px;line-height:100%;fill:#d8d8d8;fill-opacity:0.94117647;stroke-width:0.26458332px"
         id="path4547" />
      <path
         d="m 22.632708,216.31447 h -1.549401 v 0.9398 c -0.5842,-0.7747 -1.2827,-1.1049 -2.2987,-1.1049 -2.0828,0 -3.5814,1.5621 -3.5814,3.7084 0,2.1209 1.4859,3.6576 3.5433,3.6576 0.9906,0 1.6637,-0.3175 2.3368,-1.0795 v 0.9144 h 1.549401 z m -3.670301,1.3843 c 1.2065,0 2.0701,0.9017 2.0701,2.1844 0,0.508 -0.2032,1.0922 -0.508,1.4478 -0.3429,0.4064 -0.889,0.635 -1.5367,0.635 -1.2319,0 -2.0828,-0.8382 -2.0828,-2.0701 0,-1.2827 0.8509,-2.1971 2.0574,-2.1971 z"
         style="font-weight:bold;font-size:12.70000172px;line-height:100%;fill:#d8d8d8;fill-opacity:0.94117647;stroke-width:0.26458332px"
         id="path4549" />
      <path
         d="m 29.352993,216.31447 v 0.889 c -0.5207,-0.7112 -1.2827,-1.0541 -2.2987,-1.0541 -1.993901,0 -3.467101,1.5494 -3.467101,3.6322 0,2.1717 1.4478,3.7338 3.454401,3.7338 0.9906,0 1.651,-0.3175 2.3114,-1.0922 -0.0635,1.5113 -0.7112,2.2479 -1.9685,2.2479 -0.787401,0 -1.270001,-0.2032 -1.765301,-0.7493 h -1.9177 c 0.5715,1.4097 1.8923,2.2352 3.619501,2.2352 1.27,0 2.2733,-0.4445 2.9337,-1.2827 0.4953,-0.6477 0.7112,-1.5113 0.7112,-2.8575 v -5.7023 z m -2.1082,1.3843 c 1.2065,0 2.032,0.8763 2.032,2.159 0,1.27 -0.8001,2.1082 -2.0066,2.1082 -1.206501,0 -1.981201,-0.8255 -1.981201,-2.1082 0,-1.2954 0.7747,-2.159 1.955801,-2.159 z"
         style="font-weight:bold;font-size:12.70000172px;line-height:100%;fill:#d8d8d8;fill-opacity:0.94117647;stroke-width:0.26458332px"
         id="path4551" />
      <path
         d="m 39.248279,220.58167 c 0.0508,-0.2413 0.0635,-0.3937 0.0635,-0.6477 0,-2.1844 -1.536701,-3.7846 -3.632201,-3.7846 -2.0701,0 -3.7084,1.6383 -3.7084,3.7084 0,2.0574 1.6637,3.6576 3.81,3.6576 1.1557,0 2.0574,-0.4191 2.794,-1.27 0.266701,-0.3302 0.444501,-0.6223 0.558801,-0.9779 h -1.841501 c -0.4318,0.508 -0.8509,0.6985 -1.5494,0.6985 -1.0033,0 -1.7399,-0.5334 -1.9431,-1.3843 z m -5.499101,-1.4859 c 0.2667,-0.9017 0.9525,-1.397 1.9558,-1.397 1.0414,0 1.7272,0.4953 1.9431,1.397 z"
         style="font-weight:bold;font-size:12.70000172px;line-height:100%;fill:#d8d8d8;fill-opacity:0.94117647;stroke-width:0.26458332px"
         id="path4553" />
      <path
         d="m 45.101986,223.35027 h 1.7399 v -7.7216 h 1.7399 v -1.6637 h -5.2197 v 1.6637 h 1.7399 z"
         style="font-weight:bold;font-size:12.70000172px;line-height:100%;fill:#d8d8d8;fill-opacity:0.94117647;stroke-width:0.26458332px"
         id="path4555" />
      <path
         d="m 49.291994,223.35027 h 1.6891 v -3.9116 c 0,-1.0922 0.4953,-1.6383 1.5113,-1.6637 v -1.6256 h -0.127 c -0.7239,0 -1.0795,0.2032 -1.524,0.8509 v -0.6858 h -1.5494 z"
         style="font-weight:bold;font-size:12.70000172px;line-height:100%;fill:#d8d8d8;fill-opacity:0.94117647;stroke-width:0.26458332px"
         id="path4557" />
      <path
         d="m 56.776264,216.14937 c -2.0447,0 -3.7211,1.6637 -3.7211,3.683 0,2.032 1.6764,3.683 3.7338,3.683 2.044701,0 3.746501,-1.651 3.746501,-3.6322 0,-2.0955 -1.6383,-3.7338 -3.759201,-3.7338 z m 0.0127,1.5494 c 1.130301,0 2.044701,0.9652 2.044701,2.1336 0,1.1811 -0.9144,2.1336 -2.032001,2.1336 -1.143,0 -2.0447,-0.9525 -2.0447,-2.159 0,-1.1557 0.9271,-2.1082 2.032,-2.1082 z"
         style="font-weight:bold;font-size:12.70000172px;line-height:100%;fill:#d8d8d8;fill-opacity:0.94117647;stroke-width:0.26458332px"
         id="path4559" />
      <path
         d="m 61.495904,225.69977 h 1.689101 v -3.0099 c 0.635,0.5715 1.2954,0.8255 2.159,0.8255 2.032,0 3.5179,-1.5748 3.5179,-3.7084 0,-2.1209 -1.4732,-3.6576 -3.5052,-3.6576 -0.9525,0 -1.7653,0.3556 -2.3114,0.9906 v -0.8255 h -1.549401 z m 3.644901,-8.001 c 1.143,0 2.0193,0.9271 2.0193,2.1463 0,1.1938 -0.8763,2.1209 -1.9939,2.1209 -1.1938,0 -2.0828,-0.9144 -2.0828,-2.1463 0,-1.2065 0.889,-2.1209 2.0574,-2.1209 z"
         style="font-weight:bold;font-size:12.70000172px;line-height:100%;fill:#d8d8d8;fill-opacity:0.94117647;stroke-width:0.26458332px"
         id="path4561" />
      <path
         d="m 69.879892,223.35027 h 1.6891 v -7.0358 h -1.6891 z m 0,-7.7978 h 1.6891 v -1.5875 h -1.6891 z"
         style="font-weight:bold;font-size:12.70000172px;line-height:100%;fill:#d8d8d8;fill-opacity:0.94117647;stroke-width:0.26458332px"
         id="path4563" />
      <path
         d="m 77.972765,221.03887 c -0.419101,0.6477 -0.901701,0.9271 -1.600201,0.9271 -1.1684,0 -2.0447,-0.9144 -2.0447,-2.1463 0,-1.2319 0.8382,-2.1209 2.0066,-2.1209 0.762,0 1.295401,0.3175 1.638301,0.9652 h 1.905 c -0.2413,-0.7112 -0.4699,-1.0795 -0.9525,-1.524 -0.6858,-0.635 -1.612901,-0.9906 -2.590801,-0.9906 -2.0828,0 -3.7084,1.6129 -3.7084,3.683 0,2.0447 1.6764,3.683 3.7592,3.683 1.638301,0 2.908301,-0.9017 3.492501,-2.4765 z"
         style="font-weight:bold;font-size:12.70000172px;line-height:100%;fill:#d8d8d8;fill-opacity:0.94117647;stroke-width:0.26458332px"
         id="path4565" />
      <path
         d="m 88.191505,216.31447 h -1.5494 v 0.9398 c -0.5842,-0.7747 -1.2827,-1.1049 -2.2987,-1.1049 -2.0828,0 -3.581401,1.5621 -3.581401,3.7084 0,2.1209 1.485901,3.6576 3.543301,3.6576 0.9906,0 1.6637,-0.3175 2.3368,-1.0795 v 0.9144 h 1.5494 z m -3.6703,1.3843 c 1.2065,0 2.0701,0.9017 2.0701,2.1844 0,0.508 -0.2032,1.0922 -0.508,1.4478 -0.3429,0.4064 -0.889,0.635 -1.5367,0.635 -1.2319,0 -2.0828,-0.8382 -2.0828,-2.0701 0,-1.2827 0.8509,-2.1971 2.0574,-2.1971 z"
         style="font-weight:bold;font-size:12.70000172px;line-height:100%;fill:#d8d8d8;fill-opacity:0.94117647;stroke-width:0.26458332px"
         id="path4567" />
      <path
         d="m 89.450792,223.35027 h 1.6891 v -9.3853 h -1.6891 z"
         style="font-weight:bold;font-size:12.70000172px;line-height:100%;fill:#d8d8d8;fill-opacity:0.94117647;stroke-width:0.26458332px"
         id="path4569" />
      <path
         d="m 92.730364,223.35027 h 0.7366 c 0.0127,0.0762 0.0127,0.1651 0.0127,0.2159 0,0.4064 -0.2159,0.6096 -0.7493,0.7112 v 0.8509 c 0.381,0 0.5969,-0.0381 0.8763,-0.2032 0.5588,-0.3048 0.8128,-0.762 0.8128,-1.4859 v -1.7145 h -1.6891 z"
         style="font-weight:bold;font-size:12.70000172px;line-height:100%;fill:#d8d8d8;fill-opacity:0.94117647;stroke-width:0.26458332px"
         id="path4571" />
      <path
         d="m 99.773711,223.35027 h 1.739899 v -3.5687 h 0.5588 c 1.3335,0 1.9431,-0.1016 2.4638,-0.4191 0.762,-0.4699 1.2319,-1.4224 1.2319,-2.5019 0,-1.0795 -0.4572,-1.9685 -1.27,-2.4638 -0.5334,-0.3175 -1.1557,-0.4318 -2.4003,-0.4318 h -2.324099 z m 1.739899,-5.2324 v -2.4892 h 0.5842 c 0.5715,0 0.8255,0.0254 1.1049,0.0889 0.508,0.1397 0.8128,0.5842 0.8128,1.1684 0,0.4572 -0.2032,0.8128 -0.5715,1.016 -0.2667,0.1397 -0.7493,0.2159 -1.4224,0.2159 z"
         style="font-weight:bold;font-size:12.70000172px;line-height:100%;fill:#d8d8d8;fill-opacity:0.94117647;stroke-width:0.26458332px"
         id="path4573" />
      <path
         d="m 110.13115,216.14937 c -2.0447,0 -3.7211,1.6637 -3.7211,3.683 0,2.032 1.6764,3.683 3.7338,3.683 2.0447,0 3.7465,-1.651 3.7465,-3.6322 0,-2.0955 -1.6383,-3.7338 -3.7592,-3.7338 z m 0.0127,1.5494 c 1.1303,0 2.0447,0.9652 2.0447,2.1336 0,1.1811 -0.9144,2.1336 -2.032,2.1336 -1.143,0 -2.0447,-0.9525 -2.0447,-2.159 0,-1.1557 0.9271,-2.1082 2.032,-2.1082 z"
         style="font-weight:bold;font-size:12.70000172px;line-height:100%;fill:#d8d8d8;fill-opacity:0.94117647;stroke-width:0.26458332px"
         id="path4575" />
      <path
         d="m 114.85079,223.35027 h 1.6891 v -3.9116 c 0,-1.0922 0.4953,-1.6383 1.5113,-1.6637 v -1.6256 h -0.127 c -0.7239,0 -1.0795,0.2032 -1.524,0.8509 v -0.6858 h -1.5494 z"
         style="font-weight:bold;font-size:12.70000172px;line-height:100%;fill:#d8d8d8;fill-opacity:0.94117647;stroke-width:0.26458332px"
         id="path4577" />
      <path
         d="m 119.17276,223.35027 h 1.6891 v -5.4991 h 1.016 v -1.5367 h -1.016 v -2.3495 h -1.6891 v 2.3495 h -0.8255 v 1.5367 h 0.8255 z"
         style="font-weight:bold;font-size:12.70000172px;line-height:100%;fill:#d8d8d8;fill-opacity:0.94117647;stroke-width:0.26458332px"
         id="path4579" />
      <path
         d="m 125.68885,223.35027 h 1.9177 l 1.0414,-2.4257 h 3.3401 l 1.0033,2.4257 h 1.9177 l -3.937,-9.3853 h -1.3716 z m 3.5941,-4.0894 1.0033,-2.8448 1.0033,2.8448 z"
         style="font-weight:bold;font-size:12.70000172px;line-height:100%;fill:#d8d8d8;fill-opacity:0.94117647;stroke-width:0.26458332px"
         id="path4581" />
      <path
         d="m 135.68673,223.35027 h 1.6891 v -3.9116 c 0,-1.0922 0.4953,-1.6383 1.5113,-1.6637 v -1.6256 h -0.127 c -0.7239,0 -1.0795,0.2032 -1.524,0.8509 v -0.6858 h -1.5494 z"
         style="font-weight:bold;font-size:12.70000172px;line-height:100%;fill:#d8d8d8;fill-opacity:0.94117647;stroke-width:0.26458332px"
         id="path4583" />
      <path
         d="m 140.00871,223.35027 h 1.6891 v -5.4991 h 1.016 v -1.5367 h -1.016 v -2.3495 h -1.6891 v 2.3495 h -0.8255 v 1.5367 h 0.8255 z"
         style="font-weight:bold;font-size:12.70000172px;line-height:100%;fill:#d8d8d8;fill-opacity:0.94117647;stroke-width:0.26458332px"
         id="path4585" />
      <path
         d="m 143.57462,223.35027 h 1.6891 v -3.5687 c 0,-0.6985 0.0635,-1.0922 0.2413,-1.4097 0.2413,-0.4318 0.6858,-0.6731 1.2446,-0.6731 0.99061,0 1.37161,0.5842 1.37161,2.0574 v 3.5941 h 1.6891 v -3.9751 c 0,-1.0287 -0.127,-1.6002 -0.4699,-2.1209 -0.4699,-0.7239 -1.2827,-1.1176 -2.286,-1.1176 -0.72391,0 -1.28271,0.2032 -1.79071,0.6604 v -2.8321 h -1.6891 z"
         style="font-weight:bold;font-size:12.70000172px;line-height:100%;fill:#d8d8d8;fill-opacity:0.94117647;stroke-width:0.26458332px"
         id="path4587" />
      <path
         d="m 157.45076,216.31447 h -1.6891 v 3.3147 c 0,0.9271 -0.0635,1.3843 -0.2667,1.6891 -0.2413,0.4064 -0.7112,0.6477 -1.2827,0.6477 -0.4318,0 -0.762,-0.1397 -0.9906,-0.4445 -0.2413,-0.3048 -0.3429,-0.8255 -0.3429,-1.7653 v -3.4417 h -1.6891 v 3.7719 c 0,1.1938 0.1397,1.8034 0.5334,2.3876 0.4699,0.6731 1.2319,1.0414 2.1463,1.0414 0.8509,0 1.3843,-0.2159 2.0193,-0.8382 v 0.6731 h 1.5621 z"
         style="font-weight:bold;font-size:12.70000172px;line-height:100%;fill:#d8d8d8;fill-opacity:0.94117647;stroke-width:0.26458332px"
         id="path4589" />
      <path
         d="m 158.80471,223.35027 h 1.6891 v -3.9116 c 0,-1.0922 0.4953,-1.6383 1.5113,-1.6637 v -1.6256 h -0.127 c -0.7239,0 -1.0795,0.2032 -1.524,0.8509 v -0.6858 h -1.5494 z"
         style="font-weight:bold;font-size:12.70000172px;line-height:100%;fill:#d8d8d8;fill-opacity:0.94117647;stroke-width:0.26458332px"
         id="path4591" />
      <path
         d="m 162.87267,223.35027 h 1.6891 v -9.3853 h -1.6891 z"
         style="font-weight:bold;font-size:12.70000172px;line-height:100%;fill:#d8d8d8;fill-opacity:0.94117647;stroke-width:0.26458332px"
         id="path4593" />
      <path
         d="m 173.04836,216.31447 h -1.54941 v 0.9398 c -0.5842,-0.7747 -1.2827,-1.1049 -2.2987,-1.1049 -2.0828,0 -3.5814,1.5621 -3.5814,3.7084 0,2.1209 1.4859,3.6576 3.5433,3.6576 0.9906,0 1.6637,-0.3175 2.3368,-1.0795 v 0.9144 h 1.54941 z m -3.67031,1.3843 c 1.2065,0 2.0701,0.9017 2.0701,2.1844 0,0.508 -0.2032,1.0922 -0.508,1.4478 -0.3429,0.4064 -0.889,0.635 -1.5367,0.635 -1.2319,0 -2.0828,-0.8382 -2.0828,-2.0701 0,-1.2827 0.8509,-2.1971 2.0574,-2.1971 z"
         style="font-weight:bold;font-size:12.70000172px;line-height:100%;fill:#d8d8d8;fill-opacity:0.94117647;stroke-width:0.26458332px"
         id="path4595" />
      <path
         d="m 181.43234,216.31447 h -1.5494 v 0.9398 c -0.5842,-0.7747 -1.2827,-1.1049 -2.2987,-1.1049 -2.0828,0 -3.5814,1.5621 -3.5814,3.7084 0,2.1209 1.4859,3.6576 3.5433,3.6576 0.9906,0 1.6637,-0.3175 2.3368,-1.0795 v 0.9144 h 1.5494 z m -3.6703,1.3843 c 1.2065,0 2.0701,0.9017 2.0701,2.1844 0,0.508 -0.2032,1.0922 -0.508,1.4478 -0.3429,0.4064 -0.889,0.635 -1.5367,0.635 -1.2319,0 -2.0828,-0.8382 -2.0828,-2.0701 0,-1.2827 0.8509,-2.1971 2.0574,-2.1971 z"
         style="font-weight:bold;font-size:12.70000172px;line-height:100%;fill:#d8d8d8;fill-opacity:0.94117647;stroke-width:0.26458332px"
         id="path4597" />
      <path
         d="m 182.69163,223.35027 h 1.6891 v -3.3147 c 0,-0.9398 0.0635,-1.3462 0.2794,-1.6891 0.2667,-0.4191 0.7112,-0.6477 1.2446,-0.6477 0.4318,0 0.7874,0.1524 1.016,0.4445 0.2286,0.3048 0.3302,0.8255 0.3302,1.7653 v 3.4417 h 1.6891 v -3.7719 c 0,-1.2573 -0.127,-1.8669 -0.508,-2.413 -0.4572,-0.6604 -1.2192,-1.016 -2.1971,-1.016 -0.8001,0 -1.3589,0.2413 -1.9812,0.8382 v -0.6731 h -1.5621 z"
         style="font-weight:bold;font-size:12.70000172px;line-height:100%;fill:#d8d8d8;fill-opacity:0.94117647;stroke-width:0.26458332px"
         id="path4599" />
      <path
         d="m 190.53526,223.35027 h 0.73661 c 0.0127,0.0762 0.0127,0.1651 0.0127,0.2159 0,0.4064 -0.2159,0.6096 -0.74931,0.7112 v 0.8509 c 0.38101,0 0.59691,-0.0381 0.87631,-0.2032 0.5588,-0.3048 0.8128,-0.762 0.8128,-1.4859 v -1.7145 h -1.68911 z"
         style="font-weight:bold;font-size:12.70000172px;line-height:100%;fill:#d8d8d8;fill-opacity:0.94117647;stroke-width:0.26458332px"
         id="path4601" />
      <path
         d="m 200.09321,223.35027 2.4511,-3.683 c 0.6731,-1.0033 0.9271,-1.7272 0.9271,-2.6162 0,-1.8669 -1.397,-3.2512 -3.2893,-3.2512 -1.8542,0 -3.1877,1.4097 -3.1877,3.3655 0,1.7018 1.1176,2.9972 2.5781,2.9972 0.2794,0 0.4572,-0.0381 0.762,-0.1524 l -2.2606,3.3401 z m 0.0889,-8.001 c 0.9271,0 1.6002,0.6858 1.6002,1.651 0,0.9779 -0.635,1.6637 -1.5621,1.6637 -0.889,0 -1.5367,-0.6985 -1.5367,-1.6637 0,-0.9652 0.6096,-1.651 1.4986,-1.651 z"
         style="font-weight:bold;font-size:12.70000172px;line-height:100%;fill:#d8d8d8;fill-opacity:0.94117647;stroke-width:0.26458332px"
         id="path4603" />
      <path
         d="m 210.50145,216.93677 c 0,-1.905 -1.2319,-3.1369 -3.1369,-3.1369 -1.9304,0 -3.1496,1.2446 -3.1496,3.2258 v 3.1877 c 0,0.9017 0.1778,1.5367 0.5969,2.1082 0.5842,0.7747 1.4859,1.1938 2.6289,1.1938 1.0795,0 1.9177,-0.3937 2.4638,-1.1557 0.4191,-0.5842 0.5969,-1.2065 0.5969,-2.1463 z m -4.5974,0.0889 c 0,-1.0414 0.5588,-1.6764 1.4732,-1.6764 0.9144,0 1.4351,0.5969 1.4351,1.6764 v 3.175 c 0,0.5842 -0.0889,0.9525 -0.3048,1.2446 -0.2286,0.3302 -0.6477,0.5207 -1.1176,0.5207 -0.9652,0 -1.4859,-0.635 -1.4859,-1.8034 z"
         style="font-weight:bold;font-size:12.70000172px;line-height:100%;fill:#d8d8d8;fill-opacity:0.94117647;stroke-width:0.26458332px"
         id="path4605" />
      <path
         d="m 217.6204,216.93677 c 0,-1.905 -1.2319,-3.1369 -3.1369,-3.1369 -1.9304,0 -3.1496,1.2446 -3.1496,3.2258 v 3.1877 c 0,0.9017 0.1778,1.5367 0.5969,2.1082 0.5842,0.7747 1.4859,1.1938 2.6289,1.1938 1.0795,0 1.9177,-0.3937 2.4638,-1.1557 0.4191,-0.5842 0.5969,-1.2065 0.5969,-2.1463 z m -4.5974,0.0889 c 0,-1.0414 0.5588,-1.6764 1.4732,-1.6764 0.9144,0 1.4351,0.5969 1.4351,1.6764 v 3.175 c 0,0.5842 -0.0889,0.9525 -0.3048,1.2446 -0.2286,0.3302 -0.6477,0.5207 -1.1176,0.5207 -0.9652,0 -1.4859,-0.635 -1.4859,-1.8034 z"
         style="font-weight:bold;font-size:12.70000172px;line-height:100%;fill:#d8d8d8;fill-opacity:0.94117647;stroke-width:0.26458332px"
         id="path4607" />
      <path
         d="m 224.73934,216.93677 c 0,-1.905 -1.2319,-3.1369 -3.1369,-3.1369 -1.9304,0 -3.1496,1.2446 -3.1496,3.2258 v 3.1877 c 0,0.9017 0.1778,1.5367 0.5969,2.1082 0.5842,0.7747 1.4859,1.1938 2.6289,1.1938 1.0795,0 1.9177,-0.3937 2.4638,-1.1557 0.4191,-0.5842 0.5969,-1.2065 0.5969,-2.1463 z m -4.5974,0.0889 c 0,-1.0414 0.5588,-1.6764 1.4732,-1.6764 0.9144,0 1.4351,0.5969 1.4351,1.6764 v 3.175 c 0,0.5842 -0.0889,0.9525 -0.3048,1.2446 -0.2286,0.3302 -0.6477,0.5207 -1.1176,0.5207 -0.9652,0 -1.4859,-0.635 -1.4859,-1.8034 z"
         style="font-weight:bold;font-size:12.70000172px;line-height:100%;fill:#d8d8d8;fill-opacity:0.94117647;stroke-width:0.26458332px"
         id="path4609" />
      <path
         d="m 232.99235,220.18797 h 3.88621 c -0.508,1.0414 -1.52401,1.651 -2.75591,1.651 -1.8415,0 -3.2512,-1.3843 -3.2512,-3.175 0,-0.8128 0.3429,-1.7018 0.8763,-2.2606 0.5461,-0.5969 1.3716,-0.9271 2.2733,-0.9271 1.0922,0 1.9939,0.4318 2.57811,1.2446 h 2.0447 c -0.6096,-1.6891 -2.54001,-2.921 -4.58471,-2.921 -2.7432,0 -4.9403,2.1463 -4.9403,4.8387 0,2.7432 2.2225,4.8768 5.1054,4.8768 1.4097,0 2.62891,-0.4953 3.55601,-1.4478 0.8636,-0.9017 1.3462,-2.0701 1.3462,-3.2766 v -0.2286 h -6.13411 z"
         style="font-weight:bold;font-size:12.70000172px;line-height:100%;fill:#d8d8d8;fill-opacity:0.94117647;stroke-width:0.26458332px"
         id="path4611" />
      <path
         d="m 240.08968,223.35027 h 1.68911 v -3.5687 c 0,-0.6985 0.0635,-1.0922 0.2413,-1.4097 0.2413,-0.4318 0.6858,-0.6731 1.2446,-0.6731 0.9906,0 1.3716,0.5842 1.3716,2.0574 v 3.5941 h 1.6891 v -3.9751 c 0,-1.0287 -0.127,-1.6002 -0.4699,-2.1209 -0.4699,-0.7239 -1.2827,-1.1176 -2.286,-1.1176 -0.7239,0 -1.2827,0.2032 -1.7907,0.6604 v -2.8321 h -1.68911 z"
         style="font-weight:bold;font-size:12.70000172px;line-height:100%;fill:#d8d8d8;fill-opacity:0.94117647;stroke-width:0.26458332px"
         id="path4613" />
      <path
         d="m 254.67702,220.58167 c 0.0508,-0.2413 0.0635,-0.3937 0.0635,-0.6477 0,-2.1844 -1.5367,-3.7846 -3.6322,-3.7846 -2.0701,0 -3.7084,1.6383 -3.7084,3.7084 0,2.0574 1.6637,3.6576 3.81,3.6576 1.1557,0 2.0574,-0.4191 2.794,-1.27 0.2667,-0.3302 0.4445,-0.6223 0.5588,-0.9779 h -1.8415 c -0.4318,0.508 -0.8509,0.6985 -1.5494,0.6985 -1.0033,0 -1.7399,-0.5334 -1.9431,-1.3843 z m -5.4991,-1.4859 c 0.2667,-0.9017 0.9525,-1.397 1.9558,-1.397 1.0414,0 1.7272,0.4953 1.9431,1.397 z"
         style="font-weight:bold;font-size:12.70000172px;line-height:100%;fill:#d8d8d8;fill-opacity:0.94117647;stroke-width:0.26458332px"
         id="path4615" />
      <path
         d="m 255.84066,223.35027 h 1.6891 v -3.3147 c 0,-0.9398 0.0635,-1.3462 0.2794,-1.6891 0.2667,-0.4191 0.7112,-0.6477 1.2446,-0.6477 0.4318,0 0.7874,0.1524 1.016,0.4445 0.2286,0.3048 0.3302,0.8255 0.3302,1.7653 v 3.4417 h 1.6891 v -3.7719 c 0,-1.2573 -0.127,-1.8669 -0.508,-2.413 -0.4572,-0.6604 -1.2192,-1.016 -2.1971,-1.016 -0.8001,0 -1.3589,0.2413 -1.9812,0.8382 v -0.6731 h -1.5621 z"
         style="font-weight:bold;font-size:12.70000172px;line-height:100%;fill:#d8d8d8;fill-opacity:0.94117647;stroke-width:0.26458332px"
         id="path4617" />
      <path
         d="m 263.7097,223.35027 h 1.6891 v -5.4991 h 1.016 v -1.5367 h -1.016 v -2.3495 h -1.6891 v 2.3495 h -0.8255 v 1.5367 h 0.8255 z"
         style="font-weight:bold;font-size:12.70000172px;line-height:100%;fill:#d8d8d8;fill-opacity:0.94117647;stroke-width:0.26458332px"
         id="path4619" />
      <path
         d="m 5.267836,245.92805 h 1.7399002 v -3.5687 h 0.5588001 c 1.3335001,0 1.9431002,-0.1016 2.4638007,-0.4191 0.762,-0.4699 1.2319,-1.4224 1.2319,-2.5019 0,-1.0795 -0.4572,-1.9685 -1.2700004,-2.4638 -0.5334001,-0.3175 -1.1557002,-0.4318 -2.4003003,-0.4318 H 5.267836 Z m 1.7399002,-5.2324 v -2.4892 h 0.5842001 c 0.5715,0 0.8255001,0.0254 1.1049001,0.0889 0.5080001,0.1397 0.8128001,0.5842 0.8128001,1.1684 0,0.4572 -0.2032,0.8128 -0.5715,1.016 -0.2667001,0.1397 -0.7493001,0.2159 -1.4224002,0.2159 z"
         style="font-weight:bold;font-size:12.70000172px;line-height:100%;fill:#d8d8d8;fill-opacity:0.94117647;stroke-width:0.26458332px"
         id="path4621" />
      <path
         d="m 12.208982,245.92805 h 1.6891 v -3.9116 c 0,-1.0922 0.4953,-1.6383 1.5113,-1.6637 v -1.6256 h -0.127 c -0.7239,0 -1.0795,0.2032 -1.524,0.8509 v -0.6858 h -1.5494 z"
         style="font-weight:bold;font-size:12.70000172px;line-height:100%;fill:#d8d8d8;fill-opacity:0.94117647;stroke-width:0.26458332px"
         id="path4623" />
      <path
         d="m 23.401652,238.89225 h -1.5494 v 0.9398 c -0.5842,-0.7747 -1.2827,-1.1049 -2.2987,-1.1049 -2.082801,0 -3.581401,1.5621 -3.581401,3.7084 0,2.1209 1.4859,3.6576 3.543301,3.6576 0.9906,0 1.6637,-0.3175 2.3368,-1.0795 v 0.9144 h 1.5494 z m -3.6703,1.3843 c 1.2065,0 2.0701,0.9017 2.0701,2.1844 0,0.508 -0.2032,1.0922 -0.508,1.4478 -0.3429,0.4064 -0.889,0.635 -1.5367,0.635 -1.2319,0 -2.0828,-0.8382 -2.0828,-2.0701 0,-1.2827 0.8509,-2.1971 2.0574,-2.1971 z"
         style="font-weight:bold;font-size:12.70000172px;line-height:100%;fill:#d8d8d8;fill-opacity:0.94117647;stroke-width:0.26458332px"
         id="path4625" />
      <path
         d="m 29.702837,243.61665 c -0.4191,0.6477 -0.901701,0.9271 -1.600201,0.9271 -1.1684,0 -2.0447,-0.9144 -2.0447,-2.1463 0,-1.2319 0.8382,-2.1209 2.0066,-2.1209 0.762,0 1.295401,0.3175 1.638301,0.9652 h 1.905 c -0.2413,-0.7112 -0.4699,-1.0795 -0.9525,-1.524 -0.6858,-0.635 -1.612901,-0.9906 -2.590801,-0.9906 -2.0828,0 -3.7084,1.6129 -3.7084,3.683 0,2.0447 1.6764,3.683 3.7592,3.683 1.638301,0 2.908301,-0.9017 3.492501,-2.4765 z"
         style="font-weight:bold;font-size:12.70000172px;line-height:100%;fill:#d8d8d8;fill-opacity:0.94117647;stroke-width:0.26458332px"
         id="path4627" />
      <path
         d="m 33.050876,245.92805 h 1.689101 v -5.4991 h 1.016 v -1.5367 h -1.016 v -2.3495 h -1.689101 v 2.3495 h -0.8255 v 1.5367 h 0.8255 z"
         style="font-weight:bold;font-size:12.70000172px;line-height:100%;fill:#d8d8d8;fill-opacity:0.94117647;stroke-width:0.26458332px"
         id="path4629" />
      <path
         d="m 36.616798,245.92805 h 1.6891 v -7.0358 h -1.6891 z m 0,-7.7978 h 1.6891 v -1.5875 h -1.6891 z"
         style="font-weight:bold;font-size:12.70000172px;line-height:100%;fill:#d8d8d8;fill-opacity:0.94117647;stroke-width:0.26458332px"
         id="path4631" />
      <path
         d="m 44.709676,243.61665 c -0.4191,0.6477 -0.9017,0.9271 -1.6002,0.9271 -1.1684,0 -2.0447,-0.9144 -2.0447,-2.1463 0,-1.2319 0.8382,-2.1209 2.0066,-2.1209 0.762,0 1.2954,0.3175 1.6383,0.9652 h 1.905001 c -0.2413,-0.7112 -0.4699,-1.0795 -0.952501,-1.524 -0.6858,-0.635 -1.6129,-0.9906 -2.5908,-0.9906 -2.0828,0 -3.7084,1.6129 -3.7084,3.683 0,2.0447 1.6764,3.683 3.7592,3.683 1.6383,0 2.908301,-0.9017 3.492501,-2.4765 z"
         style="font-weight:bold;font-size:12.70000172px;line-height:100%;fill:#d8d8d8;fill-opacity:0.94117647;stroke-width:0.26458332px"
         id="path4633" />
      <path
         d="m 54.928413,238.89225 h -1.5494 v 0.9398 c -0.5842,-0.7747 -1.2827,-1.1049 -2.2987,-1.1049 -2.0828,0 -3.581401,1.5621 -3.581401,3.7084 0,2.1209 1.485901,3.6576 3.543301,3.6576 0.9906,0 1.6637,-0.3175 2.3368,-1.0795 v 0.9144 h 1.5494 z m -3.6703,1.3843 c 1.2065,0 2.0701,0.9017 2.0701,2.1844 0,0.508 -0.2032,1.0922 -0.508,1.4478 -0.3429,0.4064 -0.889,0.635 -1.5367,0.635 -1.2319,0 -2.0828,-0.8382 -2.0828,-2.0701 0,-1.2827 0.8509,-2.1971 2.0574,-2.1971 z"
         style="font-weight:bold;font-size:12.70000172px;line-height:100%;fill:#d8d8d8;fill-opacity:0.94117647;stroke-width:0.26458332px"
         id="path4635" />
      <path
         d="m 56.4163,245.92805 h 1.6891 v -1.6256 h -1.6891 z m 0,-4.6863 h 1.6891 v -1.6891 h -1.6891 z"
         style="font-weight:bold;font-size:12.70000172px;line-height:100%;fill:#d8d8d8;fill-opacity:0.94117647;stroke-width:0.26458332px"
         id="path4637" />
      <path
         d="m 65.720239,245.92805 h 1.6891 v -9.3853 h -2.8702 v 1.5875 h 1.1811 z"
         style="font-weight:bold;font-size:12.70000172px;line-height:100%;fill:#d8d8d8;fill-opacity:0.94117647;stroke-width:0.26458332px"
         id="path4639" />
      <path
         d="m 71.454889,240.70835 c -0.4318,0.2413 -0.6223,0.3937 -0.8128,0.6477 -0.3429,0.4191 -0.5334,1.0287 -0.5334,1.6383 0,1.7526 1.3716,3.0988 3.1369,3.0988 1.778,0 3.111501,-1.3335 3.111501,-3.1115 0,-0.6604 -0.2159,-1.2827 -0.5715,-1.7018 -0.1905,-0.2159 -0.368301,-0.3429 -0.749301,-0.5715 0.5334,-0.4318 0.787401,-0.9906 0.787401,-1.778 0,-1.4605 -1.092201,-2.5527 -2.565401,-2.5527 -1.4351,0 -2.5781,1.143 -2.5781,2.5781 0,0.6858 0.1905,1.1303 0.7747,1.7526 z m 1.8161,-2.7813 c 0.5207,0 0.9398,0.4445 0.9398,1.016 0,0.5715 -0.4318,1.0287 -0.9525,1.0287 -0.5334,0 -0.9652,-0.4572 -0.9652,-1.016 0,-0.5842 0.4191,-1.0287 0.9779,-1.0287 z m -0.0127,3.6703 c 0.7747,0 1.4097,0.6604 1.4097,1.4732 0,0.8382 -0.6096,1.4732 -1.4097,1.4732 -0.8255,0 -1.4605,-0.6477 -1.4605,-1.4859 0,-0.8255 0.6477,-1.4605 1.4605,-1.4605 z"
         style="font-weight:bold;font-size:12.70000172px;line-height:100%;fill:#d8d8d8;fill-opacity:0.94117647;stroke-width:0.26458332px"
         id="path4641" />
      <path
         d="m 77.748331,245.92805 h 1.6891 v -1.6256 h -1.6891 z m 0,-4.6863 h 1.6891 v -1.6891 h -1.6891 z"
         style="font-weight:bold;font-size:12.70000172px;line-height:100%;fill:#d8d8d8;fill-opacity:0.94117647;stroke-width:0.26458332px"
         id="path4643" />
      <path
         d="m 87.048505,239.51455 c 0,-1.905 -1.2319,-3.1369 -3.1369,-3.1369 -1.9304,0 -3.149601,1.2446 -3.149601,3.2258 v 3.1877 c 0,0.9017 0.1778,1.5367 0.5969,2.1082 0.584201,0.7747 1.485901,1.1938 2.628901,1.1938 1.0795,0 1.9177,-0.3937 2.4638,-1.1557 0.4191,-0.5842 0.5969,-1.2065 0.5969,-2.1463 z m -4.5974,0.0889 c 0,-1.0414 0.5588,-1.6764 1.4732,-1.6764 0.9144,0 1.4351,0.5969 1.4351,1.6764 v 3.175 c 0,0.5842 -0.0889,0.9525 -0.3048,1.2446 -0.2286,0.3302 -0.6477,0.5207 -1.1176,0.5207 -0.9652,0 -1.4859,-0.635 -1.4859,-1.8034 z"
         style="font-weight:bold;font-size:12.70000172px;line-height:100%;fill:#d8d8d8;fill-opacity:0.94117647;stroke-width:0.26458332px"
         id="path4645" />
      <path
         d="m 94.167447,239.51455 c 0,-1.905 -1.2319,-3.1369 -3.1369,-3.1369 -1.9304,0 -3.1496,1.2446 -3.1496,3.2258 v 3.1877 c 0,0.9017 0.1778,1.5367 0.5969,2.1082 0.5842,0.7747 1.4859,1.1938 2.6289,1.1938 1.0795,0 1.9177,-0.3937 2.4638,-1.1557 0.4191,-0.5842 0.5969,-1.2065 0.5969,-2.1463 z m -4.5974,0.0889 c 0,-1.0414 0.5588,-1.6764 1.4732,-1.6764 0.9144,0 1.4351,0.5969 1.4351,1.6764 v 3.175 c 0,0.5842 -0.0889,0.9525 -0.3048,1.2446 -0.2286,0.3302 -0.6477,0.5207 -1.1176,0.5207 -0.9652,0 -1.4859,-0.635 -1.4859,-1.8034 z"
         style="font-weight:bold;font-size:12.70000172px;line-height:100%;fill:#d8d8d8;fill-opacity:0.94117647;stroke-width:0.26458332px"
         id="path4647" />
      <path
         d="m 99.10577,243.01975 h 3.5179 v -1.4986 h -3.5179 z"
         style="font-weight:bold;font-size:12.70000172px;line-height:100%;fill:#d8d8d8;fill-opacity:0.94117647;stroke-width:0.26458332px"
         id="path4649" />
      <path
         d="m 107.54134,245.92805 h 6.0706 v -1.5875 h -3.6957 l 1.9177,-1.7399 c 0.6858,-0.6223 0.9779,-0.9398 1.2573,-1.3716 0.3683,-0.5334 0.5588,-1.1684 0.5588,-1.8034 0,-1.7272 -1.3208,-3.048 -3.0607,-3.048 -1.0922,0 -2.0828,0.5207 -2.6162,1.3843 -0.3556,0.5588 -0.4953,1.1176 -0.4953,2.0193 h 1.6637 c 0,-1.1176 0.5842,-1.8542 1.4605,-1.8542 0.7747,0 1.3589,0.635 1.3589,1.4732 0,0.6096 -0.3175,1.1557 -1.0795,1.8796 l -3.3401,3.1623 z"
         style="font-weight:bold;font-size:12.70000172px;line-height:100%;fill:#d8d8d8;fill-opacity:0.94117647;stroke-width:0.26458332px"
         id="path4651" />
      <path
         d="m 120.83249,239.51455 c 0,-1.905 -1.2319,-3.1369 -3.1369,-3.1369 -1.9304,0 -3.1496,1.2446 -3.1496,3.2258 v 3.1877 c 0,0.9017 0.1778,1.5367 0.5969,2.1082 0.5842,0.7747 1.4859,1.1938 2.6289,1.1938 1.0795,0 1.9177,-0.3937 2.4638,-1.1557 0.4191,-0.5842 0.5969,-1.2065 0.5969,-2.1463 z m -4.5974,0.0889 c 0,-1.0414 0.5588,-1.6764 1.4732,-1.6764 0.9144,0 1.4351,0.5969 1.4351,1.6764 v 3.175 c 0,0.5842 -0.0889,0.9525 -0.3048,1.2446 -0.2286,0.3302 -0.6477,0.5207 -1.1176,0.5207 -0.9652,0 -1.4859,-0.635 -1.4859,-1.8034 z"
         style="font-weight:bold;font-size:12.70000172px;line-height:100%;fill:#d8d8d8;fill-opacity:0.94117647;stroke-width:0.26458332px"
         id="path4653" />
      <path
         d="m 122.19834,245.92805 h 1.6891 v -1.6256 h -1.6891 z m 0,-4.6863 h 1.6891 v -1.6891 h -1.6891 z"
         style="font-weight:bold;font-size:12.70000172px;line-height:100%;fill:#d8d8d8;fill-opacity:0.94117647;stroke-width:0.26458332px"
         id="path4655" />
      <path
         d="m 131.49851,239.51455 c 0,-1.905 -1.2319,-3.1369 -3.1369,-3.1369 -1.9304,0 -3.1496,1.2446 -3.1496,3.2258 v 3.1877 c 0,0.9017 0.1778,1.5367 0.5969,2.1082 0.5842,0.7747 1.4859,1.1938 2.6289,1.1938 1.0795,0 1.9177,-0.3937 2.4638,-1.1557 0.4191,-0.5842 0.5969,-1.2065 0.5969,-2.1463 z m -4.5974,0.0889 c 0,-1.0414 0.5588,-1.6764 1.4732,-1.6764 0.9144,0 1.4351,0.5969 1.4351,1.6764 v 3.175 c 0,0.5842 -0.0889,0.9525 -0.3048,1.2446 -0.2286,0.3302 -0.6477,0.5207 -1.1176,0.5207 -0.9652,0 -1.4859,-0.635 -1.4859,-1.8034 z"
         style="font-weight:bold;font-size:12.70000172px;line-height:100%;fill:#d8d8d8;fill-opacity:0.94117647;stroke-width:0.26458332px"
         id="path4657" />
      <path
         d="m 138.61745,239.51455 c 0,-1.905 -1.2319,-3.1369 -3.1369,-3.1369 -1.9304,0 -3.1496,1.2446 -3.1496,3.2258 v 3.1877 c 0,0.9017 0.1778,1.5367 0.5969,2.1082 0.5842,0.7747 1.4859,1.1938 2.6289,1.1938 1.0795,0 1.9177,-0.3937 2.4638,-1.1557 0.4191,-0.5842 0.5969,-1.2065 0.5969,-2.1463 z m -4.5974,0.0889 c 0,-1.0414 0.5588,-1.6764 1.4732,-1.6764 0.9144,0 1.4351,0.5969 1.4351,1.6764 v 3.175 c 0,0.5842 -0.0889,0.9525 -0.3048,1.2446 -0.2286,0.3302 -0.6477,0.5207 -1.1176,0.5207 -0.9652,0 -1.4859,-0.635 -1.4859,-1.8034 z"
         style="font-weight:bold;font-size:12.70000172px;line-height:100%;fill:#d8d8d8;fill-opacity:0.94117647;stroke-width:0.26458332px"
         id="path4659" />
      <path
         d="m 143.55577,243.01975 h 3.5179 v -1.4986 h -3.5179 z"
         style="font-weight:bold;font-size:12.70000172px;line-height:100%;fill:#d8d8d8;fill-opacity:0.94117647;stroke-width:0.26458332px"
         id="path4661" />
      <path
         d="m 151.07695,240.93695 h 1.2065 c -0.0127,0.1397 -0.0127,0.2794 -0.0127,0.3302 v 0.2413 h -0.8763 l -0.3048,1.1176 h 1.2827 c 0.3429,1.5494 0.7874,2.3114 1.6637,2.8575 0.6096,0.3683 1.3716,0.5842 2.0955,0.5842 0.7493,0 1.2827,-0.1143 2.032,-0.4191 v -1.5621 c -0.9271,0.381 -1.397,0.508 -1.8542,0.508 -0.7366,0 -1.4478,-0.3556 -1.8288,-0.9271 -0.2159,-0.3048 -0.3302,-0.5842 -0.4445,-1.0414 h 2.9591 l 0.4318,-1.1176 h -3.4544 v -0.5715 h 3.6703 l 0.4191,-1.1176 h -4.0005 c 0.1905,-0.6858 0.3048,-0.9652 0.5588,-1.2827 0.3302,-0.4318 0.9906,-0.7239 1.6129,-0.7239 0.7366,0 1.4478,0.2159 2.3241,0.7366 l 0.4953,-1.3081 c -1.0541,-0.635 -1.7399,-0.8382 -2.7813,-0.8382 -1.4097,0 -2.4892,0.5334 -3.2004,1.5748 -0.3048,0.4572 -0.4699,0.9144 -0.6858,1.8415 h -1.0033 z"
         style="font-weight:bold;font-size:12.70000172px;line-height:100%;fill:#d8d8d8;fill-opacity:0.94117647;stroke-width:0.26458332px"
         id="path4663" />
      <path
         d="m 168.82956,239.51455 c 0,-1.905 -1.2319,-3.1369 -3.1369,-3.1369 -1.9304,0 -3.1496,1.2446 -3.1496,3.2258 v 3.1877 c 0,0.9017 0.1778,1.5367 0.5969,2.1082 0.5842,0.7747 1.4859,1.1938 2.6289,1.1938 1.0795,0 1.9177,-0.3937 2.4638,-1.1557 0.4191,-0.5842 0.5969,-1.2065 0.5969,-2.1463 z m -4.5974,0.0889 c 0,-1.0414 0.5588,-1.6764 1.4732,-1.6764 0.9144,0 1.4351,0.5969 1.4351,1.6764 v 3.175 c 0,0.5842 -0.0889,0.9525 -0.3048,1.2446 -0.2286,0.3302 -0.6477,0.5207 -1.1176,0.5207 -0.9652,0 -1.4859,-0.635 -1.4859,-1.8034 z"
         style="font-weight:bold;font-size:12.70000172px;line-height:100%;fill:#d8d8d8;fill-opacity:0.94117647;stroke-width:0.26458332px"
         id="path4665" />
      <path
         d="m 5.267836,268.50583 h 1.7399002 v -7.03581 l 2.4511003,7.03581 h 1.4224005 l 2.4511,-7.03581 v 7.03581 h 1.7399 v -9.38531 h -2.3876 l -2.5019,7.112 -2.5273007,-7.112 H 5.267836 Z"
         style="font-weight:bold;font-size:12.70000172px;line-height:100%;fill:#d8d8d8;fill-opacity:0.94117647;stroke-width:0.26458332px"
         id="path4667" />
      <path
         d="m 16.524998,268.50583 h 1.6891 v -7.03581 h -1.6891 z m 0,-7.79781 h 1.6891 v -1.5875 h -1.6891 z"
         style="font-weight:bold;font-size:12.70000172px;line-height:100%;fill:#d8d8d8;fill-opacity:0.94117647;stroke-width:0.26458332px"
         id="path4669" />
      <path
         d="m 19.575975,268.50583 h 1.6891 v -9.38531 h -1.6891 z"
         style="font-weight:bold;font-size:12.70000172px;line-height:100%;fill:#d8d8d8;fill-opacity:0.94117647;stroke-width:0.26458332px"
         id="path4671" />
      <path
         d="m 26.043253,261.30492 c -2.0447,0 -3.7211,1.6637 -3.7211,3.683 0,2.032 1.6764,3.68301 3.7338,3.68301 2.0447,0 3.746501,-1.65101 3.746501,-3.63221 0,-2.0955 -1.638301,-3.7338 -3.759201,-3.7338 z m 0.0127,1.5494 c 1.1303,0 2.0447,0.9652 2.0447,2.1336 0,1.1811 -0.9144,2.1336 -2.032,2.1336 -1.143,0 -2.0447,-0.9525 -2.0447,-2.159 0,-1.1557 0.9271,-2.1082 2.032,-2.1082 z"
         style="font-weight:bold;font-size:12.70000172px;line-height:100%;fill:#d8d8d8;fill-opacity:0.94117647;stroke-width:0.26458332px"
         id="path4673" />
      <path
         d="m 30.762891,268.50583 h 1.689101 v -3.31471 c 0,-0.9398 0.0635,-1.3462 0.2794,-1.6891 0.2667,-0.4191 0.7112,-0.6477 1.2446,-0.6477 0.4318,0 0.7874,0.1524 1.016,0.4445 0.2286,0.3048 0.3302,0.8255 0.3302,1.7653 v 3.44171 h 1.6891 v -3.77191 c 0,-1.2573 -0.127,-1.8669 -0.508,-2.413 -0.4572,-0.6604 -1.2192,-1.016 -2.1971,-1.016 -0.8001,0 -1.3589,0.2413 -1.9812,0.8382 v -0.6731 h -1.562101 z"
         style="font-weight:bold;font-size:12.70000172px;line-height:100%;fill:#d8d8d8;fill-opacity:0.94117647;stroke-width:0.26458332px"
         id="path4675" />
      <path
         d="m 43.838932,261.47002 v 0.889 c -0.5207,-0.7112 -1.2827,-1.0541 -2.2987,-1.0541 -1.993901,0 -3.467101,1.5494 -3.467101,3.6322 0,2.1717 1.4478,3.73381 3.454401,3.73381 0.9906,0 1.651,-0.3175 2.3114,-1.09221 -0.0635,1.51131 -0.7112,2.24791 -1.9685,2.24791 -0.7874,0 -1.270001,-0.2032 -1.765301,-0.7493 h -1.9177 c 0.5715,1.4097 1.8923,2.2352 3.619501,2.2352 1.27,0 2.2733,-0.4445 2.9337,-1.2827 0.4953,-0.6477 0.7112,-1.5113 0.7112,-2.85751 v -5.7023 z m -2.1082,1.3843 c 1.2065,0 2.032,0.8763 2.032,2.159 0,1.27 -0.8001,2.1082 -2.0066,2.1082 -1.206501,0 -1.981201,-0.8255 -1.981201,-2.1082 0,-1.2954 0.7747,-2.159 1.955801,-2.159 z"
         style="font-weight:bold;font-size:12.70000172px;line-height:100%;fill:#d8d8d8;fill-opacity:0.94117647;stroke-width:0.26458332px"
         id="path4677" />
      <path
         d="m 53.88662,261.47002 h -1.549401 v 0.9398 c -0.5842,-0.7747 -1.2827,-1.1049 -2.2987,-1.1049 -2.0828,0 -3.5814,1.5621 -3.5814,3.7084 0,2.1209 1.4859,3.65761 3.5433,3.65761 0.9906,0 1.6637,-0.3175 2.3368,-1.07951 v 0.91441 h 1.549401 z m -3.670301,1.3843 c 1.2065,0 2.0701,0.9017 2.0701,2.1844 0,0.508 -0.2032,1.0922 -0.508,1.4478 -0.3429,0.4064 -0.889,0.635 -1.5367,0.635 -1.2319,0 -2.0828,-0.8382 -2.0828,-2.0701 0,-1.2827 0.8509,-2.1971 2.0574,-2.1971 z"
         style="font-weight:bold;font-size:12.70000172px;line-height:100%;fill:#d8d8d8;fill-opacity:0.94117647;stroke-width:0.26458332px"
         id="path4679" />
      <path
         d="m 55.374502,268.50583 h 1.6891 v -1.62561 h -1.6891 z m 0,-4.68631 h 1.6891 v -1.6891 h -1.6891 z"
         style="font-weight:bold;font-size:12.70000172px;line-height:100%;fill:#d8d8d8;fill-opacity:0.94117647;stroke-width:0.26458332px"
         id="path4681" />
      <path
         d="m 62.049545,268.50583 h 6.070601 v -1.58751 h -3.695701 l 1.917701,-1.7399 c 0.6858,-0.6223 0.9779,-0.9398 1.2573,-1.3716 0.3683,-0.5334 0.5588,-1.1684 0.5588,-1.8034 0,-1.7272 -1.3208,-3.048 -3.060701,-3.048 -1.0922,0 -2.0828,0.5207 -2.6162,1.3843 -0.3556,0.5588 -0.4953,1.1176 -0.4953,2.0193 h 1.6637 c 0,-1.1176 0.5842,-1.8542 1.4605,-1.8542 0.774701,0 1.358901,0.635 1.358901,1.4732 0,0.6096 -0.3175,1.1557 -1.0795,1.8796 l -3.340101,3.1623 z"
         style="font-weight:bold;font-size:12.70000172px;line-height:100%;fill:#d8d8d8;fill-opacity:0.94117647;stroke-width:0.26458332px"
         id="path4683" />
      <path
         d="m 75.340688,262.09232 c 0,-1.905 -1.2319,-3.1369 -3.1369,-3.1369 -1.930401,0 -3.149601,1.2446 -3.149601,3.2258 v 3.1877 c 0,0.9017 0.1778,1.5367 0.5969,2.1082 0.5842,0.77471 1.485901,1.19381 2.628901,1.19381 1.0795,0 1.9177,-0.3937 2.4638,-1.15571 0.4191,-0.5842 0.5969,-1.2065 0.5969,-2.1463 z m -4.5974,0.0889 c 0,-1.0414 0.5588,-1.6764 1.4732,-1.6764 0.9144,0 1.4351,0.5969 1.4351,1.6764 v 3.175 c 0,0.5842 -0.0889,0.9525 -0.3048,1.2446 -0.2286,0.3302 -0.6477,0.5207 -1.1176,0.5207 -0.9652,0 -1.4859,-0.635 -1.4859,-1.8034 z"
         style="font-weight:bold;font-size:12.70000172px;line-height:100%;fill:#d8d8d8;fill-opacity:0.94117647;stroke-width:0.26458332px"
         id="path4685" />
      <path
         d="m 76.706537,268.50583 h 1.6891 v -1.62561 h -1.6891 z m 0,-4.68631 h 1.6891 v -1.6891 h -1.6891 z"
         style="font-weight:bold;font-size:12.70000172px;line-height:100%;fill:#d8d8d8;fill-opacity:0.94117647;stroke-width:0.26458332px"
         id="path4687" />
      <path
         d="m 86.006704,262.09232 c 0,-1.905 -1.2319,-3.1369 -3.136901,-3.1369 -1.9304,0 -3.1496,1.2446 -3.1496,3.2258 v 3.1877 c 0,0.9017 0.1778,1.5367 0.5969,2.1082 0.5842,0.77471 1.4859,1.19381 2.6289,1.19381 1.079501,0 1.917701,-0.3937 2.463801,-1.15571 0.4191,-0.5842 0.5969,-1.2065 0.5969,-2.1463 z m -4.597401,0.0889 c 0,-1.0414 0.5588,-1.6764 1.4732,-1.6764 0.9144,0 1.435101,0.5969 1.435101,1.6764 v 3.175 c 0,0.5842 -0.0889,0.9525 -0.3048,1.2446 -0.228601,0.3302 -0.647701,0.5207 -1.117601,0.5207 -0.9652,0 -1.4859,-0.635 -1.4859,-1.8034 z"
         style="font-weight:bold;font-size:12.70000172px;line-height:100%;fill:#d8d8d8;fill-opacity:0.94117647;stroke-width:0.26458332px"
         id="path4689" />
      <path
         d="m 93.125654,262.09232 c 0,-1.905 -1.2319,-3.1369 -3.136901,-3.1369 -1.9304,0 -3.1496,1.2446 -3.1496,3.2258 v 3.1877 c 0,0.9017 0.1778,1.5367 0.5969,2.1082 0.5842,0.77471 1.4859,1.19381 2.6289,1.19381 1.0795,0 1.917701,-0.3937 2.463801,-1.15571 0.4191,-0.5842 0.5969,-1.2065 0.5969,-2.1463 z m -4.597401,0.0889 c 0,-1.0414 0.5588,-1.6764 1.4732,-1.6764 0.9144,0 1.4351,0.5969 1.4351,1.6764 v 3.175 c 0,0.5842 -0.0889,0.9525 -0.3048,1.2446 -0.2286,0.3302 -0.6477,0.5207 -1.1176,0.5207 -0.9652,0 -1.4859,-0.635 -1.4859,-1.8034 z"
         style="font-weight:bold;font-size:12.70000172px;line-height:100%;fill:#d8d8d8;fill-opacity:0.94117647;stroke-width:0.26458332px"
         id="path4691" />
      <path
         d="m 98.063969,265.59752 h 3.517901 v -1.4986 h -3.517901 z"
         style="font-weight:bold;font-size:12.70000172px;line-height:100%;fill:#d8d8d8;fill-opacity:0.94117647;stroke-width:0.26458332px"
         id="path4693" />
      <path
         d="m 106.49955,268.50583 h 6.0706 v -1.58751 h -3.6957 l 1.9177,-1.7399 c 0.6858,-0.6223 0.9779,-0.9398 1.2573,-1.3716 0.3683,-0.5334 0.5588,-1.1684 0.5588,-1.8034 0,-1.7272 -1.3208,-3.048 -3.0607,-3.048 -1.0922,0 -2.0828,0.5207 -2.6162,1.3843 -0.3556,0.5588 -0.4953,1.1176 -0.4953,2.0193 h 1.6637 c 0,-1.1176 0.5842,-1.8542 1.4605,-1.8542 0.7747,0 1.3589,0.635 1.3589,1.4732 0,0.6096 -0.3175,1.1557 -1.0795,1.8796 l -3.3401,3.1623 z"
         style="font-weight:bold;font-size:12.70000172px;line-height:100%;fill:#d8d8d8;fill-opacity:0.94117647;stroke-width:0.26458332px"
         id="path4695" />
      <path
         d="m 114.03759,268.50583 h 1.6891 v -1.62561 h -1.6891 z m 0,-4.68631 h 1.6891 v -1.6891 h -1.6891 z"
         style="font-weight:bold;font-size:12.70000172px;line-height:100%;fill:#d8d8d8;fill-opacity:0.94117647;stroke-width:0.26458332px"
         id="path4697" />
      <path
         d="m 123.33777,262.09232 c 0,-1.905 -1.2319,-3.1369 -3.1369,-3.1369 -1.9304,0 -3.1496,1.2446 -3.1496,3.2258 v 3.1877 c 0,0.9017 0.1778,1.5367 0.5969,2.1082 0.5842,0.77471 1.4859,1.19381 2.6289,1.19381 1.0795,0 1.9177,-0.3937 2.4638,-1.15571 0.4191,-0.5842 0.5969,-1.2065 0.5969,-2.1463 z m -4.5974,0.0889 c 0,-1.0414 0.5588,-1.6764 1.4732,-1.6764 0.9144,0 1.4351,0.5969 1.4351,1.6764 v 3.175 c 0,0.5842 -0.0889,0.9525 -0.3048,1.2446 -0.2286,0.3302 -0.6477,0.5207 -1.1176,0.5207 -0.9652,0 -1.4859,-0.635 -1.4859,-1.8034 z"
         style="font-weight:bold;font-size:12.70000172px;line-height:100%;fill:#d8d8d8;fill-opacity:0.94117647;stroke-width:0.26458332px"
         id="path4699" />
      <path
         d="m 130.45672,262.09232 c 0,-1.905 -1.2319,-3.1369 -3.1369,-3.1369 -1.9304,0 -3.1496,1.2446 -3.1496,3.2258 v 3.1877 c 0,0.9017 0.1778,1.5367 0.5969,2.1082 0.5842,0.77471 1.4859,1.19381 2.6289,1.19381 1.0795,0 1.9177,-0.3937 2.4638,-1.15571 0.4191,-0.5842 0.5969,-1.2065 0.5969,-2.1463 z m -4.5974,0.0889 c 0,-1.0414 0.5588,-1.6764 1.4732,-1.6764 0.9144,0 1.4351,0.5969 1.4351,1.6764 v 3.175 c 0,0.5842 -0.0889,0.9525 -0.3048,1.2446 -0.2286,0.3302 -0.6477,0.5207 -1.1176,0.5207 -0.9652,0 -1.4859,-0.635 -1.4859,-1.8034 z"
         style="font-weight:bold;font-size:12.70000172px;line-height:100%;fill:#d8d8d8;fill-opacity:0.94117647;stroke-width:0.26458332px"
         id="path4701" />
      <path
         d="m 135.39503,265.59752 h 3.5179 v -1.4986 h -3.5179 z"
         style="font-weight:bold;font-size:12.70000172px;line-height:100%;fill:#d8d8d8;fill-opacity:0.94117647;stroke-width:0.26458332px"
         id="path4703" />
      <path
         d="m 142.91621,263.51472 h 1.2065 c -0.0127,0.1397 -0.0127,0.2794 -0.0127,0.3302 v 0.2413 h -0.8763 l -0.3048,1.1176 h 1.2827 c 0.3429,1.5494 0.7874,2.3114 1.6637,2.8575 0.6096,0.36831 1.3716,0.58421 2.0955,0.58421 0.7493,0 1.2827,-0.1143 2.032,-0.4191 v -1.56211 c -0.9271,0.381 -1.397,0.508 -1.8542,0.508 -0.7366,0 -1.4478,-0.3556 -1.8288,-0.9271 -0.2159,-0.3048 -0.3302,-0.5842 -0.4445,-1.0414 h 2.9591 l 0.4318,-1.1176 h -3.4544 v -0.5715 h 3.6703 l 0.4191,-1.1176 h -4.0005 c 0.1905,-0.6858 0.3048,-0.9652 0.5588,-1.2827 0.3302,-0.4318 0.9906,-0.7239 1.6129,-0.7239 0.7366,0 1.4478,0.2159 2.3241,0.7366 l 0.4953,-1.3081 c -1.0541,-0.635 -1.7399,-0.8382 -2.7813,-0.8382 -1.4097,0 -2.4892,0.5334 -3.2004,1.5748 -0.3048,0.4572 -0.4699,0.9144 -0.6858,1.8415 h -1.0033 z"
         style="font-weight:bold;font-size:12.70000172px;line-height:100%;fill:#d8d8d8;fill-opacity:0.94117647;stroke-width:0.26458332px"
         id="path4705" />
      <path
         d="m 155.74123,263.28612 c -0.4318,0.2413 -0.6223,0.3937 -0.8128,0.6477 -0.3429,0.4191 -0.5334,1.0287 -0.5334,1.6383 0,1.7526 1.3716,3.09881 3.1369,3.09881 1.778,0 3.1115,-1.33351 3.1115,-3.11151 0,-0.6604 -0.2159,-1.2827 -0.5715,-1.7018 -0.1905,-0.2159 -0.3683,-0.3429 -0.7493,-0.5715 0.5334,-0.4318 0.7874,-0.9906 0.7874,-1.778 0,-1.4605 -1.0922,-2.5527 -2.5654,-2.5527 -1.4351,0 -2.5781,1.143 -2.5781,2.5781 0,0.6858 0.1905,1.1303 0.7747,1.7526 z m 1.8161,-2.7813 c 0.5207,0 0.9398,0.4445 0.9398,1.016 0,0.5715 -0.4318,1.0287 -0.9525,1.0287 -0.5334,0 -0.9652,-0.4572 -0.9652,-1.016 0,-0.5842 0.4191,-1.0287 0.9779,-1.0287 z m -0.0127,3.6703 c 0.7747,0 1.4097,0.6604 1.4097,1.4732 0,0.8382 -0.6096,1.4732 -1.4097,1.4732 -0.8255,0 -1.4605,-0.6477 -1.4605,-1.4859 0,-0.8255 0.6477,-1.4605 1.4605,-1.4605 z"
         style="font-weight:bold;font-size:12.70000172px;line-height:100%;fill:#d8d8d8;fill-opacity:0.94117647;stroke-width:0.26458332px"
         id="path4707" />
      <path
         d="m 7.9221363,281.6983 v 6.6421 c 0,0.8255 -0.2794,1.2319 -0.8382001,1.2319 -0.4318001,0 -0.7112001,-0.2413 -0.8255001,-0.7112 H 4.5185359 c 0.0762,0.7366 0.2159,1.1176 0.5969,1.5367 0.4826001,0.5334 1.2192002,0.8509 2.0066003,0.8509 1.5748002,0 2.5400004,-1.0922 2.5400004,-2.8575 v -6.6929 z"
         style="font-weight:bold;font-size:12.70000172px;line-height:100%;fill:#d8d8d8;fill-opacity:0.94117647;stroke-width:0.26458332px"
         id="path4709" />
      <path
         d="m 18.316691,284.0478 h -1.5494 v 0.9398 c -0.5842,-0.7747 -1.282701,-1.1049 -2.298701,-1.1049 -2.0828,0 -3.5814,1.5621 -3.5814,3.7084 0,2.1209 1.4859,3.6576 3.5433,3.6576 0.9906,0 1.663701,-0.3175 2.336801,-1.0795 v 0.9144 h 1.5494 z m -3.670301,1.3843 c 1.206501,0 2.070101,0.9017 2.070101,2.1844 0,0.508 -0.2032,1.0922 -0.508,1.4478 -0.3429,0.4064 -0.889001,0.635 -1.536701,0.635 -1.2319,0 -2.0828,-0.8382 -2.0828,-2.0701 0,-1.2827 0.8509,-2.1971 2.0574,-2.1971 z"
         style="font-weight:bold;font-size:12.70000172px;line-height:100%;fill:#d8d8d8;fill-opacity:0.94117647;stroke-width:0.26458332px"
         id="path4711" />
      <path
         d="m 24.617876,288.7722 c -0.4191,0.6477 -0.9017,0.9271 -1.600201,0.9271 -1.1684,0 -2.0447,-0.9144 -2.0447,-2.1463 0,-1.2319 0.8382,-2.1209 2.0066,-2.1209 0.762001,0 1.295401,0.3175 1.638301,0.9652 h 1.905 c -0.2413,-0.7112 -0.4699,-1.0795 -0.9525,-1.524 -0.6858,-0.635 -1.6129,-0.9906 -2.590801,-0.9906 -2.0828,0 -3.7084,1.6129 -3.7084,3.683 0,2.0447 1.6764,3.683 3.7592,3.683 1.638301,0 2.908301,-0.9017 3.492501,-2.4765 z"
         style="font-weight:bold;font-size:12.70000172px;line-height:100%;fill:#d8d8d8;fill-opacity:0.94117647;stroke-width:0.26458332px"
         id="path4713" />
      <path
         d="m 33.236414,284.0478 v 0.9017 c -0.5461,-0.7366 -1.2573,-1.0668 -2.286,-1.0668 -1.9685,0 -3.5433,1.6256 -3.5433,3.6576 0,2.0955 1.5494,3.7084 3.5687,3.7084 0.8636,0 1.5621,-0.2794 2.1209,-0.8382 v 3.0226 h 1.689101 v -9.3853 z m -2.0447,1.3843 c 1.143,0 2.0066,0.9271 2.0066,2.159 0,1.2065 -0.8636,2.1082 -2.0193,2.1082 -1.1938,0 -2.0701,-0.9017 -2.0701,-2.1209 0,-1.2319 0.889,-2.1463 2.0828,-2.1463 z"
         style="font-weight:bold;font-size:12.70000172px;line-height:100%;fill:#d8d8d8;fill-opacity:0.94117647;stroke-width:0.26458332px"
         id="path4715" />
      <path
         d="m 42.357,284.0478 h -1.6891 v 3.3147 c 0,0.9271 -0.0635,1.3843 -0.2667,1.6891 -0.2413,0.4064 -0.7112,0.6477 -1.2827,0.6477 -0.431801,0 -0.762001,-0.1397 -0.990601,-0.4445 -0.2413,-0.3048 -0.3429,-0.8255 -0.3429,-1.7653 v -3.4417 h -1.6891 v 3.7719 c 0,1.1938 0.1397,1.8034 0.5334,2.3876 0.4699,0.6731 1.2319,1.0414 2.1463,1.0414 0.850901,0 1.384301,-0.2159 2.019301,-0.8382 v 0.6731 h 1.5621 z"
         style="font-weight:bold;font-size:12.70000172px;line-height:100%;fill:#d8d8d8;fill-opacity:0.94117647;stroke-width:0.26458332px"
         id="path4717" />
      <path
         d="m 50.68324,288.315 c 0.0508,-0.2413 0.0635,-0.3937 0.0635,-0.6477 0,-2.1844 -1.5367,-3.7846 -3.632201,-3.7846 -2.0701,0 -3.7084,1.6383 -3.7084,3.7084 0,2.0574 1.6637,3.6576 3.81,3.6576 1.155701,0 2.057401,-0.4191 2.794001,-1.27 0.2667,-0.3302 0.4445,-0.6223 0.5588,-0.9779 h -1.8415 c -0.4318,0.508 -0.8509,0.6985 -1.549401,0.6985 -1.0033,0 -1.7399,-0.5334 -1.9431,-1.3843 z m -5.499101,-1.4859 c 0.2667,-0.9017 0.9525,-1.397 1.9558,-1.397 1.041401,0 1.727201,0.4953 1.943101,1.397 z"
         style="font-weight:bold;font-size:12.70000172px;line-height:100%;fill:#d8d8d8;fill-opacity:0.94117647;stroke-width:0.26458332px"
         id="path4719" />
      <path
         d="m 51.402379,288.8484 c 0.0762,0.6858 0.1905,1.0414 0.469901,1.4224 0.4572,0.6096 1.2573,0.9779 2.1082,0.9779 1.4097,0 2.5146,-1.0541 2.5146,-2.4003 0,-0.6096 -0.2286,-1.1176 -0.6604,-1.4605 -0.2667,-0.2286 -0.6858,-0.4064 -1.2954,-0.5969 -0.6858,-0.2159 -0.6858,-0.2159 -0.8509,-0.2921 -0.2286,-0.1016 -0.3429,-0.2667 -0.3429,-0.4699 0,-0.3429 0.2794,-0.5969 0.6477,-0.5969 0.3556,0 0.5842,0.1905 0.6604,0.5588 h 1.651 c -0.0254,-0.5969 -0.1651,-0.9525 -0.508,-1.3335 -0.4445,-0.4953 -1.1049,-0.7747 -1.8034,-0.7747 -1.3081,0 -2.336801,0.9398 -2.336801,2.1463 0,1.0287 0.558801,1.6129 1.955801,2.0828 0.6477,0.2159 0.6985,0.2413 0.8763,0.3556 0.2032,0.127 0.3175,0.3175 0.3175,0.5461 0,0.3937 -0.3302,0.6858 -0.762,0.6858 -0.4953,0 -0.7747,-0.254 -0.9398,-0.8509 z"
         style="font-weight:bold;font-size:12.70000172px;line-height:100%;fill:#d8d8d8;fill-opacity:0.94117647;stroke-width:0.26458332px"
         id="path4721" />
      <path
         d="m 61.152804,291.0836 h 1.7399 v -3.5941 l 2.4638,3.5941 h 2.146301 l -2.540001,-3.4671 c 0.7239,-0.1778 1.0795,-0.3429 1.4859,-0.6858 0.635001,-0.5461 0.965201,-1.2954 0.965201,-2.2225 0,-0.9525 -0.3429,-1.7653 -0.990601,-2.3114 -0.6096,-0.5207 -1.2827,-0.6985 -2.5654,-0.6985 h -2.7051 z m 1.7399,-4.9022 v -2.8194 h 0.7747 c 0.8128,0 1.2573,0.0889 1.5367,0.3302 0.3048,0.2413 0.4572,0.6096 0.4572,1.0668 0,0.9906 -0.5715,1.4224 -1.9177,1.4224 z"
         style="font-weight:bold;font-size:12.70000172px;line-height:100%;fill:#d8d8d8;fill-opacity:0.94117647;stroke-width:0.26458332px"
         id="path4723" />
      <path
         d="m 71.758297,283.8827 c -2.0447,0 -3.7211,1.6637 -3.7211,3.683 0,2.032 1.6764,3.683 3.7338,3.683 2.0447,0 3.746501,-1.651 3.746501,-3.6322 0,-2.0955 -1.638301,-3.7338 -3.759201,-3.7338 z m 0.0127,1.5494 c 1.1303,0 2.0447,0.9652 2.0447,2.1336 0,1.1811 -0.9144,2.1336 -2.032,2.1336 -1.143,0 -2.0447,-0.9525 -2.0447,-2.159 0,-1.1557 0.9271,-2.1082 2.032,-2.1082 z"
         style="font-weight:bold;font-size:12.70000172px;line-height:100%;fill:#d8d8d8;fill-opacity:0.94117647;stroke-width:0.26458332px"
         id="path4725" />
      <path
         d="m 76.477937,291.0836 h 1.6891 v -3.4671 c 0,-0.6985 0.0635,-1.1684 0.1778,-1.4605 0.203201,-0.4572 0.635001,-0.7239 1.193801,-0.7239 0.4572,0 0.8509,0.1651 1.0795,0.4445 0.2032,0.2667 0.2921,0.6858 0.2921,1.3462 v 3.8608 h 1.6891 v -3.4671 c 0,-0.7874 0.0635,-1.1811 0.2413,-1.5113 0.2159,-0.4318 0.6477,-0.6731 1.1811,-0.6731 0.4191,0 0.7747,0.1524 1.0033,0.4318 0.2286,0.2667 0.3175,0.6604 0.3175,1.3589 v 3.8608 h 1.689101 v -4.064 c 0,-0.8509 -0.1524,-1.5367 -0.4572,-2.0193 -0.4445,-0.7112 -1.333501,-1.1176 -2.387601,-1.1176 -0.9906,0 -1.6891,0.3302 -2.2606,1.0922 -0.4826,-0.762 -1.1049,-1.0922 -2.0701,-1.0922 -0.8255,0 -1.3335,0.2286 -1.828801,0.8255 v -0.6604 h -1.5494 z"
         style="font-weight:bold;font-size:12.70000172px;line-height:100%;fill:#d8d8d8;fill-opacity:0.94117647;stroke-width:0.26458332px"
         id="path4727" />
      <path
         d="m 88.40899,291.0836 h 1.549401 v -0.9017 c 0.7239,0.7747 1.397,1.0668 2.4384,1.0668 1.0922,0 1.9558,-0.4064 2.6035,-1.2319 0.5334,-0.6858 0.8255,-1.5621 0.8255,-2.5019 0,-2.1209 -1.524,-3.7211 -3.5433,-3.7211 -0.9144,0 -1.5367,0.254 -2.1844,0.9017 v -2.9972 H 88.40899 Z m 3.632201,-5.7404 c 1.2065,0 2.0828,0.9271 2.0828,2.1844 0,1.2827 -0.8382,2.1717 -2.0447,2.1717 -1.2192,0 -2.0828,-0.9017 -2.0828,-2.1844 0,-1.27 0.8636,-2.1717 2.0447,-2.1717 z"
         style="font-weight:bold;font-size:12.70000172px;line-height:100%;fill:#d8d8d8;fill-opacity:0.94117647;stroke-width:0.26458332px"
         id="path4729" />
      <path
         d="m 103.91768,284.0478 h -1.5494 v 0.9398 c -0.5842,-0.7747 -1.2827,-1.1049 -2.2987,-1.1049 -2.082802,0 -3.581402,1.5621 -3.581402,3.7084 0,2.1209 1.4859,3.6576 3.543302,3.6576 0.9906,0 1.6637,-0.3175 2.3368,-1.0795 v 0.9144 h 1.5494 z m -3.6703,1.3843 c 1.2065,0 2.0701,0.9017 2.0701,2.1844 0,0.508 -0.2032,1.0922 -0.508,1.4478 -0.3429,0.4064 -0.889,0.635 -1.5367,0.635 -1.231902,0 -2.082802,-0.8382 -2.082802,-2.0701 0,-1.2827 0.8509,-2.1971 2.057402,-2.1971 z"
         style="font-weight:bold;font-size:12.70000172px;line-height:100%;fill:#d8d8d8;fill-opacity:0.94117647;stroke-width:0.26458332px"
         id="path4731" />
      <path
         d="m 111.43807,284.0478 h -1.6891 v 3.3147 c 0,0.9271 -0.0635,1.3843 -0.2667,1.6891 -0.2413,0.4064 -0.7112,0.6477 -1.2827,0.6477 -0.4318,0 -0.762,-0.1397 -0.9906,-0.4445 -0.2413,-0.3048 -0.3429,-0.8255 -0.3429,-1.7653 v -3.4417 h -1.6891 v 3.7719 c 0,1.1938 0.1397,1.8034 0.5334,2.3876 0.4699,0.6731 1.2319,1.0414 2.1463,1.0414 0.8509,0 1.3843,-0.2159 2.0193,-0.8382 v 0.6731 h 1.5621 z"
         style="font-weight:bold;font-size:12.70000172px;line-height:100%;fill:#d8d8d8;fill-opacity:0.94117647;stroke-width:0.26458332px"
         id="path4733" />
      <path
         d="m 113.046,291.0836 h 1.6891 v -5.4991 h 1.016 v -1.5367 h -1.016 v -2.3495 h -1.6891 v 2.3495 h -0.8255 v 1.5367 h 0.8255 z"
         style="font-weight:bold;font-size:12.70000172px;line-height:100%;fill:#d8d8d8;fill-opacity:0.94117647;stroke-width:0.26458332px"
         id="path4735" />
      <path
         d="m 116.16742,288.8484 c 0.0762,0.6858 0.1905,1.0414 0.4699,1.4224 0.4572,0.6096 1.2573,0.9779 2.1082,0.9779 1.40971,0 2.51461,-1.0541 2.51461,-2.4003 0,-0.6096 -0.2286,-1.1176 -0.6604,-1.4605 -0.2667,-0.2286 -0.6858,-0.4064 -1.2954,-0.5969 -0.68581,-0.2159 -0.68581,-0.2159 -0.85091,-0.2921 -0.2286,-0.1016 -0.3429,-0.2667 -0.3429,-0.4699 0,-0.3429 0.2794,-0.5969 0.6477,-0.5969 0.35561,0 0.58421,0.1905 0.66041,0.5588 h 1.651 c -0.0254,-0.5969 -0.1651,-0.9525 -0.508,-1.3335 -0.4445,-0.4953 -1.1049,-0.7747 -1.80341,-0.7747 -1.3081,0 -2.3368,0.9398 -2.3368,2.1463 0,1.0287 0.5588,1.6129 1.9558,2.0828 0.6477,0.2159 0.6985,0.2413 0.87631,0.3556 0.2032,0.127 0.3175,0.3175 0.3175,0.5461 0,0.3937 -0.3302,0.6858 -0.76201,0.6858 -0.4953,0 -0.7747,-0.254 -0.9398,-0.8509 z"
         style="font-weight:bold;font-size:12.70000172px;line-height:100%;fill:#d8d8d8;fill-opacity:0.94117647;stroke-width:0.26458332px"
         id="path4737" />
    </g>
    <path
       inkscape:connector-curvature="0"
       d="m 10.868536,167.28466 1.12182,1.12184 -4.4344201,4.4344 h 9.6626001 v 1.5875 H 7.5559359 l 4.4344201,4.43442 -1.12182,1.12184 -6.3500001,-6.35 z"
       id="path4"
       style="fill:#d8d8d8;fill-opacity:0.94117647;stroke-width:0.52916664" />
  </g>
</svg>
