<?xml version="1.0" encoding="UTF-8" standalone="no"?>
<!-- Created with Inkscape (http://www.inkscape.org/) -->

<svg
   xmlns:dc="http://purl.org/dc/elements/1.1/"
   xmlns:cc="http://creativecommons.org/ns#"
   xmlns:rdf="http://www.w3.org/1999/02/22-rdf-syntax-ns#"
   xmlns:svg="http://www.w3.org/2000/svg"
   xmlns="http://www.w3.org/2000/svg"
   xmlns:sodipodi="http://sodipodi.sourceforge.net/DTD/sodipodi-0.dtd"
   xmlns:inkscape="http://www.inkscape.org/namespaces/inkscape"
   width="1024"
   height="512"
   viewBox="0 0 270.93333 135.46666"
   version="1.1"
   id="svg4604"
   inkscape:version="0.92.1 r15371"
   sodipodi:docname="jan2018-back-hover.svg">
  <defs
     id="defs4598" />
  <sodipodi:namedview
     id="base"
     pagecolor="#ffffff"
     bordercolor="#666666"
     borderopacity="1.0"
     inkscape:pageopacity="0.0"
     inkscape:pageshadow="2"
     inkscape:zoom="0.5"
     inkscape:cx="-211.1667"
     inkscape:cy="233.14286"
     inkscape:document-units="mm"
     inkscape:current-layer="layer1"
     showgrid="false"
     inkscape:window-width="1920"
     inkscape:window-height="1016"
     inkscape:window-x="0"
     inkscape:window-y="27"
     inkscape:window-maximized="1"
     showguides="true"
     units="px" />
  <metadata
     id="metadata4601">
    <rdf:RDF>
      <cc:Work
         rdf:about="">
        <dc:format>image/svg+xml</dc:format>
        <dc:type
           rdf:resource="http://purl.org/dc/dcmitype/StillImage" />
        <dc:title></dc:title>
      </cc:Work>
    </rdf:RDF>
  </metadata>
  <g
     inkscape:label="Layer 1"
     inkscape:groupmode="layer"
     id="layer1"
     transform="translate(0,-161.53335)">
    <flowRoot
       xml:space="preserve"
       id="flowRoot5168"
       style="font-style:normal;font-variant:normal;font-weight:normal;font-stretch:normal;font-size:18px;line-height:125%;font-family:'URW Gothic L';-inkscape-font-specification:'URW Gothic L';letter-spacing:0px;word-spacing:0px;fill:#000000;fill-opacity:1;stroke:none;stroke-width:1px;stroke-linecap:butt;stroke-linejoin:miter;stroke-opacity:1"
       transform="matrix(0.26458333,0,0,0.26458333,0,-215)"><flowRegion
         id="flowRegion5170"><rect
           id="rect5172"
           width="865"
           height="205"
           x="350"
           y="-24.881836" /></flowRegion><flowPara
         id="flowPara5174" /></flowRoot>    <text
       xml:space="preserve"
       style="font-style:normal;font-variant:normal;font-weight:normal;font-stretch:normal;font-size:22.57777786px;line-height:125%;font-family:'URW Gothic L';-inkscape-font-specification:'URW Gothic L';letter-spacing:0px;word-spacing:0px;fill:#000000;fill-opacity:1;stroke:none;stroke-width:0.26458332px;stroke-linecap:butt;stroke-linejoin:miter;stroke-opacity:1"
       x="182.5625"
       y="-159.40623"
       id="text5178"><tspan
         sodipodi:role="line"
         id="tspan5176"
         x="182.5625"
         y="-138.43324"
         style="stroke-width:0.26458332px" /></text>
    <g
       aria-label="14 January 2018
Wiedauwkaai 25, 9000 Ghent
Practica: 14:00 - 16:00 - € 0
Milonga: 16:00 - 22:00 - € 7
Marie Jeanne"
       style="font-style:normal;font-variant:normal;font-weight:normal;font-stretch:normal;font-size:22.57777786px;line-height:100%;font-family:'URW Gothic L';-inkscape-font-specification:'URW Gothic L';letter-spacing:0px;word-spacing:0px;fill:#000000;fill-opacity:1;stroke:none;stroke-width:0.26458332px;stroke-linecap:butt;stroke-linejoin:miter;stroke-opacity:1"
       id="text5841">
      <path
         d="m 46.155595,200.77249 h 1.689101 v -9.3853 h -2.870201 v 1.5875 h 1.1811 z"
         style="font-weight:bold;font-size:12.70000172px;line-height:100%;fill:#d8d8d8;fill-opacity:0.94117647;stroke-width:0.26458332px"
         id="path4533" />
      <path
         d="m 50.150341,197.99119 v 1.3716 h 4.051301 v 1.4097 h 1.6891 v -1.4097 h 0.9906 v -1.5113 h -0.9906 v -6.4643 h -1.4224 z m 4.051301,-0.1397 h -2.336801 l 2.336801,-3.6195 z"
         style="font-weight:bold;font-size:12.70000172px;line-height:100%;fill:#d8d8d8;fill-opacity:0.94117647;stroke-width:0.26458332px"
         id="path4535" />
      <path
         d="m 64.334259,191.38719 v 6.6421 c 0,0.8255 -0.2794,1.2319 -0.8382,1.2319 -0.4318,0 -0.7112,-0.2413 -0.8255,-0.7112 h -1.7399 c 0.0762,0.7366 0.2159,1.1176 0.5969,1.5367 0.4826,0.5334 1.2192,0.8509 2.0066,0.8509 1.5748,0 2.54,-1.0922 2.54,-2.8575 v -6.6929 z"
         style="font-weight:bold;font-size:12.70000172px;line-height:100%;fill:#d8d8d8;fill-opacity:0.94117647;stroke-width:0.26458332px"
         id="path4537" />
      <path
         d="m 74.728813,193.73669 h -1.5494 v 0.9398 c -0.5842,-0.7747 -1.2827,-1.1049 -2.2987,-1.1049 -2.082801,0 -3.581401,1.5621 -3.581401,3.7084 0,2.1209 1.4859,3.6576 3.543301,3.6576 0.9906,0 1.6637,-0.3175 2.3368,-1.0795 v 0.9144 h 1.5494 z m -3.6703,1.3843 c 1.2065,0 2.0701,0.9017 2.0701,2.1844 0,0.508 -0.2032,1.0922 -0.508,1.4478 -0.3429,0.4064 -0.889,0.635 -1.5367,0.635 -1.231901,0 -2.082801,-0.8382 -2.082801,-2.0701 0,-1.2827 0.8509,-2.1971 2.057401,-2.1971 z"
         style="font-weight:bold;font-size:12.70000172px;line-height:100%;fill:#d8d8d8;fill-opacity:0.94117647;stroke-width:0.26458332px"
         id="path4539" />
      <path
         d="m 75.988096,200.77249 h 1.6891 v -3.3147 c 0,-0.9398 0.0635,-1.3462 0.2794,-1.6891 0.2667,-0.4191 0.7112,-0.6477 1.2446,-0.6477 0.4318,0 0.7874,0.1524 1.016,0.4445 0.2286,0.3048 0.3302,0.8255 0.3302,1.7653 v 3.4417 h 1.689101 v -3.7719 c 0,-1.2573 -0.127,-1.8669 -0.508,-2.413 -0.457201,-0.6604 -1.219201,-1.016 -2.197101,-1.016 -0.8001,0 -1.3589,0.2413 -1.9812,0.8382 v -0.6731 h -1.5621 z"
         style="font-weight:bold;font-size:12.70000172px;line-height:100%;fill:#d8d8d8;fill-opacity:0.94117647;stroke-width:0.26458332px"
         id="path4541" />
      <path
         d="m 89.86424,193.73669 h -1.6891 v 3.3147 c 0,0.9271 -0.0635,1.3843 -0.2667,1.6891 -0.2413,0.4064 -0.7112,0.6477 -1.2827,0.6477 -0.4318,0 -0.762,-0.1397 -0.9906,-0.4445 -0.2413,-0.3048 -0.3429,-0.8255 -0.3429,-1.7653 v -3.4417 h -1.689101 v 3.7719 c 0,1.1938 0.1397,1.8034 0.5334,2.3876 0.469901,0.6731 1.231901,1.0414 2.146301,1.0414 0.8509,0 1.3843,-0.2159 2.0193,-0.8382 v 0.6731 h 1.5621 z"
         style="font-weight:bold;font-size:12.70000172px;line-height:100%;fill:#d8d8d8;fill-opacity:0.94117647;stroke-width:0.26458332px"
         id="path4543" />
      <path
         d="m 98.34288,193.73669 h -1.5494 v 0.9398 c -0.5842,-0.7747 -1.2827,-1.1049 -2.2987,-1.1049 -2.082801,0 -3.581401,1.5621 -3.581401,3.7084 0,2.1209 1.4859,3.6576 3.543301,3.6576 0.9906,0 1.6637,-0.3175 2.3368,-1.0795 v 0.9144 h 1.5494 z m -3.6703,1.3843 c 1.2065,0 2.0701,0.9017 2.0701,2.1844 0,0.508 -0.2032,1.0922 -0.508,1.4478 -0.3429,0.4064 -0.889,0.635 -1.5367,0.635 -1.2319,0 -2.082801,-0.8382 -2.082801,-2.0701 0,-1.2827 0.850901,-2.1971 2.057401,-2.1971 z"
         style="font-weight:bold;font-size:12.70000172px;line-height:100%;fill:#d8d8d8;fill-opacity:0.94117647;stroke-width:0.26458332px"
         id="path4545" />
      <path
         d="m 99.602163,200.77249 h 1.689097 v -3.9116 c 0,-1.0922 0.4953,-1.6383 1.5113,-1.6637 v -1.6256 h -0.127 c -0.7239,0 -1.0795,0.2032 -1.524,0.8509 v -0.6858 h -1.549397 z"
         style="font-weight:bold;font-size:12.70000172px;line-height:100%;fill:#d8d8d8;fill-opacity:0.94117647;stroke-width:0.26458332px"
         id="path4547" />
      <path
         d="m 104.31783,203.12199 h 1.8161 l 4.064,-9.3853 h -1.9431 l -1.7018,4.5593 -1.5621,-4.5593 h -1.9304 l 2.5781,6.3754 z"
         style="font-weight:bold;font-size:12.70000172px;line-height:100%;fill:#d8d8d8;fill-opacity:0.94117647;stroke-width:0.26458332px"
         id="path4549" />
      <path
         d="m 114.3937,200.77249 h 6.0706 v -1.5875 h -3.6957 l 1.9177,-1.7399 c 0.6858,-0.6223 0.9779,-0.9398 1.2573,-1.3716 0.3683,-0.5334 0.5588,-1.1684 0.5588,-1.8034 0,-1.7272 -1.3208,-3.048 -3.0607,-3.048 -1.0922,0 -2.0828,0.5207 -2.6162,1.3843 -0.3556,0.5588 -0.4953,1.1176 -0.4953,2.0193 h 1.6637 c 0,-1.1176 0.5842,-1.8542 1.4605,-1.8542 0.7747,0 1.3589,0.635 1.3589,1.4732 0,0.6096 -0.3175,1.1557 -1.0795,1.8796 l -3.3401,3.1623 z"
         style="font-weight:bold;font-size:12.70000172px;line-height:100%;fill:#d8d8d8;fill-opacity:0.94117647;stroke-width:0.26458332px"
         id="path4551" />
      <path
         d="m 127.68484,194.35899 c 0,-1.905 -1.2319,-3.1369 -3.1369,-3.1369 -1.9304,0 -3.1496,1.2446 -3.1496,3.2258 v 3.1877 c 0,0.9017 0.1778,1.5367 0.5969,2.1082 0.5842,0.7747 1.4859,1.1938 2.6289,1.1938 1.0795,0 1.9177,-0.3937 2.4638,-1.1557 0.4191,-0.5842 0.5969,-1.2065 0.5969,-2.1463 z m -4.5974,0.0889 c 0,-1.0414 0.5588,-1.6764 1.4732,-1.6764 0.9144,0 1.4351,0.5969 1.4351,1.6764 v 3.175 c 0,0.5842 -0.0889,0.9525 -0.3048,1.2446 -0.2286,0.3302 -0.6477,0.5207 -1.1176,0.5207 -0.9652,0 -1.4859,-0.635 -1.4859,-1.8034 z"
         style="font-weight:bold;font-size:12.70000172px;line-height:100%;fill:#d8d8d8;fill-opacity:0.94117647;stroke-width:0.26458332px"
         id="path4553" />
      <path
         d="m 131.26049,200.77249 h 1.6891 v -9.3853 h -2.8702 v 1.5875 h 1.1811 z"
         style="font-weight:bold;font-size:12.70000172px;line-height:100%;fill:#d8d8d8;fill-opacity:0.94117647;stroke-width:0.26458332px"
         id="path4555" />
      <path
         d="m 136.99513,195.55279 c -0.4318,0.2413 -0.6223,0.3937 -0.8128,0.6477 -0.3429,0.4191 -0.5334,1.0287 -0.5334,1.6383 0,1.7526 1.3716,3.0988 3.1369,3.0988 1.778,0 3.1115,-1.3335 3.1115,-3.1115 0,-0.6604 -0.2159,-1.2827 -0.5715,-1.7018 -0.1905,-0.2159 -0.3683,-0.3429 -0.7493,-0.5715 0.5334,-0.4318 0.7874,-0.9906 0.7874,-1.778 0,-1.4605 -1.0922,-2.5527 -2.5654,-2.5527 -1.4351,0 -2.5781,1.143 -2.5781,2.5781 0,0.6858 0.1905,1.1303 0.7747,1.7526 z m 1.8161,-2.7813 c 0.5207,0 0.9398,0.4445 0.9398,1.016 0,0.5715 -0.4318,1.0287 -0.9525,1.0287 -0.5334,0 -0.9652,-0.4572 -0.9652,-1.016 0,-0.5842 0.4191,-1.0287 0.9779,-1.0287 z m -0.0127,3.6703 c 0.7747,0 1.4097,0.6604 1.4097,1.4732 0,0.8382 -0.6096,1.4732 -1.4097,1.4732 -0.8255,0 -1.4605,-0.6477 -1.4605,-1.4859 0,-0.8255 0.6477,-1.4605 1.4605,-1.4605 z"
         style="font-weight:bold;font-size:12.70000172px;line-height:100%;fill:#d8d8d8;fill-opacity:0.94117647;stroke-width:0.26458332px"
         id="path4557" />
      <path
         d="m 45.876195,223.35027 h 1.371601 l 1.5494,-6.2103 1.5113,6.2103 h 1.3843 l 2.743201,-9.3853 h -1.778001 l -1.6637,6.5532 -1.5748,-6.5532 h -1.27 l -1.600201,6.5532 -1.651,-6.5532 h -1.778 z"
         style="font-weight:bold;font-size:12.70000172px;line-height:100%;fill:#d8d8d8;fill-opacity:0.94117647;stroke-width:0.26458332px"
         id="path4559" />
      <path
         d="m 55.152157,223.35027 h 1.689101 v -7.0358 h -1.689101 z m 0,-7.7978 h 1.689101 v -1.5875 h -1.689101 z"
         style="font-weight:bold;font-size:12.70000172px;line-height:100%;fill:#d8d8d8;fill-opacity:0.94117647;stroke-width:0.26458332px"
         id="path4561" />
      <path
         d="m 65.175435,220.58167 c 0.0508,-0.2413 0.0635,-0.3937 0.0635,-0.6477 0,-2.1844 -1.5367,-3.7846 -3.6322,-3.7846 -2.070101,0 -3.708401,1.6383 -3.708401,3.7084 0,2.0574 1.6637,3.6576 3.810001,3.6576 1.1557,0 2.0574,-0.4191 2.794,-1.27 0.2667,-0.3302 0.4445,-0.6223 0.5588,-0.9779 h -1.8415 c -0.4318,0.508 -0.8509,0.6985 -1.5494,0.6985 -1.003301,0 -1.739901,-0.5334 -1.943101,-1.3843 z m -5.499101,-1.4859 c 0.2667,-0.9017 0.9525,-1.397 1.955801,-1.397 1.0414,0 1.7272,0.4953 1.9431,1.397 z"
         style="font-weight:bold;font-size:12.70000172px;line-height:100%;fill:#d8d8d8;fill-opacity:0.94117647;stroke-width:0.26458332px"
         id="path4563" />
      <path
         d="m 73.438374,213.96497 h -1.689101 v 2.9718 c -0.4953,-0.5461 -1.3081,-0.8763 -2.1971,-0.8763 -1.9685,0 -3.5179,1.651 -3.5179,3.7592 0,2.0828 1.5367,3.6957 3.5306,3.6957 0.9525,0 1.651,-0.3175 2.3241,-1.0795 v 0.9144 h 1.549401 z m -3.644901,3.6449 c 1.1811,0 2.0828,0.9525 2.0828,2.1844 0,1.2192 -0.9017,2.1717 -2.0447,2.1717 -1.1811,0 -2.0955,-0.9779 -2.0955,-2.2225 0,-1.1938 0.9017,-2.1336 2.0574,-2.1336 z"
         style="font-weight:bold;font-size:12.70000172px;line-height:100%;fill:#d8d8d8;fill-opacity:0.94117647;stroke-width:0.26458332px"
         id="path4565" />
      <path
         d="m 81.847759,216.31447 h -1.5494 v 0.9398 c -0.5842,-0.7747 -1.2827,-1.1049 -2.2987,-1.1049 -2.082801,0 -3.581401,1.5621 -3.581401,3.7084 0,2.1209 1.4859,3.6576 3.543301,3.6576 0.9906,0 1.6637,-0.3175 2.3368,-1.0795 v 0.9144 h 1.5494 z m -3.6703,1.3843 c 1.2065,0 2.0701,0.9017 2.0701,2.1844 0,0.508 -0.2032,1.0922 -0.508,1.4478 -0.3429,0.4064 -0.889,0.635 -1.5367,0.635 -1.2319,0 -2.082801,-0.8382 -2.082801,-2.0701 0,-1.2827 0.850901,-2.1971 2.057401,-2.1971 z"
         style="font-weight:bold;font-size:12.70000172px;line-height:100%;fill:#d8d8d8;fill-opacity:0.94117647;stroke-width:0.26458332px"
         id="path4567" />
      <path
         d="m 89.368147,216.31447 h -1.689101 v 3.3147 c 0,0.9271 -0.0635,1.3843 -0.2667,1.6891 -0.2413,0.4064 -0.7112,0.6477 -1.2827,0.6477 -0.4318,0 -0.762,-0.1397 -0.9906,-0.4445 -0.2413,-0.3048 -0.3429,-0.8255 -0.3429,-1.7653 v -3.4417 h -1.6891 v 3.7719 c 0,1.1938 0.1397,1.8034 0.5334,2.3876 0.4699,0.6731 1.2319,1.0414 2.1463,1.0414 0.8509,0 1.3843,-0.2159 2.0193,-0.8382 v 0.6731 h 1.562101 z"
         style="font-weight:bold;font-size:12.70000172px;line-height:100%;fill:#d8d8d8;fill-opacity:0.94117647;stroke-width:0.26458332px"
         id="path4569" />
      <path
         d="m 92.677886,223.35027 h 1.0414 l 1.3589,-4.5593 1.3335,4.5593 h 1.0541 l 2.540004,-7.0358 h -1.803403 l -1.282701,4.2926 -1.1557,-4.2926 h -1.3462 l -1.1811,4.2926 -1.2573,-4.2926 h -1.816101 z"
         style="font-weight:bold;font-size:12.70000172px;line-height:100%;fill:#d8d8d8;fill-opacity:0.94117647;stroke-width:0.26458332px"
         id="path4571" />
      <path
         d="m 100.89201,223.35027 h 1.6891 v -3.2893 l 2.4003,3.2893 h 2.2733 l -2.921,-3.5941 2.5146,-3.4417 h -2.0193 l -2.2479,3.3147 v -5.6642 h -1.6891 z"
         style="font-weight:bold;font-size:12.70000172px;line-height:100%;fill:#d8d8d8;fill-opacity:0.94117647;stroke-width:0.26458332px"
         id="path4573" />
      <path
         d="m 115.3837,216.31447 h -1.5494 v 0.9398 c -0.5842,-0.7747 -1.2827,-1.1049 -2.2987,-1.1049 -2.0828,0 -3.5814,1.5621 -3.5814,3.7084 0,2.1209 1.4859,3.6576 3.5433,3.6576 0.9906,0 1.6637,-0.3175 2.3368,-1.0795 v 0.9144 h 1.5494 z m -3.6703,1.3843 c 1.2065,0 2.0701,0.9017 2.0701,2.1844 0,0.508 -0.2032,1.0922 -0.508,1.4478 -0.3429,0.4064 -0.889,0.635 -1.5367,0.635 -1.2319,0 -2.0828,-0.8382 -2.0828,-2.0701 0,-1.2827 0.8509,-2.1971 2.0574,-2.1971 z"
         style="font-weight:bold;font-size:12.70000172px;line-height:100%;fill:#d8d8d8;fill-opacity:0.94117647;stroke-width:0.26458332px"
         id="path4575" />
      <path
         d="m 123.76768,216.31447 h -1.5494 v 0.9398 c -0.5842,-0.7747 -1.2827,-1.1049 -2.2987,-1.1049 -2.0828,0 -3.5814,1.5621 -3.5814,3.7084 0,2.1209 1.4859,3.6576 3.5433,3.6576 0.9906,0 1.6637,-0.3175 2.3368,-1.0795 v 0.9144 h 1.5494 z m -3.6703,1.3843 c 1.2065,0 2.0701,0.9017 2.0701,2.1844 0,0.508 -0.2032,1.0922 -0.508,1.4478 -0.3429,0.4064 -0.889,0.635 -1.5367,0.635 -1.2319,0 -2.0828,-0.8382 -2.0828,-2.0701 0,-1.2827 0.8509,-2.1971 2.0574,-2.1971 z"
         style="font-weight:bold;font-size:12.70000172px;line-height:100%;fill:#d8d8d8;fill-opacity:0.94117647;stroke-width:0.26458332px"
         id="path4577" />
      <path
         d="m 125.02697,223.35027 h 1.6891 v -7.0358 h -1.6891 z m 0,-7.7978 h 1.6891 v -1.5875 h -1.6891 z"
         style="font-weight:bold;font-size:12.70000172px;line-height:100%;fill:#d8d8d8;fill-opacity:0.94117647;stroke-width:0.26458332px"
         id="path4579" />
      <path
         d="m 131.43452,223.35027 h 6.0706 v -1.5875 h -3.6957 l 1.9177,-1.7399 c 0.6858,-0.6223 0.9779,-0.9398 1.2573,-1.3716 0.3683,-0.5334 0.5588,-1.1684 0.5588,-1.8034 0,-1.7272 -1.3208,-3.048 -3.0607,-3.048 -1.0922,0 -2.0828,0.5207 -2.6162,1.3843 -0.3556,0.5588 -0.4953,1.1176 -0.4953,2.0193 h 1.6637 c 0,-1.1176 0.5842,-1.8542 1.4605,-1.8542 0.7747,0 1.3589,0.635 1.3589,1.4732 0,0.6096 -0.3175,1.1557 -1.0795,1.8796 l -3.3401,3.1623 z"
         style="font-weight:bold;font-size:12.70000172px;line-height:100%;fill:#d8d8d8;fill-opacity:0.94117647;stroke-width:0.26458332px"
         id="path4581" />
      <path
         d="m 138.64237,218.86717 1.4986,0.4064 c 0.4191,-0.5207 0.7747,-0.7112 1.3081,-0.7112 0.8636,0 1.524,0.7239 1.524,1.6764 0,1.016 -0.635,1.7272 -1.5494,1.7272 -0.8128,0 -1.3589,-0.508 -1.524,-1.4224 h -1.6891 c 0.0381,0.7112 0.2413,1.2192 0.6858,1.7653 0.635,0.7747 1.5621,1.2065 2.5781,1.2065 1.8161,0 3.1877,-1.4224 3.1877,-3.302 0,-1.8415 -1.2573,-3.2004 -2.9718,-3.2004 -0.4318,0 -0.7239,0.0635 -1.2065,0.2667 l 0.3048,-1.7272 h 2.9718 v -1.5875 h -4.2418 z"
         style="font-weight:bold;font-size:12.70000172px;line-height:100%;fill:#d8d8d8;fill-opacity:0.94117647;stroke-width:0.26458332px"
         id="path4583" />
      <path
         d="m 146.09151,223.35027 h 0.7366 c 0.0127,0.0762 0.0127,0.1651 0.0127,0.2159 0,0.4064 -0.2159,0.6096 -0.7493,0.7112 v 0.8509 c 0.381,0 0.5969,-0.0381 0.8763,-0.2032 0.5588,-0.3048 0.8128,-0.762 0.8128,-1.4859 v -1.7145 h -1.6891 z"
         style="font-weight:bold;font-size:12.70000172px;line-height:100%;fill:#d8d8d8;fill-opacity:0.94117647;stroke-width:0.26458332px"
         id="path4585" />
      <path
         d="m 155.64946,223.35027 2.4511,-3.683 c 0.6731,-1.0033 0.9271,-1.7272 0.9271,-2.6162 0,-1.8669 -1.397,-3.2512 -3.2893,-3.2512 -1.8542,0 -3.1877,1.4097 -3.1877,3.3655 0,1.7018 1.1176,2.9972 2.5781,2.9972 0.2794,0 0.4572,-0.0381 0.762,-0.1524 l -2.2606,3.3401 z m 0.0889,-8.001 c 0.9271,0 1.6002,0.6858 1.6002,1.651 0,0.9779 -0.635,1.6637 -1.5621,1.6637 -0.889,0 -1.5367,-0.6985 -1.5367,-1.6637 0,-0.9652 0.6096,-1.651 1.4986,-1.651 z"
         style="font-weight:bold;font-size:12.70000172px;line-height:100%;fill:#d8d8d8;fill-opacity:0.94117647;stroke-width:0.26458332px"
         id="path4587" />
      <path
         d="m 166.0577,216.93677 c 0,-1.905 -1.2319,-3.1369 -3.1369,-3.1369 -1.9304,0 -3.1496,1.2446 -3.1496,3.2258 v 3.1877 c 0,0.9017 0.1778,1.5367 0.5969,2.1082 0.5842,0.7747 1.4859,1.1938 2.6289,1.1938 1.0795,0 1.9177,-0.3937 2.4638,-1.1557 0.4191,-0.5842 0.5969,-1.2065 0.5969,-2.1463 z m -4.5974,0.0889 c 0,-1.0414 0.5588,-1.6764 1.4732,-1.6764 0.9144,0 1.4351,0.5969 1.4351,1.6764 v 3.175 c 0,0.5842 -0.0889,0.9525 -0.3048,1.2446 -0.2286,0.3302 -0.6477,0.5207 -1.1176,0.5207 -0.9652,0 -1.4859,-0.635 -1.4859,-1.8034 z"
         style="font-weight:bold;font-size:12.70000172px;line-height:100%;fill:#d8d8d8;fill-opacity:0.94117647;stroke-width:0.26458332px"
         id="path4589" />
      <path
         d="m 173.17665,216.93677 c 0,-1.905 -1.2319,-3.1369 -3.1369,-3.1369 -1.9304,0 -3.1496,1.2446 -3.1496,3.2258 v 3.1877 c 0,0.9017 0.1778,1.5367 0.5969,2.1082 0.5842,0.7747 1.4859,1.1938 2.6289,1.1938 1.0795,0 1.9177,-0.3937 2.4638,-1.1557 0.4191,-0.5842 0.5969,-1.2065 0.5969,-2.1463 z m -4.5974,0.0889 c 0,-1.0414 0.5588,-1.6764 1.4732,-1.6764 0.9144,0 1.4351,0.5969 1.4351,1.6764 v 3.175 c 0,0.5842 -0.0889,0.9525 -0.3048,1.2446 -0.2286,0.3302 -0.6477,0.5207 -1.1176,0.5207 -0.9652,0 -1.4859,-0.635 -1.4859,-1.8034 z"
         style="font-weight:bold;font-size:12.70000172px;line-height:100%;fill:#d8d8d8;fill-opacity:0.94117647;stroke-width:0.26458332px"
         id="path4591" />
      <path
         d="m 180.29559,216.93677 c 0,-1.905 -1.2319,-3.1369 -3.1369,-3.1369 -1.9304,0 -3.1496,1.2446 -3.1496,3.2258 v 3.1877 c 0,0.9017 0.1778,1.5367 0.5969,2.1082 0.5842,0.7747 1.4859,1.1938 2.6289,1.1938 1.0795,0 1.9177,-0.3937 2.4638,-1.1557 0.4191,-0.5842 0.5969,-1.2065 0.5969,-2.1463 z m -4.5974,0.0889 c 0,-1.0414 0.5588,-1.6764 1.4732,-1.6764 0.9144,0 1.4351,0.5969 1.4351,1.6764 v 3.175 c 0,0.5842 -0.0889,0.9525 -0.3048,1.2446 -0.2286,0.3302 -0.6477,0.5207 -1.1176,0.5207 -0.9652,0 -1.4859,-0.635 -1.4859,-1.8034 z"
         style="font-weight:bold;font-size:12.70000172px;line-height:100%;fill:#d8d8d8;fill-opacity:0.94117647;stroke-width:0.26458332px"
         id="path4593" />
      <path
         d="m 188.54861,220.18797 h 3.8862 c -0.508,1.0414 -1.524,1.651 -2.7559,1.651 -1.8415,0 -3.2512,-1.3843 -3.2512,-3.175 0,-0.8128 0.3429,-1.7018 0.8763,-2.2606 0.5461,-0.5969 1.3716,-0.9271 2.2733,-0.9271 1.0922,0 1.9939,0.4318 2.5781,1.2446 h 2.0447 c -0.6096,-1.6891 -2.54,-2.921 -4.5847,-2.921 -2.7432,0 -4.9403,2.1463 -4.9403,4.8387 0,2.7432 2.2225,4.8768 5.1054,4.8768 1.4097,0 2.6289,-0.4953 3.556,-1.4478 0.8636,-0.9017 1.3462,-2.0701 1.3462,-3.2766 v -0.2286 h -6.1341 z"
         style="font-weight:bold;font-size:12.70000172px;line-height:100%;fill:#d8d8d8;fill-opacity:0.94117647;stroke-width:0.26458332px"
         id="path4595" />
      <path
         d="m 195.64592,223.35027 h 1.6891 v -3.5687 c 0,-0.6985 0.0635,-1.0922 0.2413,-1.4097 0.2413,-0.4318 0.6858,-0.6731 1.2446,-0.6731 0.9906,0 1.3716,0.5842 1.3716,2.0574 v 3.5941 h 1.6891 v -3.9751 c 0,-1.0287 -0.127,-1.6002 -0.4699,-2.1209 -0.4699,-0.7239 -1.2827,-1.1176 -2.286,-1.1176 -0.7239,0 -1.2827,0.2032 -1.7907,0.6604 v -2.8321 h -1.6891 z"
         style="font-weight:bold;font-size:12.70000172px;line-height:100%;fill:#d8d8d8;fill-opacity:0.94117647;stroke-width:0.26458332px"
         id="path4597" />
      <path
         d="m 210.23327,220.58167 c 0.0508,-0.2413 0.0635,-0.3937 0.0635,-0.6477 0,-2.1844 -1.5367,-3.7846 -3.6322,-3.7846 -2.0701,0 -3.7084,1.6383 -3.7084,3.7084 0,2.0574 1.6637,3.6576 3.81,3.6576 1.1557,0 2.0574,-0.4191 2.794,-1.27 0.2667,-0.3302 0.4445,-0.6223 0.5588,-0.9779 h -1.8415 c -0.4318,0.508 -0.8509,0.6985 -1.5494,0.6985 -1.0033,0 -1.7399,-0.5334 -1.9431,-1.3843 z m -5.4991,-1.4859 c 0.2667,-0.9017 0.9525,-1.397 1.9558,-1.397 1.0414,0 1.7272,0.4953 1.9431,1.397 z"
         style="font-weight:bold;font-size:12.70000172px;line-height:100%;fill:#d8d8d8;fill-opacity:0.94117647;stroke-width:0.26458332px"
         id="path4599" />
      <path
         d="m 211.3969,223.35027 h 1.6891 v -3.3147 c 0,-0.9398 0.0635,-1.3462 0.2794,-1.6891 0.2667,-0.4191 0.7112,-0.6477 1.2446,-0.6477 0.4318,0 0.7874,0.1524 1.016,0.4445 0.2286,0.3048 0.3302,0.8255 0.3302,1.7653 v 3.4417 h 1.6891 v -3.7719 c 0,-1.2573 -0.127,-1.8669 -0.508,-2.413 -0.4572,-0.6604 -1.2192,-1.016 -2.1971,-1.016 -0.8001,0 -1.3589,0.2413 -1.9812,0.8382 v -0.6731 h -1.5621 z"
         style="font-weight:bold;font-size:12.70000172px;line-height:100%;fill:#d8d8d8;fill-opacity:0.94117647;stroke-width:0.26458332px"
         id="path4601" />
      <path
         d="m 219.26595,223.35027 h 1.6891 v -5.4991 h 1.016 v -1.5367 h -1.016 v -2.3495 h -1.6891 v 2.3495 h -0.8255 v 1.5367 h 0.8255 z"
         style="font-weight:bold;font-size:12.70000172px;line-height:100%;fill:#d8d8d8;fill-opacity:0.94117647;stroke-width:0.26458332px"
         id="path4603" />
      <path
         d="m 43.894995,245.92805 h 1.7399 v -3.5687 h 0.5588 c 1.333501,0 1.943101,-0.1016 2.463801,-0.4191 0.762,-0.4699 1.2319,-1.4224 1.2319,-2.5019 0,-1.0795 -0.4572,-1.9685 -1.27,-2.4638 -0.5334,-0.3175 -1.1557,-0.4318 -2.400301,-0.4318 h -2.3241 z m 1.7399,-5.2324 v -2.4892 h 0.5842 c 0.5715,0 0.825501,0.0254 1.104901,0.0889 0.508,0.1397 0.8128,0.5842 0.8128,1.1684 0,0.4572 -0.2032,0.8128 -0.5715,1.016 -0.2667,0.1397 -0.749301,0.2159 -1.422401,0.2159 z"
         style="font-weight:bold;font-size:12.70000172px;line-height:100%;fill:#d8d8d8;fill-opacity:0.94117647;stroke-width:0.26458332px"
         id="path4605" />
      <path
         d="m 50.836141,245.92805 h 1.6891 v -3.9116 c 0,-1.0922 0.4953,-1.6383 1.511301,-1.6637 v -1.6256 h -0.127 c -0.723901,0 -1.079501,0.2032 -1.524001,0.8509 v -0.6858 h -1.5494 z"
         style="font-weight:bold;font-size:12.70000172px;line-height:100%;fill:#d8d8d8;fill-opacity:0.94117647;stroke-width:0.26458332px"
         id="path4607" />
      <path
         d="m 62.028811,238.89225 h -1.5494 v 0.9398 c -0.5842,-0.7747 -1.2827,-1.1049 -2.2987,-1.1049 -2.0828,0 -3.581401,1.5621 -3.581401,3.7084 0,2.1209 1.485901,3.6576 3.543301,3.6576 0.9906,0 1.6637,-0.3175 2.3368,-1.0795 v 0.9144 h 1.5494 z m -3.6703,1.3843 c 1.2065,0 2.0701,0.9017 2.0701,2.1844 0,0.508 -0.2032,1.0922 -0.508,1.4478 -0.3429,0.4064 -0.889,0.635 -1.5367,0.635 -1.2319,0 -2.0828,-0.8382 -2.0828,-2.0701 0,-1.2827 0.8509,-2.1971 2.0574,-2.1971 z"
         style="font-weight:bold;font-size:12.70000172px;line-height:100%;fill:#d8d8d8;fill-opacity:0.94117647;stroke-width:0.26458332px"
         id="path4609" />
      <path
         d="m 68.329996,243.61665 c -0.4191,0.6477 -0.9017,0.9271 -1.600201,0.9271 -1.1684,0 -2.0447,-0.9144 -2.0447,-2.1463 0,-1.2319 0.8382,-2.1209 2.0066,-2.1209 0.762001,0 1.295401,0.3175 1.638301,0.9652 h 1.905 c -0.2413,-0.7112 -0.4699,-1.0795 -0.9525,-1.524 -0.6858,-0.635 -1.6129,-0.9906 -2.590801,-0.9906 -2.0828,0 -3.7084,1.6129 -3.7084,3.683 0,2.0447 1.6764,3.683 3.7592,3.683 1.638301,0 2.908301,-0.9017 3.492501,-2.4765 z"
         style="font-weight:bold;font-size:12.70000172px;line-height:100%;fill:#d8d8d8;fill-opacity:0.94117647;stroke-width:0.26458332px"
         id="path4611" />
      <path
         d="m 71.678036,245.92805 h 1.6891 v -5.4991 h 1.016 v -1.5367 h -1.016 v -2.3495 h -1.6891 v 2.3495 h -0.825501 v 1.5367 h 0.825501 z"
         style="font-weight:bold;font-size:12.70000172px;line-height:100%;fill:#d8d8d8;fill-opacity:0.94117647;stroke-width:0.26458332px"
         id="path4613" />
      <path
         d="m 75.243957,245.92805 h 1.6891 v -7.0358 h -1.6891 z m 0,-7.7978 h 1.6891 v -1.5875 h -1.6891 z"
         style="font-weight:bold;font-size:12.70000172px;line-height:100%;fill:#d8d8d8;fill-opacity:0.94117647;stroke-width:0.26458332px"
         id="path4615" />
      <path
         d="m 83.336835,243.61665 c -0.4191,0.6477 -0.9017,0.9271 -1.6002,0.9271 -1.1684,0 -2.0447,-0.9144 -2.0447,-2.1463 0,-1.2319 0.8382,-2.1209 2.0066,-2.1209 0.762,0 1.2954,0.3175 1.6383,0.9652 h 1.905001 c -0.2413,-0.7112 -0.4699,-1.0795 -0.9525,-1.524 -0.685801,-0.635 -1.612901,-0.9906 -2.590801,-0.9906 -2.0828,0 -3.7084,1.6129 -3.7084,3.683 0,2.0447 1.6764,3.683 3.7592,3.683 1.6383,0 2.908301,-0.9017 3.492501,-2.4765 z"
         style="font-weight:bold;font-size:12.70000172px;line-height:100%;fill:#d8d8d8;fill-opacity:0.94117647;stroke-width:0.26458332px"
         id="path4617" />
      <path
         d="m 93.555572,238.89225 h -1.5494 v 0.9398 c -0.5842,-0.7747 -1.2827,-1.1049 -2.2987,-1.1049 -2.0828,0 -3.581401,1.5621 -3.581401,3.7084 0,2.1209 1.485901,3.6576 3.543301,3.6576 0.9906,0 1.6637,-0.3175 2.3368,-1.0795 v 0.9144 h 1.5494 z m -3.6703,1.3843 c 1.2065,0 2.0701,0.9017 2.0701,2.1844 0,0.508 -0.2032,1.0922 -0.508,1.4478 -0.3429,0.4064 -0.889,0.635 -1.5367,0.635 -1.2319,0 -2.0828,-0.8382 -2.0828,-2.0701 0,-1.2827 0.8509,-2.1971 2.0574,-2.1971 z"
         style="font-weight:bold;font-size:12.70000172px;line-height:100%;fill:#d8d8d8;fill-opacity:0.94117647;stroke-width:0.26458332px"
         id="path4619" />
      <path
         d="m 95.043459,245.92805 h 1.6891 v -1.6256 h -1.6891 z m 0,-4.6863 h 1.6891 v -1.6891 h -1.6891 z"
         style="font-weight:bold;font-size:12.70000172px;line-height:100%;fill:#d8d8d8;fill-opacity:0.94117647;stroke-width:0.26458332px"
         id="path4621" />
      <path
         d="m 104.3474,245.92805 h 1.6891 v -9.3853 h -2.8702 v 1.5875 h 1.1811 z"
         style="font-weight:bold;font-size:12.70000172px;line-height:100%;fill:#d8d8d8;fill-opacity:0.94117647;stroke-width:0.26458332px"
         id="path4623" />
      <path
         d="m 108.34215,243.14675 v 1.3716 h 4.0513 v 1.4097 h 1.6891 v -1.4097 h 0.9906 v -1.5113 h -0.9906 v -6.4643 h -1.4224 z m 4.0513,-0.1397 h -2.3368 l 2.3368,-3.6195 z"
         style="font-weight:bold;font-size:12.70000172px;line-height:100%;fill:#d8d8d8;fill-opacity:0.94117647;stroke-width:0.26458332px"
         id="path4625" />
      <path
         d="m 116.37549,245.92805 h 1.6891 v -1.6256 h -1.6891 z m 0,-4.6863 h 1.6891 v -1.6891 h -1.6891 z"
         style="font-weight:bold;font-size:12.70000172px;line-height:100%;fill:#d8d8d8;fill-opacity:0.94117647;stroke-width:0.26458332px"
         id="path4627" />
      <path
         d="m 125.67566,239.51455 c 0,-1.905 -1.2319,-3.1369 -3.1369,-3.1369 -1.9304,0 -3.1496,1.2446 -3.1496,3.2258 v 3.1877 c 0,0.9017 0.1778,1.5367 0.5969,2.1082 0.5842,0.7747 1.4859,1.1938 2.6289,1.1938 1.0795,0 1.9177,-0.3937 2.4638,-1.1557 0.4191,-0.5842 0.5969,-1.2065 0.5969,-2.1463 z m -4.5974,0.0889 c 0,-1.0414 0.5588,-1.6764 1.4732,-1.6764 0.9144,0 1.4351,0.5969 1.4351,1.6764 v 3.175 c 0,0.5842 -0.0889,0.9525 -0.3048,1.2446 -0.2286,0.3302 -0.6477,0.5207 -1.1176,0.5207 -0.9652,0 -1.4859,-0.635 -1.4859,-1.8034 z"
         style="font-weight:bold;font-size:12.70000172px;line-height:100%;fill:#d8d8d8;fill-opacity:0.94117647;stroke-width:0.26458332px"
         id="path4629" />
      <path
         d="m 132.79461,239.51455 c 0,-1.905 -1.2319,-3.1369 -3.1369,-3.1369 -1.9304,0 -3.1496,1.2446 -3.1496,3.2258 v 3.1877 c 0,0.9017 0.1778,1.5367 0.5969,2.1082 0.5842,0.7747 1.4859,1.1938 2.6289,1.1938 1.0795,0 1.9177,-0.3937 2.4638,-1.1557 0.4191,-0.5842 0.5969,-1.2065 0.5969,-2.1463 z m -4.5974,0.0889 c 0,-1.0414 0.5588,-1.6764 1.4732,-1.6764 0.9144,0 1.4351,0.5969 1.4351,1.6764 v 3.175 c 0,0.5842 -0.0889,0.9525 -0.3048,1.2446 -0.2286,0.3302 -0.6477,0.5207 -1.1176,0.5207 -0.9652,0 -1.4859,-0.635 -1.4859,-1.8034 z"
         style="font-weight:bold;font-size:12.70000172px;line-height:100%;fill:#d8d8d8;fill-opacity:0.94117647;stroke-width:0.26458332px"
         id="path4631" />
      <path
         d="m 137.73293,243.01975 h 3.5179 v -1.4986 h -3.5179 z"
         style="font-weight:bold;font-size:12.70000172px;line-height:100%;fill:#d8d8d8;fill-opacity:0.94117647;stroke-width:0.26458332px"
         id="path4633" />
      <path
         d="m 148.7974,245.92805 h 1.6891 v -9.3853 h -2.8702 v 1.5875 h 1.1811 z"
         style="font-weight:bold;font-size:12.70000172px;line-height:100%;fill:#d8d8d8;fill-opacity:0.94117647;stroke-width:0.26458332px"
         id="path4635" />
      <path
         d="m 156.43705,236.54275 -2.4511,3.683 c -0.6731,1.016 -0.9271,1.7272 -0.9271,2.6289 0,1.8542 1.397,3.2385 3.2893,3.2385 1.8669,0 3.2131,-1.4097 3.2131,-3.3655 0,-1.7145 -1.0922,-2.9718 -2.5908,-2.9718 -0.2921,0 -0.4572,0.0254 -0.762,0.127 l 2.2479,-3.3401 z m -0.1143,4.6863 c 0.889,0 1.5494,0.6985 1.5494,1.6637 0,0.9779 -0.6223,1.651 -1.524,1.651 -0.9271,0 -1.6002,-0.6858 -1.6002,-1.651 0,-0.9906 0.635,-1.6637 1.5748,-1.6637 z"
         style="font-weight:bold;font-size:12.70000172px;line-height:100%;fill:#d8d8d8;fill-opacity:0.94117647;stroke-width:0.26458332px"
         id="path4637" />
      <path
         d="m 160.82549,245.92805 h 1.68911 v -1.6256 h -1.68911 z m 0,-4.6863 h 1.68911 v -1.6891 h -1.68911 z"
         style="font-weight:bold;font-size:12.70000172px;line-height:100%;fill:#d8d8d8;fill-opacity:0.94117647;stroke-width:0.26458332px"
         id="path4639" />
      <path
         d="m 170.12567,239.51455 c 0,-1.905 -1.2319,-3.1369 -3.1369,-3.1369 -1.9304,0 -3.1496,1.2446 -3.1496,3.2258 v 3.1877 c 0,0.9017 0.1778,1.5367 0.5969,2.1082 0.5842,0.7747 1.4859,1.1938 2.6289,1.1938 1.0795,0 1.9177,-0.3937 2.4638,-1.1557 0.4191,-0.5842 0.5969,-1.2065 0.5969,-2.1463 z m -4.5974,0.0889 c 0,-1.0414 0.5588,-1.6764 1.4732,-1.6764 0.9144,0 1.4351,0.5969 1.4351,1.6764 v 3.175 c 0,0.5842 -0.0889,0.9525 -0.3048,1.2446 -0.2286,0.3302 -0.6477,0.5207 -1.1176,0.5207 -0.9652,0 -1.4859,-0.635 -1.4859,-1.8034 z"
         style="font-weight:bold;font-size:12.70000172px;line-height:100%;fill:#d8d8d8;fill-opacity:0.94117647;stroke-width:0.26458332px"
         id="path4641" />
      <path
         d="m 177.24461,239.51455 c 0,-1.905 -1.2319,-3.1369 -3.1369,-3.1369 -1.9304,0 -3.1496,1.2446 -3.1496,3.2258 v 3.1877 c 0,0.9017 0.1778,1.5367 0.5969,2.1082 0.5842,0.7747 1.4859,1.1938 2.6289,1.1938 1.0795,0 1.9177,-0.3937 2.4638,-1.1557 0.4191,-0.5842 0.5969,-1.2065 0.5969,-2.1463 z m -4.5974,0.0889 c 0,-1.0414 0.5588,-1.6764 1.4732,-1.6764 0.9144,0 1.4351,0.5969 1.4351,1.6764 v 3.175 c 0,0.5842 -0.0889,0.9525 -0.3048,1.2446 -0.2286,0.3302 -0.6477,0.5207 -1.1176,0.5207 -0.9652,0 -1.4859,-0.635 -1.4859,-1.8034 z"
         style="font-weight:bold;font-size:12.70000172px;line-height:100%;fill:#d8d8d8;fill-opacity:0.94117647;stroke-width:0.26458332px"
         id="path4643" />
      <path
         d="m 182.18293,243.01975 h 3.5179 v -1.4986 h -3.5179 z"
         style="font-weight:bold;font-size:12.70000172px;line-height:100%;fill:#d8d8d8;fill-opacity:0.94117647;stroke-width:0.26458332px"
         id="path4645" />
      <path
         d="m 189.70411,240.93695 h 1.2065 c -0.0127,0.1397 -0.0127,0.2794 -0.0127,0.3302 v 0.2413 h -0.8763 l -0.3048,1.1176 h 1.2827 c 0.3429,1.5494 0.7874,2.3114 1.6637,2.8575 0.6096,0.3683 1.3716,0.5842 2.0955,0.5842 0.7493,0 1.2827,-0.1143 2.032,-0.4191 v -1.5621 c -0.9271,0.381 -1.397,0.508 -1.8542,0.508 -0.7366,0 -1.4478,-0.3556 -1.8288,-0.9271 -0.2159,-0.3048 -0.3302,-0.5842 -0.4445,-1.0414 h 2.9591 l 0.4318,-1.1176 h -3.4544 v -0.5715 h 3.6703 l 0.4191,-1.1176 h -4.0005 c 0.1905,-0.6858 0.3048,-0.9652 0.5588,-1.2827 0.3302,-0.4318 0.9906,-0.7239 1.6129,-0.7239 0.7366,0 1.4478,0.2159 2.3241,0.7366 l 0.4953,-1.3081 c -1.0541,-0.635 -1.7399,-0.8382 -2.7813,-0.8382 -1.4097,0 -2.4892,0.5334 -3.2004,1.5748 -0.3048,0.4572 -0.4699,0.9144 -0.6858,1.8415 h -1.0033 z"
         style="font-weight:bold;font-size:12.70000172px;line-height:100%;fill:#d8d8d8;fill-opacity:0.94117647;stroke-width:0.26458332px"
         id="path4647" />
      <path
         d="m 207.45672,239.51455 c 0,-1.905 -1.2319,-3.1369 -3.1369,-3.1369 -1.9304,0 -3.1496,1.2446 -3.1496,3.2258 v 3.1877 c 0,0.9017 0.1778,1.5367 0.5969,2.1082 0.5842,0.7747 1.4859,1.1938 2.6289,1.1938 1.0795,0 1.9177,-0.3937 2.4638,-1.1557 0.4191,-0.5842 0.5969,-1.2065 0.5969,-2.1463 z m -4.5974,0.0889 c 0,-1.0414 0.5588,-1.6764 1.4732,-1.6764 0.9144,0 1.4351,0.5969 1.4351,1.6764 v 3.175 c 0,0.5842 -0.0889,0.9525 -0.3048,1.2446 -0.2286,0.3302 -0.6477,0.5207 -1.1176,0.5207 -0.9652,0 -1.4859,-0.635 -1.4859,-1.8034 z"
         style="font-weight:bold;font-size:12.70000172px;line-height:100%;fill:#d8d8d8;fill-opacity:0.94117647;stroke-width:0.26458332px"
         id="path4649" />
      <path
         d="m 43.894995,268.50583 h 1.7399 v -7.03581 l 2.451101,7.03581 h 1.4224 l 2.4511,-7.03581 v 7.03581 h 1.7399 v -9.38531 h -2.3876 l -2.5019,7.112 -2.527301,-7.112 h -2.3876 z"
         style="font-weight:bold;font-size:12.70000172px;line-height:100%;fill:#d8d8d8;fill-opacity:0.94117647;stroke-width:0.26458332px"
         id="path4651" />
      <path
         d="m 55.152157,268.50583 h 1.689101 v -7.03581 h -1.689101 z m 0,-7.79781 h 1.689101 v -1.5875 h -1.689101 z"
         style="font-weight:bold;font-size:12.70000172px;line-height:100%;fill:#d8d8d8;fill-opacity:0.94117647;stroke-width:0.26458332px"
         id="path4653" />
      <path
         d="m 58.203134,268.50583 h 1.6891 v -9.38531 h -1.6891 z"
         style="font-weight:bold;font-size:12.70000172px;line-height:100%;fill:#d8d8d8;fill-opacity:0.94117647;stroke-width:0.26458332px"
         id="path4655" />
      <path
         d="m 64.670412,261.30492 c -2.0447,0 -3.7211,1.6637 -3.7211,3.683 0,2.032 1.6764,3.68301 3.7338,3.68301 2.044701,0 3.746501,-1.65101 3.746501,-3.63221 0,-2.0955 -1.6383,-3.7338 -3.759201,-3.7338 z m 0.0127,1.5494 c 1.1303,0 2.044701,0.9652 2.044701,2.1336 0,1.1811 -0.914401,2.1336 -2.032001,2.1336 -1.143,0 -2.0447,-0.9525 -2.0447,-2.159 0,-1.1557 0.9271,-2.1082 2.032,-2.1082 z"
         style="font-weight:bold;font-size:12.70000172px;line-height:100%;fill:#d8d8d8;fill-opacity:0.94117647;stroke-width:0.26458332px"
         id="path4657" />
      <path
         d="m 69.39005,268.50583 h 1.689101 v -3.31471 c 0,-0.9398 0.0635,-1.3462 0.2794,-1.6891 0.2667,-0.4191 0.7112,-0.6477 1.2446,-0.6477 0.4318,0 0.7874,0.1524 1.016,0.4445 0.2286,0.3048 0.3302,0.8255 0.3302,1.7653 v 3.44171 h 1.6891 v -3.77191 c 0,-1.2573 -0.127,-1.8669 -0.508,-2.413 -0.4572,-0.6604 -1.2192,-1.016 -2.1971,-1.016 -0.8001,0 -1.3589,0.2413 -1.9812,0.8382 v -0.6731 H 69.39005 Z"
         style="font-weight:bold;font-size:12.70000172px;line-height:100%;fill:#d8d8d8;fill-opacity:0.94117647;stroke-width:0.26458332px"
         id="path4659" />
      <path
         d="m 82.466091,261.47002 v 0.889 c -0.5207,-0.7112 -1.2827,-1.0541 -2.2987,-1.0541 -1.993901,0 -3.467101,1.5494 -3.467101,3.6322 0,2.1717 1.4478,3.73381 3.454401,3.73381 0.9906,0 1.651,-0.3175 2.3114,-1.09221 -0.0635,1.51131 -0.7112,2.24791 -1.9685,2.24791 -0.7874,0 -1.27,-0.2032 -1.765301,-0.7493 h -1.9177 c 0.5715,1.4097 1.8923,2.2352 3.619501,2.2352 1.27,0 2.2733,-0.4445 2.9337,-1.2827 0.4953,-0.6477 0.7112,-1.5113 0.7112,-2.85751 v -5.7023 z m -2.1082,1.3843 c 1.2065,0 2.032,0.8763 2.032,2.159 0,1.27 -0.8001,2.1082 -2.0066,2.1082 -1.2065,0 -1.981201,-0.8255 -1.981201,-2.1082 0,-1.2954 0.774701,-2.159 1.955801,-2.159 z"
         style="font-weight:bold;font-size:12.70000172px;line-height:100%;fill:#d8d8d8;fill-opacity:0.94117647;stroke-width:0.26458332px"
         id="path4661" />
      <path
         d="m 92.513779,261.47002 h -1.549401 v 0.9398 c -0.5842,-0.7747 -1.2827,-1.1049 -2.2987,-1.1049 -2.0828,0 -3.5814,1.5621 -3.5814,3.7084 0,2.1209 1.4859,3.65761 3.5433,3.65761 0.9906,0 1.6637,-0.3175 2.3368,-1.07951 v 0.91441 h 1.549401 z m -3.670301,1.3843 c 1.2065,0 2.0701,0.9017 2.0701,2.1844 0,0.508 -0.2032,1.0922 -0.508,1.4478 -0.3429,0.4064 -0.889,0.635 -1.5367,0.635 -1.2319,0 -2.0828,-0.8382 -2.0828,-2.0701 0,-1.2827 0.8509,-2.1971 2.0574,-2.1971 z"
         style="font-weight:bold;font-size:12.70000172px;line-height:100%;fill:#d8d8d8;fill-opacity:0.94117647;stroke-width:0.26458332px"
         id="path4663" />
      <path
         d="m 94.001661,268.50583 h 1.689101 v -1.62561 h -1.689101 z m 0,-4.68631 h 1.689101 v -1.6891 h -1.689101 z"
         style="font-weight:bold;font-size:12.70000172px;line-height:100%;fill:#d8d8d8;fill-opacity:0.94117647;stroke-width:0.26458332px"
         id="path4665" />
      <path
         d="m 103.3056,268.50583 h 1.6891 v -9.38531 h -2.8702 v 1.5875 h 1.1811 z"
         style="font-weight:bold;font-size:12.70000172px;line-height:100%;fill:#d8d8d8;fill-opacity:0.94117647;stroke-width:0.26458332px"
         id="path4667" />
      <path
         d="m 110.94525,259.12052 -2.4511,3.683 c -0.6731,1.016 -0.9271,1.7272 -0.9271,2.6289 0,1.8542 1.397,3.23851 3.2893,3.23851 1.8669,0 3.2131,-1.40971 3.2131,-3.36551 0,-1.7145 -1.0922,-2.9718 -2.5908,-2.9718 -0.2921,0 -0.4572,0.0254 -0.762,0.127 l 2.2479,-3.3401 z m -0.1143,4.6863 c 0.889,0 1.5494,0.6985 1.5494,1.6637 0,0.9779 -0.6223,1.651 -1.524,1.651 -0.9271,0 -1.6002,-0.6858 -1.6002,-1.651 0,-0.9906 0.635,-1.6637 1.5748,-1.6637 z"
         style="font-weight:bold;font-size:12.70000172px;line-height:100%;fill:#d8d8d8;fill-opacity:0.94117647;stroke-width:0.26458332px"
         id="path4669" />
      <path
         d="m 115.3337,268.50583 h 1.6891 v -1.62561 h -1.6891 z m 0,-4.68631 h 1.6891 v -1.6891 h -1.6891 z"
         style="font-weight:bold;font-size:12.70000172px;line-height:100%;fill:#d8d8d8;fill-opacity:0.94117647;stroke-width:0.26458332px"
         id="path4671" />
      <path
         d="m 124.63386,262.09232 c 0,-1.905 -1.2319,-3.1369 -3.1369,-3.1369 -1.9304,0 -3.1496,1.2446 -3.1496,3.2258 v 3.1877 c 0,0.9017 0.1778,1.5367 0.5969,2.1082 0.5842,0.77471 1.4859,1.19381 2.6289,1.19381 1.0795,0 1.9177,-0.3937 2.4638,-1.15571 0.4191,-0.5842 0.5969,-1.2065 0.5969,-2.1463 z m -4.5974,0.0889 c 0,-1.0414 0.5588,-1.6764 1.4732,-1.6764 0.9144,0 1.4351,0.5969 1.4351,1.6764 v 3.175 c 0,0.5842 -0.0889,0.9525 -0.3048,1.2446 -0.2286,0.3302 -0.6477,0.5207 -1.1176,0.5207 -0.9652,0 -1.4859,-0.635 -1.4859,-1.8034 z"
         style="font-weight:bold;font-size:12.70000172px;line-height:100%;fill:#d8d8d8;fill-opacity:0.94117647;stroke-width:0.26458332px"
         id="path4673" />
      <path
         d="m 131.75281,262.09232 c 0,-1.905 -1.2319,-3.1369 -3.1369,-3.1369 -1.9304,0 -3.1496,1.2446 -3.1496,3.2258 v 3.1877 c 0,0.9017 0.1778,1.5367 0.5969,2.1082 0.5842,0.77471 1.4859,1.19381 2.6289,1.19381 1.0795,0 1.9177,-0.3937 2.4638,-1.15571 0.4191,-0.5842 0.5969,-1.2065 0.5969,-2.1463 z m -4.5974,0.0889 c 0,-1.0414 0.5588,-1.6764 1.4732,-1.6764 0.9144,0 1.4351,0.5969 1.4351,1.6764 v 3.175 c 0,0.5842 -0.0889,0.9525 -0.3048,1.2446 -0.2286,0.3302 -0.6477,0.5207 -1.1176,0.5207 -0.9652,0 -1.4859,-0.635 -1.4859,-1.8034 z"
         style="font-weight:bold;font-size:12.70000172px;line-height:100%;fill:#d8d8d8;fill-opacity:0.94117647;stroke-width:0.26458332px"
         id="path4675" />
      <path
         d="m 136.69113,265.59752 h 3.5179 v -1.4986 h -3.5179 z"
         style="font-weight:bold;font-size:12.70000172px;line-height:100%;fill:#d8d8d8;fill-opacity:0.94117647;stroke-width:0.26458332px"
         id="path4677" />
      <path
         d="m 145.12671,268.50583 h 6.0706 v -1.58751 h -3.6957 l 1.9177,-1.7399 c 0.6858,-0.6223 0.9779,-0.9398 1.2573,-1.3716 0.3683,-0.5334 0.5588,-1.1684 0.5588,-1.8034 0,-1.7272 -1.3208,-3.048 -3.0607,-3.048 -1.0922,0 -2.0828,0.5207 -2.6162,1.3843 -0.3556,0.5588 -0.4953,1.1176 -0.4953,2.0193 h 1.6637 c 0,-1.1176 0.5842,-1.8542 1.4605,-1.8542 0.7747,0 1.3589,0.635 1.3589,1.4732 0,0.6096 -0.3175,1.1557 -1.0795,1.8796 l -3.3401,3.1623 z"
         style="font-weight:bold;font-size:12.70000172px;line-height:100%;fill:#d8d8d8;fill-opacity:0.94117647;stroke-width:0.26458332px"
         id="path4679" />
      <path
         d="m 152.24565,268.50583 h 6.0706 v -1.58751 h -3.6957 l 1.9177,-1.7399 c 0.6858,-0.6223 0.9779,-0.9398 1.2573,-1.3716 0.3683,-0.5334 0.5588,-1.1684 0.5588,-1.8034 0,-1.7272 -1.3208,-3.048 -3.0607,-3.048 -1.0922,0 -2.0828,0.5207 -2.6162,1.3843 -0.3556,0.5588 -0.4953,1.1176 -0.4953,2.0193 h 1.6637 c 0,-1.1176 0.5842,-1.8542 1.4605,-1.8542 0.7747,0 1.3589,0.635 1.3589,1.4732 0,0.6096 -0.3175,1.1557 -1.0795,1.8796 l -3.3401,3.1623 z"
         style="font-weight:bold;font-size:12.70000172px;line-height:100%;fill:#d8d8d8;fill-opacity:0.94117647;stroke-width:0.26458332px"
         id="path4681" />
      <path
         d="m 159.7837,268.50583 h 1.6891 v -1.62561 h -1.6891 z m 0,-4.68631 h 1.6891 v -1.6891 h -1.6891 z"
         style="font-weight:bold;font-size:12.70000172px;line-height:100%;fill:#d8d8d8;fill-opacity:0.94117647;stroke-width:0.26458332px"
         id="path4683" />
      <path
         d="m 169.08388,262.09232 c 0,-1.905 -1.23191,-3.1369 -3.13691,-3.1369 -1.9304,0 -3.1496,1.2446 -3.1496,3.2258 v 3.1877 c 0,0.9017 0.1778,1.5367 0.5969,2.1082 0.5842,0.77471 1.4859,1.19381 2.6289,1.19381 1.0795,0 1.9177,-0.3937 2.46381,-1.15571 0.4191,-0.5842 0.5969,-1.2065 0.5969,-2.1463 z m -4.59741,0.0889 c 0,-1.0414 0.5588,-1.6764 1.4732,-1.6764 0.9144,0 1.4351,0.5969 1.4351,1.6764 v 3.175 c 0,0.5842 -0.0889,0.9525 -0.3048,1.2446 -0.2286,0.3302 -0.6477,0.5207 -1.1176,0.5207 -0.9652,0 -1.4859,-0.635 -1.4859,-1.8034 z"
         style="font-weight:bold;font-size:12.70000172px;line-height:100%;fill:#d8d8d8;fill-opacity:0.94117647;stroke-width:0.26458332px"
         id="path4685" />
      <path
         d="m 176.20282,262.09232 c 0,-1.905 -1.2319,-3.1369 -3.1369,-3.1369 -1.9304,0 -3.1496,1.2446 -3.1496,3.2258 v 3.1877 c 0,0.9017 0.1778,1.5367 0.5969,2.1082 0.5842,0.77471 1.4859,1.19381 2.6289,1.19381 1.0795,0 1.9177,-0.3937 2.4638,-1.15571 0.4191,-0.5842 0.5969,-1.2065 0.5969,-2.1463 z m -4.5974,0.0889 c 0,-1.0414 0.5588,-1.6764 1.4732,-1.6764 0.9144,0 1.4351,0.5969 1.4351,1.6764 v 3.175 c 0,0.5842 -0.0889,0.9525 -0.3048,1.2446 -0.2286,0.3302 -0.6477,0.5207 -1.1176,0.5207 -0.9652,0 -1.4859,-0.635 -1.4859,-1.8034 z"
         style="font-weight:bold;font-size:12.70000172px;line-height:100%;fill:#d8d8d8;fill-opacity:0.94117647;stroke-width:0.26458332px"
         id="path4687" />
      <path
         d="m 181.14113,265.59752 h 3.5179 v -1.4986 h -3.5179 z"
         style="font-weight:bold;font-size:12.70000172px;line-height:100%;fill:#d8d8d8;fill-opacity:0.94117647;stroke-width:0.26458332px"
         id="path4689" />
      <path
         d="m 188.66231,263.51472 h 1.2065 c -0.0127,0.1397 -0.0127,0.2794 -0.0127,0.3302 v 0.2413 h -0.8763 l -0.3048,1.1176 h 1.2827 c 0.3429,1.5494 0.7874,2.3114 1.6637,2.8575 0.6096,0.36831 1.3716,0.58421 2.0955,0.58421 0.7493,0 1.2827,-0.1143 2.032,-0.4191 v -1.56211 c -0.9271,0.381 -1.397,0.508 -1.8542,0.508 -0.7366,0 -1.4478,-0.3556 -1.8288,-0.9271 -0.2159,-0.3048 -0.3302,-0.5842 -0.4445,-1.0414 h 2.9591 l 0.4318,-1.1176 h -3.4544 v -0.5715 h 3.6703 l 0.4191,-1.1176 h -4.0005 c 0.1905,-0.6858 0.3048,-0.9652 0.5588,-1.2827 0.3302,-0.4318 0.9906,-0.7239 1.6129,-0.7239 0.7366,0 1.4478,0.2159 2.3241,0.7366 l 0.4953,-1.3081 c -1.0541,-0.635 -1.7399,-0.8382 -2.7813,-0.8382 -1.4097,0 -2.4892,0.5334 -3.2004,1.5748 -0.3048,0.4572 -0.4699,0.9144 -0.6858,1.8415 h -1.0033 z"
         style="font-weight:bold;font-size:12.70000172px;line-height:100%;fill:#d8d8d8;fill-opacity:0.94117647;stroke-width:0.26458332px"
         id="path4691" />
      <path
         d="m 200.76343,268.50583 h 1.905 l 3.429,-7.79781 v -1.5875 h -5.5245 v 1.5875 h 3.7465 z"
         style="font-weight:bold;font-size:12.70000172px;line-height:100%;fill:#d8d8d8;fill-opacity:0.94117647;stroke-width:0.26458332px"
         id="path4693" />
      <path
         d="m 43.894995,291.0836 h 1.7399 v -7.0358 l 2.451101,7.0358 h 1.4224 l 2.4511,-7.0358 v 7.0358 h 1.7399 v -9.3853 h -2.3876 l -2.5019,7.112 -2.527301,-7.112 h -2.3876 z"
         style="font-weight:bold;font-size:12.70000172px;line-height:100%;fill:#d8d8d8;fill-opacity:0.94117647;stroke-width:0.26458332px"
         id="path4695" />
      <path
         d="m 62.276858,284.0478 h -1.5494 v 0.9398 c -0.5842,-0.7747 -1.2827,-1.1049 -2.2987,-1.1049 -2.082801,0 -3.581401,1.5621 -3.581401,3.7084 0,2.1209 1.4859,3.6576 3.543301,3.6576 0.9906,0 1.6637,-0.3175 2.3368,-1.0795 v 0.9144 h 1.5494 z m -3.6703,1.3843 c 1.2065,0 2.0701,0.9017 2.0701,2.1844 0,0.508 -0.2032,1.0922 -0.508,1.4478 -0.3429,0.4064 -0.889,0.635 -1.5367,0.635 -1.2319,0 -2.0828,-0.8382 -2.0828,-2.0701 0,-1.2827 0.8509,-2.1971 2.0574,-2.1971 z"
         style="font-weight:bold;font-size:12.70000172px;line-height:100%;fill:#d8d8d8;fill-opacity:0.94117647;stroke-width:0.26458332px"
         id="path4697" />
      <path
         d="m 63.536142,291.0836 h 1.6891 v -3.9116 c 0,-1.0922 0.4953,-1.6383 1.5113,-1.6637 v -1.6256 h -0.127 c -0.7239,0 -1.0795,0.2032 -1.524,0.8509 v -0.6858 h -1.5494 z"
         style="font-weight:bold;font-size:12.70000172px;line-height:100%;fill:#d8d8d8;fill-opacity:0.94117647;stroke-width:0.26458332px"
         id="path4699" />
      <path
         d="m 67.604112,291.0836 h 1.6891 v -7.0358 h -1.6891 z m 0,-7.7978 h 1.6891 v -1.5875 h -1.6891 z"
         style="font-weight:bold;font-size:12.70000172px;line-height:100%;fill:#d8d8d8;fill-opacity:0.94117647;stroke-width:0.26458332px"
         id="path4701" />
      <path
         d="m 77.627391,288.315 c 0.0508,-0.2413 0.0635,-0.3937 0.0635,-0.6477 0,-2.1844 -1.5367,-3.7846 -3.632201,-3.7846 -2.0701,0 -3.7084,1.6383 -3.7084,3.7084 0,2.0574 1.6637,3.6576 3.81,3.6576 1.155701,0 2.057401,-0.4191 2.794001,-1.27 0.2667,-0.3302 0.4445,-0.6223 0.5588,-0.9779 h -1.8415 c -0.431801,0.508 -0.850901,0.6985 -1.549401,0.6985 -1.0033,0 -1.7399,-0.5334 -1.9431,-1.3843 z m -5.499101,-1.4859 c 0.2667,-0.9017 0.9525,-1.397 1.9558,-1.397 1.0414,0 1.727201,0.4953 1.943101,1.397 z"
         style="font-weight:bold;font-size:12.70000172px;line-height:100%;fill:#d8d8d8;fill-opacity:0.94117647;stroke-width:0.26458332px"
         id="path4703" />
      <path
         d="m 85.170198,281.6983 v 6.6421 c 0,0.8255 -0.2794,1.2319 -0.8382,1.2319 -0.4318,0 -0.7112,-0.2413 -0.8255,-0.7112 h -1.7399 c 0.0762,0.7366 0.2159,1.1176 0.5969,1.5367 0.4826,0.5334 1.2192,0.8509 2.0066,0.8509 1.574801,0 2.540001,-1.0922 2.540001,-2.8575 v -6.6929 z"
         style="font-weight:bold;font-size:12.70000172px;line-height:100%;fill:#d8d8d8;fill-opacity:0.94117647;stroke-width:0.26458332px"
         id="path4705" />
      <path
         d="m 95.412354,288.315 c 0.0508,-0.2413 0.0635,-0.3937 0.0635,-0.6477 0,-2.1844 -1.5367,-3.7846 -3.6322,-3.7846 -2.0701,0 -3.708401,1.6383 -3.708401,3.7084 0,2.0574 1.663701,3.6576 3.810001,3.6576 1.1557,0 2.0574,-0.4191 2.794,-1.27 0.2667,-0.3302 0.4445,-0.6223 0.5588,-0.9779 h -1.8415 c -0.4318,0.508 -0.8509,0.6985 -1.5494,0.6985 -1.0033,0 -1.7399,-0.5334 -1.9431,-1.3843 z m -5.4991,-1.4859 c 0.2667,-0.9017 0.9525,-1.397 1.9558,-1.397 1.0414,0 1.7272,0.4953 1.9431,1.397 z"
         style="font-weight:bold;font-size:12.70000172px;line-height:100%;fill:#d8d8d8;fill-opacity:0.94117647;stroke-width:0.26458332px"
         id="path4707" />
      <path
         d="m 103.70069,284.0478 h -1.5494 v 0.9398 c -0.5842,-0.7747 -1.2827,-1.1049 -2.298699,-1.1049 -2.082801,0 -3.581401,1.5621 -3.581401,3.7084 0,2.1209 1.4859,3.6576 3.543301,3.6576 0.990599,0 1.663699,-0.3175 2.336799,-1.0795 v 0.9144 h 1.5494 z m -3.6703,1.3843 c 1.2065,0 2.0701,0.9017 2.0701,2.1844 0,0.508 -0.2032,1.0922 -0.508,1.4478 -0.3429,0.4064 -0.889,0.635 -1.5367,0.635 -1.231899,0 -2.0828,-0.8382 -2.0828,-2.0701 0,-1.2827 0.850901,-2.1971 2.0574,-2.1971 z"
         style="font-weight:bold;font-size:12.70000172px;line-height:100%;fill:#d8d8d8;fill-opacity:0.94117647;stroke-width:0.26458332px"
         id="path4709" />
      <path
         d="m 104.95998,291.0836 h 1.6891 v -3.3147 c 0,-0.9398 0.0635,-1.3462 0.2794,-1.6891 0.2667,-0.4191 0.7112,-0.6477 1.2446,-0.6477 0.4318,0 0.7874,0.1524 1.016,0.4445 0.2286,0.3048 0.3302,0.8255 0.3302,1.7653 v 3.4417 h 1.6891 v -3.7719 c 0,-1.2573 -0.127,-1.8669 -0.508,-2.413 -0.4572,-0.6604 -1.2192,-1.016 -2.1971,-1.016 -0.8001,0 -1.3589,0.2413 -1.9812,0.8382 v -0.6731 h -1.5621 z"
         style="font-weight:bold;font-size:12.70000172px;line-height:100%;fill:#d8d8d8;fill-opacity:0.94117647;stroke-width:0.26458332px"
         id="path4711" />
      <path
         d="m 112.57501,291.0836 h 1.6891 v -3.3147 c 0,-0.9398 0.0635,-1.3462 0.2794,-1.6891 0.2667,-0.4191 0.7112,-0.6477 1.2446,-0.6477 0.4318,0 0.7874,0.1524 1.016,0.4445 0.2286,0.3048 0.3302,0.8255 0.3302,1.7653 v 3.4417 h 1.6891 v -3.7719 c 0,-1.2573 -0.127,-1.8669 -0.508,-2.413 -0.4572,-0.6604 -1.2192,-1.016 -2.1971,-1.016 -0.8001,0 -1.3589,0.2413 -1.9812,0.8382 v -0.6731 h -1.5621 z"
         style="font-weight:bold;font-size:12.70000172px;line-height:100%;fill:#d8d8d8;fill-opacity:0.94117647;stroke-width:0.26458332px"
         id="path4713" />
      <path
         d="m 127.16236,288.315 c 0.0508,-0.2413 0.0635,-0.3937 0.0635,-0.6477 0,-2.1844 -1.5367,-3.7846 -3.6322,-3.7846 -2.0701,0 -3.7084,1.6383 -3.7084,3.7084 0,2.0574 1.6637,3.6576 3.81,3.6576 1.1557,0 2.0574,-0.4191 2.794,-1.27 0.2667,-0.3302 0.4445,-0.6223 0.5588,-0.9779 h -1.8415 c -0.4318,0.508 -0.8509,0.6985 -1.5494,0.6985 -1.0033,0 -1.7399,-0.5334 -1.9431,-1.3843 z m -5.4991,-1.4859 c 0.2667,-0.9017 0.9525,-1.397 1.9558,-1.397 1.0414,0 1.7272,0.4953 1.9431,1.397 z"
         style="font-weight:bold;font-size:12.70000172px;line-height:100%;fill:#d8d8d8;fill-opacity:0.94117647;stroke-width:0.26458332px"
         id="path4715" />
    </g>
    <path
       inkscape:connector-curvature="0"
       d="m 48.962295,167.28466 1.12182,1.12184 -4.43442,4.4344 h 9.6626 v 1.5875 h -9.6626 l 4.43442,4.43442 -1.12182,1.12184 -6.35,-6.35 z"
       id="path4"
       style="fill:#d8d8d8;fill-opacity:0.94117647;stroke-width:0.52916664" />
  </g>
</svg>
