<?xml version="1.0" encoding="UTF-8" standalone="no"?>
<!-- Generator: Adobe Illustrator 16.0.0, SVG Export Plug-In . SVG Version: 6.00 Build 0)  -->

<svg
   xmlns:dc="http://purl.org/dc/elements/1.1/"
   xmlns:cc="http://creativecommons.org/ns#"
   xmlns:rdf="http://www.w3.org/1999/02/22-rdf-syntax-ns#"
   xmlns:svg="http://www.w3.org/2000/svg"
   xmlns="http://www.w3.org/2000/svg"
   xmlns:sodipodi="http://sodipodi.sourceforge.net/DTD/sodipodi-0.dtd"
   xmlns:inkscape="http://www.inkscape.org/namespaces/inkscape"
   version="1.1"
   id="Capa_1"
   x="0px"
   y="0px"
   width="512px"
   height="512px"
   viewBox="0 0 34.81 34.81"
   style="enable-background:new 0 0 34.81 34.81;"
   xml:space="preserve"
   sodipodi:docname="la-yumba.svg"
   inkscape:version="0.92.1 r15371"
   inkscape:export-filename="/home/toon/Documents/tango.tips/flyer/la-yumba.png"
   inkscape:export-xdpi="600"
   inkscape:export-ydpi="600"><metadata
     id="metadata3798"><rdf:RDF><cc:Work
         rdf:about=""><dc:format>image/svg+xml</dc:format><dc:type
           rdf:resource="http://purl.org/dc/dcmitype/StillImage" /><dc:title></dc:title></cc:Work></rdf:RDF></metadata><defs
     id="defs3796"><inkscape:perspective
       sodipodi:type="inkscape:persp3d"
       inkscape:vp_x="0 : 17.405 : 1"
       inkscape:vp_y="0 : 1000 : 0"
       inkscape:vp_z="34.81 : 17.405 : 1"
       inkscape:persp3d-origin="17.405 : 11.603333 : 1"
       id="perspective4623" /></defs><sodipodi:namedview
     pagecolor="#424242"
     bordercolor="#666666"
     borderopacity="1"
     objecttolerance="10"
     gridtolerance="10"
     guidetolerance="10"
     inkscape:pageopacity="0"
     inkscape:pageshadow="2"
     inkscape:window-width="2880"
     inkscape:window-height="1708"
     id="namedview3794"
     showgrid="false"
     inkscape:zoom="1.5253906"
     inkscape:cx="68.147849"
     inkscape:cy="248.49617"
     inkscape:window-x="0"
     inkscape:window-y="55"
     inkscape:window-maximized="1"
     inkscape:current-layer="Capa_1"
     showguides="false"
     inkscape:pagecheckerboard="true" /><g
     id="g3761"><path
       d="M30.899,30.824c-0.021-0.067-0.835-0.428-1.694-0.985c-0.071-0.046,0.254-0.233,0.178-0.278   c-0.937-0.557-1.287-0.416-2.023-0.859c-2.207-1.334-4.628-3.11-4.628-3.11s1.021-2.487,0.904-3.106   c-0.115-0.618-2.334-2.901-2.59-3.237c-0.255-0.332,0.181-1.205,0.066-2.229c-0.092-0.831-0.477-1.469-0.515-1.814   c-0.085-0.771,0.11-1.65,0.44-2.082c0.331-0.432,1.824-1.352,1.824-1.352s0.817,0.595,1.284,0.693   c0.467,0.1,1.051-0.023,1.321-0.291c0.271-0.267,0.286-0.935,0.152-1.281c-0.133-0.346-1.358-2.738-1.358-2.738   s0.393-1.303,0.292-1.375c-0.102-0.074-0.12-0.31-0.12-0.31s0.082-0.705,0.005-0.845c-0.075-0.14-0.361-0.068-0.361-0.068   s-0.043-0.234-0.208-0.234s-0.291,0.189-0.291,0.189s-0.148,0.173-0.239,0.277c-0.092,0.104-0.229-0.051-0.431,0.089   c-0.203,0.14-0.403,0.783-0.403,0.783s-1.619-0.518-2.19-0.837c-0.571-0.318-1.174-1.502-1.174-1.502L19.128,3.65   c0,0,0.354-0.366,0.403-0.847c0.051-0.481-0.188-0.581-0.188-0.581s0.356-1.22-0.177-1.656c-0.407-0.334-0.91-0.596-1.585-0.563   c-0.674,0.029-0.743,0.19-1.227,0.315c-0.485,0.125-0.413,0.968-0.413,0.968L15.838,2.26c0,0-0.251-1.062-0.719-1.288   c-0.468-0.229-0.67-0.709-1.855-0.51c-1.185,0.198-1.716,1.837-1.716,1.837s-0.753,0.418-0.477,1.336s1.368,0.839,1.507,1.092   c0.139,0.254,0.038,1.1,0.038,1.1s-1.852,4.139-2.168,4.845s-0.232,1.694-0.007,1.745c0.569,0.127,1.651-0.607,1.651-0.607   c0.018,0.696,0.954,0.986,1.036,1.423c0.083,0.438-2.76,9.546-3.421,10.514c-0.661,0.971-0.945,0.842-1.72,2.276   c-0.663,1.229-1.34,4.072-1.846,4.932c-0.505,0.86-2.023,1.721-2.182,2.276c-0.159,0.556,0.032,1.543,0.476,1.577   c0.444,0.033,0.958-0.199,1.099-0.338c0.136-0.133,0.459-0.668,0.885-1.214c0.383-0.489,0.879-0.987,0.919-1.215   c0.033-0.188,0.37-1.369,1.129-2.555c1.186-1.85,2.977-3.925,2.977-3.925s0.139,3.518,0.177,4.492   c0.038,0.975,0.893,1.985,0.931,2.594c0.038,0.606-0.285,0.814-0.493,1.037s-0.379,0.506,0.126,0.531   c0.506,0.025,2.403,0.004,2.748,0.001c0.345-0.004-0.042-2.81,0.186-3.449c0.228-0.642,1.535-7.638,1.535-7.638   s1.619,2.831,2.045,3.574c0.425,0.743,1.292,1.428,1.292,1.428s0.133,1.363-0.016,1.81c-0.147,0.446-0.578,1.095-0.828,1.492   c-0.249,0.396-0.287,2.308-0.287,2.308l0.254,0.096l0.38-0.759c0,0,0.202,1.44,0.51,1.521c0.307,0.079,1.037,0.063,1.546,0.116   s0.752-0.348,0.55-0.474c-0.203-0.127-0.222-0.138-0.532-0.329c-0.31-0.191-0.277-0.506-0.277-0.506l0.223-3.745l5.521,3.593   l0.498-0.206c0,0,0.183,0.384-0.02,0.562c-0.203,0.177-0.301,0.058-0.708,0.253c-0.247,0.119-0.146,0.361,0.354,0.479   c0.325,0.078,1.01,0.021,1.392,0s0.847-1.039,0.847-1.039l0.271-1.033c0,0,0.501,0.05,0.627-0.229   C30.418,31.759,30.974,31.076,30.899,30.824z M16.333,6.176c-0.102,0.079-1.214,0.079-1.214,0.079s-0.114-0.821,0-0.91   c0.114-0.09,0.266-0.177,0.405-0.24c0.139-0.062,0.43-1.441,0.43-1.441l0.725,1.54C16.676,5.203,16.434,6.097,16.333,6.176z"
       fill="#D80027"
       id="path3759" /></g><g
     id="g3763" /><g
     id="g3765" /><g
     id="g3767" /><g
     id="g3769" /><g
     id="g3771" /><g
     id="g3773" /><g
     id="g3775" /><g
     id="g3777" /><g
     id="g3779" /><g
     id="g3781" /><g
     id="g3783" /><g
     id="g3785" /><g
     id="g3787" /><g
     id="g3789" /><g
     id="g3791" /><g
     aria-label="Milonga La Yumba "
     style="font-style:normal;font-weight:normal;font-size:1.2237891px;line-height:125%;font-family:Sans;letter-spacing:0px;word-spacing:0px;fill:#424242;fill-opacity:1;stroke:none;stroke-width:0.06798828px;stroke-linecap:butt;stroke-linejoin:miter;stroke-opacity:1"
     id="text3827"><path
       d="m 14.058801,14.651378 0.126815,0.323789 1.309336,-0.512813 -1.130685,0.968954 0.103673,0.264703 1.487988,-0.05667 -1.309336,0.512813 0.126815,0.323789 1.746569,-0.684059 -0.174023,-0.444324 -1.505871,0.05277 1.139312,-0.988688 -0.174023,-0.444324 z"
       style="font-style:normal;font-variant:normal;font-weight:bold;font-stretch:normal;font-size:2.53822923px;font-family:'URW Gothic L';-inkscape-font-specification:'URW Gothic L';fill:#424242;fill-opacity:1;stroke-width:0.06798828px"
       id="path4663" /><path
       d="m 14.882398,16.73952 0.126602,0.312946 1.30355,-0.52735 -0.126602,-0.312946 z m 1.444728,-0.584463 0.126602,0.312946 0.294122,-0.118987 -0.126602,-0.312946 z"
       style="font-style:normal;font-variant:normal;font-weight:bold;font-stretch:normal;font-size:2.53822923px;font-family:'URW Gothic L';-inkscape-font-specification:'URW Gothic L';fill:#424242;fill-opacity:1;stroke-width:0.06798828px"
       id="path4665" /><path
       d="m 15.111488,17.303741 0.128531,0.312159 1.734476,-0.714169 -0.128532,-0.312159 z"
       style="font-style:normal;font-variant:normal;font-weight:bold;font-stretch:normal;font-size:2.53822923px;font-family:'URW Gothic L';-inkscape-font-specification:'URW Gothic L';fill:#424242;fill-opacity:1;stroke-width:0.06798828px"
       id="path4667" /><path
       d="m 16.933974,17.93099 c -0.160808,-0.375685 -0.598333,-0.552857 -0.969351,-0.394046 -0.373352,0.159809 -0.544858,0.59767 -0.383051,0.975689 0.160808,0.375685 0.597997,0.558522 0.962015,0.402708 0.385019,-0.164803 0.557188,-0.594664 0.390387,-0.984351 z m -0.283682,0.124188 c 0.08889,0.207678 -0.01653,0.451595 -0.231211,0.543486 -0.217011,0.09289 -0.463934,-2.09e-4 -0.551829,-0.205552 -0.08989,-0.210011 0.0142,-0.450597 0.235878,-0.545483 0.212344,-0.09089 0.460266,0.0045 0.547162,0.207549 z"
       style="font-style:normal;font-variant:normal;font-weight:bold;font-stretch:normal;font-size:2.53822923px;font-family:'URW Gothic L';-inkscape-font-specification:'URW Gothic L';fill:#424242;fill-opacity:1;stroke-width:0.06798828px"
       id="path4669" /><path
       d="m 15.984524,19.363386 0.140485,0.306965 0.602389,-0.275689 c 0.170792,-0.07817 0.24993,-0.100426 0.330202,-0.08971 0.09835,0.01361 0.17686,0.07538 0.221224,0.172314 0.03591,0.07847 0.03779,0.155771 0.0037,0.22161 -0.03638,0.06689 -0.122557,0.128666 -0.293349,0.206831 l -0.625469,0.286252 0.140485,0.306964 0.685477,-0.313715 c 0.228493,-0.104572 0.328714,-0.178353 0.39627,-0.293013 0.08199,-0.138015 0.08324,-0.306071 0.0019,-0.483787 -0.06655,-0.145404 -0.156874,-0.226887 -0.317108,-0.290334 l 0.122324,-0.05598 -0.129922,-0.283884 z"
       style="font-style:normal;font-variant:normal;font-weight:bold;font-stretch:normal;font-size:2.53822923px;font-family:'URW Gothic L';-inkscape-font-specification:'URW Gothic L';fill:#424242;fill-opacity:1;stroke-width:0.06798828px"
       id="path4671" /><path
       d="m 18.364498,21.096391 -0.159041,0.07921 c 0.08084,-0.156523 0.07428,-0.323398 -0.01625,-0.505159 -0.177665,-0.356706 -0.586118,-0.482201 -0.958728,-0.296615 -0.388514,0.193508 -0.538967,0.591707 -0.36017,0.950685 0.08827,0.177217 0.203911,0.267071 0.401348,0.316186 -0.276027,0.123303 -0.465516,0.07306 -0.577547,-0.151864 -0.07016,-0.140865 -0.07681,-0.245307 -0.02325,-0.382576 l -0.170875,-0.343073 c -0.201271,0.22785 -0.231262,0.537695 -0.07736,0.846689 0.113163,0.227201 0.282081,0.367083 0.490879,0.41054 0.160005,0.0309 0.33374,-0.0074 0.574573,-0.127382 l 1.020133,-0.508099 z m -0.435499,-0.253807 c 0.107504,0.215841 0.02429,0.441604 -0.205182,0.555898 -0.227201,0.113163 -0.448446,0.04471 -0.55595,-0.171128 -0.107505,-0.215841 -0.02885,-0.427989 0.20062,-0.542283 0.231745,-0.115426 0.455271,-0.05378 0.560512,0.157513 z"
       style="font-style:normal;font-variant:normal;font-weight:bold;font-stretch:normal;font-size:2.53822923px;font-family:'URW Gothic L';-inkscape-font-specification:'URW Gothic L';fill:#424242;fill-opacity:1;stroke-width:0.06798828px"
       id="path4673" /><path
       d="m 19.289622,22.808495 -0.150039,-0.270888 -0.164309,0.09101 c 0.07887,-0.177157 0.06896,-0.331254 -0.02942,-0.508886 -0.201691,-0.364144 -0.619919,-0.474882 -0.995165,-0.267041 -0.370805,0.205381 -0.495583,0.613975 -0.296351,0.973679 0.09593,0.17319 0.216616,0.260125 0.415021,0.304017 l -0.159869,0.08855 0.150039,0.270888 z M 18.69218,22.300852 c 0.116833,0.210938 0.04281,0.449242 -0.181446,0.573454 -0.08882,0.04919 -0.210631,0.07024 -0.302318,0.05138 -0.104257,-0.0206 -0.197107,-0.09394 -0.259828,-0.207176 -0.119293,-0.215378 -0.05515,-0.445313 0.160232,-0.564606 0.22426,-0.124213 0.466526,-0.06399 0.58336,0.146943 z"
       style="font-style:normal;font-variant:normal;font-weight:bold;font-stretch:normal;font-size:2.53822923px;font-family:'URW Gothic L';-inkscape-font-specification:'URW Gothic L';fill:#424242;fill-opacity:1;stroke-width:0.06798828px"
       id="path4675" /><path
       d="m 18.579156,24.340079 0.501027,0.773245 0.27905,-0.180811 -0.311934,-0.481414 1.295133,-0.839185 -0.189093,-0.291831 z"
       style="font-style:normal;font-variant:normal;font-weight:bold;font-stretch:normal;font-size:2.53822923px;font-family:'URW Gothic L';-inkscape-font-specification:'URW Gothic L';fill:#424242;fill-opacity:1;stroke-width:0.06798828px"
       id="path4677" /><path
       d="m 21.140555,25.569727 -0.182405,-0.25024 -0.151785,0.110639 c 0.05634,-0.185556 0.02744,-0.337242 -0.09217,-0.501334 -0.245201,-0.336388 -0.673917,-0.394523 -1.020561,-0.141847 -0.342541,0.249686 -0.415801,0.67058 -0.17359,1.002866 0.116619,0.15999 0.24714,0.231323 0.44945,0.250326 l -0.147682,0.107649 0.182405,0.25024 z m -0.655667,-0.429814 c 0.142037,0.19486 0.09807,0.440491 -0.109092,0.591499 -0.08205,0.05981 -0.20032,0.09576 -0.293635,0.0884 -0.106006,-0.0075 -0.207217,-0.06882 -0.283468,-0.173432 -0.145027,-0.198962 -0.109825,-0.435067 0.08914,-0.580094 0.207166,-0.151007 0.455022,-0.12123 0.597058,0.07363 z"
       style="font-style:normal;font-variant:normal;font-weight:bold;font-stretch:normal;font-size:2.53822923px;font-family:'URW Gothic L';-inkscape-font-specification:'URW Gothic L';fill:#424242;fill-opacity:1;stroke-width:0.06798828px"
       id="path4679" /><path
       d="m 20.936974,27.505595 0.232953,0.258175 0.514465,-0.464206 1.291365,-0.33445 -0.251657,-0.278904 -0.917889,0.27096 0.361862,-0.887187 -0.251657,-0.278904 -0.464977,1.25031 z"
       style="font-style:normal;font-variant:normal;font-weight:bold;font-stretch:normal;font-size:2.53822923px;font-family:'URW Gothic L';-inkscape-font-specification:'URW Gothic L';fill:#424242;fill-opacity:1;stroke-width:0.06798828px"
       id="path4681" /><path
       d="m 23.547446,28.150213 -0.244216,-0.233069 -0.457378,0.479252 c -0.127925,0.134044 -0.200193,0.191385 -0.27163,0.207416 -0.09097,0.02546 -0.192201,-0.0045 -0.27483,-0.08335 -0.06243,-0.05958 -0.0909,-0.125342 -0.08189,-0.200955 0.0072,-0.07736 0.06433,-0.166669 0.194006,-0.302549 l 0.474902,-0.497614 -0.244217,-0.23307 -0.520464,0.545356 c -0.164726,0.172605 -0.228643,0.280019 -0.252331,0.41881 -0.02494,0.162158 0.03442,0.320553 0.166623,0.446726 0.123027,0.117411 0.229939,0.159796 0.407617,0.157442 l -0.09288,0.09732 0.225855,0.215546 z"
       style="font-style:normal;font-variant:normal;font-weight:bold;font-stretch:normal;font-size:2.53822923px;font-family:'URW Gothic L';-inkscape-font-specification:'URW Gothic L';fill:#424242;fill-opacity:1;stroke-width:0.06798828px"
       id="path4683" /><path
       d="m 22.768873,29.360455 0.265229,0.208847 0.428686,-0.544417 c 0.08637,-0.109681 0.154436,-0.175615 0.2085,-0.207349 0.08844,-0.04667 0.189216,-0.03516 0.276961,0.03394 0.07179,0.05653 0.113198,0.131134 0.114547,0.203271 -0.0011,0.067 -0.03893,0.143803 -0.120583,0.247502 l -0.477364,0.606236 0.265229,0.208847 0.428685,-0.544416 c 0.09736,-0.123641 0.156007,-0.17761 0.224753,-0.207475 0.08729,-0.04111 0.184929,-0.02561 0.268686,0.04034 0.06581,0.05182 0.102803,0.119718 0.104152,0.191855 0.0029,0.07014 -0.0318,0.142955 -0.118165,0.252636 l -0.477364,0.606237 0.265229,0.208847 0.502488,-0.638144 c 0.105209,-0.133611 0.166074,-0.260141 0.177883,-0.373608 0.01814,-0.166635 -0.07121,-0.340368 -0.236725,-0.470701 -0.155547,-0.122482 -0.306056,-0.156998 -0.490011,-0.108009 0.01844,-0.179322 -0.03845,-0.308115 -0.190011,-0.427456 -0.129623,-0.102068 -0.237656,-0.128984 -0.389233,-0.0965 l 0.08165,-0.103699 -0.243292,-0.191573 z"
       style="font-style:normal;font-variant:normal;font-weight:bold;font-stretch:normal;font-size:2.53822923px;font-family:'URW Gothic L';-inkscape-font-specification:'URW Gothic L';fill:#424242;fill-opacity:1;stroke-width:0.06798828px"
       id="path4685" /><path
       d="m 24.661878,30.810926 0.260249,0.167817 0.09766,-0.151456 c 0.03768,0.20853 0.119104,0.330497 0.294025,0.443292 0.183454,0.118297 0.372528,0.143572 0.570731,0.07507 0.163874,-0.05742 0.30785,-0.172971 0.40964,-0.330827 0.229716,-0.356242 0.147053,-0.790089 -0.192124,-1.008801 -0.153589,-0.09904 -0.285626,-0.123777 -0.464571,-0.08514 l 0.324629,-0.503432 -0.283714,-0.182948 z m 1.231838,-0.570793 c 0.202653,0.130677 0.249428,0.381312 0.113249,0.592497 -0.138931,0.215452 -0.376009,0.273989 -0.578662,0.143312 -0.204785,-0.132053 -0.252178,-0.377046 -0.113248,-0.592498 0.137555,-0.213318 0.380275,-0.271237 0.578661,-0.143311 z"
       style="font-style:normal;font-variant:normal;font-weight:bold;font-stretch:normal;font-size:2.53822923px;font-family:'URW Gothic L';-inkscape-font-specification:'URW Gothic L';fill:#424242;fill-opacity:1;stroke-width:0.06798828px"
       id="path4688" /><path
       d="m 28.000904,31.161597 -0.271515,-0.148901 -0.09032,0.164689 c -0.02792,-0.1919 -0.118595,-0.316892 -0.296637,-0.414532 -0.364987,-0.200162 -0.777721,-0.07044 -0.983986,0.305674 -0.203824,0.371663 -0.09112,0.783751 0.269418,0.981472 0.173592,0.0952 0.322057,0.104248 0.513241,0.0354 l -0.08788,0.160239 0.271515,0.148901 z m -0.776213,-0.110142 c 0.211425,0.115948 0.276106,0.356954 0.152835,0.581733 -0.04882,0.08902 -0.140571,0.171867 -0.228158,0.20489 -0.09915,0.03826 -0.216812,0.02584 -0.330314,-0.0364 -0.215877,-0.118389 -0.284434,-0.347047 -0.166046,-0.562924 0.123271,-0.224778 0.360258,-0.303243 0.571683,-0.187295 z"
       style="font-style:normal;font-variant:normal;font-weight:bold;font-stretch:normal;font-size:2.53822923px;font-family:'URW Gothic L';-inkscape-font-specification:'URW Gothic L';fill:#424242;fill-opacity:1;stroke-width:0.06798828px"
       id="path4690" /></g><path
     style="fill:none;fill-rule:evenodd;stroke:none;stroke-width:0.06798828px;stroke-linecap:butt;stroke-linejoin:miter;stroke-opacity:1"
     d="m 13.997577,14.483331 c 3.196416,8.324989 5.970237,14.040451 13.103893,17.783854"
     id="path4687"
     inkscape:connector-curvature="0" /><g
     aria-label="http://tango.tips"
     style="font-style:normal;font-weight:normal;font-size:1.2237891px;line-height:125%;font-family:Sans;letter-spacing:0px;word-spacing:0px;fill:#d80027;fill-opacity:1;stroke:none;stroke-width:0.06798828;stroke-linecap:butt;stroke-linejoin:miter;stroke-miterlimit:4;stroke-dasharray:none;stroke-opacity:1"
     id="text4694"><path
       d="m 22.263793,13.108958 0.05932,0.332331 0.702143,-0.12534 c 0.13743,-0.02453 0.217121,-0.02587 0.285834,-0.002 0.09343,0.03231 0.156519,0.111291 0.176146,0.221235 0.03479,0.194901 -0.06677,0.290381 -0.356621,0.342123 l -0.70714,0.126232 0.05932,0.332331 0.782102,-0.139614 c 0.202397,-0.03613 0.31038,-0.08119 0.400784,-0.166943 0.125924,-0.117878 0.174837,-0.291624 0.1396,-0.489024 -0.02542,-0.142427 -0.08503,-0.245234 -0.192827,-0.329126 l 0.557216,-0.09947 -0.05932,-0.332331 z"
       style="font-style:normal;font-variant:normal;font-weight:bold;font-stretch:normal;font-size:2.53822923px;font-family:'URW Gothic L';-inkscape-font-specification:'URW Gothic L';fill:#d80027;fill-opacity:1;stroke-width:0.06798828;stroke-miterlimit:4;stroke-dasharray:none"
       id="path4585" /><path
       d="m 22.542547,14.653888 0.06241,0.331765 1.080106,-0.203197 0.03754,0.199557 0.301831,-0.05678 -0.03754,-0.199558 0.461477,-0.08682 -0.06241,-0.331765 -0.461477,0.08682 -0.0305,-0.16214 -0.301831,0.05678 0.0305,0.162141 z"
       style="font-style:normal;font-variant:normal;font-weight:bold;font-stretch:normal;font-size:2.53822923px;font-family:'URW Gothic L';-inkscape-font-specification:'URW Gothic L';fill:#d80027;fill-opacity:1;stroke-width:0.06798828;stroke-miterlimit:4;stroke-dasharray:none"
       id="path4587" /><path
       d="m 22.685074,15.403682 0.0653,0.331208 1.078295,-0.212599 0.03928,0.199223 0.301325,-0.05941 -0.03928,-0.199223 0.460703,-0.09083 -0.0653,-0.331209 -0.460703,0.09083 -0.03191,-0.161869 -0.301325,0.05941 0.03192,0.161869 z"
       style="font-style:normal;font-variant:normal;font-weight:bold;font-stretch:normal;font-size:2.53822923px;font-family:'URW Gothic L';-inkscape-font-specification:'URW Gothic L';fill:#d80027;fill-opacity:1;stroke-width:0.06798828;stroke-miterlimit:4;stroke-dasharray:none"
       id="path4589" /><path
       d="m 22.361543,16.203219 0.07145,0.329936 0.587931,-0.127326 c -0.08477,0.148212 -0.106448,0.287954 -0.06992,0.456643 0.08596,0.396916 0.456426,0.620542 0.873187,0.530286 0.41428,-0.08972 0.652128,-0.442489 0.566169,-0.839405 -0.04029,-0.186054 -0.144137,-0.329777 -0.291274,-0.409586 l 0.161247,-0.03492 -0.06554,-0.302648 z m 1.717043,0.373505 c 0.04835,0.223265 -0.09567,0.433654 -0.333821,0.485229 -0.233187,0.0505 -0.45135,-0.08145 -0.498627,-0.299754 -0.0505,-0.233188 0.09051,-0.44552 0.331135,-0.497632 0.235668,-0.05104 0.451887,0.08393 0.501313,0.312157 z"
       style="font-style:normal;font-variant:normal;font-weight:bold;font-stretch:normal;font-size:2.53822923px;font-family:'URW Gothic L';-inkscape-font-specification:'URW Gothic L';fill:#d80027;fill-opacity:1;stroke-width:0.06798828;stroke-miterlimit:4;stroke-dasharray:none"
       id="path4591" /><path
       d="m 23.193531,17.784298 0.07908,0.328192 0.315854,-0.07611 -0.07908,-0.328192 z m 0.910548,-0.219396 0.07908,0.328192 0.328192,-0.07908 -0.07908,-0.328192 z"
       style="font-style:normal;font-variant:normal;font-weight:bold;font-stretch:normal;font-size:2.53822923px;font-family:'URW Gothic L';-inkscape-font-specification:'URW Gothic L';fill:#d80027;fill-opacity:1;stroke-width:0.06798828;stroke-miterlimit:4;stroke-dasharray:none"
       id="path4593" /><path
       d="m 23.01651,18.443234 0.06126,0.230595 2.337371,0.227348 -0.06126,-0.230595 z"
       style="font-style:normal;font-variant:normal;font-weight:bold;font-stretch:normal;font-size:2.53822923px;font-family:'URW Gothic L';-inkscape-font-specification:'URW Gothic L';fill:#d80027;fill-opacity:1;stroke-width:0.06798828;stroke-miterlimit:4;stroke-dasharray:none"
       id="path4595" /><path
       d="m 23.321341,19.585013 0.06926,0.228319 2.343876,0.145721 -0.06926,-0.228319 z"
       style="font-style:normal;font-variant:normal;font-weight:bold;font-stretch:normal;font-size:2.53822923px;font-family:'URW Gothic L';-inkscape-font-specification:'URW Gothic L';fill:#d80027;fill-opacity:1;stroke-width:0.06798828;stroke-miterlimit:4;stroke-dasharray:none"
       id="path4597" /><path
       d="m 24.016108,20.724179 0.109008,0.319501 1.040179,-0.354889 0.06557,0.192181 0.290673,-0.09917 -0.06557,-0.192181 0.444418,-0.151626 -0.109007,-0.319501 -0.444418,0.151627 -0.05327,-0.156147 -0.290674,0.09917 0.05327,0.156147 z"
       style="font-style:normal;font-variant:normal;font-weight:bold;font-stretch:normal;font-size:2.53822923px;font-family:'URW Gothic L';-inkscape-font-specification:'URW Gothic L';fill:#d80027;fill-opacity:1;stroke-width:0.06798828;stroke-miterlimit:4;stroke-dasharray:none"
       id="path4599" /><path
       d="m 26.075207,22.20029 -0.115104,-0.287477 -0.174371,0.06982 c 0.100339,-0.165945 0.109714,-0.320075 0.03424,-0.508585 -0.154729,-0.386444 -0.555892,-0.548449 -0.954118,-0.389003 -0.393513,0.15756 -0.568248,0.547415 -0.415406,0.929147 0.07359,0.183796 0.182504,0.285097 0.37389,0.353376 l -0.169659,0.06793 0.115104,0.287477 z M 25.5457,21.622138 c 0.08963,0.223855 -0.01352,0.451074 -0.25151,0.546364 -0.09426,0.03774 -0.217743,0.04344 -0.306365,0.0133 -0.100877,-0.03343 -0.183861,-0.117772 -0.231978,-0.237947 -0.09152,-0.228567 7.91e-4,-0.448713 0.229359,-0.54023 0.237993,-0.09529 0.470864,-0.0053 0.560494,0.218512 z"
       style="font-style:normal;font-variant:normal;font-weight:bold;font-stretch:normal;font-size:2.53822923px;font-family:'URW Gothic L';-inkscape-font-specification:'URW Gothic L';fill:#d80027;fill-opacity:1;stroke-width:0.06798828;stroke-miterlimit:4;stroke-dasharray:none"
       id="path4601" /><path
       d="m 24.873538,22.952458 0.150658,0.302101 0.592846,-0.295652 c 0.168087,-0.08382 0.246437,-0.108716 0.327023,-0.100686 0.09875,0.01032 0.179278,0.06943 0.226854,0.16483 0.03851,0.07723 0.04297,0.154423 0.01112,0.221363 -0.03412,0.06807 -0.118192,0.132687 -0.286278,0.216512 l -0.615561,0.306979 0.150658,0.302102 0.674618,-0.336432 c 0.224873,-0.112143 0.322574,-0.189231 0.386263,-0.306083 0.07734,-0.140676 0.07297,-0.30868 -0.01425,-0.483581 -0.07136,-0.1431 -0.164363,-0.221521 -0.326627,-0.279582 l 0.120387,-0.06004 -0.13933,-0.279387 z"
       style="font-style:normal;font-variant:normal;font-weight:bold;font-stretch:normal;font-size:2.53822923px;font-family:'URW Gothic L';-inkscape-font-specification:'URW Gothic L';fill:#d80027;fill-opacity:1;stroke-width:0.06798828;stroke-miterlimit:4;stroke-dasharray:none"
       id="path4603" /><path
       d="m 27.330426,24.488539 -0.150451,0.09452 c 0.065,-0.163734 0.04202,-0.329148 -0.066,-0.501093 -0.211985,-0.337441 -0.630826,-0.422033 -0.983312,-0.200596 -0.367531,0.230887 -0.47797,0.641985 -0.264635,0.981575 0.105317,0.167646 0.229261,0.245654 0.430581,0.275055 -0.262519,0.14993 -0.45604,0.118628 -0.589712,-0.09415 -0.08371,-0.133257 -0.100633,-0.236534 -0.06087,-0.378417 l -0.203884,-0.324545 c -0.177813,0.246594 -0.177095,0.557886 0.0065,0.850191 0.135022,0.214931 0.316915,0.337468 0.528981,0.360117 0.162273,0.01496 0.331379,-0.04031 0.559205,-0.183439 l 0.965038,-0.606249 z m -0.458411,-0.20961 c 0.128271,0.204184 0.06773,0.437054 -0.149346,0.573426 -0.214931,0.135022 -0.441849,0.08873 -0.57012,-0.115453 -0.128271,-0.204184 -0.07093,-0.423056 0.14615,-0.559428 0.219229,-0.137723 0.447745,-0.09843 0.573316,0.101455 z"
       style="font-style:normal;font-variant:normal;font-weight:bold;font-stretch:normal;font-size:2.53822923px;font-family:'URW Gothic L';-inkscape-font-specification:'URW Gothic L';fill:#d80027;fill-opacity:1;stroke-width:0.06798828;stroke-miterlimit:4;stroke-dasharray:none"
       id="path4605" /><path
       d="m 28.013143,25.355182 c -0.255918,-0.318599 -0.724971,-0.371579 -1.039612,-0.11884 -0.316619,0.254328 -0.364052,0.72218 -0.106545,1.042758 0.255918,0.318598 0.726171,0.377126 1.034875,0.129156 0.326514,-0.262276 0.376737,-0.722603 0.111282,-1.053074 z m -0.239833,0.195904 c 0.14147,0.176119 0.105523,0.439404 -0.07653,0.585643 -0.184035,0.147828 -0.446899,0.124565 -0.586779,-0.04957 -0.14306,-0.178099 -0.107502,-0.437815 0.08049,-0.588822 0.180077,-0.14465 0.44453,-0.119408 0.582821,0.05275 z"
       style="font-style:normal;font-variant:normal;font-weight:bold;font-stretch:normal;font-size:2.53822923px;font-family:'URW Gothic L';-inkscape-font-specification:'URW Gothic L';fill:#d80027;fill-opacity:1;stroke-width:0.06798828;stroke-miterlimit:4;stroke-dasharray:none"
       id="path4607" /><path
       d="m 27.537649,27.004583 0.233609,0.243701 0.234539,-0.224826 -0.233608,-0.243702 z"
       style="font-style:normal;font-variant:normal;font-weight:bold;font-stretch:normal;font-size:2.53822923px;font-family:'URW Gothic L';-inkscape-font-specification:'URW Gothic L';fill:#d80027;fill-opacity:1;stroke-width:0.06798828;stroke-miterlimit:4;stroke-dasharray:none"
       id="path4609" /><path
       d="m 28.038645,27.513076 0.246952,0.23017 0.749349,-0.803987 0.148543,0.138448 0.209402,-0.224671 -0.148543,-0.138447 0.320161,-0.343505 -0.246952,-0.23017 -0.320161,0.343505 -0.12069,-0.112489 -0.209403,0.224671 0.120691,0.112489 z"
       style="font-style:normal;font-variant:normal;font-weight:bold;font-stretch:normal;font-size:2.53822923px;font-family:'URW Gothic L';-inkscape-font-specification:'URW Gothic L';fill:#d80027;fill-opacity:1;stroke-width:0.06798828;stroke-miterlimit:4;stroke-dasharray:none"
       id="path4611" /><path
       d="m 28.566288,27.992249 0.258653,0.216938 0.903637,-1.077394 -0.258653,-0.216938 z m 1.001504,-1.19408 0.258653,0.216939 0.203889,-0.243095 -0.258652,-0.216938 z"
       style="font-style:normal;font-variant:normal;font-weight:bold;font-stretch:normal;font-size:2.53822923px;font-family:'URW Gothic L';-inkscape-font-specification:'URW Gothic L';fill:#d80027;fill-opacity:1;stroke-width:0.06798828;stroke-miterlimit:4;stroke-dasharray:none"
       id="path4613" /><path
       d="m 28.757272,28.776592 0.27606,0.194303 0.34624,-0.491928 c 0.03804,0.166451 0.116756,0.283932 0.2579,0.383275 0.332103,0.233748 0.756108,0.147297 1.001544,-0.201411 0.243975,-0.346633 0.179972,-0.767253 -0.152131,-1.001002 -0.155673,-0.109569 -0.32942,-0.144951 -0.491719,-0.103988 l 0.09496,-0.134917 -0.253229,-0.178233 z m 1.516094,-0.88837 c 0.186808,0.131484 0.22338,0.38381 0.08313,0.583071 -0.137327,0.195111 -0.387195,0.245829 -0.569851,0.117267 -0.195111,-0.137327 -0.235219,-0.389038 -0.09351,-0.590376 0.138788,-0.197186 0.38927,-0.244367 0.580229,-0.109962 z"
       style="font-style:normal;font-variant:normal;font-weight:bold;font-stretch:normal;font-size:2.53822923px;font-family:'URW Gothic L';-inkscape-font-specification:'URW Gothic L';fill:#d80027;fill-opacity:1;stroke-width:0.06798828;stroke-miterlimit:4;stroke-dasharray:none"
       id="path4615" /><path
       d="m 30.557267,28.901293 c -0.05435,0.126745 -0.06953,0.199837 -0.05851,0.293619 0.0194,0.151053 0.122203,0.293954 0.270142,0.377829 0.245093,0.138956 0.541097,0.0646 0.673794,-0.169452 0.06009,-0.105986 0.07042,-0.216841 0.02915,-0.319022 -0.02384,-0.06603 -0.07918,-0.138257 -0.166383,-0.231467 -0.09795,-0.105138 -0.09795,-0.105138 -0.119146,-0.13466 -0.02973,-0.0402 -0.03333,-0.08017 -0.0133,-0.115498 0.0338,-0.05962 0.107414,-0.07624 0.171447,-0.03993 0.06183,0.03505 0.08279,0.09071 0.05974,0.162251 l 0.287045,0.162742 c 0.05442,-0.106282 0.06518,-0.181878 0.04312,-0.281919 -0.02846,-0.129929 -0.115736,-0.243603 -0.237178,-0.312455 -0.227429,-0.128942 -0.498918,-0.06695 -0.617845,0.142817 -0.101401,0.178851 -0.06183,0.335503 0.134733,0.554905 0.09133,0.101382 0.09766,0.110805 0.117303,0.148204 0.02281,0.04211 0.0239,0.0865 0.0014,0.126242 -0.03881,0.06845 -0.125009,0.08669 -0.200083,0.04412 -0.08611,-0.04882 -0.109653,-0.120525 -0.07952,-0.240577 z"
       style="font-style:normal;font-variant:normal;font-weight:bold;font-stretch:normal;font-size:2.53822923px;font-family:'URW Gothic L';-inkscape-font-specification:'URW Gothic L';fill:#d80027;fill-opacity:1;stroke-width:0.06798828;stroke-miterlimit:4;stroke-dasharray:none"
       id="path4617" /></g><path
     style="fill:none;fill-rule:evenodd;stroke:none;stroke-width:0.06798828;stroke-linecap:butt;stroke-linejoin:miter;stroke-opacity:1;stroke-miterlimit:4;stroke-dasharray:none"
     d="m 22.24096,12.970179 c 1.294582,7.443838 2.75577,13.639222 9.137068,16.892432"
     id="path4703"
     inkscape:connector-curvature="0" /><path
     style="fill:none;fill-rule:evenodd;stroke:none;stroke-width:0.06798828;stroke-linecap:butt;stroke-linejoin:miter;stroke-opacity:1;stroke-miterlimit:4;stroke-dasharray:none"
     d="M 1.5154161,34.324245 C 11.055168,27.80982 5.8703641,14.129195 11.588476,5.1301989"
     id="path4801"
     inkscape:connector-curvature="0" /><path
     style="fill:none;fill-rule:evenodd;stroke:none;stroke-width:0.06798828px;stroke-linecap:butt;stroke-linejoin:miter;stroke-opacity:1"
     d="M 20.948399,2.4514084 C 25.440121,3.701464 25.804414,6.0374709 27.188348,10.4742"
     id="path4827"
     inkscape:connector-curvature="0" /><g
     aria-label="4th Saturday of the Month"
     style="font-style:normal;font-variant:normal;font-weight:normal;font-stretch:normal;font-size:1.2237891px;line-height:125%;font-family:'URW Gothic L';-inkscape-font-specification:'URW Gothic L';letter-spacing:0px;word-spacing:0px;fill:#d80027;fill-opacity:1;stroke:none;stroke-width:0.06798828px;stroke-linecap:butt;stroke-linejoin:miter;stroke-opacity:1"
     id="text4580"><path
       d="M 3.102475,32.157662 3.2948246,32.352977 3.8717293,31.784834 4.0694219,31.985575 4.3099495,31.7487 4.1122569,31.547959 4.2533183,31.40904 4.0413775,31.193831 3.9003162,31.33275 2.9937798,30.412234 2.7912302,30.611708 Z m 0.5573135,-0.588037 -0.33276,0.327707 -0.1748291,-0.843124 z"
       style="font-style:normal;font-variant:normal;font-weight:bold;font-stretch:normal;font-size:2.53822923px;font-family:'URW Gothic L';-inkscape-font-specification:'URW Gothic L';fill:#d80027;fill-opacity:1;stroke-width:0.06798828px"
       id="path4620" /><path
       d="M 4.6146788,31.398971 4.8304954,31.139382 3.9853674,30.43676 4.1151819,30.280617 3.8790145,30.084272 3.7491999,30.240416 3.3881175,29.94022 l -0.2158167,0.259589 0.3610825,0.300196 -0.1054744,0.126867 0.2361675,0.196344 0.1054743,-0.126867 z"
       style="font-style:normal;font-variant:normal;font-weight:bold;font-stretch:normal;font-size:2.53822923px;font-family:'URW Gothic L';-inkscape-font-specification:'URW Gothic L';fill:#d80027;fill-opacity:1;stroke-width:0.06798828px"
       id="path4622" /><path
       d="M 5.074229,30.852759 5.2633027,30.573091 4.6724243,30.173619 C 4.556772,30.095431 4.4986941,30.040847 4.4660274,29.975868 c -0.044484,-0.08829 -0.03468,-0.188895 0.027871,-0.281416 0.1108853,-0.164017 0.250261,-0.161706 0.4941823,0.0032 l 0.5950839,0.402314 0.1890737,-0.279668 -0.658167,-0.444963 C 4.9437465,29.260186 4.8349058,29.217241 4.7103088,29.21573 c -0.1724573,-0.0032 -0.328626,0.08728 -0.4409329,0.253397 -0.081032,0.119858 -0.109938,0.235126 -0.091102,0.370415 L 3.7093556,29.522523 3.5202819,29.802192 Z"
       style="font-style:normal;font-variant:normal;font-weight:bold;font-stretch:normal;font-size:2.53822923px;font-family:'URW Gothic L';-inkscape-font-specification:'URW Gothic L';fill:#d80027;fill-opacity:1;stroke-width:0.06798828px"
       id="path4624" /><path
       d="m 5.7134639,28.822361 c 0.1390698,0.04994 0.2381837,0.05917 0.3599267,0.0313 0.1780952,-0.04107 0.3315709,-0.174467 0.4142345,-0.354366 0.140952,-0.30675 0.012552,-0.653467 -0.2965051,-0.795479 -0.1406901,-0.06465 -0.2873041,-0.06777 -0.4251308,-0.01099 -0.093007,0.03827 -0.1484246,0.07985 -0.2870021,0.217294 -0.1341515,0.133893 -0.1385775,0.137446 -0.1630138,0.154151 -0.067823,0.04426 -0.1357071,0.05217 -0.1979797,0.02356 -0.1014814,-0.04663 -0.1401261,-0.150982 -0.092436,-0.25477 0.04875,-0.106094 0.1430035,-0.140999 0.2625623,-0.09723 l 0.1504901,-0.327508 c -0.1323374,-0.05243 -0.2337577,-0.06272 -0.3508879,-0.03274 -0.1577113,0.03927 -0.2924233,0.156141 -0.3655487,0.315283 -0.126115,0.27446 -0.01336,0.594435 0.256488,0.71843 0.2144946,0.09856 0.436537,0.04695 0.6267928,-0.142167 0.1902557,-0.189121 0.2035336,-0.19978 0.2671175,-0.23481 0.064831,-0.03167 0.1375142,-0.03179 0.2090124,0.0011 0.1222389,0.05617 0.1641241,0.189944 0.1015965,0.326021 -0.064647,0.14069 -0.168812,0.185007 -0.3181672,0.133139 z"
       style="font-style:normal;font-variant:normal;font-weight:bold;font-stretch:normal;font-size:2.53822923px;font-family:'URW Gothic L';-inkscape-font-specification:'URW Gothic L';fill:#d80027;fill-opacity:1;stroke-width:0.06798828px"
       id="path4626" /><path
       d="m 5.9293895,25.943099 -0.102286,0.292283 0.1772863,0.06204 c -0.1847083,0.05906 -0.2931107,0.16903 -0.3601835,0.360691 -0.1374994,0.392905 0.058247,0.77873 0.4631307,0.920421 0.4000923,0.140015 0.7880735,-0.03884 0.923896,-0.426955 0.065396,-0.18687 0.049938,-0.334805 -0.049372,-0.512085 l 0.1724949,0.06036 0.1022861,-0.292283 z m 0.018838,0.783762 c 0.079649,-0.227598 0.30676,-0.330982 0.5487319,-0.246303 0.09583,0.03354 0.192621,0.110436 0.2395805,0.19141 0.054027,0.09151 0.061099,0.209623 0.01834,0.331807 -0.081326,0.232389 -0.2956196,0.33757 -0.5280085,0.256244 C 5.9848993,27.17534 5.868578,26.954458 5.948227,26.726861 Z"
       style="font-style:normal;font-variant:normal;font-weight:bold;font-stretch:normal;font-size:2.53822923px;font-family:'URW Gothic L';-inkscape-font-specification:'URW Gothic L';fill:#d80027;fill-opacity:1;stroke-width:0.06798828px"
       id="path4628" /><path
       d="m 7.3293388,26.112644 0.090571,-0.325208 -1.0587596,-0.294866 0.054479,-0.195614 -0.2958658,-0.0824 -0.054479,0.195614 -0.4523569,-0.125983 -0.090571,0.325208 0.4523568,0.125982 -0.044264,0.158937 0.2958659,0.0824 0.044264,-0.158936 z"
       style="font-style:normal;font-variant:normal;font-weight:bold;font-stretch:normal;font-size:2.53822923px;font-family:'URW Gothic L';-inkscape-font-specification:'URW Gothic L';fill:#d80027;fill-opacity:1;stroke-width:0.06798828px"
       id="path4630" /><path
       d="m 6.4245153,23.897118 -0.074072,0.329358 0.6463339,0.14536 c 0.1807754,0.04066 0.2671403,0.07309 0.3176624,0.126075 0.068662,0.06487 0.095107,0.167081 0.070045,0.278518 -0.018936,0.0842 -0.060656,0.142456 -0.1301138,0.173664 -0.070015,0.03369 -0.1760016,0.03066 -0.3592533,-0.01055 l -0.6710977,-0.150928 -0.074072,0.329357 0.7354835,0.165409 c 0.2327793,0.05235 0.3577715,0.05184 0.4889497,6.96e-4 0.1518544,-0.06211 0.2570851,-0.19454 0.2971842,-0.372839 0.037314,-0.165918 0.018607,-0.279393 -0.074889,-0.430502 l 0.1312479,0.02952 0.068503,-0.304594 z"
       style="font-style:normal;font-variant:normal;font-weight:bold;font-stretch:normal;font-size:2.53822923px;font-family:'URW Gothic L';-inkscape-font-specification:'URW Gothic L';fill:#d80027;fill-opacity:1;stroke-width:0.06798828px"
       id="path4632" /><path
       d="M 7.8410838,23.938569 7.9006057,23.606274 7.1310789,23.468433 C 6.916211,23.429945 6.8262308,23.313261 6.8570366,23.112489 l -0.3198034,-0.05728 -0.00448,0.02499 c -0.025509,0.142412 0.00194,0.21953 0.113693,0.3298 l -0.134917,-0.02417 -0.054599,0.304813 z"
       style="font-style:normal;font-variant:normal;font-weight:bold;font-stretch:normal;font-size:2.53822923px;font-family:'URW Gothic L';-inkscape-font-specification:'URW Gothic L';fill:#d80027;fill-opacity:1;stroke-width:0.06798828px"
       id="path4634" /><path
       d="m 6.3259914,21.472137 -0.046953,0.334304 0.5881728,0.08261 c -0.1218511,0.08285 -0.2097974,0.234538 -0.2345093,0.410487 -0.054719,0.389601 0.2289741,0.742149 0.646225,0.800752 0.4122236,0.0579 0.774162,-0.20141 0.8295872,-0.596039 0.026477,-0.188517 -0.016945,-0.335588 -0.1490485,-0.489988 l 0.1809763,0.02542 0.043069,-0.306655 z m 0.6200727,0.822711 c 0.032832,-0.233761 0.2464134,-0.385747 0.4902286,-0.351503 0.2413017,0.03389 0.4047537,0.23883 0.3729812,0.46505 -0.032832,0.233761 -0.2517935,0.387554 -0.4981223,0.352958 -0.2362746,-0.03318 -0.397213,-0.237772 -0.3650875,-0.466505 z"
       style="font-style:normal;font-variant:normal;font-weight:bold;font-stretch:normal;font-size:2.53822923px;font-family:'URW Gothic L';-inkscape-font-specification:'URW Gothic L';fill:#d80027;fill-opacity:1;stroke-width:0.06798828px"
       id="path4636" /><path
       d="m 6.9539445,19.920428 -0.030853,0.308123 0.1868943,0.01872 c -0.1656947,0.100751 -0.2452694,0.233083 -0.265501,0.435131 -0.041475,0.414199 0.2393326,0.743325 0.6661589,0.786064 0.421775,0.04223 0.7569612,-0.222661 0.7979301,-0.631808 0.019726,-0.196997 -0.030011,-0.337176 -0.1681434,-0.486207 l 0.1818431,0.01821 0.030853,-0.308123 z m 0.2022039,0.757464 c 0.024025,-0.239932 0.2205393,-0.393717 0.4756248,-0.368175 0.101024,0.01012 0.2131552,0.06216 0.2778026,0.129854 0.073991,0.07628 0.1085773,0.189437 0.09568,0.318242 C 7.9807248,21.002796 7.7970913,21.15532 7.5521082,21.13079 7.2970226,21.105247 7.1321234,20.917824 7.1561484,20.677892 Z"
       style="font-style:normal;font-variant:normal;font-weight:bold;font-stretch:normal;font-size:2.53822923px;font-family:'URW Gothic L';-inkscape-font-specification:'URW Gothic L';fill:#d80027;fill-opacity:1;stroke-width:0.06798828px"
       id="path4638" /><path
       d="m 8.8489976,19.715455 0.026464,-0.362 -1.8115386,-0.946834 -0.028315,0.387315 0.8840005,0.405656 -0.9315619,0.244933 -0.02813,0.384784 1.3083678,-0.420987 z"
       style="font-style:normal;font-variant:normal;font-weight:bold;font-stretch:normal;font-size:2.53822923px;font-family:'URW Gothic L';-inkscape-font-specification:'URW Gothic L';fill:#d80027;fill-opacity:1;stroke-width:0.06798828px"
       id="path4640" /><path
       d="m 7.1130081,16.87893 c -0.020544,0.408138 0.2947,0.759477 0.6977681,0.779765 0.4056032,0.02042 0.7519993,-0.297617 0.7726709,-0.708291 C 8.6039912,16.542266 8.2915373,16.185985 7.8960743,16.166079 7.477796,16.145025 7.1343177,16.455582 7.1130081,16.87893 Z m 0.3094,0.01303 c 0.011357,-0.225616 0.2132055,-0.39844 0.4464273,-0.386701 0.2357569,0.01187 0.4166959,0.203959 0.4054669,0.427041 -0.011484,0.228152 -0.2106705,0.398568 -0.4514974,0.386446 -0.2306868,-0.01161 -0.4114983,-0.206239 -0.4003968,-0.426786 z"
       style="font-style:normal;font-variant:normal;font-weight:bold;font-stretch:normal;font-size:2.53822923px;font-family:'URW Gothic L';-inkscape-font-specification:'URW Gothic L';fill:#d80027;fill-opacity:1;stroke-width:0.06798828px"
       id="path4642" /><path
       d="m 8.5955985,15.998576 0.015143,-0.337245 -1.0979471,-0.0493 0.00854,-0.190176 -0.2814599,-0.01264 -0.00854,0.190176 c -0.1266699,-0.0082 -0.1678408,-0.05327 -0.1619204,-0.185126 l 0.00148,-0.03296 -0.319495,-0.01435 c -0.00689,0.04034 -0.0078,0.06063 -0.00883,0.08345 -0.00649,0.144533 0.041295,0.268636 0.1413862,0.359517 0.078068,0.07211 0.1580705,0.101107 0.3322351,0.126713 l -0.00547,0.121712 0.2814599,0.01264 0.00547,-0.121713 z"
       style="font-style:normal;font-variant:normal;font-weight:bold;font-stretch:normal;font-size:2.53822923px;font-family:'URW Gothic L';-inkscape-font-specification:'URW Gothic L';fill:#d80027;fill-opacity:1;stroke-width:0.06798828px"
       id="path4644" /><path
       d="m 8.6600532,14.539325 0.015047,-0.337249 -1.0979609,-0.04899 0.00905,-0.202856 -0.3068204,-0.01369 -0.00905,0.202857 -0.4691056,-0.02093 -0.015047,0.337249 0.4691057,0.02093 -0.00735,0.16482 0.3068205,0.01369 0.00735,-0.164821 z"
       style="font-style:normal;font-variant:normal;font-weight:bold;font-stretch:normal;font-size:2.53822923px;font-family:'URW Gothic L';-inkscape-font-specification:'URW Gothic L';fill:#d80027;fill-opacity:1;stroke-width:0.06798828px"
       id="path4646" /><path
       d="m 8.6908366,13.8291 0.016676,-0.337173 -0.7123717,-0.03523 c -0.1394321,-0.0069 -0.2173943,-0.02346 -0.2790171,-0.06208 -0.083812,-0.05243 -0.1275912,-0.143542 -0.1220742,-0.255088 0.00978,-0.19774 0.1301575,-0.268027 0.4242326,-0.253482 l 0.717442,0.03548 0.016676,-0.337172 -0.7934958,-0.03925 c -0.2053456,-0.01016 -0.3206803,0.0096 -0.428006,0.07286 -0.1491417,0.08665 -0.2357553,0.245014 -0.2456607,0.445289 -0.00715,0.144503 0.027898,0.258055 0.1141475,0.363974 l -0.5653341,-0.02796 -0.016676,0.337172 z"
       style="font-style:normal;font-variant:normal;font-weight:bold;font-stretch:normal;font-size:2.53822923px;font-family:'URW Gothic L';-inkscape-font-specification:'URW Gothic L';fill:#d80027;fill-opacity:1;stroke-width:0.06798828px"
       id="path4648" /><path
       d="m 8.3015731,10.882514 c -0.047489,-0.01318 -0.077727,-0.01763 -0.1283904,-0.02084 -0.4357048,-0.02756 -0.7742706,0.258768 -0.8007069,0.676741 -0.026116,0.412906 0.2799942,0.760353 0.6929005,0.786469 0.4103731,0.02596 0.7505411,-0.285702 0.7776183,-0.713807 0.01458,-0.230518 -0.057639,-0.41566 -0.2180682,-0.573319 -0.062498,-0.05736 -0.1185175,-0.09651 -0.1880042,-0.123796 l -0.023232,0.367309 c 0.095879,0.09254 0.1285895,0.178535 0.1197773,0.317859 -0.012657,0.20012 -0.1283432,0.340314 -0.3006289,0.37011 z m -0.365756,1.078116 c -0.1764903,-0.06457 -0.2666319,-0.207612 -0.2539745,-0.407732 0.013138,-0.20772 0.1205835,-0.338262 0.3031622,-0.36995 z"
       style="font-style:normal;font-variant:normal;font-weight:bold;font-stretch:normal;font-size:2.53822923px;font-family:'URW Gothic L';-inkscape-font-specification:'URW Gothic L';fill:#d80027;fill-opacity:1;stroke-width:0.06798828px"
       id="path4650" /><path
       d="M 8.9233048,9.9434388 8.9612024,9.5977726 7.5633992,9.4445224 9.014591,9.1108123 9.045573,8.8282239 7.7011584,8.1880134 9.0989616,8.3412636 9.1368592,7.9955975 7.2722806,7.7911717 7.2202751,8.2655165 8.5787218,8.9174792 7.1107316,9.2646682 7.0587262,9.739013 Z"
       style="font-style:normal;font-variant:normal;font-weight:bold;font-stretch:normal;font-size:2.53822923px;font-family:'URW Gothic L';-inkscape-font-specification:'URW Gothic L';fill:#d80027;fill-opacity:1;stroke-width:0.06798828px"
       id="path4652" /><path
       d="M 7.8716856,6.7988889 C 7.8048546,7.202042 8.0780929,7.5869555 8.476238,7.6529563 8.8768871,7.7193722 9.2572075,7.4427996 9.3244536,7.0371424 9.3912846,6.6339893 9.1213805,6.2444828 8.7307476,6.1797273 8.3175783,6.1112359 7.9410072,6.3807114 7.8716856,6.7988889 Z m 0.30591,0.048138 C 8.2145394,6.6241659 8.4347349,6.4754214 8.6651081,6.5136105 8.8979854,6.5522147 9.0559025,6.7636392 9.0193738,6.9839962 8.9820148,7.2093613 8.7647385,7.3560169 8.5268532,7.3165825 8.298984,7.2788085 8.141482,7.0648799 8.1775956,6.8470269 Z"
       style="font-style:normal;font-variant:normal;font-weight:bold;font-stretch:normal;font-size:2.53822923px;font-family:'URW Gothic L';-inkscape-font-specification:'URW Gothic L';fill:#d80027;fill-opacity:1;stroke-width:0.06798828px"
       id="path4654" /><path
       d="M 9.4523949,6.1044994 9.5282876,5.7755562 8.8827676,5.6266239 C 8.6997466,5.5843979 8.6234555,5.5537717 8.5663782,5.4963195 8.4967438,5.4255506 8.4721969,5.3287154 8.4961631,5.2248387 8.5155642,5.1407479 8.5612207,5.0783442 8.6283768,5.0469499 8.6980061,5.0161262 8.8039746,5.0197357 8.9869956,5.0619617 L 9.6572482,5.2166003 9.7331409,4.8876571 8.9985837,4.7181824 C 8.7537313,4.6616908 8.6293088,4.6590335 8.5058401,4.7086945 8.3566883,4.7680594 8.2531998,4.9004773 8.2092619,5.0909181 8.1733127,5.2467333 8.1951972,5.3663984 8.2834798,5.5144072 L 8.1523972,5.4841642 8.0822107,5.7883748 Z"
       style="font-style:normal;font-variant:normal;font-weight:bold;font-stretch:normal;font-size:2.53822923px;font-family:'URW Gothic L';-inkscape-font-specification:'URW Gothic L';fill:#d80027;fill-opacity:1;stroke-width:0.06798828px"
       id="path4656" /><path
       d="M 9.8251427,4.577216 9.9196647,4.2531344 8.8645719,3.945405 8.9214272,3.7504687 8.6265861,3.6644751 8.5697308,3.8594114 8.1189406,3.7279335 8.0244186,4.0520151 8.4752088,4.183493 8.4290139,4.3418787 8.723855,4.4278724 8.77005,4.2694867 Z"
       style="font-style:normal;font-variant:normal;font-weight:bold;font-stretch:normal;font-size:2.53822923px;font-family:'URW Gothic L';-inkscape-font-specification:'URW Gothic L';fill:#d80027;fill-opacity:1;stroke-width:0.06798828px"
       id="path4658" /><path
       d="M 10.019645,3.8903084 10.136773,3.5736943 9.4678363,3.3262296 C 9.3369056,3.2777935 9.2675117,3.2385903 9.220327,3.1832461 9.1561205,3.1080731 9.141713,3.0080212 9.1804619,2.9032767 9.2491532,2.7175932 9.3850785,2.6866868 9.6612231,2.788843 L 10.334921,3.0380691 10.452048,2.721455 9.7069338,2.4458093 C 9.5141087,2.374476 9.3981771,2.358652 9.2767965,2.3868201 9.1085204,2.4247032 8.9783611,2.5497585 8.9087892,2.7378224 8.8585917,2.8735142 8.8579317,2.9923492 8.9084054,3.1192751 L 8.3775413,2.9228885 8.2604139,3.2395026 Z"
       style="font-style:normal;font-variant:normal;font-weight:bold;font-stretch:normal;font-size:2.53822923px;font-family:'URW Gothic L';-inkscape-font-specification:'URW Gothic L';fill:#d80027;fill-opacity:1;stroke-width:0.06798828px"
       id="path4660" /></g><path
     style="fill:none;fill-rule:evenodd;stroke:none;stroke-width:0.06798828px;stroke-linecap:butt;stroke-linejoin:miter;stroke-opacity:1"
     d="M 3.4765429,32.536875 C 11.475413,25.627191 6.3897701,9.7500952 11.098195,1.4262734"
     id="path4635"
     inkscape:connector-curvature="0" /><path
     style="fill:none;fill-rule:evenodd;stroke:#000000;stroke-width:0.06798828px;stroke-linecap:butt;stroke-linejoin:miter;stroke-opacity:1;opacity:0"
     d="M 19.967836,2.9862607 C 30.531178,4.0559662 26.564353,16.045581 26.564353,16.045581"
     id="path4517"
     inkscape:connector-curvature="0" /><g
     aria-label="Near Ghent"
     style="font-style:normal;font-variant:normal;font-weight:normal;font-stretch:normal;font-size:1.08781266px;line-height:125%;font-family:'URW Gothic L';-inkscape-font-specification:'URW Gothic L';letter-spacing:0px;word-spacing:0px;fill:#d80027;fill-opacity:1;stroke:none;stroke-width:0.06798828px;stroke-linecap:butt;stroke-linejoin:miter;stroke-opacity:1"
     id="text4521"><path
       d="M 20.143853,2.9791987 20.486117,3.0406528 20.727,1.6990776 21.258085,3.179261 21.640322,3.2478922 21.971815,1.4016649 21.629551,1.3402108 21.38822,2.6842843 20.865078,1.2029483 20.475347,1.1329713 Z"
       style="font-style:normal;font-variant:normal;font-weight:600;font-stretch:normal;font-size:2.53822923px;font-family:'URW Gothic L';-inkscape-font-specification:'URW Gothic L Semi-Bold';fill:#d80027;fill-opacity:1;stroke-width:0.06798828px"
       id="path4566" /><path
       d="m 23.455325,3.2930213 c 0.02624,-0.041717 0.03918,-0.069407 0.05678,-0.1170246 0.151333,-0.4095077 -0.02589,-0.8159566 -0.418733,-0.9611302 -0.38808,-0.143414 -0.80871,0.050217 -0.952124,0.4382974 -0.142534,0.3856991 0.0585,0.8009464 0.460863,0.9496394 0.216658,0.080065 0.414734,0.063966 0.611773,-0.044521 0.07287,-0.043426 0.126442,-0.085868 0.172506,-0.1446132 L 23.041161,3.2860923 c -0.116143,0.06532 -0.207909,0.071998 -0.338856,0.023607 C 22.514217,3.2401916 22.413081,3.0891648 22.433936,2.9155699 Z M 22.527354,2.63349 c 0.112467,-0.1505643 0.275347,-0.1959064 0.463435,-0.1263991 0.19523,0.072147 0.289483,0.2125118 0.267489,0.3965101 z"
       style="font-style:normal;font-variant:normal;font-weight:600;font-stretch:normal;font-size:2.53822923px;font-family:'URW Gothic L';-inkscape-font-specification:'URW Gothic L Semi-Bold';fill:#d80027;fill-opacity:1;stroke-width:0.06798828px"
       id="path4568" /><path
       d="m 25.4386,3.4977507 -0.260544,-0.167357 -0.101512,0.1580352 c -0.01456,-0.1933741 -0.09635,-0.3243478 -0.267201,-0.4340901 -0.35024,-0.2249717 -0.770971,-0.1241616 -1.002801,0.2367565 -0.229087,0.3566469 -0.145206,0.7755539 0.200763,0.997782 0.166577,0.1069988 0.314059,0.1263128 0.509553,0.07088 l -0.09877,0.1537639 0.260545,0.167357 z M 24.671885,3.3340881 c 0.202883,0.130319 0.250708,0.3752283 0.112158,0.5909249 -0.05487,0.085424 -0.152142,0.161714 -0.241807,0.1885884 -0.101558,0.031301 -0.218082,0.010756 -0.326998,-0.059205 -0.207154,-0.1330626 -0.259702,-0.365922 -0.12664,-0.5730762 0.13855,-0.2156966 0.380404,-0.2775513 0.583287,-0.1472324 z"
       style="font-style:normal;font-variant:normal;font-weight:600;font-stretch:normal;font-size:2.53822923px;font-family:'URW Gothic L';-inkscape-font-specification:'URW Gothic L Semi-Bold';fill:#d80027;fill-opacity:1;stroke-width:0.06798828px"
       id="path4570" /><path
       d="m 24.853401,4.8690391 0.244742,0.2325178 0.538463,-0.5667715 c 0.150349,-0.1582544 0.297291,-0.1691997 0.448001,-0.03302 l 0.223776,-0.2355414 -0.0184,-0.017482 c -0.10489,-0.099651 -0.184387,-0.1191589 -0.337953,-0.086499 l 0.09441,-0.099369 -0.2245,-0.213287 z"
       style="font-style:normal;font-variant:normal;font-weight:600;font-stretch:normal;font-size:2.53822923px;font-family:'URW Gothic L';-inkscape-font-specification:'URW Gothic L Semi-Bold';fill:#d80027;fill-opacity:1;stroke-width:0.06798828px"
       id="path4572" /><path
       d="m 26.807762,6.3126218 0.357944,0.6893012 c -0.231504,0.00581 -0.43321,-0.1182465 -0.546676,-0.3367505 -0.169614,-0.3266297 -0.05392,-0.7041732 0.263698,-0.8691081 0.144168,-0.074864 0.333434,-0.095926 0.481679,-0.052785 0.156172,0.041884 0.290774,0.157891 0.373827,0.3178269 0.100598,0.1937252 0.107062,0.3934326 0.0167,0.5719172 l 0.18833,0.3626715 c 0.24345,-0.2637026 0.284152,-0.7195665 0.09582,-1.082238 -0.252667,-0.4865656 -0.835726,-0.6785806 -1.313281,-0.4305933 -0.486566,0.2526662 -0.660299,0.8433927 -0.394766,1.354737 0.129843,0.2500407 0.329991,0.4206717 0.584329,0.4973815 0.239479,0.070126 0.491171,0.048108 0.705169,-0.063018 l 0.04055,-0.021056 -0.564989,-1.0880146 z"
       style="font-style:normal;font-variant:normal;font-weight:600;font-stretch:normal;font-size:2.53822923px;font-family:'URW Gothic L';-inkscape-font-specification:'URW Gothic L Semi-Bold';fill:#d80027;fill-opacity:1;stroke-width:0.06798828px"
       id="path4574" /><path
       d="m 26.828594,7.8989157 0.08262,0.3273188 0.691554,-0.1745529 c 0.135357,-0.034165 0.214755,-0.041117 0.284978,-0.022192 0.09548,0.02564 0.163979,0.099974 0.191311,0.2082595 0.04845,0.1919614 -0.04612,0.2943672 -0.331601,0.3664247 l -0.696475,0.1757953 0.08262,0.3273188 0.770307,-0.1944308 C 28.103247,8.8625414 28.207782,8.8099776 28.291913,8.7180609 28.409208,8.5915947 28.445745,8.4148311 28.396671,8.2204087 28.361264,8.0801292 28.294555,7.9817822 28.18111,7.9057031 L 28.729923,7.7671789 28.647305,7.43986 Z"
       style="font-style:normal;font-variant:normal;font-weight:600;font-stretch:normal;font-size:2.53822923px;font-family:'URW Gothic L';-inkscape-font-specification:'URW Gothic L Semi-Bold';fill:#d80027;fill-opacity:1;stroke-width:0.06798828px"
       id="path4576" /><path
       d="m 27.859285,10.71731 c 0.04897,0.0056 0.07953,0.0052 0.13007,4.73e-4 0.434644,-0.04102 0.724191,-0.376833 0.684842,-0.793788 -0.03887,-0.4119013 -0.395618,-0.7071212 -0.807519,-0.6682498 -0.409374,0.038633 -0.696536,0.3997181 -0.656234,0.8267818 0.0217,0.229957 0.122024,0.401504 0.305165,0.532092 0.07071,0.04687 0.13217,0.07676 0.205072,0.09283 l -0.03458,-0.366415 c -0.109188,-0.07638 -0.154963,-0.156193 -0.168079,-0.295178 -0.01884,-0.1996336 0.07346,-0.3562156 0.238956,-0.4126255 z m 0.1924,-1.122093 c 0.184425,0.036135 0.295856,0.1632928 0.314695,0.362926 0.01956,0.207214 -0.06612,0.352973 -0.241483,0.412863 z"
       style="font-style:normal;font-variant:normal;font-weight:600;font-stretch:normal;font-size:2.53822923px;font-family:'URW Gothic L';-inkscape-font-specification:'URW Gothic L Semi-Bold';fill:#d80027;fill-opacity:1;stroke-width:0.06798828px"
       id="path4578" /><path
       d="m 27.3053,11.003517 -0.009,0.337465 0.662244,0.01759 c 0.187763,0.005 0.268621,0.01983 0.335983,0.06479 0.08232,0.05551 0.12563,0.145528 0.122799,0.252096 -0.0023,0.08627 -0.03463,0.156506 -0.0942,0.200628 -0.06211,0.04405 -0.166679,0.06159 -0.354442,0.0566 l -0.687618,-0.01826 -0.009,0.337465 0.753588,0.02002 c 0.251196,0.0067 0.373662,-0.01547 0.484789,-0.08869 0.134368,-0.08784 0.209457,-0.238193 0.214647,-0.433567 0.0042,-0.159852 -0.041,-0.272776 -0.156951,-0.400273 l 0.134479,0.0036 0.0083,-0.312092 z"
       style="font-style:normal;font-variant:normal;font-weight:600;font-stretch:normal;font-size:2.53822923px;font-family:'URW Gothic L';-inkscape-font-specification:'URW Gothic L Semi-Bold';fill:#d80027;fill-opacity:1;stroke-width:0.06798828px"
       id="path4580" /><path
       d="m 27.234406,12.575173 -0.03369,0.335899 1.093565,0.109693 -0.02027,0.202044 0.305592,0.03065 0.02027,-0.202045 0.467227,0.04687 0.03369,-0.335899 -0.467228,-0.04687 0.01647,-0.164161 -0.305593,-0.03065 -0.01647,0.164161 z"
       style="font-style:normal;font-variant:normal;font-weight:600;font-stretch:normal;font-size:2.53822923px;font-family:'URW Gothic L';-inkscape-font-specification:'URW Gothic L Semi-Bold';fill:#d80027;fill-opacity:1;stroke-width:0.06798828px"
       id="path4582" /></g></svg>