<?xml version="1.0" encoding="UTF-8" standalone="no"?>
<!-- Created with Inkscape (http://www.inkscape.org/) -->

<svg
   xmlns:dc="http://purl.org/dc/elements/1.1/"
   xmlns:cc="http://creativecommons.org/ns#"
   xmlns:rdf="http://www.w3.org/1999/02/22-rdf-syntax-ns#"
   xmlns:svg="http://www.w3.org/2000/svg"
   xmlns="http://www.w3.org/2000/svg"
   xmlns:sodipodi="http://sodipodi.sourceforge.net/DTD/sodipodi-0.dtd"
   xmlns:inkscape="http://www.inkscape.org/namespaces/inkscape"
   width="1024"
   height="512"
   viewBox="0 0 270.93333 135.46666"
   version="1.1"
   id="svg4604"
   inkscape:version="0.92.1 r15371"
   sodipodi:docname="oct2018-back-hover.svg">
  <defs
     id="defs4598" />
  <sodipodi:namedview
     id="base"
     pagecolor="#ffffff"
     bordercolor="#666666"
     borderopacity="1.0"
     inkscape:pageopacity="0.0"
     inkscape:pageshadow="2"
     inkscape:zoom="0.5"
     inkscape:cx="-842"
     inkscape:cy="207.14286"
     inkscape:document-units="mm"
     inkscape:current-layer="layer1"
     showgrid="false"
     inkscape:window-width="2880"
     inkscape:window-height="1708"
     inkscape:window-x="0"
     inkscape:window-y="55"
     inkscape:window-maximized="1"
     showguides="true"
     units="px" />
  <metadata
     id="metadata4601">
    <rdf:RDF>
      <cc:Work
         rdf:about="">
        <dc:format>image/svg+xml</dc:format>
        <dc:type
           rdf:resource="http://purl.org/dc/dcmitype/StillImage" />
        <dc:title></dc:title>
      </cc:Work>
    </rdf:RDF>
  </metadata>
  <g
     inkscape:label="Layer 1"
     inkscape:groupmode="layer"
     id="layer1"
     transform="translate(0,-161.53335)">
    <flowRoot
       xml:space="preserve"
       id="flowRoot5168"
       style="font-style:normal;font-variant:normal;font-weight:normal;font-stretch:normal;font-size:18px;line-height:125%;font-family:'URW Gothic L';-inkscape-font-specification:'URW Gothic L';letter-spacing:0px;word-spacing:0px;fill:#000000;fill-opacity:1;stroke:none;stroke-width:1px;stroke-linecap:butt;stroke-linejoin:miter;stroke-opacity:1"
       transform="matrix(0.26458333,0,0,0.26458333,0,-215)"><flowRegion
         id="flowRegion5170"><rect
           id="rect5172"
           width="865"
           height="205"
           x="350"
           y="-24.881836" /></flowRegion><flowPara
         id="flowPara5174" /></flowRoot>    <text
       xml:space="preserve"
       style="font-style:normal;font-variant:normal;font-weight:normal;font-stretch:normal;font-size:22.57777786px;line-height:125%;font-family:'URW Gothic L';-inkscape-font-specification:'URW Gothic L';letter-spacing:0px;word-spacing:0px;fill:#000000;fill-opacity:1;stroke:none;stroke-width:0.26458332px;stroke-linecap:butt;stroke-linejoin:miter;stroke-opacity:1"
       x="182.5625"
       y="-159.40623"
       id="text5178"><tspan
         sodipodi:role="line"
         id="tspan5176"
         x="182.5625"
         y="-138.43324"
         style="stroke-width:0.26458332px" /></text>
    <g
       aria-label="20 October 2018
Brusselsesteenweg 263, 9090 Melle
Practica: 18:30 - 20:00 - € 0
Milonga: 20:00 - 1:00 - € 6/€ 5
Wouter van der Venne"
       style="font-style:normal;font-variant:normal;font-weight:normal;font-stretch:normal;font-size:22.57777786px;line-height:100%;font-family:'URW Gothic L';-inkscape-font-specification:'URW Gothic L';letter-spacing:0px;word-spacing:0px;fill:#000000;fill-opacity:1;stroke:none;stroke-width:0.26458332px;stroke-linecap:butt;stroke-linejoin:miter;stroke-opacity:1"
       id="text5841">
      <path
         d="m 29.916956,200.77249 h 6.070601 v -1.5875 h -3.695701 l 1.9177,-1.7399 c 0.6858,-0.6223 0.9779,-0.9398 1.2573,-1.3716 0.368301,-0.5334 0.558801,-1.1684 0.558801,-1.8034 0,-1.7272 -1.320801,-3.048 -3.060701,-3.048 -1.0922,0 -2.0828,0.5207 -2.6162,1.3843 -0.3556,0.5588 -0.4953,1.1176 -0.4953,2.0193 h 1.6637 c 0,-1.1176 0.5842,-1.8542 1.4605,-1.8542 0.7747,0 1.3589,0.635 1.3589,1.4732 0,0.6096 -0.3175,1.1557 -1.0795,1.8796 l -3.3401,3.1623 z"
         style="font-weight:bold;font-size:12.70000172px;line-height:100%;fill:#d8d8d8;fill-opacity:0.94117647;stroke-width:0.26458332px"
         id="path20" />
      <path
         d="m 43.208103,194.35899 c 0,-1.905 -1.231901,-3.1369 -3.136901,-3.1369 -1.9304,0 -3.1496,1.2446 -3.1496,3.2258 v 3.1877 c 0,0.9017 0.1778,1.5367 0.5969,2.1082 0.5842,0.7747 1.4859,1.1938 2.6289,1.1938 1.0795,0 1.9177,-0.3937 2.463801,-1.1557 0.4191,-0.5842 0.5969,-1.2065 0.5969,-2.1463 z m -4.597401,0.0889 c 0,-1.0414 0.5588,-1.6764 1.4732,-1.6764 0.9144,0 1.4351,0.5969 1.4351,1.6764 v 3.175 c 0,0.5842 -0.0889,0.9525 -0.3048,1.2446 -0.2286,0.3302 -0.6477,0.5207 -1.1176,0.5207 -0.9652,0 -1.4859,-0.635 -1.4859,-1.8034 z"
         style="font-weight:bold;font-size:12.70000172px;line-height:100%;fill:#d8d8d8;fill-opacity:0.94117647;stroke-width:0.26458332px"
         id="path22" />
      <path
         d="m 52.54062,191.22209 c -2.794,0 -4.953001,2.1209 -4.953001,4.8641 0,2.7051 2.184401,4.8514 4.940301,4.8514 2.7305,0 4.838701,-2.1209 4.838701,-4.8641 0,-2.6797 -2.146301,-4.8514 -4.826001,-4.8514 z m -0.0254,1.6764 c 1.7399,0 3.0988,1.397 3.0988,3.2004 0,1.8034 -1.3208,3.1623 -3.0988,3.1623 -1.778,0 -3.175,-1.397 -3.175,-3.175 0,-1.8161 1.3716,-3.1877 3.175,-3.1877 z"
         style="font-weight:bold;font-size:12.70000172px;line-height:100%;fill:#d8d8d8;fill-opacity:0.94117647;stroke-width:0.26458332px"
         id="path24" />
      <path
         d="m 63.600338,198.46109 c -0.4191,0.6477 -0.901701,0.9271 -1.600201,0.9271 -1.1684,0 -2.0447,-0.9144 -2.0447,-2.1463 0,-1.2319 0.8382,-2.1209 2.0066,-2.1209 0.762,0 1.295401,0.3175 1.638301,0.9652 h 1.905 c -0.2413,-0.7112 -0.4699,-1.0795 -0.9525,-1.524 -0.6858,-0.635 -1.612901,-0.9906 -2.590801,-0.9906 -2.0828,0 -3.7084,1.6129 -3.7084,3.683 0,2.0447 1.6764,3.683 3.7592,3.683 1.638301,0 2.908301,-0.9017 3.492501,-2.4765 z"
         style="font-weight:bold;font-size:12.70000172px;line-height:100%;fill:#d8d8d8;fill-opacity:0.94117647;stroke-width:0.26458332px"
         id="path26" />
      <path
         d="m 66.948374,200.77249 h 1.6891 v -5.4991 h 1.016 v -1.5367 h -1.016 v -2.3495 h -1.6891 v 2.3495 h -0.8255 v 1.5367 h 0.8255 z"
         style="font-weight:bold;font-size:12.70000172px;line-height:100%;fill:#d8d8d8;fill-opacity:0.94117647;stroke-width:0.26458332px"
         id="path28" />
      <path
         d="m 73.930597,193.57159 c -2.0447,0 -3.7211,1.6637 -3.7211,3.683 0,2.032 1.6764,3.683 3.7338,3.683 2.044701,0 3.746501,-1.651 3.746501,-3.6322 0,-2.0955 -1.6383,-3.7338 -3.759201,-3.7338 z m 0.0127,1.5494 c 1.130301,0 2.044701,0.9652 2.044701,2.1336 0,1.1811 -0.9144,2.1336 -2.032001,2.1336 -1.143,0 -2.0447,-0.9525 -2.0447,-2.159 0,-1.1557 0.9271,-2.1082 2.032,-2.1082 z"
         style="font-weight:bold;font-size:12.70000172px;line-height:100%;fill:#d8d8d8;fill-opacity:0.94117647;stroke-width:0.26458332px"
         id="path30" />
      <path
         d="m 78.650238,200.77249 h 1.5494 v -0.9017 c 0.7239,0.7747 1.397,1.0668 2.4384,1.0668 1.0922,0 1.9558,-0.4064 2.6035,-1.2319 0.533401,-0.6858 0.825501,-1.5621 0.825501,-2.5019 0,-2.1209 -1.524001,-3.7211 -3.543301,-3.7211 -0.9144,0 -1.5367,0.254 -2.1844,0.9017 v -2.9972 h -1.6891 z m 3.6322,-5.7404 c 1.2065,0 2.0828,0.9271 2.0828,2.1844 0,1.2827 -0.8382,2.1717 -2.0447,2.1717 -1.2192,0 -2.0828,-0.9017 -2.0828,-2.1844 0,-1.27 0.8636,-2.1717 2.0447,-2.1717 z"
         style="font-weight:bold;font-size:12.70000172px;line-height:100%;fill:#d8d8d8;fill-opacity:0.94117647;stroke-width:0.26458332px"
         id="path32" />
      <path
         d="m 94.006522,198.00389 c 0.0508,-0.2413 0.0635,-0.3937 0.0635,-0.6477 0,-2.1844 -1.5367,-3.7846 -3.6322,-3.7846 -2.070101,0 -3.708401,1.6383 -3.708401,3.7084 0,2.0574 1.6637,3.6576 3.810001,3.6576 1.1557,0 2.0574,-0.4191 2.794,-1.27 0.2667,-0.3302 0.4445,-0.6223 0.5588,-0.9779 h -1.8415 c -0.4318,0.508 -0.8509,0.6985 -1.5494,0.6985 -1.0033,0 -1.739901,-0.5334 -1.943101,-1.3843 z m -5.499101,-1.4859 c 0.2667,-0.9017 0.952501,-1.397 1.955801,-1.397 1.0414,0 1.7272,0.4953 1.9431,1.397 z"
         style="font-weight:bold;font-size:12.70000172px;line-height:100%;fill:#d8d8d8;fill-opacity:0.94117647;stroke-width:0.26458332px"
         id="path34" />
      <path
         d="m 95.170162,200.77249 h 1.6891 v -3.9116 c 0,-1.0922 0.4953,-1.6383 1.5113,-1.6637 v -1.6256 h -0.127 c -0.7239,0 -1.0795,0.2032 -1.524,0.8509 v -0.6858 h -1.5494 z"
         style="font-weight:bold;font-size:12.70000172px;line-height:100%;fill:#d8d8d8;fill-opacity:0.94117647;stroke-width:0.26458332px"
         id="path36" />
      <path
         d="m 102.5947,200.77249 h 6.0706 v -1.5875 h -3.6957 l 1.9177,-1.7399 c 0.6858,-0.6223 0.9779,-0.9398 1.2573,-1.3716 0.3683,-0.5334 0.5588,-1.1684 0.5588,-1.8034 0,-1.7272 -1.3208,-3.048 -3.0607,-3.048 -1.0922,0 -2.0828,0.5207 -2.6162,1.3843 -0.3556,0.5588 -0.4953,1.1176 -0.4953,2.0193 h 1.6637 c 0,-1.1176 0.5842,-1.8542 1.4605,-1.8542 0.7747,0 1.3589,0.635 1.3589,1.4732 0,0.6096 -0.3175,1.1557 -1.0795,1.8796 l -3.3401,3.1623 z"
         style="font-weight:bold;font-size:12.70000172px;line-height:100%;fill:#d8d8d8;fill-opacity:0.94117647;stroke-width:0.26458332px"
         id="path38" />
      <path
         d="m 115.88585,194.35899 c 0,-1.905 -1.2319,-3.1369 -3.1369,-3.1369 -1.9304,0 -3.1496,1.2446 -3.1496,3.2258 v 3.1877 c 0,0.9017 0.1778,1.5367 0.5969,2.1082 0.5842,0.7747 1.4859,1.1938 2.6289,1.1938 1.0795,0 1.9177,-0.3937 2.4638,-1.1557 0.4191,-0.5842 0.5969,-1.2065 0.5969,-2.1463 z m -4.5974,0.0889 c 0,-1.0414 0.5588,-1.6764 1.4732,-1.6764 0.9144,0 1.4351,0.5969 1.4351,1.6764 v 3.175 c 0,0.5842 -0.0889,0.9525 -0.3048,1.2446 -0.2286,0.3302 -0.6477,0.5207 -1.1176,0.5207 -0.9652,0 -1.4859,-0.635 -1.4859,-1.8034 z"
         style="font-weight:bold;font-size:12.70000172px;line-height:100%;fill:#d8d8d8;fill-opacity:0.94117647;stroke-width:0.26458332px"
         id="path40" />
      <path
         d="m 119.46149,200.77249 h 1.6891 v -9.3853 h -2.8702 v 1.5875 h 1.1811 z"
         style="font-weight:bold;font-size:12.70000172px;line-height:100%;fill:#d8d8d8;fill-opacity:0.94117647;stroke-width:0.26458332px"
         id="path42" />
      <path
         d="m 125.19614,195.55279 c -0.4318,0.2413 -0.6223,0.3937 -0.8128,0.6477 -0.3429,0.4191 -0.5334,1.0287 -0.5334,1.6383 0,1.7526 1.3716,3.0988 3.1369,3.0988 1.778,0 3.1115,-1.3335 3.1115,-3.1115 0,-0.6604 -0.2159,-1.2827 -0.5715,-1.7018 -0.1905,-0.2159 -0.3683,-0.3429 -0.7493,-0.5715 0.5334,-0.4318 0.7874,-0.9906 0.7874,-1.778 0,-1.4605 -1.0922,-2.5527 -2.5654,-2.5527 -1.4351,0 -2.5781,1.143 -2.5781,2.5781 0,0.6858 0.1905,1.1303 0.7747,1.7526 z m 1.8161,-2.7813 c 0.5207,0 0.9398,0.4445 0.9398,1.016 0,0.5715 -0.4318,1.0287 -0.9525,1.0287 -0.5334,0 -0.9652,-0.4572 -0.9652,-1.016 0,-0.5842 0.4191,-1.0287 0.9779,-1.0287 z m -0.0127,3.6703 c 0.7747,0 1.4097,0.6604 1.4097,1.4732 0,0.8382 -0.6096,1.4732 -1.4097,1.4732 -0.8255,0 -1.4605,-0.6477 -1.4605,-1.4859 0,-0.8255 0.6477,-1.4605 1.4605,-1.4605 z"
         style="font-weight:bold;font-size:12.70000172px;line-height:100%;fill:#d8d8d8;fill-opacity:0.94117647;stroke-width:0.26458332px"
         id="path44" />
      <path
         d="m 30.285256,223.35027 h 2.5019 c 1.0414,0 1.8034,-0.1651 2.3749,-0.5207 0.774701,-0.4699 1.219201,-1.3081 1.219201,-2.2733 0,-0.5842 -0.1651,-1.1557 -0.4572,-1.5367 -0.266701,-0.3556 -0.533401,-0.5334 -1.143001,-0.7874 0.7493,-0.3937 1.041401,-0.889 1.041401,-1.7653 0,-0.8763 -0.393701,-1.6129 -1.066801,-2.0447 -0.5588,-0.3556 -1.143,-0.4572 -2.54,-0.4572 h -1.9304 z m 1.7399,-1.6637 v -2.4003 h 0.8255 c 1.2065,0 1.778,0.3937 1.778,1.2319 0,0.8128 -0.5207,1.1684 -1.7399,1.1684 z m 0,-4.1021 v -1.9177 h 0.7112 c 0.9017,0 1.3462,0.3048 1.3462,0.9525 0,0.6731 -0.4445,0.9652 -1.4986,0.9652 z"
         style="font-weight:bold;font-size:12.70000172px;line-height:100%;fill:#d8d8d8;fill-opacity:0.94117647;stroke-width:0.26458332px"
         id="path46" />
      <path
         d="m 37.474449,223.35027 h 1.6891 v -3.9116 c 0,-1.0922 0.4953,-1.6383 1.5113,-1.6637 v -1.6256 h -0.127 c -0.7239,0 -1.0795,0.2032 -1.524,0.8509 v -0.6858 h -1.5494 z"
         style="font-weight:bold;font-size:12.70000172px;line-height:100%;fill:#d8d8d8;fill-opacity:0.94117647;stroke-width:0.26458332px"
         id="path48" />
      <path
         d="m 47.803519,216.31447 h -1.6891 v 3.3147 c 0,0.9271 -0.0635,1.3843 -0.2667,1.6891 -0.2413,0.4064 -0.7112,0.6477 -1.282701,0.6477 -0.4318,0 -0.762,-0.1397 -0.9906,-0.4445 -0.2413,-0.3048 -0.3429,-0.8255 -0.3429,-1.7653 v -3.4417 h -1.6891 v 3.7719 c 0,1.1938 0.1397,1.8034 0.5334,2.3876 0.4699,0.6731 1.2319,1.0414 2.1463,1.0414 0.8509,0 1.384301,-0.2159 2.019301,-0.8382 v 0.6731 h 1.5621 z"
         style="font-weight:bold;font-size:12.70000172px;line-height:100%;fill:#d8d8d8;fill-opacity:0.94117647;stroke-width:0.26458332px"
         id="path50" />
      <path
         d="m 48.712959,221.11507 c 0.0762,0.6858 0.1905,1.0414 0.4699,1.4224 0.4572,0.6096 1.2573,0.9779 2.1082,0.9779 1.4097,0 2.5146,-1.0541 2.5146,-2.4003 0,-0.6096 -0.2286,-1.1176 -0.6604,-1.4605 -0.2667,-0.2286 -0.6858,-0.4064 -1.2954,-0.5969 -0.6858,-0.2159 -0.6858,-0.2159 -0.8509,-0.2921 -0.2286,-0.1016 -0.3429,-0.2667 -0.3429,-0.4699 0,-0.3429 0.2794,-0.5969 0.6477,-0.5969 0.3556,0 0.5842,0.1905 0.6604,0.5588 h 1.651 c -0.0254,-0.5969 -0.1651,-0.9525 -0.508,-1.3335 -0.4445,-0.4953 -1.1049,-0.7747 -1.8034,-0.7747 -1.3081,0 -2.3368,0.9398 -2.3368,2.1463 0,1.0287 0.5588,1.6129 1.9558,2.0828 0.6477,0.2159 0.6985,0.2413 0.8763,0.3556 0.2032,0.127 0.3175,0.3175 0.3175,0.5461 0,0.3937 -0.3302,0.6858 -0.762,0.6858 -0.4953,0 -0.7747,-0.254 -0.9398,-0.8509 z"
         style="font-weight:bold;font-size:12.70000172px;line-height:100%;fill:#d8d8d8;fill-opacity:0.94117647;stroke-width:0.26458332px"
         id="path52" />
      <path
         d="m 54.294013,221.11507 c 0.0762,0.6858 0.1905,1.0414 0.4699,1.4224 0.457201,0.6096 1.257301,0.9779 2.108201,0.9779 1.4097,0 2.5146,-1.0541 2.5146,-2.4003 0,-0.6096 -0.2286,-1.1176 -0.6604,-1.4605 -0.2667,-0.2286 -0.6858,-0.4064 -1.2954,-0.5969 -0.6858,-0.2159 -0.6858,-0.2159 -0.8509,-0.2921 -0.2286,-0.1016 -0.3429,-0.2667 -0.3429,-0.4699 0,-0.3429 0.2794,-0.5969 0.6477,-0.5969 0.3556,0 0.5842,0.1905 0.6604,0.5588 h 1.651 c -0.0254,-0.5969 -0.1651,-0.9525 -0.508,-1.3335 -0.4445,-0.4953 -1.1049,-0.7747 -1.8034,-0.7747 -1.3081,0 -2.336801,0.9398 -2.336801,2.1463 0,1.0287 0.558801,1.6129 1.955801,2.0828 0.6477,0.2159 0.6985,0.2413 0.8763,0.3556 0.2032,0.127 0.3175,0.3175 0.3175,0.5461 0,0.3937 -0.3302,0.6858 -0.762,0.6858 -0.4953,0 -0.7747,-0.254 -0.9398,-0.8509 z"
         style="font-weight:bold;font-size:12.70000172px;line-height:100%;fill:#d8d8d8;fill-opacity:0.94117647;stroke-width:0.26458332px"
         id="path54" />
      <path
         d="m 67.291871,220.58167 c 0.0508,-0.2413 0.0635,-0.3937 0.0635,-0.6477 0,-2.1844 -1.5367,-3.7846 -3.6322,-3.7846 -2.070101,0 -3.708401,1.6383 -3.708401,3.7084 0,2.0574 1.6637,3.6576 3.810001,3.6576 1.1557,0 2.0574,-0.4191 2.794,-1.27 0.2667,-0.3302 0.4445,-0.6223 0.5588,-0.9779 h -1.8415 c -0.4318,0.508 -0.8509,0.6985 -1.5494,0.6985 -1.003301,0 -1.739901,-0.5334 -1.943101,-1.3843 z m -5.499101,-1.4859 c 0.2667,-0.9017 0.9525,-1.397 1.955801,-1.397 1.0414,0 1.7272,0.4953 1.9431,1.397 z"
         style="font-weight:bold;font-size:12.70000172px;line-height:100%;fill:#d8d8d8;fill-opacity:0.94117647;stroke-width:0.26458332px"
         id="path56" />
      <path
         d="m 68.455509,223.35027 h 1.6891 v -9.3853 h -1.6891 z"
         style="font-weight:bold;font-size:12.70000172px;line-height:100%;fill:#d8d8d8;fill-opacity:0.94117647;stroke-width:0.26458332px"
         id="path58" />
      <path
         d="m 71.061984,221.11507 c 0.0762,0.6858 0.1905,1.0414 0.469901,1.4224 0.4572,0.6096 1.2573,0.9779 2.1082,0.9779 1.4097,0 2.5146,-1.0541 2.5146,-2.4003 0,-0.6096 -0.2286,-1.1176 -0.6604,-1.4605 -0.2667,-0.2286 -0.6858,-0.4064 -1.2954,-0.5969 -0.6858,-0.2159 -0.6858,-0.2159 -0.8509,-0.2921 -0.2286,-0.1016 -0.3429,-0.2667 -0.3429,-0.4699 0,-0.3429 0.2794,-0.5969 0.6477,-0.5969 0.3556,0 0.5842,0.1905 0.6604,0.5588 h 1.651 c -0.0254,-0.5969 -0.1651,-0.9525 -0.508,-1.3335 -0.4445,-0.4953 -1.1049,-0.7747 -1.8034,-0.7747 -1.3081,0 -2.336801,0.9398 -2.336801,2.1463 0,1.0287 0.558801,1.6129 1.955801,2.0828 0.6477,0.2159 0.6985,0.2413 0.8763,0.3556 0.2032,0.127 0.3175,0.3175 0.3175,0.5461 0,0.3937 -0.3302,0.6858 -0.762,0.6858 -0.4953,0 -0.7747,-0.254 -0.9398,-0.8509 z"
         style="font-weight:bold;font-size:12.70000172px;line-height:100%;fill:#d8d8d8;fill-opacity:0.94117647;stroke-width:0.26458332px"
         id="path60" />
      <path
         d="m 84.05984,220.58167 c 0.0508,-0.2413 0.0635,-0.3937 0.0635,-0.6477 0,-2.1844 -1.5367,-3.7846 -3.6322,-3.7846 -2.070101,0 -3.708401,1.6383 -3.708401,3.7084 0,2.0574 1.6637,3.6576 3.810001,3.6576 1.1557,0 2.0574,-0.4191 2.794,-1.27 0.2667,-0.3302 0.4445,-0.6223 0.5588,-0.9779 h -1.8415 c -0.4318,0.508 -0.8509,0.6985 -1.5494,0.6985 -1.0033,0 -1.739901,-0.5334 -1.943101,-1.3843 z m -5.499101,-1.4859 c 0.2667,-0.9017 0.952501,-1.397 1.955801,-1.397 1.0414,0 1.7272,0.4953 1.9431,1.397 z"
         style="font-weight:bold;font-size:12.70000172px;line-height:100%;fill:#d8d8d8;fill-opacity:0.94117647;stroke-width:0.26458332px"
         id="path62" />
      <path
         d="m 84.77898,221.11507 c 0.0762,0.6858 0.1905,1.0414 0.4699,1.4224 0.4572,0.6096 1.2573,0.9779 2.1082,0.9779 1.4097,0 2.5146,-1.0541 2.5146,-2.4003 0,-0.6096 -0.2286,-1.1176 -0.6604,-1.4605 -0.2667,-0.2286 -0.6858,-0.4064 -1.2954,-0.5969 -0.6858,-0.2159 -0.6858,-0.2159 -0.8509,-0.2921 -0.2286,-0.1016 -0.3429,-0.2667 -0.3429,-0.4699 0,-0.3429 0.2794,-0.5969 0.6477,-0.5969 0.3556,0 0.5842,0.1905 0.6604,0.5588 h 1.651 c -0.0254,-0.5969 -0.1651,-0.9525 -0.508,-1.3335 -0.4445,-0.4953 -1.1049,-0.7747 -1.8034,-0.7747 -1.3081,0 -2.3368,0.9398 -2.3368,2.1463 0,1.0287 0.5588,1.6129 1.9558,2.0828 0.6477,0.2159 0.6985,0.2413 0.8763,0.3556 0.2032,0.127 0.3175,0.3175 0.3175,0.5461 0,0.3937 -0.3302,0.6858 -0.762,0.6858 -0.4953,0 -0.7747,-0.254 -0.9398,-0.8509 z"
         style="font-weight:bold;font-size:12.70000172px;line-height:100%;fill:#d8d8d8;fill-opacity:0.94117647;stroke-width:0.26458332px"
         id="path64" />
      <path
         d="m 91.058534,223.35027 h 1.689101 v -5.4991 h 1.016 v -1.5367 h -1.016 v -2.3495 h -1.689101 v 2.3495 h -0.8255 v 1.5367 h 0.8255 z"
         style="font-weight:bold;font-size:12.70000172px;line-height:100%;fill:#d8d8d8;fill-opacity:0.94117647;stroke-width:0.26458332px"
         id="path66" />
      <path
         d="m 101.59675,220.58167 c 0.0508,-0.2413 0.0635,-0.3937 0.0635,-0.6477 0,-2.1844 -1.5367,-3.7846 -3.632196,-3.7846 -2.0701,0 -3.7084,1.6383 -3.7084,3.7084 0,2.0574 1.6637,3.6576 3.810001,3.6576 1.1557,0 2.057395,-0.4191 2.793995,-1.27 0.2667,-0.3302 0.4445,-0.6223 0.5588,-0.9779 h -1.841495 c -0.4318,0.508 -0.8509,0.6985 -1.5494,0.6985 -1.003301,0 -1.739901,-0.5334 -1.943101,-1.3843 z m -5.499096,-1.4859 c 0.2667,-0.9017 0.9525,-1.397 1.955801,-1.397 1.0414,0 1.7272,0.4953 1.9431,1.397 z"
         style="font-weight:bold;font-size:12.70000172px;line-height:100%;fill:#d8d8d8;fill-opacity:0.94117647;stroke-width:0.26458332px"
         id="path68" />
      <path
         d="m 109.7327,220.58167 c 0.0508,-0.2413 0.0635,-0.3937 0.0635,-0.6477 0,-2.1844 -1.5367,-3.7846 -3.6322,-3.7846 -2.07011,0 -3.70841,1.6383 -3.70841,3.7084 0,2.0574 1.6637,3.6576 3.81001,3.6576 1.1557,0 2.0574,-0.4191 2.794,-1.27 0.2667,-0.3302 0.4445,-0.6223 0.5588,-0.9779 h -1.8415 c -0.4318,0.508 -0.8509,0.6985 -1.5494,0.6985 -1.00331,0 -1.73991,-0.5334 -1.94311,-1.3843 z m -5.49911,-1.4859 c 0.2667,-0.9017 0.9525,-1.397 1.95581,-1.397 1.0414,0 1.7272,0.4953 1.9431,1.397 z"
         style="font-weight:bold;font-size:12.70000172px;line-height:100%;fill:#d8d8d8;fill-opacity:0.94117647;stroke-width:0.26458332px"
         id="path70" />
      <path
         d="m 110.89634,223.35027 h 1.6891 v -3.3147 c 0,-0.9398 0.0635,-1.3462 0.2794,-1.6891 0.2667,-0.4191 0.7112,-0.6477 1.2446,-0.6477 0.4318,0 0.7874,0.1524 1.016,0.4445 0.2286,0.3048 0.3302,0.8255 0.3302,1.7653 v 3.4417 h 1.6891 v -3.7719 c 0,-1.2573 -0.127,-1.8669 -0.508,-2.413 -0.4572,-0.6604 -1.2192,-1.016 -2.1971,-1.016 -0.8001,0 -1.3589,0.2413 -1.9812,0.8382 v -0.6731 h -1.5621 z"
         style="font-weight:bold;font-size:12.70000172px;line-height:100%;fill:#d8d8d8;fill-opacity:0.94117647;stroke-width:0.26458332px"
         id="path72" />
      <path
         d="m 120.46718,223.35027 h 1.0414 l 1.3589,-4.5593 1.3335,4.5593 h 1.0541 l 2.54,-7.0358 h -1.8034 l -1.2827,4.2926 -1.1557,-4.2926 h -1.3462 l -1.1811,4.2926 -1.2573,-4.2926 h -1.8161 z"
         style="font-weight:bold;font-size:12.70000172px;line-height:100%;fill:#d8d8d8;fill-opacity:0.94117647;stroke-width:0.26458332px"
         id="path74" />
      <path
         d="m 135.6536,220.58167 c 0.0508,-0.2413 0.0635,-0.3937 0.0635,-0.6477 0,-2.1844 -1.5367,-3.7846 -3.6322,-3.7846 -2.0701,0 -3.7084,1.6383 -3.7084,3.7084 0,2.0574 1.6637,3.6576 3.81,3.6576 1.1557,0 2.0574,-0.4191 2.794,-1.27 0.2667,-0.3302 0.4445,-0.6223 0.5588,-0.9779 h -1.8415 c -0.4318,0.508 -0.8509,0.6985 -1.5494,0.6985 -1.0033,0 -1.7399,-0.5334 -1.9431,-1.3843 z m -5.4991,-1.4859 c 0.2667,-0.9017 0.9525,-1.397 1.9558,-1.397 1.0414,0 1.7272,0.4953 1.9431,1.397 z"
         style="font-weight:bold;font-size:12.70000172px;line-height:100%;fill:#d8d8d8;fill-opacity:0.94117647;stroke-width:0.26458332px"
         id="path76" />
      <path
         d="m 142.27823,216.31447 v 0.889 c -0.5207,-0.7112 -1.2827,-1.0541 -2.2987,-1.0541 -1.9939,0 -3.4671,1.5494 -3.4671,3.6322 0,2.1717 1.4478,3.7338 3.4544,3.7338 0.9906,0 1.651,-0.3175 2.3114,-1.0922 -0.0635,1.5113 -0.7112,2.2479 -1.9685,2.2479 -0.7874,0 -1.27,-0.2032 -1.7653,-0.7493 h -1.9177 c 0.5715,1.4097 1.8923,2.2352 3.6195,2.2352 1.27,0 2.2733,-0.4445 2.9337,-1.2827 0.4953,-0.6477 0.7112,-1.5113 0.7112,-2.8575 v -5.7023 z m -2.1082,1.3843 c 1.2065,0 2.032,0.8763 2.032,2.159 0,1.27 -0.8001,2.1082 -2.0066,2.1082 -1.2065,0 -1.9812,-0.8255 -1.9812,-2.1082 0,-1.2954 0.7747,-2.159 1.9558,-2.159 z"
         style="font-weight:bold;font-size:12.70000172px;line-height:100%;fill:#d8d8d8;fill-opacity:0.94117647;stroke-width:0.26458332px"
         id="path78" />
      <path
         d="m 148.55779,223.35027 h 6.07061 v -1.5875 h -3.69571 l 1.9177,-1.7399 c 0.68581,-0.6223 0.97791,-0.9398 1.25731,-1.3716 0.3683,-0.5334 0.5588,-1.1684 0.5588,-1.8034 0,-1.7272 -1.32081,-3.048 -3.06071,-3.048 -1.0922,0 -2.0828,0.5207 -2.6162,1.3843 -0.3556,0.5588 -0.4953,1.1176 -0.4953,2.0193 h 1.6637 c 0,-1.1176 0.5842,-1.8542 1.4605,-1.8542 0.7747,0 1.3589,0.635 1.3589,1.4732 0,0.6096 -0.3175,1.1557 -1.0795,1.8796 l -3.3401,3.1623 z"
         style="font-weight:bold;font-size:12.70000172px;line-height:100%;fill:#d8d8d8;fill-opacity:0.94117647;stroke-width:0.26458332px"
         id="path80" />
      <path
         d="m 158.82634,213.96497 -2.4511,3.683 c -0.6731,1.016 -0.9271,1.7272 -0.9271,2.6289 0,1.8542 1.397,3.2385 3.2893,3.2385 1.8669,0 3.2131,-1.4097 3.2131,-3.3655 0,-1.7145 -1.0922,-2.9718 -2.5908,-2.9718 -0.2921,0 -0.4572,0.0254 -0.762,0.127 l 2.2479,-3.3401 z m -0.1143,4.6863 c 0.889,0 1.5494,0.6985 1.5494,1.6637 0,0.9779 -0.6223,1.651 -1.524,1.651 -0.9271,0 -1.6002,-0.6858 -1.6002,-1.651 0,-0.9906 0.635,-1.6637 1.5748,-1.6637 z"
         style="font-weight:bold;font-size:12.70000172px;line-height:100%;fill:#d8d8d8;fill-opacity:0.94117647;stroke-width:0.26458332px"
         id="path82" />
      <path
         d="m 165.06898,218.82907 h 0.2794 c 1.1176,0 1.8415,0.6223 1.8415,1.5748 0,0.9017 -0.6223,1.5621 -1.4732,1.5621 -0.8128,0 -1.4097,-0.5715 -1.524,-1.4605 h -1.7018 c 0.1016,1.7653 1.4351,3.0099 3.2385,3.0099 1.8161,0 3.1496,-1.3335 3.1496,-3.1496 0,-1.1811 -0.4953,-1.9939 -1.4605,-2.4257 0.5461,-0.3937 0.7874,-0.889 0.7874,-1.6129 0,-1.4478 -1.0795,-2.5273 -2.5273,-2.5273 -0.7366,0 -1.4097,0.2921 -1.8796,0.8001 -0.3937,0.4318 -0.5461,0.8382 -0.6096,1.6002 h 1.7145 c 0.0762,-0.5842 0.3302,-0.8509 0.7874,-0.8509 0.4826,0 0.8255,0.3683 0.8255,0.889 0,0.3937 -0.1905,0.6858 -0.5461,0.8382 -0.2159,0.0889 -0.4445,0.1143 -0.9017,0.127 z"
         style="font-weight:bold;font-size:12.70000172px;line-height:100%;fill:#d8d8d8;fill-opacity:0.94117647;stroke-width:0.26458332px"
         id="path84" />
      <path
         d="m 170.33374,223.35027 h 0.7366 c 0.0127,0.0762 0.0127,0.1651 0.0127,0.2159 0,0.4064 -0.2159,0.6096 -0.7493,0.7112 v 0.8509 c 0.381,0 0.5969,-0.0381 0.8763,-0.2032 0.5588,-0.3048 0.8128,-0.762 0.8128,-1.4859 v -1.7145 h -1.6891 z"
         style="font-weight:bold;font-size:12.70000172px;line-height:100%;fill:#d8d8d8;fill-opacity:0.94117647;stroke-width:0.26458332px"
         id="path86" />
      <path
         d="m 179.89167,223.35027 2.4511,-3.683 c 0.6731,-1.0033 0.9271,-1.7272 0.9271,-2.6162 0,-1.8669 -1.397,-3.2512 -3.2893,-3.2512 -1.8542,0 -3.1877,1.4097 -3.1877,3.3655 0,1.7018 1.1176,2.9972 2.5781,2.9972 0.2794,0 0.4572,-0.0381 0.762,-0.1524 l -2.2606,3.3401 z m 0.0889,-8.001 c 0.9271,0 1.6002,0.6858 1.6002,1.651 0,0.9779 -0.635,1.6637 -1.5621,1.6637 -0.889,0 -1.5367,-0.6985 -1.5367,-1.6637 0,-0.9652 0.6096,-1.651 1.4986,-1.651 z"
         style="font-weight:bold;font-size:12.70000172px;line-height:100%;fill:#d8d8d8;fill-opacity:0.94117647;stroke-width:0.26458332px"
         id="path88" />
      <path
         d="m 190.29993,216.93677 c 0,-1.905 -1.2319,-3.1369 -3.1369,-3.1369 -1.9304,0 -3.1496,1.2446 -3.1496,3.2258 v 3.1877 c 0,0.9017 0.1778,1.5367 0.5969,2.1082 0.5842,0.7747 1.4859,1.1938 2.6289,1.1938 1.0795,0 1.9177,-0.3937 2.4638,-1.1557 0.4191,-0.5842 0.5969,-1.2065 0.5969,-2.1463 z m -4.5974,0.0889 c 0,-1.0414 0.5588,-1.6764 1.4732,-1.6764 0.9144,0 1.4351,0.5969 1.4351,1.6764 v 3.175 c 0,0.5842 -0.0889,0.9525 -0.3048,1.2446 -0.2286,0.3302 -0.6477,0.5207 -1.1176,0.5207 -0.9652,0 -1.4859,-0.635 -1.4859,-1.8034 z"
         style="font-weight:bold;font-size:12.70000172px;line-height:100%;fill:#d8d8d8;fill-opacity:0.94117647;stroke-width:0.26458332px"
         id="path90" />
      <path
         d="m 194.12957,223.35027 2.4511,-3.683 c 0.6731,-1.0033 0.9271,-1.7272 0.9271,-2.6162 0,-1.8669 -1.397,-3.2512 -3.2893,-3.2512 -1.8542,0 -3.1877,1.4097 -3.1877,3.3655 0,1.7018 1.1176,2.9972 2.5781,2.9972 0.2794,0 0.4572,-0.0381 0.762,-0.1524 l -2.2606,3.3401 z m 0.0889,-8.001 c 0.9271,0 1.6002,0.6858 1.6002,1.651 0,0.9779 -0.635,1.6637 -1.5621,1.6637 -0.889,0 -1.5367,-0.6985 -1.5367,-1.6637 0,-0.9652 0.6096,-1.651 1.4986,-1.651 z"
         style="font-weight:bold;font-size:12.70000172px;line-height:100%;fill:#d8d8d8;fill-opacity:0.94117647;stroke-width:0.26458332px"
         id="path92" />
      <path
         d="m 204.53781,216.93677 c 0,-1.905 -1.2319,-3.1369 -3.1369,-3.1369 -1.9304,0 -3.1496,1.2446 -3.1496,3.2258 v 3.1877 c 0,0.9017 0.1778,1.5367 0.5969,2.1082 0.5842,0.7747 1.4859,1.1938 2.6289,1.1938 1.0795,0 1.9177,-0.3937 2.4638,-1.1557 0.4191,-0.5842 0.5969,-1.2065 0.5969,-2.1463 z m -4.5974,0.0889 c 0,-1.0414 0.5588,-1.6764 1.4732,-1.6764 0.9144,0 1.4351,0.5969 1.4351,1.6764 v 3.175 c 0,0.5842 -0.0889,0.9525 -0.3048,1.2446 -0.2286,0.3302 -0.6477,0.5207 -1.1176,0.5207 -0.9652,0 -1.4859,-0.635 -1.4859,-1.8034 z"
         style="font-weight:bold;font-size:12.70000172px;line-height:100%;fill:#d8d8d8;fill-opacity:0.94117647;stroke-width:0.26458332px"
         id="path94" />
      <path
         d="m 209.39993,223.35027 h 1.7399 v -7.0358 l 2.4511,7.0358 h 1.4224 l 2.4511,-7.0358 v 7.0358 h 1.7399 v -9.3853 h -2.3876 l -2.5019,7.112 -2.5273,-7.112 h -2.3876 z"
         style="font-weight:bold;font-size:12.70000172px;line-height:100%;fill:#d8d8d8;fill-opacity:0.94117647;stroke-width:0.26458332px"
         id="path96" />
      <path
         d="m 227.62939,220.58167 c 0.0508,-0.2413 0.0635,-0.3937 0.0635,-0.6477 0,-2.1844 -1.5367,-3.7846 -3.6322,-3.7846 -2.0701,0 -3.7084,1.6383 -3.7084,3.7084 0,2.0574 1.6637,3.6576 3.81,3.6576 1.1557,0 2.0574,-0.4191 2.794,-1.27 0.2667,-0.3302 0.4445,-0.6223 0.5588,-0.9779 h -1.8415 c -0.4318,0.508 -0.8509,0.6985 -1.5494,0.6985 -1.0033,0 -1.7399,-0.5334 -1.9431,-1.3843 z m -5.4991,-1.4859 c 0.2667,-0.9017 0.9525,-1.397 1.9558,-1.397 1.0414,0 1.7272,0.4953 1.9431,1.397 z"
         style="font-weight:bold;font-size:12.70000172px;line-height:100%;fill:#d8d8d8;fill-opacity:0.94117647;stroke-width:0.26458332px"
         id="path98" />
      <path
         d="m 228.79303,223.35027 h 1.6891 v -9.3853 h -1.6891 z"
         style="font-weight:bold;font-size:12.70000172px;line-height:100%;fill:#d8d8d8;fill-opacity:0.94117647;stroke-width:0.26458332px"
         id="path100" />
      <path
         d="m 231.84401,223.35027 h 1.6891 v -9.3853 h -1.6891 z"
         style="font-weight:bold;font-size:12.70000172px;line-height:100%;fill:#d8d8d8;fill-opacity:0.94117647;stroke-width:0.26458332px"
         id="path102" />
      <path
         d="m 241.86728,220.58167 c 0.0508,-0.2413 0.0635,-0.3937 0.0635,-0.6477 0,-2.1844 -1.5367,-3.7846 -3.6322,-3.7846 -2.0701,0 -3.7084,1.6383 -3.7084,3.7084 0,2.0574 1.6637,3.6576 3.81,3.6576 1.1557,0 2.0574,-0.4191 2.794,-1.27 0.2667,-0.3302 0.4445,-0.6223 0.5588,-0.9779 h -1.8415 c -0.4318,0.508 -0.8509,0.6985 -1.5494,0.6985 -1.0033,0 -1.7399,-0.5334 -1.9431,-1.3843 z m -5.4991,-1.4859 c 0.2667,-0.9017 0.9525,-1.397 1.9558,-1.397 1.0414,0 1.7272,0.4953 1.9431,1.397 z"
         style="font-weight:bold;font-size:12.70000172px;line-height:100%;fill:#d8d8d8;fill-opacity:0.94117647;stroke-width:0.26458332px"
         id="path104" />
      <path
         d="m 30.285256,245.92805 h 1.7399 v -3.5687 h 0.5588 c 1.3335,0 1.9431,-0.1016 2.4638,-0.4191 0.762001,-0.4699 1.231901,-1.4224 1.231901,-2.5019 0,-1.0795 -0.4572,-1.9685 -1.270001,-2.4638 -0.5334,-0.3175 -1.1557,-0.4318 -2.4003,-0.4318 h -2.3241 z m 1.7399,-5.2324 v -2.4892 h 0.5842 c 0.5715,0 0.8255,0.0254 1.1049,0.0889 0.508,0.1397 0.8128,0.5842 0.8128,1.1684 0,0.4572 -0.2032,0.8128 -0.5715,1.016 -0.2667,0.1397 -0.7493,0.2159 -1.4224,0.2159 z"
         style="font-weight:bold;font-size:12.70000172px;line-height:100%;fill:#d8d8d8;fill-opacity:0.94117647;stroke-width:0.26458332px"
         id="path106" />
      <path
         d="m 37.226402,245.92805 h 1.6891 v -3.9116 c 0,-1.0922 0.4953,-1.6383 1.5113,-1.6637 v -1.6256 h -0.127 c -0.7239,0 -1.0795,0.2032 -1.524,0.8509 v -0.6858 h -1.5494 z"
         style="font-weight:bold;font-size:12.70000172px;line-height:100%;fill:#d8d8d8;fill-opacity:0.94117647;stroke-width:0.26458332px"
         id="path108" />
      <path
         d="m 48.419072,238.89225 h -1.5494 v 0.9398 c -0.5842,-0.7747 -1.2827,-1.1049 -2.2987,-1.1049 -2.082801,0 -3.581401,1.5621 -3.581401,3.7084 0,2.1209 1.4859,3.6576 3.543301,3.6576 0.9906,0 1.6637,-0.3175 2.3368,-1.0795 v 0.9144 h 1.5494 z m -3.6703,1.3843 c 1.2065,0 2.0701,0.9017 2.0701,2.1844 0,0.508 -0.2032,1.0922 -0.508,1.4478 -0.3429,0.4064 -0.889,0.635 -1.5367,0.635 -1.231901,0 -2.082801,-0.8382 -2.082801,-2.0701 0,-1.2827 0.8509,-2.1971 2.057401,-2.1971 z"
         style="font-weight:bold;font-size:12.70000172px;line-height:100%;fill:#d8d8d8;fill-opacity:0.94117647;stroke-width:0.26458332px"
         id="path110" />
      <path
         d="m 54.720256,243.61665 c -0.4191,0.6477 -0.9017,0.9271 -1.6002,0.9271 -1.1684,0 -2.0447,-0.9144 -2.0447,-2.1463 0,-1.2319 0.8382,-2.1209 2.0066,-2.1209 0.762,0 1.2954,0.3175 1.6383,0.9652 h 1.905001 c -0.2413,-0.7112 -0.4699,-1.0795 -0.9525,-1.524 -0.685801,-0.635 -1.612901,-0.9906 -2.590801,-0.9906 -2.0828,0 -3.7084,1.6129 -3.7084,3.683 0,2.0447 1.6764,3.683 3.7592,3.683 1.6383,0 2.908301,-0.9017 3.492501,-2.4765 z"
         style="font-weight:bold;font-size:12.70000172px;line-height:100%;fill:#d8d8d8;fill-opacity:0.94117647;stroke-width:0.26458332px"
         id="path112" />
      <path
         d="m 58.068296,245.92805 h 1.689101 v -5.4991 h 1.016 v -1.5367 h -1.016 v -2.3495 h -1.689101 v 2.3495 h -0.8255 v 1.5367 h 0.8255 z"
         style="font-weight:bold;font-size:12.70000172px;line-height:100%;fill:#d8d8d8;fill-opacity:0.94117647;stroke-width:0.26458332px"
         id="path114" />
      <path
         d="m 61.634218,245.92805 h 1.6891 v -7.0358 h -1.6891 z m 0,-7.7978 h 1.6891 v -1.5875 h -1.6891 z"
         style="font-weight:bold;font-size:12.70000172px;line-height:100%;fill:#d8d8d8;fill-opacity:0.94117647;stroke-width:0.26458332px"
         id="path116" />
      <path
         d="m 69.727096,243.61665 c -0.4191,0.6477 -0.9017,0.9271 -1.6002,0.9271 -1.1684,0 -2.0447,-0.9144 -2.0447,-2.1463 0,-1.2319 0.8382,-2.1209 2.0066,-2.1209 0.762,0 1.2954,0.3175 1.6383,0.9652 h 1.905 c -0.2413,-0.7112 -0.4699,-1.0795 -0.9525,-1.524 -0.6858,-0.635 -1.6129,-0.9906 -2.5908,-0.9906 -2.0828,0 -3.708401,1.6129 -3.708401,3.683 0,2.0447 1.676401,3.683 3.759201,3.683 1.6383,0 2.9083,-0.9017 3.4925,-2.4765 z"
         style="font-weight:bold;font-size:12.70000172px;line-height:100%;fill:#d8d8d8;fill-opacity:0.94117647;stroke-width:0.26458332px"
         id="path118" />
      <path
         d="m 79.945833,238.89225 h -1.5494 v 0.9398 c -0.5842,-0.7747 -1.2827,-1.1049 -2.2987,-1.1049 -2.082801,0 -3.581401,1.5621 -3.581401,3.7084 0,2.1209 1.4859,3.6576 3.543301,3.6576 0.9906,0 1.6637,-0.3175 2.3368,-1.0795 v 0.9144 h 1.5494 z m -3.6703,1.3843 c 1.2065,0 2.0701,0.9017 2.0701,2.1844 0,0.508 -0.2032,1.0922 -0.508,1.4478 -0.3429,0.4064 -0.889,0.635 -1.5367,0.635 -1.2319,0 -2.082801,-0.8382 -2.082801,-2.0701 0,-1.2827 0.850901,-2.1971 2.057401,-2.1971 z"
         style="font-weight:bold;font-size:12.70000172px;line-height:100%;fill:#d8d8d8;fill-opacity:0.94117647;stroke-width:0.26458332px"
         id="path120" />
      <path
         d="m 81.43372,245.92805 h 1.6891 v -1.6256 h -1.6891 z m 0,-4.6863 h 1.6891 v -1.6891 h -1.6891 z"
         style="font-weight:bold;font-size:12.70000172px;line-height:100%;fill:#d8d8d8;fill-opacity:0.94117647;stroke-width:0.26458332px"
         id="path122" />
      <path
         d="m 90.737659,245.92805 h 1.6891 v -9.3853 h -2.8702 v 1.5875 h 1.1811 z"
         style="font-weight:bold;font-size:12.70000172px;line-height:100%;fill:#d8d8d8;fill-opacity:0.94117647;stroke-width:0.26458332px"
         id="path124" />
      <path
         d="m 96.472309,240.70835 c -0.4318,0.2413 -0.6223,0.3937 -0.8128,0.6477 -0.3429,0.4191 -0.5334,1.0287 -0.5334,1.6383 0,1.7526 1.3716,3.0988 3.1369,3.0988 1.778001,0 3.111501,-1.3335 3.111501,-3.1115 0,-0.6604 -0.2159,-1.2827 -0.5715,-1.7018 -0.1905,-0.2159 -0.3683,-0.3429 -0.7493,-0.5715 0.5334,-0.4318 0.7874,-0.9906 0.7874,-1.778 0,-1.4605 -1.092201,-2.5527 -2.565401,-2.5527 -1.4351,0 -2.5781,1.143 -2.5781,2.5781 0,0.6858 0.1905,1.1303 0.7747,1.7526 z m 1.8161,-2.7813 c 0.5207,0 0.9398,0.4445 0.9398,1.016 0,0.5715 -0.4318,1.0287 -0.9525,1.0287 -0.5334,0 -0.9652,-0.4572 -0.9652,-1.016 0,-0.5842 0.4191,-1.0287 0.9779,-1.0287 z m -0.0127,3.6703 c 0.7747,0 1.4097,0.6604 1.4097,1.4732 0,0.8382 -0.6096,1.4732 -1.4097,1.4732 -0.8255,0 -1.4605,-0.6477 -1.4605,-1.4859 0,-0.8255 0.6477,-1.4605 1.4605,-1.4605 z"
         style="font-weight:bold;font-size:12.70000172px;line-height:100%;fill:#d8d8d8;fill-opacity:0.94117647;stroke-width:0.26458332px"
         id="path126" />
      <path
         d="m 102.76575,245.92805 h 1.6891 v -1.6256 h -1.6891 z m 0,-4.6863 h 1.6891 v -1.6891 h -1.6891 z"
         style="font-weight:bold;font-size:12.70000172px;line-height:100%;fill:#d8d8d8;fill-opacity:0.94117647;stroke-width:0.26458332px"
         id="path128" />
      <path
         d="m 108.16702,241.40685 h 0.2794 c 1.1176,0 1.8415,0.6223 1.8415,1.5748 0,0.9017 -0.6223,1.5621 -1.4732,1.5621 -0.8128,0 -1.4097,-0.5715 -1.524,-1.4605 h -1.7018 c 0.1016,1.7653 1.4351,3.0099 3.2385,3.0099 1.8161,0 3.14961,-1.3335 3.14961,-3.1496 0,-1.1811 -0.49531,-1.9939 -1.46051,-2.4257 0.5461,-0.3937 0.7874,-0.889 0.7874,-1.6129 0,-1.4478 -1.0795,-2.5273 -2.5273,-2.5273 -0.7366,0 -1.4097,0.2921 -1.8796,0.8001 -0.3937,0.4318 -0.5461,0.8382 -0.6096,1.6002 h 1.7145 c 0.0762,-0.5842 0.3302,-0.8509 0.7874,-0.8509 0.4826,0 0.8255,0.3683 0.8255,0.889 0,0.3937 -0.1905,0.6858 -0.5461,0.8382 -0.2159,0.0889 -0.4445,0.1143 -0.9017,0.127 z"
         style="font-weight:bold;font-size:12.70000172px;line-height:100%;fill:#d8d8d8;fill-opacity:0.94117647;stroke-width:0.26458332px"
         id="path130" />
      <path
         d="m 119.18487,239.51455 c 0,-1.905 -1.2319,-3.1369 -3.1369,-3.1369 -1.9304,0 -3.1496,1.2446 -3.1496,3.2258 v 3.1877 c 0,0.9017 0.1778,1.5367 0.5969,2.1082 0.5842,0.7747 1.4859,1.1938 2.6289,1.1938 1.0795,0 1.9177,-0.3937 2.4638,-1.1557 0.4191,-0.5842 0.5969,-1.2065 0.5969,-2.1463 z m -4.5974,0.0889 c 0,-1.0414 0.5588,-1.6764 1.4732,-1.6764 0.9144,0 1.4351,0.5969 1.4351,1.6764 v 3.175 c 0,0.5842 -0.0889,0.9525 -0.3048,1.2446 -0.2286,0.3302 -0.6477,0.5207 -1.1176,0.5207 -0.9652,0 -1.4859,-0.635 -1.4859,-1.8034 z"
         style="font-weight:bold;font-size:12.70000172px;line-height:100%;fill:#d8d8d8;fill-opacity:0.94117647;stroke-width:0.26458332px"
         id="path132" />
      <path
         d="m 124.12319,243.01975 h 3.5179 v -1.4986 h -3.5179 z"
         style="font-weight:bold;font-size:12.70000172px;line-height:100%;fill:#d8d8d8;fill-opacity:0.94117647;stroke-width:0.26458332px"
         id="path134" />
      <path
         d="m 132.55876,245.92805 h 6.0706 v -1.5875 h -3.6957 l 1.9177,-1.7399 c 0.6858,-0.6223 0.9779,-0.9398 1.2573,-1.3716 0.3683,-0.5334 0.5588,-1.1684 0.5588,-1.8034 0,-1.7272 -1.3208,-3.048 -3.0607,-3.048 -1.0922,0 -2.0828,0.5207 -2.6162,1.3843 -0.3556,0.5588 -0.4953,1.1176 -0.4953,2.0193 h 1.6637 c 0,-1.1176 0.5842,-1.8542 1.4605,-1.8542 0.7747,0 1.3589,0.635 1.3589,1.4732 0,0.6096 -0.3175,1.1557 -1.0795,1.8796 l -3.3401,3.1623 z"
         style="font-weight:bold;font-size:12.70000172px;line-height:100%;fill:#d8d8d8;fill-opacity:0.94117647;stroke-width:0.26458332px"
         id="path136" />
      <path
         d="m 145.84991,239.51455 c 0,-1.905 -1.2319,-3.1369 -3.1369,-3.1369 -1.9304,0 -3.1496,1.2446 -3.1496,3.2258 v 3.1877 c 0,0.9017 0.1778,1.5367 0.5969,2.1082 0.5842,0.7747 1.4859,1.1938 2.6289,1.1938 1.0795,0 1.9177,-0.3937 2.4638,-1.1557 0.4191,-0.5842 0.5969,-1.2065 0.5969,-2.1463 z m -4.5974,0.0889 c 0,-1.0414 0.5588,-1.6764 1.4732,-1.6764 0.9144,0 1.4351,0.5969 1.4351,1.6764 v 3.175 c 0,0.5842 -0.0889,0.9525 -0.3048,1.2446 -0.2286,0.3302 -0.6477,0.5207 -1.1176,0.5207 -0.9652,0 -1.4859,-0.635 -1.4859,-1.8034 z"
         style="font-weight:bold;font-size:12.70000172px;line-height:100%;fill:#d8d8d8;fill-opacity:0.94117647;stroke-width:0.26458332px"
         id="path138" />
      <path
         d="m 147.21576,245.92805 h 1.6891 v -1.6256 h -1.6891 z m 0,-4.6863 h 1.6891 v -1.6891 h -1.6891 z"
         style="font-weight:bold;font-size:12.70000172px;line-height:100%;fill:#d8d8d8;fill-opacity:0.94117647;stroke-width:0.26458332px"
         id="path140" />
      <path
         d="m 156.51593,239.51455 c 0,-1.905 -1.2319,-3.1369 -3.1369,-3.1369 -1.9304,0 -3.1496,1.2446 -3.1496,3.2258 v 3.1877 c 0,0.9017 0.1778,1.5367 0.5969,2.1082 0.5842,0.7747 1.4859,1.1938 2.6289,1.1938 1.0795,0 1.9177,-0.3937 2.4638,-1.1557 0.4191,-0.5842 0.5969,-1.2065 0.5969,-2.1463 z m -4.5974,0.0889 c 0,-1.0414 0.5588,-1.6764 1.4732,-1.6764 0.9144,0 1.4351,0.5969 1.4351,1.6764 v 3.175 c 0,0.5842 -0.0889,0.9525 -0.3048,1.2446 -0.2286,0.3302 -0.6477,0.5207 -1.1176,0.5207 -0.9652,0 -1.4859,-0.635 -1.4859,-1.8034 z"
         style="font-weight:bold;font-size:12.70000172px;line-height:100%;fill:#d8d8d8;fill-opacity:0.94117647;stroke-width:0.26458332px"
         id="path142" />
      <path
         d="m 163.63487,239.51455 c 0,-1.905 -1.2319,-3.1369 -3.1369,-3.1369 -1.9304,0 -3.1496,1.2446 -3.1496,3.2258 v 3.1877 c 0,0.9017 0.1778,1.5367 0.5969,2.1082 0.5842,0.7747 1.4859,1.1938 2.6289,1.1938 1.0795,0 1.9177,-0.3937 2.4638,-1.1557 0.4191,-0.5842 0.5969,-1.2065 0.5969,-2.1463 z m -4.5974,0.0889 c 0,-1.0414 0.5588,-1.6764 1.4732,-1.6764 0.9144,0 1.4351,0.5969 1.4351,1.6764 v 3.175 c 0,0.5842 -0.0889,0.9525 -0.3048,1.2446 -0.2286,0.3302 -0.6477,0.5207 -1.1176,0.5207 -0.9652,0 -1.4859,-0.635 -1.4859,-1.8034 z"
         style="font-weight:bold;font-size:12.70000172px;line-height:100%;fill:#d8d8d8;fill-opacity:0.94117647;stroke-width:0.26458332px"
         id="path144" />
      <path
         d="m 168.57319,243.01975 h 3.5179 v -1.4986 h -3.5179 z"
         style="font-weight:bold;font-size:12.70000172px;line-height:100%;fill:#d8d8d8;fill-opacity:0.94117647;stroke-width:0.26458332px"
         id="path146" />
      <path
         d="m 176.09437,240.93695 h 1.2065 c -0.0127,0.1397 -0.0127,0.2794 -0.0127,0.3302 v 0.2413 h -0.8763 l -0.3048,1.1176 h 1.2827 c 0.3429,1.5494 0.7874,2.3114 1.6637,2.8575 0.6096,0.3683 1.3716,0.5842 2.0955,0.5842 0.7493,0 1.2827,-0.1143 2.032,-0.4191 v -1.5621 c -0.9271,0.381 -1.397,0.508 -1.8542,0.508 -0.7366,0 -1.4478,-0.3556 -1.8288,-0.9271 -0.2159,-0.3048 -0.3302,-0.5842 -0.4445,-1.0414 h 2.9591 l 0.4318,-1.1176 h -3.4544 v -0.5715 h 3.6703 l 0.4191,-1.1176 h -4.0005 c 0.1905,-0.6858 0.3048,-0.9652 0.5588,-1.2827 0.3302,-0.4318 0.9906,-0.7239 1.6129,-0.7239 0.7366,0 1.4478,0.2159 2.3241,0.7366 l 0.4953,-1.3081 c -1.0541,-0.635 -1.7399,-0.8382 -2.7813,-0.8382 -1.4097,0 -2.4892,0.5334 -3.2004,1.5748 -0.3048,0.4572 -0.4699,0.9144 -0.6858,1.8415 h -1.0033 z"
         style="font-weight:bold;font-size:12.70000172px;line-height:100%;fill:#d8d8d8;fill-opacity:0.94117647;stroke-width:0.26458332px"
         id="path148" />
      <path
         d="m 193.84698,239.51455 c 0,-1.905 -1.2319,-3.1369 -3.1369,-3.1369 -1.9304,0 -3.1496,1.2446 -3.1496,3.2258 v 3.1877 c 0,0.9017 0.1778,1.5367 0.5969,2.1082 0.5842,0.7747 1.4859,1.1938 2.6289,1.1938 1.0795,0 1.9177,-0.3937 2.4638,-1.1557 0.4191,-0.5842 0.5969,-1.2065 0.5969,-2.1463 z m -4.5974,0.0889 c 0,-1.0414 0.5588,-1.6764 1.4732,-1.6764 0.9144,0 1.4351,0.5969 1.4351,1.6764 v 3.175 c 0,0.5842 -0.0889,0.9525 -0.3048,1.2446 -0.2286,0.3302 -0.6477,0.5207 -1.1176,0.5207 -0.9652,0 -1.4859,-0.635 -1.4859,-1.8034 z"
         style="font-weight:bold;font-size:12.70000172px;line-height:100%;fill:#d8d8d8;fill-opacity:0.94117647;stroke-width:0.26458332px"
         id="path150" />
      <path
         d="m 30.285256,268.50583 h 1.7399 v -7.03581 l 2.4511,7.03581 h 1.422401 l 2.4511,-7.03581 v 7.03581 h 1.7399 v -9.38531 h -2.3876 l -2.501901,7.112 -2.5273,-7.112 h -2.3876 z"
         style="font-weight:bold;font-size:12.70000172px;line-height:100%;fill:#d8d8d8;fill-opacity:0.94117647;stroke-width:0.26458332px"
         id="path152" />
      <path
         d="m 41.542418,268.50583 h 1.6891 v -7.03581 h -1.6891 z m 0,-7.79781 h 1.6891 v -1.5875 h -1.6891 z"
         style="font-weight:bold;font-size:12.70000172px;line-height:100%;fill:#d8d8d8;fill-opacity:0.94117647;stroke-width:0.26458332px"
         id="path154" />
      <path
         d="m 44.593395,268.50583 h 1.6891 v -9.38531 h -1.6891 z"
         style="font-weight:bold;font-size:12.70000172px;line-height:100%;fill:#d8d8d8;fill-opacity:0.94117647;stroke-width:0.26458332px"
         id="path156" />
      <path
         d="m 51.060673,261.30492 c -2.0447,0 -3.721101,1.6637 -3.721101,3.683 0,2.032 1.676401,3.68301 3.733801,3.68301 2.0447,0 3.7465,-1.65101 3.7465,-3.63221 0,-2.0955 -1.6383,-3.7338 -3.7592,-3.7338 z m 0.0127,1.5494 c 1.1303,0 2.0447,0.9652 2.0447,2.1336 0,1.1811 -0.9144,2.1336 -2.032,2.1336 -1.143,0 -2.0447,-0.9525 -2.0447,-2.159 0,-1.1557 0.9271,-2.1082 2.032,-2.1082 z"
         style="font-weight:bold;font-size:12.70000172px;line-height:100%;fill:#d8d8d8;fill-opacity:0.94117647;stroke-width:0.26458332px"
         id="path158" />
      <path
         d="m 55.780311,268.50583 h 1.6891 v -3.31471 c 0,-0.9398 0.0635,-1.3462 0.2794,-1.6891 0.2667,-0.4191 0.7112,-0.6477 1.244601,-0.6477 0.4318,0 0.7874,0.1524 1.016,0.4445 0.2286,0.3048 0.3302,0.8255 0.3302,1.7653 v 3.44171 h 1.6891 v -3.77191 c 0,-1.2573 -0.127,-1.8669 -0.508,-2.413 -0.4572,-0.6604 -1.2192,-1.016 -2.1971,-1.016 -0.800101,0 -1.358901,0.2413 -1.981201,0.8382 v -0.6731 h -1.5621 z"
         style="font-weight:bold;font-size:12.70000172px;line-height:100%;fill:#d8d8d8;fill-opacity:0.94117647;stroke-width:0.26458332px"
         id="path160" />
      <path
         d="m 68.856352,261.47002 v 0.889 c -0.5207,-0.7112 -1.2827,-1.0541 -2.298701,-1.0541 -1.9939,0 -3.4671,1.5494 -3.4671,3.6322 0,2.1717 1.4478,3.73381 3.4544,3.73381 0.990601,0 1.651001,-0.3175 2.311401,-1.09221 -0.0635,1.51131 -0.7112,2.24791 -1.968501,2.24791 -0.7874,0 -1.27,-0.2032 -1.7653,-0.7493 h -1.9177 c 0.5715,1.4097 1.8923,2.2352 3.6195,2.2352 1.270001,0 2.273301,-0.4445 2.933701,-1.2827 0.4953,-0.6477 0.7112,-1.5113 0.7112,-2.85751 v -5.7023 z m -2.108201,1.3843 c 1.206501,0 2.032001,0.8763 2.032001,2.159 0,1.27 -0.8001,2.1082 -2.006601,2.1082 -1.2065,0 -1.9812,-0.8255 -1.9812,-2.1082 0,-1.2954 0.7747,-2.159 1.9558,-2.159 z"
         style="font-weight:bold;font-size:12.70000172px;line-height:100%;fill:#d8d8d8;fill-opacity:0.94117647;stroke-width:0.26458332px"
         id="path162" />
      <path
         d="m 78.904039,261.47002 h -1.5494 v 0.9398 c -0.5842,-0.7747 -1.2827,-1.1049 -2.2987,-1.1049 -2.0828,0 -3.581401,1.5621 -3.581401,3.7084 0,2.1209 1.485901,3.65761 3.543301,3.65761 0.9906,0 1.6637,-0.3175 2.3368,-1.07951 v 0.91441 h 1.5494 z m -3.6703,1.3843 c 1.2065,0 2.0701,0.9017 2.0701,2.1844 0,0.508 -0.2032,1.0922 -0.508,1.4478 -0.3429,0.4064 -0.889,0.635 -1.5367,0.635 -1.2319,0 -2.0828,-0.8382 -2.0828,-2.0701 0,-1.2827 0.8509,-2.1971 2.0574,-2.1971 z"
         style="font-weight:bold;font-size:12.70000172px;line-height:100%;fill:#d8d8d8;fill-opacity:0.94117647;stroke-width:0.26458332px"
         id="path164" />
      <path
         d="m 80.391922,268.50583 h 1.6891 v -1.62561 h -1.6891 z m 0,-4.68631 h 1.6891 v -1.6891 h -1.6891 z"
         style="font-weight:bold;font-size:12.70000172px;line-height:100%;fill:#d8d8d8;fill-opacity:0.94117647;stroke-width:0.26458332px"
         id="path166" />
      <path
         d="m 87.066965,268.50583 h 6.070601 v -1.58751 h -3.695701 l 1.9177,-1.7399 c 0.685801,-0.6223 0.977901,-0.9398 1.257301,-1.3716 0.3683,-0.5334 0.5588,-1.1684 0.5588,-1.8034 0,-1.7272 -1.3208,-3.048 -3.060701,-3.048 -1.0922,0 -2.0828,0.5207 -2.6162,1.3843 -0.3556,0.5588 -0.4953,1.1176 -0.4953,2.0193 h 1.6637 c 0,-1.1176 0.5842,-1.8542 1.4605,-1.8542 0.7747,0 1.3589,0.635 1.3589,1.4732 0,0.6096 -0.3175,1.1557 -1.0795,1.8796 l -3.3401,3.1623 z"
         style="font-weight:bold;font-size:12.70000172px;line-height:100%;fill:#d8d8d8;fill-opacity:0.94117647;stroke-width:0.26458332px"
         id="path168" />
      <path
         d="m 100.35811,262.09232 c 0,-1.905 -1.231902,-3.1369 -3.136902,-3.1369 -1.930401,0 -3.149601,1.2446 -3.149601,3.2258 v 3.1877 c 0,0.9017 0.1778,1.5367 0.5969,2.1082 0.5842,0.77471 1.4859,1.19381 2.628901,1.19381 1.0795,0 1.9177,-0.3937 2.4638,-1.15571 0.419102,-0.5842 0.596902,-1.2065 0.596902,-2.1463 z m -4.597403,0.0889 c 0,-1.0414 0.5588,-1.6764 1.473201,-1.6764 0.9144,0 1.4351,0.5969 1.4351,1.6764 v 3.175 c 0,0.5842 -0.0889,0.9525 -0.3048,1.2446 -0.2286,0.3302 -0.6477,0.5207 -1.1176,0.5207 -0.965201,0 -1.485901,-0.635 -1.485901,-1.8034 z"
         style="font-weight:bold;font-size:12.70000172px;line-height:100%;fill:#d8d8d8;fill-opacity:0.94117647;stroke-width:0.26458332px"
         id="path170" />
      <path
         d="m 101.72396,268.50583 h 1.6891 v -1.62561 h -1.6891 z m 0,-4.68631 h 1.6891 v -1.6891 h -1.6891 z"
         style="font-weight:bold;font-size:12.70000172px;line-height:100%;fill:#d8d8d8;fill-opacity:0.94117647;stroke-width:0.26458332px"
         id="path172" />
      <path
         d="m 111.02412,262.09232 c 0,-1.905 -1.2319,-3.1369 -3.1369,-3.1369 -1.9304,0 -3.1496,1.2446 -3.1496,3.2258 v 3.1877 c 0,0.9017 0.1778,1.5367 0.5969,2.1082 0.5842,0.77471 1.4859,1.19381 2.6289,1.19381 1.0795,0 1.9177,-0.3937 2.4638,-1.15571 0.4191,-0.5842 0.5969,-1.2065 0.5969,-2.1463 z m -4.5974,0.0889 c 0,-1.0414 0.5588,-1.6764 1.4732,-1.6764 0.9144,0 1.4351,0.5969 1.4351,1.6764 v 3.175 c 0,0.5842 -0.0889,0.9525 -0.3048,1.2446 -0.2286,0.3302 -0.6477,0.5207 -1.1176,0.5207 -0.9652,0 -1.4859,-0.635 -1.4859,-1.8034 z"
         style="font-weight:bold;font-size:12.70000172px;line-height:100%;fill:#d8d8d8;fill-opacity:0.94117647;stroke-width:0.26458332px"
         id="path174" />
      <path
         d="m 118.14307,262.09232 c 0,-1.905 -1.2319,-3.1369 -3.1369,-3.1369 -1.9304,0 -3.1496,1.2446 -3.1496,3.2258 v 3.1877 c 0,0.9017 0.1778,1.5367 0.5969,2.1082 0.5842,0.77471 1.4859,1.19381 2.6289,1.19381 1.0795,0 1.9177,-0.3937 2.4638,-1.15571 0.4191,-0.5842 0.5969,-1.2065 0.5969,-2.1463 z m -4.5974,0.0889 c 0,-1.0414 0.5588,-1.6764 1.4732,-1.6764 0.9144,0 1.4351,0.5969 1.4351,1.6764 v 3.175 c 0,0.5842 -0.0889,0.9525 -0.3048,1.2446 -0.2286,0.3302 -0.6477,0.5207 -1.1176,0.5207 -0.9652,0 -1.4859,-0.635 -1.4859,-1.8034 z"
         style="font-weight:bold;font-size:12.70000172px;line-height:100%;fill:#d8d8d8;fill-opacity:0.94117647;stroke-width:0.26458332px"
         id="path176" />
      <path
         d="m 123.08139,265.59752 h 3.5179 v -1.4986 h -3.5179 z"
         style="font-weight:bold;font-size:12.70000172px;line-height:100%;fill:#d8d8d8;fill-opacity:0.94117647;stroke-width:0.26458332px"
         id="path178" />
      <path
         d="m 134.14587,268.50583 h 1.6891 v -9.38531 h -2.8702 v 1.5875 h 1.1811 z"
         style="font-weight:bold;font-size:12.70000172px;line-height:100%;fill:#d8d8d8;fill-opacity:0.94117647;stroke-width:0.26458332px"
         id="path180" />
      <path
         d="m 139.05501,268.50583 h 1.6891 v -1.62561 h -1.6891 z m 0,-4.68631 h 1.6891 v -1.6891 h -1.6891 z"
         style="font-weight:bold;font-size:12.70000172px;line-height:100%;fill:#d8d8d8;fill-opacity:0.94117647;stroke-width:0.26458332px"
         id="path182" />
      <path
         d="m 148.35519,262.09232 c 0,-1.905 -1.2319,-3.1369 -3.1369,-3.1369 -1.9304,0 -3.1496,1.2446 -3.1496,3.2258 v 3.1877 c 0,0.9017 0.1778,1.5367 0.5969,2.1082 0.5842,0.77471 1.4859,1.19381 2.6289,1.19381 1.0795,0 1.9177,-0.3937 2.4638,-1.15571 0.4191,-0.5842 0.5969,-1.2065 0.5969,-2.1463 z m -4.5974,0.0889 c 0,-1.0414 0.5588,-1.6764 1.4732,-1.6764 0.9144,0 1.4351,0.5969 1.4351,1.6764 v 3.175 c 0,0.5842 -0.0889,0.9525 -0.3048,1.2446 -0.2286,0.3302 -0.6477,0.5207 -1.1176,0.5207 -0.9652,0 -1.4859,-0.635 -1.4859,-1.8034 z"
         style="font-weight:bold;font-size:12.70000172px;line-height:100%;fill:#d8d8d8;fill-opacity:0.94117647;stroke-width:0.26458332px"
         id="path184" />
      <path
         d="m 155.47414,262.09232 c 0,-1.905 -1.2319,-3.1369 -3.1369,-3.1369 -1.9304,0 -3.14961,1.2446 -3.14961,3.2258 v 3.1877 c 0,0.9017 0.1778,1.5367 0.59691,2.1082 0.5842,0.77471 1.4859,1.19381 2.6289,1.19381 1.0795,0 1.9177,-0.3937 2.4638,-1.15571 0.4191,-0.5842 0.5969,-1.2065 0.5969,-2.1463 z m -4.5974,0.0889 c 0,-1.0414 0.5588,-1.6764 1.4732,-1.6764 0.9144,0 1.4351,0.5969 1.4351,1.6764 v 3.175 c 0,0.5842 -0.0889,0.9525 -0.3048,1.2446 -0.2286,0.3302 -0.6477,0.5207 -1.1176,0.5207 -0.9652,0 -1.4859,-0.635 -1.4859,-1.8034 z"
         style="font-weight:bold;font-size:12.70000172px;line-height:100%;fill:#d8d8d8;fill-opacity:0.94117647;stroke-width:0.26458332px"
         id="path186" />
      <path
         d="m 160.41245,265.59752 h 3.5179 v -1.4986 h -3.5179 z"
         style="font-weight:bold;font-size:12.70000172px;line-height:100%;fill:#d8d8d8;fill-opacity:0.94117647;stroke-width:0.26458332px"
         id="path188" />
      <path
         d="m 167.93363,263.51472 h 1.2065 c -0.0127,0.1397 -0.0127,0.2794 -0.0127,0.3302 v 0.2413 h -0.8763 l -0.3048,1.1176 h 1.2827 c 0.3429,1.5494 0.7874,2.3114 1.6637,2.8575 0.6096,0.36831 1.3716,0.58421 2.0955,0.58421 0.7493,0 1.2827,-0.1143 2.032,-0.4191 v -1.56211 c -0.9271,0.381 -1.397,0.508 -1.8542,0.508 -0.7366,0 -1.4478,-0.3556 -1.8288,-0.9271 -0.2159,-0.3048 -0.3302,-0.5842 -0.4445,-1.0414 h 2.9591 l 0.4318,-1.1176 h -3.4544 v -0.5715 h 3.6703 l 0.4191,-1.1176 h -4.0005 c 0.1905,-0.6858 0.3048,-0.9652 0.5588,-1.2827 0.3302,-0.4318 0.9906,-0.7239 1.6129,-0.7239 0.7366,0 1.4478,0.2159 2.3241,0.7366 l 0.4953,-1.3081 c -1.0541,-0.635 -1.7399,-0.8382 -2.7813,-0.8382 -1.4097,0 -2.4892,0.5334 -3.2004,1.5748 -0.3048,0.4572 -0.4699,0.9144 -0.6858,1.8415 h -1.0033 z"
         style="font-weight:bold;font-size:12.70000172px;line-height:100%;fill:#d8d8d8;fill-opacity:0.94117647;stroke-width:0.26458332px"
         id="path190" />
      <path
         d="m 182.66365,259.12052 -2.4511,3.683 c -0.6731,1.016 -0.9271,1.7272 -0.9271,2.6289 0,1.8542 1.397,3.23851 3.2893,3.23851 1.8669,0 3.2131,-1.40971 3.2131,-3.36551 0,-1.7145 -1.0922,-2.9718 -2.5908,-2.9718 -0.2921,0 -0.4572,0.0254 -0.762,0.127 l 2.2479,-3.3401 z m -0.1143,4.6863 c 0.889,0 1.5494,0.6985 1.5494,1.6637 0,0.9779 -0.6223,1.651 -1.524,1.651 -0.9271,0 -1.6002,-0.6858 -1.6002,-1.651 0,-0.9906 0.635,-1.6637 1.5748,-1.6637 z"
         style="font-weight:bold;font-size:12.70000172px;line-height:100%;fill:#d8d8d8;fill-opacity:0.94117647;stroke-width:0.26458332px"
         id="path192" />
      <path
         d="m 186.46789,270.13143 h 1.1938 l 4.1021,-11.01091 h -1.1938 z"
         style="font-weight:bold;font-size:12.70000172px;line-height:100%;fill:#d8d8d8;fill-opacity:0.94117647;stroke-width:0.26458332px"
         id="path194" />
      <path
         d="m 191.5725,263.51472 h 1.2065 c -0.0127,0.1397 -0.0127,0.2794 -0.0127,0.3302 v 0.2413 H 191.89 l -0.3048,1.1176 h 1.2827 c 0.3429,1.5494 0.7874,2.3114 1.6637,2.8575 0.6096,0.36831 1.3716,0.58421 2.0955,0.58421 0.7493,0 1.2827,-0.1143 2.032,-0.4191 v -1.56211 c -0.9271,0.381 -1.397,0.508 -1.8542,0.508 -0.7366,0 -1.4478,-0.3556 -1.8288,-0.9271 -0.2159,-0.3048 -0.3302,-0.5842 -0.4445,-1.0414 h 2.9591 l 0.4318,-1.1176 h -3.4544 v -0.5715 h 3.6703 l 0.4191,-1.1176 h -4.0005 c 0.1905,-0.6858 0.3048,-0.9652 0.5588,-1.2827 0.3302,-0.4318 0.9906,-0.7239 1.6129,-0.7239 0.7366,0 1.4478,0.2159 2.3241,0.7366 l 0.4953,-1.3081 c -1.0541,-0.635 -1.7399,-0.8382 -2.7813,-0.8382 -1.4097,0 -2.4892,0.5334 -3.2004,1.5748 -0.3048,0.4572 -0.4699,0.9144 -0.6858,1.8415 h -1.0033 z"
         style="font-weight:bold;font-size:12.70000172px;line-height:100%;fill:#d8d8d8;fill-opacity:0.94117647;stroke-width:0.26458332px"
         id="path196" />
      <path
         d="m 203.24182,264.02272 1.4986,0.4064 c 0.4191,-0.5207 0.7747,-0.7112 1.3081,-0.7112 0.8636,0 1.524,0.7239 1.524,1.6764 0,1.016 -0.635,1.7272 -1.5494,1.7272 -0.8128,0 -1.3589,-0.508 -1.524,-1.4224 h -1.6891 c 0.0381,0.7112 0.2413,1.2192 0.6858,1.7653 0.635,0.77471 1.5621,1.20651 2.5781,1.20651 1.8161,0 3.1877,-1.42241 3.1877,-3.30201 0,-1.8415 -1.2573,-3.2004 -2.9718,-3.2004 -0.4318,0 -0.7239,0.0635 -1.2065,0.2667 l 0.3048,-1.7272 h 2.9718 v -1.5875 h -4.2418 z"
         style="font-weight:bold;font-size:12.70000172px;line-height:100%;fill:#d8d8d8;fill-opacity:0.94117647;stroke-width:0.26458332px"
         id="path198" />
      <path
         d="m 32.266456,291.0836 h 1.3716 l 1.5494,-6.2103 1.511301,6.2103 h 1.3843 l 2.7432,-9.3853 h -1.778 l -1.6637,6.5532 -1.5748,-6.5532 h -1.270001 l -1.6002,6.5532 -1.651,-6.5532 h -1.778 z"
         style="font-weight:bold;font-size:12.70000172px;line-height:100%;fill:#d8d8d8;fill-opacity:0.94117647;stroke-width:0.26458332px"
         id="path200" />
      <path
         d="m 44.958718,283.8827 c -2.0447,0 -3.7211,1.6637 -3.7211,3.683 0,2.032 1.6764,3.683 3.7338,3.683 2.044701,0 3.746501,-1.651 3.746501,-3.6322 0,-2.0955 -1.6383,-3.7338 -3.759201,-3.7338 z m 0.0127,1.5494 c 1.130301,0 2.044701,0.9652 2.044701,2.1336 0,1.1811 -0.9144,2.1336 -2.032001,2.1336 -1.143,0 -2.0447,-0.9525 -2.0447,-2.159 0,-1.1557 0.9271,-2.1082 2.032,-2.1082 z"
         style="font-weight:bold;font-size:12.70000172px;line-height:100%;fill:#d8d8d8;fill-opacity:0.94117647;stroke-width:0.26458332px"
         id="path202" />
      <path
         d="m 55.939457,284.0478 h -1.689101 v 3.3147 c 0,0.9271 -0.0635,1.3843 -0.2667,1.6891 -0.2413,0.4064 -0.7112,0.6477 -1.2827,0.6477 -0.4318,0 -0.762,-0.1397 -0.9906,-0.4445 -0.2413,-0.3048 -0.3429,-0.8255 -0.3429,-1.7653 v -3.4417 h -1.6891 v 3.7719 c 0,1.1938 0.1397,1.8034 0.5334,2.3876 0.4699,0.6731 1.2319,1.0414 2.1463,1.0414 0.8509,0 1.3843,-0.2159 2.0193,-0.8382 v 0.6731 h 1.562101 z"
         style="font-weight:bold;font-size:12.70000172px;line-height:100%;fill:#d8d8d8;fill-opacity:0.94117647;stroke-width:0.26458332px"
         id="path204" />
      <path
         d="m 57.547397,291.0836 h 1.689101 v -5.4991 h 1.016 v -1.5367 h -1.016 v -2.3495 h -1.689101 v 2.3495 h -0.8255 v 1.5367 h 0.8255 z"
         style="font-weight:bold;font-size:12.70000172px;line-height:100%;fill:#d8d8d8;fill-opacity:0.94117647;stroke-width:0.26458332px"
         id="path206" />
      <path
         d="m 68.08562,288.315 c 0.0508,-0.2413 0.0635,-0.3937 0.0635,-0.6477 0,-2.1844 -1.5367,-3.7846 -3.632201,-3.7846 -2.0701,0 -3.7084,1.6383 -3.7084,3.7084 0,2.0574 1.6637,3.6576 3.81,3.6576 1.155701,0 2.057401,-0.4191 2.794001,-1.27 0.2667,-0.3302 0.4445,-0.6223 0.5588,-0.9779 h -1.8415 c -0.4318,0.508 -0.8509,0.6985 -1.549401,0.6985 -1.0033,0 -1.7399,-0.5334 -1.9431,-1.3843 z m -5.499101,-1.4859 c 0.2667,-0.9017 0.9525,-1.397 1.9558,-1.397 1.041401,0 1.727201,0.4953 1.943101,1.397 z"
         style="font-weight:bold;font-size:12.70000172px;line-height:100%;fill:#d8d8d8;fill-opacity:0.94117647;stroke-width:0.26458332px"
         id="path208" />
      <path
         d="m 69.249259,291.0836 h 1.689101 v -3.9116 c 0,-1.0922 0.4953,-1.6383 1.5113,-1.6637 v -1.6256 h -0.127 c -0.7239,0 -1.0795,0.2032 -1.524,0.8509 v -0.6858 h -1.549401 z"
         style="font-weight:bold;font-size:12.70000172px;line-height:100%;fill:#d8d8d8;fill-opacity:0.94117647;stroke-width:0.26458332px"
         id="path210" />
      <path
         d="m 79.0233,291.0836 h 1.3462 l 2.8321,-7.0358 h -1.905 l -1.6002,4.6609 -1.625601,-4.6609 h -1.8796 z"
         style="font-weight:bold;font-size:12.70000172px;line-height:100%;fill:#d8d8d8;fill-opacity:0.94117647;stroke-width:0.26458332px"
         id="path212" />
      <path
         d="m 91.107946,284.0478 h -1.5494 v 0.9398 c -0.5842,-0.7747 -1.2827,-1.1049 -2.2987,-1.1049 -2.0828,0 -3.581401,1.5621 -3.581401,3.7084 0,2.1209 1.485901,3.6576 3.543301,3.6576 0.9906,0 1.6637,-0.3175 2.3368,-1.0795 v 0.9144 h 1.5494 z m -3.6703,1.3843 c 1.2065,0 2.0701,0.9017 2.0701,2.1844 0,0.508 -0.2032,1.0922 -0.508,1.4478 -0.3429,0.4064 -0.889,0.635 -1.5367,0.635 -1.2319,0 -2.0828,-0.8382 -2.0828,-2.0701 0,-1.2827 0.8509,-2.1971 2.0574,-2.1971 z"
         style="font-weight:bold;font-size:12.70000172px;line-height:100%;fill:#d8d8d8;fill-opacity:0.94117647;stroke-width:0.26458332px"
         id="path214" />
      <path
         d="m 92.367229,291.0836 h 1.6891 v -3.3147 c 0,-0.9398 0.0635,-1.3462 0.2794,-1.6891 0.2667,-0.4191 0.7112,-0.6477 1.2446,-0.6477 0.4318,0 0.787401,0.1524 1.016001,0.4445 0.2286,0.3048 0.3302,0.8255 0.3302,1.7653 v 3.4417 h 1.6891 v -3.7719 c 0,-1.2573 -0.127,-1.8669 -0.508,-2.413 -0.4572,-0.6604 -1.2192,-1.016 -2.197101,-1.016 -0.8001,0 -1.3589,0.2413 -1.9812,0.8382 v -0.6731 h -1.5621 z"
         style="font-weight:bold;font-size:12.70000172px;line-height:100%;fill:#d8d8d8;fill-opacity:0.94117647;stroke-width:0.26458332px"
         id="path216" />
      <path
         d="m 110.62864,281.6983 h -1.6891 v 2.9718 c -0.4953,-0.5461 -1.3081,-0.8763 -2.1971,-0.8763 -1.9685,0 -3.5179,1.651 -3.5179,3.7592 0,2.0828 1.5367,3.6957 3.5306,3.6957 0.9525,0 1.651,-0.3175 2.3241,-1.0795 v 0.9144 h 1.5494 z m -3.6449,3.6449 c 1.1811,0 2.0828,0.9525 2.0828,2.1844 0,1.2192 -0.9017,2.1717 -2.0447,2.1717 -1.1811,0 -2.0955,-0.9779 -2.0955,-2.2225 0,-1.1938 0.9017,-2.1336 2.0574,-2.1336 z"
         style="font-weight:bold;font-size:12.70000172px;line-height:100%;fill:#d8d8d8;fill-opacity:0.94117647;stroke-width:0.26458332px"
         id="path218" />
      <path
         d="m 118.88563,288.315 c 0.0508,-0.2413 0.0635,-0.3937 0.0635,-0.6477 0,-2.1844 -1.5367,-3.7846 -3.6322,-3.7846 -2.0701,0 -3.7084,1.6383 -3.7084,3.7084 0,2.0574 1.6637,3.6576 3.81,3.6576 1.1557,0 2.0574,-0.4191 2.794,-1.27 0.2667,-0.3302 0.4445,-0.6223 0.5588,-0.9779 h -1.8415 c -0.4318,0.508 -0.8509,0.6985 -1.5494,0.6985 -1.0033,0 -1.7399,-0.5334 -1.9431,-1.3843 z m -5.4991,-1.4859 c 0.2667,-0.9017 0.9525,-1.397 1.9558,-1.397 1.0414,0 1.7272,0.4953 1.9431,1.397 z"
         style="font-weight:bold;font-size:12.70000172px;line-height:100%;fill:#d8d8d8;fill-opacity:0.94117647;stroke-width:0.26458332px"
         id="path220" />
      <path
         d="m 120.04927,291.0836 h 1.6891 v -3.9116 c 0,-1.0922 0.4953,-1.6383 1.5113,-1.6637 v -1.6256 h -0.127 c -0.7239,0 -1.0795,0.2032 -1.524,0.8509 v -0.6858 h -1.5494 z"
         style="font-weight:bold;font-size:12.70000172px;line-height:100%;fill:#d8d8d8;fill-opacity:0.94117647;stroke-width:0.26458332px"
         id="path222" />
      <path
         d="m 130.7377,291.0836 h 1.4224 l 3.6322,-9.3853 h -1.8288 l -2.5273,7.1374 -2.5273,-7.1374 h -1.8288 z"
         style="font-weight:bold;font-size:12.70000172px;line-height:100%;fill:#d8d8d8;fill-opacity:0.94117647;stroke-width:0.26458332px"
         id="path224" />
      <path
         d="m 143.51668,288.315 c 0.0508,-0.2413 0.0635,-0.3937 0.0635,-0.6477 0,-2.1844 -1.5367,-3.7846 -3.6322,-3.7846 -2.0701,0 -3.7084,1.6383 -3.7084,3.7084 0,2.0574 1.6637,3.6576 3.81,3.6576 1.1557,0 2.0574,-0.4191 2.794,-1.27 0.2667,-0.3302 0.4445,-0.6223 0.5588,-0.9779 h -1.8415 c -0.4318,0.508 -0.8509,0.6985 -1.5494,0.6985 -1.0033,0 -1.7399,-0.5334 -1.9431,-1.3843 z m -5.4991,-1.4859 c 0.2667,-0.9017 0.9525,-1.397 1.9558,-1.397 1.0414,0 1.7272,0.4953 1.9431,1.397 z"
         style="font-weight:bold;font-size:12.70000172px;line-height:100%;fill:#d8d8d8;fill-opacity:0.94117647;stroke-width:0.26458332px"
         id="path226" />
      <path
         d="m 144.68032,291.0836 h 1.6891 v -3.3147 c 0,-0.9398 0.0635,-1.3462 0.2794,-1.6891 0.2667,-0.4191 0.7112,-0.6477 1.2446,-0.6477 0.4318,0 0.7874,0.1524 1.016,0.4445 0.2286,0.3048 0.3302,0.8255 0.3302,1.7653 v 3.4417 h 1.6891 v -3.7719 c 0,-1.2573 -0.127,-1.8669 -0.508,-2.413 -0.4572,-0.6604 -1.2192,-1.016 -2.1971,-1.016 -0.8001,0 -1.3589,0.2413 -1.9812,0.8382 v -0.6731 h -1.5621 z"
         style="font-weight:bold;font-size:12.70000172px;line-height:100%;fill:#d8d8d8;fill-opacity:0.94117647;stroke-width:0.26458332px"
         id="path228" />
      <path
         d="m 152.29536,291.0836 h 1.6891 v -3.3147 c 0,-0.9398 0.0635,-1.3462 0.2794,-1.6891 0.2667,-0.4191 0.7112,-0.6477 1.2446,-0.6477 0.4318,0 0.7874,0.1524 1.016,0.4445 0.2286,0.3048 0.3302,0.8255 0.3302,1.7653 v 3.4417 h 1.6891 v -3.7719 c 0,-1.2573 -0.127,-1.8669 -0.508,-2.413 -0.4572,-0.6604 -1.2192,-1.016 -2.1971,-1.016 -0.8001,0 -1.3589,0.2413 -1.9812,0.8382 v -0.6731 h -1.5621 z"
         style="font-weight:bold;font-size:12.70000172px;line-height:100%;fill:#d8d8d8;fill-opacity:0.94117647;stroke-width:0.26458332px"
         id="path230" />
      <path
         d="m 166.8827,288.315 c 0.0508,-0.2413 0.0635,-0.3937 0.0635,-0.6477 0,-2.1844 -1.5367,-3.7846 -3.6322,-3.7846 -2.0701,0 -3.7084,1.6383 -3.7084,3.7084 0,2.0574 1.6637,3.6576 3.81,3.6576 1.1557,0 2.0574,-0.4191 2.794,-1.27 0.2667,-0.3302 0.4445,-0.6223 0.5588,-0.9779 h -1.8415 c -0.4318,0.508 -0.8509,0.6985 -1.5494,0.6985 -1.0033,0 -1.7399,-0.5334 -1.9431,-1.3843 z m -5.4991,-1.4859 c 0.2667,-0.9017 0.9525,-1.397 1.9558,-1.397 1.0414,0 1.7272,0.4953 1.9431,1.397 z"
         style="font-weight:bold;font-size:12.70000172px;line-height:100%;fill:#d8d8d8;fill-opacity:0.94117647;stroke-width:0.26458332px"
         id="path232" />
    </g>
    <path
       inkscape:connector-curvature="0"
       d="m 35.352555,167.28466 1.12182,1.12184 -4.43442,4.4344 h 9.6626 v 1.5875 h -9.6626 l 4.43442,4.43442 -1.12182,1.12184 -6.35,-6.35 z"
       id="path4"
       style="fill:#d8d8d8;fill-opacity:0.94117647;stroke-width:0.52916664" />
  </g>
</svg>
